<svg xmlns="http://www.w3.org/2000/svg" viewBox="0 0 532.63 182.37"><defs><style>.cls-1{fill:#2e3192;stroke:#fff;stroke-linejoin:round;stroke-width:3px;}.cls-2{fill:#fff;}</style></defs><g id="Layer_3" data-name="Layer 3"><polygon class="cls-1" points="476.9 1.5 476.65 3.11 476.65 1.75 325.3 1.75 283.59 1.75 249.03 1.75 198.98 1.75 55.97 1.75 1.5 56.22 55.72 110.44 55.97 108.83 55.97 110.2 198.98 110.2 249.03 110.2 266.91 110.2 266.91 135.22 239.05 135.22 277.63 180.87 317 135.22 288.36 135.22 288.36 110.2 325.3 110.2 476.65 110.2 531.13 55.72 476.9 1.5"/><path class="cls-2" d="M63.15,38.37c-.55-.34-1.38-1.28-1.38-1.72,0-.61,0-.89.94-.89,1.39,0,3.61.39,5.16.39.78,0,1.5-.11,2.22-.11.55,0,1,0,3,.11,1.11,0,2.55-.11,3.44-.17h5.21a1.94,1.94,0,0,1,.89.11c.28.17.67.22.67,1.22s-.22,1.67-.22,2.5c0,1.06.22,1.72.22,2.39A6.72,6.72,0,0,1,83,44.47c-.22.61-1,.72-1.94,1.39s-.61,1.16-1.5,1.55a10.47,10.47,0,0,0-1.67,1,17.27,17.27,0,0,1-.11-2.61c0-1.11.06-1.94.06-2.72-.11-1.28-.06-1.94-.45-2.05a2.28,2.28,0,0,0-.77-.06c-.72,0-1.78-.05-2.67-.05h-.61a9.61,9.61,0,0,0-2.38.22c-.17.11-.22.33-.22.72v2.88c0,.17-.06.28-.06.45A27.24,27.24,0,0,1,70.31,49a5.48,5.48,0,0,0-.11,1.28c0,.72.11,1.33.11,2.22s.06,2.11.06,3a5.09,5.09,0,0,1-.06,1.06c0,.11,0,.16.11.16A14,14,0,0,0,73,55.13c1.11-.67,2.61-.72,3.16-1.5a2,2,0,0,1,1.34-.94.39.39,0,0,1,.33.16c.22.28.22.83.22,1.72V58c0,.83-.11,1-.89,1.33a26.2,26.2,0,0,0-2.49,1.16c-1,.45-1.84,1.28-2.72,1.56s-.84,1.28-1.45,1.5-.66.5-.66,1.61c0,.33,0,.66,0,1.11l.23,5.1s0,1.67.94,1.78c1,0,2.22-.28,3-.28a1.27,1.27,0,0,1,.5.06,7.91,7.91,0,0,0,2.17.38,1.51,1.51,0,0,0,.78-.16c.44-.28.44-1,.44-1.89v-2.5a.74.74,0,0,1,.44-.77c.67-.28,1.61-1.5,2.5-2.06a15.26,15.26,0,0,1,2.39-1.33c.16,0,.55.28.55,1.22,0,1.11-.28,2.67-.28,3.72,0,.89.06,1.61.06,2.17,0,1,.11,2.1.11,3.71s-.11,2-.44,2.22c-.06.06-.11.06-.22.06-.45,0-1.39-.28-2.28-.28-.67,0-1.44.22-2,.22-1.17,0-2.72-.22-3.72-.22-1.67.11-2,.22-3.83.22-1.44,0-3.89-.16-5.66-.16-.45,0-.89,0-1.22,0-.89.06-1.45.11-1.89.11-.61,0-1,0-1-.22a1.46,1.46,0,0,1,.83-1.55,5.5,5.5,0,0,0,1.89-2.44,2.46,2.46,0,0,0,.33-1.11c0-.39-.11-.89-.11-2.45,0-2-.05-2.49-.05-3a6.1,6.1,0,0,1,.28-2.33,2.06,2.06,0,0,0,.22-1.06c0-.72-.17-1.55-.22-2.33a33.71,33.71,0,0,1-.23-3.72c0-1.5.23-2.72.23-4.55,0-1.44-.17-2.16-.17-3.38,0-.28,0-.61,0-1,.12-1.94.06-3,.17-4.77,0-1.17-.33-2.28-.39-3.5C64.21,38.81,63.71,38.7,63.15,38.37Z"/><path class="cls-2" d="M87.51,37.76c-.22-.67-1.05-1.06-1.05-1.5s0-.45,1.16-.45,1.56.23,2.22.23c1.23-.11,2.11-.17,3-.17.44,0,.78-.11,1.11-.11s.56.11.72.61c.34.94,1.11,2.72,1.72,4.16S97.72,43,97.72,44c0,.34,0,.56,0,.72a1.65,1.65,0,0,0,.72,1.5c.67.5,1.5,2.44,2.33,3.94s1.33,3.55,1.94,4.66,1.11,2.78,1.78,3.94,1.5,2.06,1.67,3.17.94,3.33,1.66,3.33c.33,0,.28-1.94.39-3.44s0-2.33.16-2.83c0-.67-.33-1.34-.38-3.28,0-1.72,0-2.33,0-3a9,9,0,0,0,0-1.11c-.23-1.5-.06-2.56-.28-4.28a10.18,10.18,0,0,1-.11-1.77c0-.84,0-1.56,0-2.33,0-1,.06-2,.06-3.28a2.62,2.62,0,0,0-1.11-2.16c-.94-.84-1.17-1.39-1.17-1.67s.06-.44,1-.44a17.27,17.27,0,0,1,2.49.16,6,6,0,0,0,1.11.06,14.11,14.11,0,0,0,1.67-.06c.78-.05,1.28-.05,1.94-.05.33,0,.78-.06,1.22-.06.61,0,1.11.06,1.11.34a4,4,0,0,1-1.44,2.05c-.44.22-.56.61-.67,1.33a25.15,25.15,0,0,0-.61,4.61c0,1.61.11,2.5.11,3.33,0,1.16-.05,2.27-.05,3.49,0,2.17-.06,3.28-.06,4.67s.06,3.16.06,4.88c0,1.39.16,2.5.16,3.33,0,.22-.05.39-.05.55-.06.61-.17,1.89-.17,3.17,0,.55,0,1.11.06,6.49,0,1.11.05,1.94.05,2.44s-.05.83-.5.89-.61.06-.83.06c-.78,0-1.11-.12-2.16-.17-.67,0-1.11.11-1.61.11-1-.06-1.33-1.22-1.72-1.94-1.83-3.78-3.28-5.83-3.55-6.83a8.09,8.09,0,0,0-1.06-2.72,4.61,4.61,0,0,1-1.11-2.22c-.44-1.33-2.38-4.22-2.5-4.88s-.61-1.11-.94-2-.94-1.33-1.39-2.5a32.93,32.93,0,0,0-1.16-3.38,4.4,4.4,0,0,0-.61,2.44v1.33c0,1.22,0,2.5.11,4.11,0,1.44.22,2.16.22,2.94a7.55,7.55,0,0,1-.17,1.5,11.58,11.58,0,0,0-.44,2.55A4.3,4.3,0,0,0,94,66.84a6.05,6.05,0,0,1,.16,1.44c0,.61,0,1.22,0,1.94v.34c0,1.33,0,3.38.44,4.1s1.72,2,1.72,2.39-.78.44-2,.44H90.62s-2.66-.16-3.27-.16c-.45,0-1.28-.12-1.28-.45a.5.5,0,0,1,.11-.22c.39-.5,1.89-1.44,2.11-1.94a14.51,14.51,0,0,0,.44-2.94,1.48,1.48,0,0,0,0-.5A11.24,11.24,0,0,1,88.51,69a10.2,10.2,0,0,1,.22-2.44A3.74,3.74,0,0,0,89,65.39a6.49,6.49,0,0,0-.17-1.16,12.52,12.52,0,0,1-.28-2.5,5,5,0,0,1,.06-.94c.11-1.22.11-3.55.11-5.39,0-1.27.22-1.77.22-2.94a14.94,14.94,0,0,0-.17-2,18.74,18.74,0,0,1-.22-2.39,12.25,12.25,0,0,1,.17-1.61c0-.67.17-1.78.17-2.83a11,11,0,0,0-.12-1.55A9.94,9.94,0,0,1,88.57,40C88.57,38.76,87.85,38.48,87.51,37.76Z"/><path class="cls-2" d="M118.26,35.48c.5,0,1.39.33,2.27.39a14.67,14.67,0,0,1,2,.06c.56,0,1.06,0,1.55,0h1.56a21.84,21.84,0,0,0,2.83-.17,6.31,6.31,0,0,1,1-.05c.83,0,1.83.11,3.33.22a9.51,9.51,0,0,0,1.33.06,19.46,19.46,0,0,0,3.33-.28,8,8,0,0,1,1.72-.33,1.7,1.7,0,0,1,.5,0,.43.43,0,0,1,.33.45,16.89,16.89,0,0,0-.39,3.1c0,.67.28,1.39.28,2.28s0,2.44-.66,2.44-3.78-2.88-4.06-3.11a2.33,2.33,0,0,0-1.05-.11,16.12,16.12,0,0,0-1.78.06c-.5,0-.66.61-.66,1.44a12.58,12.58,0,0,0,.11,1.44,6.77,6.77,0,0,1,0,1c0,1.17-.16,2.55-.16,3.78s-.17,2.27-.17,3.27a4.44,4.44,0,0,0,.06.89,14,14,0,0,1,.11,1.94v1.28a5.61,5.61,0,0,1-.28,2,1.72,1.72,0,0,0-.17.72,2.08,2.08,0,0,0,.34,1.06,1.45,1.45,0,0,1,.16.77c0,.72-.22,1.89-.33,3.78a17.46,17.46,0,0,0-.06,1.83c0,2.66.23,5.88.23,6.44,0,.83.66,1.61.66,2.33.22.55,1.17.88,1.61,1.44a1.72,1.72,0,0,1,.45.89c0,.22-.17.39-.45.44a11.14,11.14,0,0,1-1.55.06h-1.67c-.66,0-1.66.16-3.38.16-1.28-.11-2.72-.16-3.78-.16-.33,0-.44-.06-.44-.11s.61-.61,1-1.17c.55-.83,1.44-1.44,1.61-2.16a2,2,0,0,0,0-.56c0-.39,0-.89,0-1.5a7.82,7.82,0,0,1,0-1c.17-1.56.06-2.83.17-3.72a15.56,15.56,0,0,0,.17-1.66,4.6,4.6,0,0,0-.11-.89,19.76,19.76,0,0,1-.39-4.5,45.13,45.13,0,0,1,.33-6.16,3.39,3.39,0,0,0,.06-.83,15.53,15.53,0,0,0-.23-2.5c0-.55-.11-1.33-.11-2.16,0-1.5.11-3.33.17-4.77a14.61,14.61,0,0,0,.06-1.5c0-1-.17-1.28-.67-1.39a11.33,11.33,0,0,0-2.61-.17,2.36,2.36,0,0,0-2,1.45c-.28.38-1.33,1.38-1.61,1.88a.54.54,0,0,1-.5.28c-.39,0-.78-.33-.78-1.33,0-.83,0-2,0-2.78a9.16,9.16,0,0,1,.22-1.94,14.32,14.32,0,0,0,.11-2.44C117.87,35.54,118,35.48,118.26,35.48Z"/><path class="cls-2" d="M143.4,38.37c-.56-.34-1.39-1.28-1.39-1.72,0-.61.05-.89.94-.89,1.39,0,3.61.39,5.16.39.78,0,1.5-.11,2.22-.11.56,0,1.06,0,3,.11,1.11,0,2.55-.11,3.44-.17H162a1.89,1.89,0,0,1,.88.11c.28.17.67.22.67,1.22s-.22,1.67-.22,2.5c0,1.06.22,1.72.22,2.39a6.48,6.48,0,0,1-.28,2.27c-.22.61-1,.72-1.94,1.39s-.61,1.16-1.5,1.55a10.11,10.11,0,0,0-1.66,1,17.27,17.27,0,0,1-.11-2.61c0-1.11,0-1.94,0-2.72-.11-1.28,0-1.94-.44-2.05a2.35,2.35,0,0,0-.78-.06c-.72,0-1.77-.05-2.66-.05h-.61a9.65,9.65,0,0,0-2.39.22c-.17.11-.22.33-.22.72v2.88c0,.17-.06.28-.06.45a27.24,27.24,0,0,1-.39,3.88,5.48,5.48,0,0,0-.11,1.28c0,.72.11,1.33.11,2.22s.06,2.11.06,3a5.09,5.09,0,0,1-.06,1.06c0,.11,0,.16.12.16a14.38,14.38,0,0,0,2.6-1.66c1.11-.67,2.61-.72,3.17-1.5a2,2,0,0,1,1.33-.94.38.38,0,0,1,.33.16c.22.28.22.83.22,1.72V58c0,.83-.11,1-.88,1.33-1.11.39-1.5.72-2.5,1.16s-1.83,1.28-2.72,1.56-.83,1.28-1.44,1.5-.67.5-.67,1.61c0,.33.06.66.06,1.11l.22,5.1s.05,1.67.94,1.78c1.06,0,2.22-.28,3-.28a1.3,1.3,0,0,1,.5.06,7.76,7.76,0,0,0,2.16.38,1.51,1.51,0,0,0,.78-.16c.44-.28.44-1,.44-1.89v-2.5a.73.73,0,0,1,.45-.77c.66-.28,1.61-1.5,2.49-2.06a15.26,15.26,0,0,1,2.39-1.33c.17,0,.56.28.56,1.22,0,1.11-.28,2.67-.28,3.72,0,.89.05,1.61.05,2.17,0,1,.11,2.1.11,3.71s-.11,2-.44,2.22c0,.06-.11.06-.22.06-.45,0-1.39-.28-2.28-.28-.66,0-1.44.22-2,.22-1.17,0-2.72-.22-3.72-.22-1.66.11-2,.22-3.83.22-1.44,0-3.88-.16-5.66-.16-.44,0-.89,0-1.22,0-.89.06-1.44.11-1.89.11-.61,0-1,0-1-.22a1.44,1.44,0,0,1,.83-1.55,5.47,5.47,0,0,0,1.88-2.44,2.52,2.52,0,0,0,.34-1.11c0-.39-.11-.89-.11-2.45,0-2-.06-2.49-.06-3a6.31,6.31,0,0,1,.28-2.33,2.06,2.06,0,0,0,.22-1.06c0-.72-.17-1.55-.22-2.33a36.55,36.55,0,0,1-.22-3.72c0-1.5.22-2.72.22-4.55,0-1.44-.17-2.16-.17-3.38,0-.28.06-.61.06-1,.11-1.94.05-3,.16-4.77,0-1.17-.33-2.28-.38-3.5C144.45,38.81,144,38.7,143.4,38.37Z"/><path class="cls-2" d="M185.29,63.73a21.64,21.64,0,0,1,1.22,3.72A11.18,11.18,0,0,0,188,71.33c.66,1.11,1.11,2.83,1.88,3.83s1.5,1.67,1.5,2c0,.12,0,.17-.11.17a10,10,0,0,1-1.61.06c-1.05,0-2.38,0-3.38-.06h-2c-.61,0-1.38.11-1.94.11-.39,0-.66,0-.66-.22,0-.61.5-1.66.5-2.33,0-1.44-1.5-4.88-1.5-5.22a10.46,10.46,0,0,0-1-2.38,29.76,29.76,0,0,1-1.33-4.28,10.5,10.5,0,0,0-3.28,1.72c-.66.56-1,.73-1,1.67,0,.22.06.44.06.72.05.61.05,1.11.05,1.61,0,1-.05,1.94-.05,3.27a4.34,4.34,0,0,0,1.22,3.5,10.33,10.33,0,0,1,1.33,2c-1.83,0-3.61-.34-5.55-.34-.16,0-.39.06-.66.06-1.23.11-2.22.28-3,.28a2.15,2.15,0,0,1-.67-.06c-.16,0-.22-.11-.22-.22,0-.39.67-1,1.06-1.66a7.24,7.24,0,0,0,.94-3.72V71c0-1.33-.17-2-.17-4,0-1.44-.11-2.88-.11-4,0-.95.28-1.83.28-2.89,0-.83-.11-1.72-.17-2.83s.06-2.38.06-3.88c-.06-4.17-.17-5.83-.17-7.66V40.2a3,3,0,0,0-.61-1.67A8.31,8.31,0,0,1,166.31,36c0-.23.39-.28,1.06-.28h.72c.61,0,1.55-.06,2.44-.06a6.51,6.51,0,0,1,1.89.17,4.19,4.19,0,0,0,1.22.11c1.22,0,2.61-.22,3.22-.22.83,0,2.33.11,4,.28.28,0,.5.05.78.05,1.39,0,2.61-.33,3.61-.33,1.16,0,3.77,1.39,3.77,3.83,0,1.66,0,2.88,0,4,0,.56,0,1.11,0,1.67.11,1.11.22,2.11.22,2.94a3.45,3.45,0,0,1-.11,1.11,4,4,0,0,0-.16,1.17c0,.44,0,.83,0,1.22s.06,1.83.06,2.05a4.7,4.7,0,0,1-.89,2.83c-.67,1.17-4.22,3.33-4.22,3.66A34.24,34.24,0,0,1,185.29,63.73Zm-8-5.77c.78-.67,1.61-1.17,2.5-1.83s1.89-.84,2.5-1.67a7.39,7.39,0,0,0,.83-3.83c0-1.16-.11-2.94-.11-5.66,0-.94-.11-1-.11-2.16a2,2,0,0,0-2-2h-3c-.89.06-2.33.17-2.94.17s-.61,2.05-.61,3.38-.12,1.94-.12,3.33c0,.83-.11,1.5-.11,2.28a6.58,6.58,0,0,0,.23,1.72,6.82,6.82,0,0,1,.16,1.44c0,1-.22,1.94-.28,3.22-.05.78-.05,1.39-.05,1.83,0,.67.05,1,.28,1A6.49,6.49,0,0,0,177.3,58Z"/><path class="cls-2" d="M222.25,48.58c-.28,0-.5-.67-.5-1.56a3.91,3.91,0,0,1,.06-.83c.05-.5.11-1,.11-1.44,0-.94-.11-1.89-.11-2.94,0-1.22-.67-1.22-1.89-1.22s-2.55.11-4.27.11-1.56,1-1.78,2.22a1.67,1.67,0,0,0-.05.5c0,.77.27,1.44.27,2.27a2.73,2.73,0,0,1-.05.61c-.22,1.28-.22,2.94-.39,4.72,0,.28-.06.5-.06.72,0,1.11.34,1.5.34,2.94,0,1.17-.06,2.11-.06,3.06a9.94,9.94,0,0,0,.06,1.33,27,27,0,0,1-.28,3.49c0,.84.22,2.33.33,3.44.11,1.28.17,3,.17,4.67s.72,2.11,1.72,2.11c.72,0,1.83-.28,2.83-.28.44,0,.89.16,1.5.16.78,0,1.28-.5,1.94-.5.5,0,.5-1,.5-2.38a7.91,7.91,0,0,1,.06-1.22,13.38,13.38,0,0,0,.16-2.28c0-.94-.05-1.83-.11-2.44-.11-1.17-.17-2.11-.17-2.11s-.11-.11-.16-.11c-.56,0-2.06,1.67-2.67,1.67s-.55-1-.55-2.17V59.46a2.22,2.22,0,0,1,1.11-2c.72-.33,2.33-.88,3.11-1.27,1.44-.72,2.44-1.56,4.05-1.56,1,0,.78.78.78,1.67-.12,1.27-.23,3.55-.23,5s.34,1.33.34,2.22v2.72a19.6,19.6,0,0,1-.11,2.83,6,6,0,0,0-.12.89c0,.55.12,1.22.12,3.33,0,3.16-3.72,4-4.39,4.16-.89,0-1.89-.11-2.61-.11s-1.22.27-2.6.27-2.61,0-7.72,0a2.73,2.73,0,0,1-2.83-2.61,11.58,11.58,0,0,1-.28-1.89c0-.66.34-1.22.34-2s-.28-2-.28-3.33V66.67c0-1.33-.28-1.78-.28-3.66a15,15,0,0,1,.06-1.56c.22-3.66.22-5,.22-6.21s-.22-3.05-.33-4.16c0-.23-.06-.39-.06-.61,0-.95.5-1.78.5-2.95,0-.44-.06-1-.11-1.88a12.18,12.18,0,0,1-.06-1.61c0-1.33.06-3,.06-4.44,0-2.17,3.16-3.72,4.72-3.83s4.55-.11,5.05-.11,1.27.16,2.1.16c.23,0,.45-.05.61-.05.67-.06,1.34-.22,2.06-.22a5.77,5.77,0,0,1,1,.11,15.44,15.44,0,0,0,2.49.22c1.28,0,2,1.89,2,3.05,0,.39-.17.78-.17,1.45,0,.5.06,1.05.06,2.16,0,.78.16,1.66.16,2.44s-2,1.11-2.38,1.89-1.89.94-2.22,1.27A1.13,1.13,0,0,1,222.25,48.58Z"/><path class="cls-2" d="M233.07,37.81a3.57,3.57,0,0,1-1.22-1.27.56.56,0,0,1,0-.28c0-.22.22-.45,1-.45s1.78-.11,2.61-.11c1.11,0,2,.45,3,.45a1.1,1.1,0,0,0,.49-.06,5,5,0,0,1,1.78-.33c.78,0,1.28-.06,1.83-.06.34,0,.56.11.67.61.05.34-1.22,1.5-1.89,2.39s-.78,1.67-.78,3.94-.33,3.5-.33,4.33v1.22A4.39,4.39,0,0,1,240,50a1.14,1.14,0,0,0-.11.44c0,.56.44,1.11.5,1.89,0,.94.28,3.1.28,5.55s-.12,3.66-.12,5.27a42.21,42.21,0,0,1-.16,4.55c0,.22-.06.44-.06.72,0,1.17.22,2.33.22,3.94a3.06,3.06,0,0,0,.34,1.5,8.11,8.11,0,0,0,1.66,2.11,1.57,1.57,0,0,1,.78,1c0,.22-.17.39-.56.39-1.05,0-3.66.06-4.77.06h-2.83c-.55,0-1.39,0-2.72,0-.28,0-.5-.11-.5-.33a1.23,1.23,0,0,1,.28-.67c.5-.77,1.39-1.5,1.61-2.16a6.84,6.84,0,0,0,.44-2.39c0-1.83.28-4.16.34-5.16s-.06-1.66-.06-2.33c0-1.16.22-1.94.22-2.72a11.93,11.93,0,0,0,0-1.39v-.22c-.06-.55-.17-2.22-.17-4.22,0-.94.06-1.94.11-2.88a21.89,21.89,0,0,0,.11-2.39c0-.89,0-1.27-.11-2.16-.05-1.22-.39-1.94-.39-3.22,0-2.17.17-3,.17-4a16.7,16.7,0,0,0-.39-2.28C234.07,38.53,233.68,38.26,233.07,37.81Z"/><path class="cls-2" d="M245.73,35.48c.5,0,1.38.33,2.27.39a14.75,14.75,0,0,1,2,.06c.55,0,1.05,0,1.55,0h1.56a21.84,21.84,0,0,0,2.83-.17,6.31,6.31,0,0,1,1-.05c.83,0,1.83.11,3.33.22a9.36,9.36,0,0,0,1.33.06,19.46,19.46,0,0,0,3.33-.28,8,8,0,0,1,1.72-.33,1.73,1.73,0,0,1,.5,0,.43.43,0,0,1,.33.45,16.89,16.89,0,0,0-.39,3.1c0,.67.28,1.39.28,2.28s0,2.44-.67,2.44-3.77-2.88-4.05-3.11a2.33,2.33,0,0,0-1-.11,16.12,16.12,0,0,0-1.78.06c-.5,0-.67.61-.67,1.44a12.69,12.69,0,0,0,.12,1.44,6.77,6.77,0,0,1,.05,1c0,1.17-.17,2.55-.17,3.78s-.16,2.27-.16,3.27a5.32,5.32,0,0,0,.05.89,14,14,0,0,1,.11,1.94v1.28a5.63,5.63,0,0,1-.27,2,1.72,1.72,0,0,0-.17.72,2.16,2.16,0,0,0,.33,1.06,1.44,1.44,0,0,1,.17.77c0,.72-.22,1.89-.33,3.78a17.46,17.46,0,0,0-.06,1.83c0,2.66.22,5.88.22,6.44,0,.83.67,1.61.67,2.33.22.55,1.17.88,1.61,1.44a1.69,1.69,0,0,1,.44.89c0,.22-.16.39-.44.44a11.14,11.14,0,0,1-1.55.06H258.1c-.66,0-1.66.16-3.38.16-1.28-.11-2.72-.16-3.78-.16-.33,0-.44-.06-.44-.11s.61-.61,1-1.17c.55-.83,1.44-1.44,1.61-2.16a2,2,0,0,0,0-.56c0-.39,0-.89,0-1.5a7.82,7.82,0,0,1,0-1c.17-1.56.06-2.83.17-3.72,0-.55.16-1.11.16-1.66a3.94,3.94,0,0,0-.11-.89,20.63,20.63,0,0,1-.38-4.5,45.13,45.13,0,0,1,.33-6.16,4.05,4.05,0,0,0,0-.83,15.33,15.33,0,0,0-.22-2.5c0-.55-.11-1.33-.11-2.16,0-1.5.11-3.33.17-4.77.05-.62.05-1.11.05-1.5,0-1-.16-1.28-.66-1.39a11.39,11.39,0,0,0-2.61-.17A2.36,2.36,0,0,0,248,42.09,23.84,23.84,0,0,0,246.34,44a.54.54,0,0,1-.5.28c-.39,0-.78-.33-.78-1.33,0-.83-.06-2-.06-2.78a9.27,9.27,0,0,1,.23-1.94,14.32,14.32,0,0,0,.11-2.44C245.34,35.54,245.5,35.48,245.73,35.48Z"/><path class="cls-2" d="M301.5,63.73a22.55,22.55,0,0,1,1.22,3.72,11,11,0,0,0,1.44,3.88c.67,1.11,1.11,2.83,1.89,3.83s1.5,1.67,1.5,2c0,.12,0,.17-.12.17a10,10,0,0,1-1.61.06c-1.05,0-2.38,0-3.38-.06H300.5c-.61,0-1.39.11-1.94.11-.39,0-.67,0-.67-.22,0-.61.5-1.66.5-2.33,0-1.44-1.5-4.88-1.5-5.22a10.46,10.46,0,0,0-1-2.38,31.18,31.18,0,0,1-1.33-4.28,10.5,10.5,0,0,0-3.28,1.72c-.66.56-1,.73-1,1.67,0,.22,0,.44,0,.72a15.46,15.46,0,0,1,.06,1.61c0,1-.06,1.94-.06,3.27a4.37,4.37,0,0,0,1.22,3.5,10.33,10.33,0,0,1,1.33,2c-1.83,0-3.6-.34-5.54-.34-.17,0-.39.06-.67.06-1.22.11-2.22.28-3,.28a2.05,2.05,0,0,1-.66-.06c-.17,0-.23-.11-.23-.22,0-.39.67-1,1.06-1.66a7.24,7.24,0,0,0,.94-3.72V71c0-1.33-.16-2-.16-4,0-1.44-.12-2.88-.12-4,0-.95.28-1.83.28-2.89,0-.83-.11-1.72-.16-2.83s.05-2.38.05-3.88c-.05-4.17-.17-5.83-.17-7.66V40.2a3,3,0,0,0-.61-1.67A8.23,8.23,0,0,1,282.52,36c0-.23.38-.28,1.05-.28h.72c.61,0,1.56-.06,2.45-.06a6.48,6.48,0,0,1,1.88.17,4.19,4.19,0,0,0,1.22.11c1.22,0,2.61-.22,3.22-.22.83,0,2.33.11,4,.28.27,0,.5.05.77.05,1.39,0,2.61-.33,3.61-.33,1.17,0,3.77,1.39,3.77,3.83,0,1.66,0,2.88,0,4,0,.56,0,1.11,0,1.67.12,1.11.23,2.11.23,2.94a3.45,3.45,0,0,1-.11,1.11,3.68,3.68,0,0,0-.17,1.17c0,.44,0,.83,0,1.22s.06,1.83.06,2.05a4.7,4.7,0,0,1-.89,2.83c-.66,1.17-4.22,3.33-4.22,3.66A35.57,35.57,0,0,1,301.5,63.73Zm-8-5.77c.77-.67,1.6-1.17,2.49-1.83s1.89-.84,2.5-1.67a7.39,7.39,0,0,0,.83-3.83c0-1.16-.11-2.94-.11-5.66,0-.94-.11-1-.11-2.16a2,2,0,0,0-2-2h-3.05c-.89.06-2.33.17-2.94.17s-.61,2.05-.61,3.38-.11,1.94-.11,3.33c0,.83-.11,1.5-.11,2.28a6.54,6.54,0,0,0,.22,1.72,6.82,6.82,0,0,1,.16,1.44c0,1-.22,1.94-.27,3.22-.06.78-.06,1.39-.06,1.83,0,.67.06,1,.28,1A6.48,6.48,0,0,0,293.51,58Z"/><path class="cls-2" d="M310.93,38.37c-.56-.34-1.39-1.28-1.39-1.72,0-.61.06-.89.95-.89,1.38,0,3.6.39,5.16.39.77,0,1.5-.11,2.22-.11.55,0,1.05,0,3,.11,1.11,0,2.56-.11,3.44-.17h5.22a1.94,1.94,0,0,1,.89.11c.28.17.66.22.66,1.22s-.22,1.67-.22,2.5c0,1.06.22,1.72.22,2.39a6.75,6.75,0,0,1-.27,2.27c-.23.61-1.06.72-1.94,1.39s-.62,1.16-1.5,1.55a10.47,10.47,0,0,0-1.67,1,17.27,17.27,0,0,1-.11-2.61c0-1.11.06-1.94.06-2.72-.11-1.28-.06-1.94-.45-2.05a2.35,2.35,0,0,0-.78-.06c-.72,0-1.77-.05-2.66-.05h-.61a9.71,9.71,0,0,0-2.39.22c-.16.11-.22.33-.22.72v2.88c0,.17,0,.28,0,.45a27.24,27.24,0,0,1-.39,3.88A5.48,5.48,0,0,0,318,50.3c0,.72.11,1.33.11,2.22s.05,2.11.05,3a6.09,6.09,0,0,1-.05,1.06c0,.11,0,.16.11.16a14.37,14.37,0,0,0,2.61-1.66c1.11-.67,2.61-.72,3.16-1.5a2,2,0,0,1,1.33-.94.4.4,0,0,1,.34.16c.22.28.22.83.22,1.72V58c0,.83-.11,1-.89,1.33-1.11.39-1.5.72-2.5,1.16s-1.83,1.28-2.72,1.56-.83,1.28-1.44,1.5-.67.5-.67,1.61c0,.33.06.66.06,1.11l.22,5.1s.06,1.67.95,1.78c1.05,0,2.22-.28,3-.28a1.27,1.27,0,0,1,.5.06,7.84,7.84,0,0,0,2.17.38,1.45,1.45,0,0,0,.77-.16c.45-.28.45-1,.45-1.89v-2.5a.74.74,0,0,1,.44-.77c.67-.28,1.61-1.5,2.5-2.06a15.31,15.31,0,0,1,2.38-1.33c.17,0,.56.28.56,1.22,0,1.11-.28,2.67-.28,3.72,0,.89.06,1.61.06,2.17,0,1,.11,2.1.11,3.71s-.11,2-.45,2.22c-.05.06-.11.06-.22.06-.44,0-1.38-.28-2.27-.28-.67,0-1.45.22-2.06.22-1.16,0-2.72-.22-3.71-.22-1.67.11-2,.22-3.83.22-1.45,0-3.89-.16-5.66-.16-.45,0-.89,0-1.22,0-.89.06-1.45.11-1.89.11-.61,0-1,0-1-.22a1.44,1.44,0,0,1,.83-1.55,5.5,5.5,0,0,0,1.89-2.44,2.46,2.46,0,0,0,.33-1.11c0-.39-.11-.89-.11-2.45,0-2,0-2.49,0-3a6.35,6.35,0,0,1,.27-2.33,2,2,0,0,0,.22-1.06c0-.72-.16-1.55-.22-2.33a36.55,36.55,0,0,1-.22-3.72c0-1.5.22-2.72.22-4.55,0-1.44-.16-2.16-.16-3.38,0-.28.05-.61.05-1,.11-1.94.06-3,.17-4.77,0-1.17-.33-2.28-.39-3.5C312,38.81,311.49,38.7,310.93,38.37Z"/><path class="cls-2" d="M335.68,38.09c-1-1-1.44-1.55-1.44-1.78,0-.38.16-.55,1.5-.55s2.6.11,3.44.11c.33,0,.66-.11,1.38-.11,1.22,0,3.05.17,4.05.17,1.34,0,2.72,0,4.17-.06.88-.06,1.88-.11,2.83-.11a7.12,7.12,0,0,1,1.55.11c1.28.22,3.22.5,3.22,2.55,0,1.45.17,3.61.17,5.28,0,.94-.23,1.88-.23,2.94,0,.83.12,1.49.17,2.38s.06,1.67.06,3.44c0,1.22,0,2.78-.45,3.39s-1.39,2.55-3,3.22a13.36,13.36,0,0,0-2.89,1.72c-.56.33-1.28.16-2.11.89s-.5.77-1.83,1.61A30.37,30.37,0,0,0,343.61,65c-.61.5-1.27.27-1.27,1.94s.28,4.49.28,5.83,2.72,3.71,2.72,4.43c0,.28-.28.34-.67.34-.78,0-2-.11-2.89-.11-1.38,0-2.22.16-3.16.16-.67,0-.83.11-1.33.11s-1.17-.16-2.11-.16c-.56,0-.83-.06-1.05-.06s-.28,0-.28-.22c0-.39.5-.72,1.11-1.72a5.2,5.2,0,0,0,1.27-2.33,18.23,18.23,0,0,0,.28-2.66,4.74,4.74,0,0,0-.05-.84,20.71,20.71,0,0,1-.17-2.88,7.05,7.05,0,0,1,.22-2.28,1.92,1.92,0,0,0,.11-.66c0-.73-.22-1.84-.27-2.61a2.92,2.92,0,0,1-.06-.72c0-.73.11-1.56.11-2.5,0-.67-.11-1.33-.11-2.17,0-1.27.11-2.49.17-3.88,0-.56-.06-1-.06-1.55,0-.84.33-1.56.33-2.5a15.67,15.67,0,0,0-.16-1.61c-.06-4.27-.06-4.88-.06-5.38a15.94,15.94,0,0,1,.06-1.61C336.57,38.87,336.35,38.76,335.68,38.09Zm7.71,20.53a3.06,3.06,0,0,0,1.45-.61,18,18,0,0,1,2.38-1.55c.72-.33,1-.89,1.83-1.67a3.52,3.52,0,0,0,1.45-1.61,2.67,2.67,0,0,0,.16-1c0-.61-.11-1.34-.11-2.67s.17-2.44.17-3.94a37.53,37.53,0,0,0-.33-3.88c-.06-.56-1.39-.61-2.11-.61s-2.83.11-3.72.11-1.56.28-1.72.89a6.93,6.93,0,0,0-.11,1.33c0,.77,0,1.66,0,2.22a19.11,19.11,0,0,1-.16,3,6.64,6.64,0,0,0,.05,2.66,2.36,2.36,0,0,1,.06.67c0,1-.22,2.33-.34,3.44,0,.22-.05.44-.05.61a3.25,3.25,0,0,0,.5,2S343.12,58.62,343.39,58.62Z"/><path class="cls-2" d="M359.65,41.36c.22-2.77.84-4.16,2.11-4.82a8.06,8.06,0,0,1,3.61-.78c1.89,0,4.16.11,5,.11h2.22c.28,0,.61-.06.95-.06a13.48,13.48,0,0,1,1.55.12c.89.11,4.83.83,4.83,5.1,0,3.11.33,5.83.33,7.49a4,4,0,0,1-.16,1.34,6.36,6.36,0,0,0-.45,2.44c.06,1.33.22,2.61.22,3.72a11.31,11.31,0,0,1,.23,1.38c0,1.28.05,3.61.05,5.66,0,.34-.05.67-.05,1-.17,2.44-.28,5-.45,5.83a1,1,0,0,0-.05.39c0,.66.27,1.33.27,2.38,0,1.61-1.44,4.78-3.71,4.78-3.61-.06-4.06-.11-4.56-.11a4.85,4.85,0,0,0-1.16.16,3.51,3.51,0,0,1-.72.11c-2.06,0-3.44.11-5.83.11a8.67,8.67,0,0,1-1.5-.11c-.89-.22-2.83-1.16-2.83-4.71,0-2.61-.22-4.17-.22-5.17s.44-1.72.44-2.83c0-.55-.16-1.11-.16-1.94s.16-2.27.16-3.55c0-.33-.05-.67-.05-1a32.87,32.87,0,0,1-.28-3.61c0-1.44.33-4.49.33-5.38s-.44-1.55-.44-2.72S359.6,42.2,359.65,41.36Zm5.77,6.16c0,1.84.23,3.17.23,5a24.25,24.25,0,0,1-.23,2.56c0,.72.39,1.33.39,2.16a10.89,10.89,0,0,1-.44,2.22,2.54,2.54,0,0,0-.06.67c0,.94.39,1.88.45,4.83.05,1.66.05,3.1.05,4.27v1.44c0,1.44.89,1.28,1.83,1.67a3.11,3.11,0,0,0,1.22.22c.67,0,1.5-.17,2.45-.28,1.61-.22,1.94,0,2.22-.72s.22-2,.33-4.38.11-5.05.17-6.39S374,59,374,58.4c0-.72.44-1.33.44-2.16a3.67,3.67,0,0,0-.22-1.17,19.72,19.72,0,0,1-.33-4.33V49.3c0-1.39.06-3.11.06-4.44a14.39,14.39,0,0,0-.06-1.72,2.3,2.3,0,0,0-2.16-2c-.78,0-2.17.22-3,.28a13.05,13.05,0,0,1-1.5.06h-1c-.33.05-.72.88-.72,4C365.48,46.14,365.48,46.8,365.42,47.52Z"/><path class="cls-2" d="M397,35.81c.61,0,1.44.12,1.89.12s.66-.12,1.11-.12a4.22,4.22,0,0,1,1,.17,5.13,5.13,0,0,0,1.05.11c1.28,0,3.11-.28,3.89-.28s1.22.12,1.22.5a.94.94,0,0,1-.28.61,17.45,17.45,0,0,0-1.61,2.39,7.75,7.75,0,0,0-.22,2.44c0,.56,0,1.17.05,1.78,0,.28.06.66.06,1.11,0,1.72-.17,4.49-.17,6.27,0,.67.11,1.28.11,2,0,.89-.33,1.61-.33,2.55,0,.72.22,1.39.22,2.44v1.28c0,.61-.11.94-.11,1.27s.22.84.22,1.61V63a13.58,13.58,0,0,0,.06,1.5v4.32a19.42,19.42,0,0,0,.11,2.17c.22,1.39,1,1.72,2.11,1.78l.72.44c.61,0,.94-.5,1.66-.5.28,0,.67,0,1.56.06a2.49,2.49,0,0,0,2-.67c.44-.5.22-1.78.44-2.28a.65.65,0,0,0,.06-.33c0-.5-.23-1.28-.23-2.44,0-.22.06-.5.06-.78.05-.94.11-2,.11-3.05s-.06-1.94-.11-2.44l.05-1.67c0-.22.56-.44.56-.83,0-.55-.67-.94-.67-1.44a29.22,29.22,0,0,1,.34-4.28c.05-.5.11-.88.11-1.22a4.05,4.05,0,0,0-.39-1.77,4.23,4.23,0,0,1-.11-1.33V40.42a7.46,7.46,0,0,0-.39-2.16c-.22-.61-1-1.11-1.33-2,0-.06-.06-.17-.06-.22,0-.34.39-.39.78-.39a2.54,2.54,0,0,1,.72.11h4.61c.77,0,1.44-.11,2-.11a2.63,2.63,0,0,1,.95.16c.5.23.83.45.83.73a.45.45,0,0,1-.17.33c-.44.44-1.55,2.55-1.83,2.88a2.57,2.57,0,0,0-.33,1.45v.39c.05.55.17,1.38.17,2.11s-.23,1.38-.23,2.33a17.58,17.58,0,0,0,.17,2.1,6,6,0,0,1,.06,1.06c0,1.55-.23,3.55-.23,4.77,0,.67.17,1.28.17,2.11,0,.67-.06,1.44-.06,2.28,0,.5-.11,1.11-.16,2a19.08,19.08,0,0,0,.22,2.16,23.12,23.12,0,0,1,.17,2.56v8.6c0,2.88-3.89,3.83-5,3.83-3.55,0-4,0-4.33,0a18,18,0,0,1-1.94.17,3.87,3.87,0,0,1-.83-.06,14.79,14.79,0,0,0-2.5-.11h-2.55c-2.39,0-3.55-2.27-3.55-4.82,0-1.23-.17-4.61-.28-6.33,0-.33-.06-.83-.06-1.39,0-2.22.17-5.66.17-6.44,0-.55-.11-2-.11-3.38a10,10,0,0,1,.17-2.06,5.6,5.6,0,0,0,.16-1.22c0-.88-.33-1.72-.33-3.16s.11-3,.17-4.38v-.23c.05-1.11.11-2.1.11-2.88a12.78,12.78,0,0,0-.11-1.67,3.82,3.82,0,0,0-1.06-2.16c-.55-.5-1.33-1.11-1.33-1.5C396.39,35.81,396.67,35.81,397,35.81Z"/><path class="cls-2" d="M442.84,63.73a22.55,22.55,0,0,1,1.22,3.72,11.16,11.16,0,0,0,1.44,3.88c.67,1.11,1.11,2.83,1.89,3.83s1.5,1.67,1.5,2c0,.12,0,.17-.11.17a10.15,10.15,0,0,1-1.61.06c-1.06,0-2.39,0-3.39-.06h-1.94c-.61,0-1.39.11-1.94.11-.39,0-.67,0-.67-.22,0-.61.5-1.66.5-2.33,0-1.44-1.5-4.88-1.5-5.22a10.46,10.46,0,0,0-1-2.38,31.18,31.18,0,0,1-1.33-4.28,10.35,10.35,0,0,0-3.27,1.72c-.67.56-1,.73-1,1.67,0,.22.05.44.05.72a15.46,15.46,0,0,1,.06,1.61c0,1-.06,1.94-.06,3.27a4.37,4.37,0,0,0,1.22,3.5,10.64,10.64,0,0,1,1.34,2c-1.84,0-3.61-.34-5.55-.34-.17,0-.39.06-.67.06-1.22.11-2.22.28-3,.28a2.08,2.08,0,0,1-.66-.06c-.17,0-.22-.11-.22-.22,0-.39.66-1,1.05-1.66a7.24,7.24,0,0,0,.94-3.72V71c0-1.33-.16-2-.16-4,0-1.44-.11-2.88-.11-4,0-.95.27-1.83.27-2.89,0-.83-.11-1.72-.16-2.83s0-2.38,0-3.88c0-4.17-.16-5.83-.16-7.66V40.2a3,3,0,0,0-.61-1.67A8.31,8.31,0,0,1,423.86,36c0-.23.39-.28,1.05-.28h.72c.61,0,1.56-.06,2.45-.06a6.48,6.48,0,0,1,1.88.17,4.23,4.23,0,0,0,1.22.11c1.22,0,2.61-.22,3.22-.22.84,0,2.33.11,4,.28.28,0,.5.05.78.05,1.38,0,2.6-.33,3.6-.33,1.17,0,3.78,1.39,3.78,3.83,0,1.66-.06,2.88-.06,4a15.54,15.54,0,0,0,.06,1.67c.11,1.11.22,2.11.22,2.94a3.45,3.45,0,0,1-.11,1.11,4,4,0,0,0-.17,1.17c0,.44.06.83.06,1.22s.05,1.83.05,2.05a4.7,4.7,0,0,1-.89,2.83c-.66,1.17-4.21,3.33-4.21,3.66A37.35,37.35,0,0,1,442.84,63.73Zm-8-5.77c.77-.67,1.61-1.17,2.49-1.83s1.89-.84,2.5-1.67a7.39,7.39,0,0,0,.83-3.83c0-1.16-.11-2.94-.11-5.66,0-.94-.11-1-.11-2.16a2,2,0,0,0-2-2H435.4c-.89.06-2.33.17-2.94.17s-.61,2.05-.61,3.38-.11,1.94-.11,3.33c0,.83-.11,1.5-.11,2.28a6.54,6.54,0,0,0,.22,1.72,6.87,6.87,0,0,1,.17,1.44c0,1-.23,1.94-.28,3.22-.06.78-.06,1.39-.06,1.83,0,.67.06,1,.28,1A6.48,6.48,0,0,0,434.85,58Z"/><path class="cls-2" d="M452.11,37.81A4.06,4.06,0,0,1,451,36.15c0-.34.17-.5,1.61-.5s2.45.22,3.17.22,2.22,0,3-.06h3.11c.17,0,.22,0,.22.12a5.63,5.63,0,0,1-.94,1.49c-.94,1.28-.89,1-1.22,2.11a9.29,9.29,0,0,0-.44,3.22c0,1,.05,2,.05,2.89a9.1,9.1,0,0,1-.05,1.22c0,.61-.23,1.22-.23,1.83,0,.89.28,1.55.28,2.33,0,1.22-.17,2.89-.22,3.94,0,.33-.06.61-.06.89,0,.94.11,1.89.11,3.16,0,6.44-.11,8.38-.11,9.71s0,3.44.61,3.67a3.82,3.82,0,0,0,.89.11c.72,0,1.67-.11,2.06-.11.22,0,.77,0,1.27,0,.67,0,1.28-.11,1.28-.66,0-2.11.11-3,.11-3.94,0-.17,0-.34.44-.67a15.6,15.6,0,0,0,2.22-1.89,5.45,5.45,0,0,1,2.33-1.66c.45,0,.73.44.73,1.72a21.13,21.13,0,0,1-.28,3.11,6.17,6.17,0,0,0-.06,1,24.43,24.43,0,0,0,.22,2.61c0,1.22-.16,2.33-.16,3.11,0,.5.05.94.05,1.33s-.05.66-.27.83a4.93,4.93,0,0,1-2.34.28h-1.05c-1.44,0-1.44-.17-3.38-.28-.67,0-1.06,0-1.45,0-.72,0-1.16,0-2.55,0-2.05,0-2.89-.17-4-.22s-1.16.22-1.94.22h-1c-.83,0-1.66.17-2.11.17a1.91,1.91,0,0,1-.27-.06,13.46,13.46,0,0,1,.94-1.44,4.49,4.49,0,0,0,1.33-1.94,13.29,13.29,0,0,0,.45-3.17v-.83c0-.83.05-1.83.11-2.61s.22-1.77.22-2.72-.22-1.44-.22-2.11c0-1.38.27-3.44.27-4.43,0-1.28-.38-2.5-.38-3.61a31.78,31.78,0,0,1,.44-3.78,14.21,14.21,0,0,0-.56-2.27,2.32,2.32,0,0,1,0-.72c0-.5,0-1.22,0-2.44s.34-2.72.34-3.72a1.63,1.63,0,0,0-.06-.56,4.3,4.3,0,0,0-.61-1.61C452.6,38.92,452.83,38.59,452.11,37.81Z"/></g></svg>