<svg xmlns="http://www.w3.org/2000/svg" viewBox="0 0 399.68 88.95"><defs><style>.cls-1{fill:#2e3192;stroke:#fff;stroke-miterlimit:10;stroke-width:3px;}.cls-2{fill:#fff;}</style></defs><g id="Layer_3" data-name="Layer 3"><polygon class="cls-1" points="356.43 3.15 356.24 4.38 356.24 3.34 230.58 3.34 209.79 3.34 189.9 3.34 155.54 3.34 43.44 3.34 2.12 44.66 43.26 85.8 43.44 84.57 43.44 85.61 155.54 85.61 189.9 85.61 209.79 85.61 230.58 85.61 356.24 85.61 397.56 44.29 356.43 3.15"/><path class="cls-2" d="M99.69,35.93c-.29,0-.53-.71-.53-1.66a4.44,4.44,0,0,1,.06-.89,14.42,14.42,0,0,0,.12-1.54c0-1-.12-2-.12-3.15,0-1.3-.71-1.3-2-1.3s-2.73.12-4.56.12-1.67,1.13-1.9,2.37a1.63,1.63,0,0,0-.06.53c0,.84.29,1.55.29,2.44a2.65,2.65,0,0,1-.06.65c-.23,1.36-.23,3.14-.41,5,0,.3-.06.54-.06.77,0,1.19.36,1.61.36,3.15,0,1.24-.06,2.25-.06,3.26a11.16,11.16,0,0,0,.06,1.42,28.38,28.38,0,0,1-.3,3.74c0,.89.24,2.49.35,3.68.12,1.37.18,3.14.18,5s.77,2.26,1.84,2.26c.77,0,2-.3,3-.3.47,0,.95.18,1.6.18.83,0,1.36-.53,2.08-.53.53,0,.53-1.13.53-2.56a9,9,0,0,1,.06-1.3,13.87,13.87,0,0,0,.18-2.43c0-1-.06-2-.12-2.61-.12-1.25-.18-2.26-.18-2.26s-.12-.12-.18-.12c-.59,0-2.19,1.78-2.85,1.78s-.59-1.06-.59-2.31V47.56a2.39,2.39,0,0,1,1.19-2.08c.77-.35,2.49-.95,3.32-1.36,1.54-.77,2.61-1.66,4.33-1.66,1.07,0,.83.83.83,1.78-.12,1.36-.24,3.79-.24,5.4s.36,1.42.36,2.37v2.91a20.39,20.39,0,0,1-.12,3,6.81,6.81,0,0,0-.12,1c0,.59.12,1.31.12,3.56,0,3.38-4,4.33-4.68,4.45-1,0-2-.12-2.79-.12s-1.31.3-2.79.3c-1.31,0-2.79-.06-8.25-.06a2.91,2.91,0,0,1-3-2.79,12.46,12.46,0,0,1-.3-2c0-.71.36-1.3.36-2.13s-.3-2.08-.3-3.56V55.27c0-1.42-.3-1.9-.3-3.91,0-.48,0-1,.06-1.66.24-3.92.24-5.34.24-6.65s-.24-3.26-.36-4.45c0-.24-.06-.41-.06-.65,0-1,.54-1.9.54-3.14,0-.48-.06-1.07-.12-2a13.88,13.88,0,0,1-.06-1.72c0-1.43.06-3.21.06-4.75,0-2.31,3.38-4,5-4.09s4.87-.12,5.4-.12,1.37.18,2.25.18c.24,0,.48-.06.66-.06.71-.06,1.42-.24,2.19-.24a6.49,6.49,0,0,1,1.07.12,16.29,16.29,0,0,0,2.67.24c1.36,0,2.08,2,2.08,3.26,0,.41-.18.83-.18,1.54,0,.54.06,1.13.06,2.32,0,.83.18,1.78.18,2.61s-2.2,1.18-2.56,2-2,1-2.37,1.37A1.2,1.2,0,0,1,99.69,35.93Z"/><path class="cls-2" d="M111.74,25c-.59-.36-1.48-1.37-1.48-1.84,0-.66,0-.95,1-.95,1.49,0,3.86.41,5.52.41.83,0,1.6-.12,2.37-.12.6,0,1.13,0,3.21.12,1.18,0,2.73-.12,3.68-.17h5.57a2.18,2.18,0,0,1,.95.11c.3.18.71.24.71,1.31s-.23,1.78-.23,2.67c0,1.13.23,1.84.23,2.55a7.09,7.09,0,0,1-.29,2.43c-.24.65-1.13.77-2.08,1.48s-.65,1.25-1.6,1.67a11.07,11.07,0,0,0-1.78,1,17.86,17.86,0,0,1-.12-2.78c0-1.19.06-2.08.06-2.91-.12-1.36-.06-2.08-.47-2.2a2.73,2.73,0,0,0-.84-.06c-.77,0-1.89,0-2.84,0h-.66a10.34,10.34,0,0,0-2.55.23c-.17.12-.23.36-.23.77v3.09c0,.18-.06.3-.06.47a29.57,29.57,0,0,1-.42,4.16,5.69,5.69,0,0,0-.12,1.36c0,.77.12,1.42.12,2.37s.06,2.26.06,3.27a5.63,5.63,0,0,1-.06,1.12c0,.12,0,.18.12.18.42,0,1.78-1.12,2.79-1.78,1.19-.71,2.79-.77,3.38-1.6a2.18,2.18,0,0,1,1.42-1,.43.43,0,0,1,.36.18c.24.3.24.89.24,1.84V46c0,.89-.12,1.13-1,1.42a27.54,27.54,0,0,0-2.67,1.25c-1.07.47-2,1.36-2.91,1.66s-.89,1.36-1.54,1.6-.71.53-.71,1.72c0,.36.06.71.06,1.19l.23,5.46s.06,1.78,1,1.89c1.13,0,2.38-.29,3.21-.29a1.46,1.46,0,0,1,.53.06,8,8,0,0,0,2.31.41,1.53,1.53,0,0,0,.83-.18c.48-.29.48-1,.48-2V57.47a.79.79,0,0,1,.47-.83c.72-.3,1.72-1.6,2.67-2.2A16.27,16.27,0,0,1,133.27,53c.18,0,.6.29.6,1.3,0,1.19-.3,2.85-.3,4,0,1,.06,1.72.06,2.31,0,1.07.12,2.26.12,4s-.12,2.13-.48,2.37c-.05.06-.11.06-.23.06-.48,0-1.49-.3-2.44-.3-.71,0-1.54.24-2.19.24-1.25,0-2.91-.24-4-.24-1.78.12-2.13.24-4.09.24-1.54,0-4.15-.18-6-.18-.48,0-1,.06-1.31.06-.94.06-1.54.12-2,.12-.66,0-1.07-.06-1.07-.24a1.56,1.56,0,0,1,.89-1.66,5.89,5.89,0,0,0,2-2.61,2.71,2.71,0,0,0,.35-1.19c0-.41-.12-.95-.12-2.61,0-2.19-.06-2.67-.06-3.2a6.63,6.63,0,0,1,.3-2.49,2.11,2.11,0,0,0,.24-1.13c0-.77-.18-1.66-.24-2.49a38.36,38.36,0,0,1-.24-4c0-1.6.24-2.9.24-4.86,0-1.54-.18-2.31-.18-3.62,0-.3.06-.65.06-1.07.12-2.07.06-3.2.18-5.1,0-1.24-.36-2.43-.41-3.74C112.87,25.49,112.33,25.37,111.74,25Z"/><path class="cls-2" d="M137.78,24.36c-.23-.71-1.12-1.12-1.12-1.6s0-.47,1.24-.47,1.66.23,2.37.23c1.31-.11,2.26-.17,3.21-.17.47,0,.83-.12,1.18-.12s.6.12.78.65c.35,1,1.18,2.91,1.83,4.45s1.43,2.61,1.43,3.68c0,.35-.06.59-.06.77a1.79,1.79,0,0,0,.77,1.6c.71.53,1.6,2.61,2.49,4.21s1.43,3.8,2.08,5,1.19,3,1.9,4.21,1.6,2.19,1.78,3.38,1,3.56,1.78,3.56c.35,0,.29-2.08.41-3.68s.06-2.49.18-3c0-.72-.36-1.43-.42-3.5,0-1.84.06-2.5.06-3.21a8.6,8.6,0,0,0-.06-1.18c-.23-1.61-.05-2.73-.29-4.57a10.76,10.76,0,0,1-.12-1.9c0-.89.06-1.66.06-2.49,0-1.07.06-2.08.06-3.5a2.8,2.8,0,0,0-1.19-2.32c-1-.89-1.24-1.48-1.24-1.78s.06-.47,1-.47a18.09,18.09,0,0,1,2.67.18,6.85,6.85,0,0,0,1.19.06,15.94,15.94,0,0,0,1.78-.06c.83-.06,1.36-.06,2.08-.06.35,0,.83-.06,1.3-.06.65,0,1.19.06,1.19.35a4.31,4.31,0,0,1-1.54,2.2c-.48.24-.6.65-.72,1.42a27.49,27.49,0,0,0-.65,4.93c0,1.72.12,2.67.12,3.56,0,1.24-.06,2.43-.06,3.73,0,2.32-.06,3.5-.06,5s.06,3.38.06,5.22c0,1.48.18,2.67.18,3.56,0,.24-.06.41-.06.59-.06.65-.18,2-.18,3.38,0,.6,0,1.19.06,6.94,0,1.19.06,2.08.06,2.61s-.06.89-.53.95-.66.06-.89.06c-.83,0-1.19-.12-2.32-.18-.71,0-1.18.12-1.72.12-1.07-.06-1.42-1.3-1.84-2.07-1.95-4-3.5-6.23-3.79-7.3a8.63,8.63,0,0,0-1.13-2.91A5,5,0,0,1,151.9,52c-.47-1.42-2.55-4.51-2.67-5.22s-.65-1.19-1-2.14-1-1.42-1.48-2.67a33.88,33.88,0,0,0-1.24-3.61,4.68,4.68,0,0,0-.66,2.61v1.42c0,1.3.06,2.67.12,4.39.06,1.54.24,2.31.24,3.14a8.76,8.76,0,0,1-.18,1.61,11.59,11.59,0,0,0-.47,2.72,4.83,4.83,0,0,0,.17,1.25A6.43,6.43,0,0,1,144.9,57c0,.65-.06,1.31-.06,2.08v.36c0,1.42,0,3.61.48,4.38s1.84,2.14,1.84,2.56-.83.47-2.14.47H141.1s-2.84-.18-3.5-.18c-.47,0-1.36-.12-1.36-.47a.45.45,0,0,1,.12-.24c.41-.53,2-1.54,2.25-2.08a15.1,15.1,0,0,0,.48-3.14,1.41,1.41,0,0,0-.06-.53,11.88,11.88,0,0,1-.18-2.44,10.52,10.52,0,0,1,.24-2.61,4,4,0,0,0,.24-1.24,6.77,6.77,0,0,0-.18-1.25,13.49,13.49,0,0,1-.3-2.67,5.76,5.76,0,0,1,.06-1c.12-1.3.12-3.79.12-5.75,0-1.37.24-1.9.24-3.15a17.7,17.7,0,0,0-.18-2.13,18.69,18.69,0,0,1-.24-2.55,13.8,13.8,0,0,1,.18-1.72c.06-.71.18-1.9.18-3a12.75,12.75,0,0,0-.12-1.66,10,10,0,0,1-.18-2.19C138.91,25.43,138.14,25.14,137.78,24.36Z"/><path class="cls-2" d="M172.31,25c-.59-.36-1.48-1.37-1.48-1.84,0-.66.06-.95,1-.95,1.48,0,3.85.41,5.51.41.84,0,1.61-.12,2.38-.12.59,0,1.13,0,3.2.12,1.19,0,2.73-.12,3.68-.17h5.58a2.21,2.21,0,0,1,.95.11c.29.18.71.24.71,1.31s-.24,1.78-.24,2.67c0,1.13.24,1.84.24,2.55a7.06,7.06,0,0,1-.3,2.43c-.24.65-1.13.77-2.08,1.48s-.65,1.25-1.6,1.67a11.07,11.07,0,0,0-1.78,1,17.86,17.86,0,0,1-.12-2.78c0-1.19.06-2.08.06-2.91-.11-1.36-.06-2.08-.47-2.2a2.69,2.69,0,0,0-.83-.06c-.77,0-1.9,0-2.85,0h-.65a10.21,10.21,0,0,0-2.55.23c-.18.12-.24.36-.24.77v3.09c0,.18-.06.3-.06.47a31.18,31.18,0,0,1-.41,4.16,5.69,5.69,0,0,0-.12,1.36c0,.77.12,1.42.12,2.37s.05,2.26.05,3.27a6.75,6.75,0,0,1-.05,1.12c0,.12,0,.18.11.18.42,0,1.78-1.12,2.79-1.78,1.19-.71,2.79-.77,3.38-1.6a2.17,2.17,0,0,1,1.43-1,.4.4,0,0,1,.35.18c.24.3.24.89.24,1.84V46c0,.89-.12,1.13-1,1.42a28.7,28.7,0,0,0-2.67,1.25c-1.07.47-2,1.36-2.9,1.66s-.89,1.36-1.55,1.6-.71.53-.71,1.72c0,.36.06.71.06,1.19l.24,5.46s.06,1.78,1,1.89c1.12,0,2.37-.29,3.2-.29a1.41,1.41,0,0,1,.53.06,8.11,8.11,0,0,0,2.32.41,1.57,1.57,0,0,0,.83-.18c.47-.29.47-1,.47-2V57.47a.78.78,0,0,1,.48-.83c.71-.3,1.72-1.6,2.67-2.2A15.83,15.83,0,0,1,193.85,53c.18,0,.59.29.59,1.3,0,1.19-.3,2.85-.3,4,0,1,.06,1.72.06,2.31,0,1.07.12,2.26.12,4s-.12,2.13-.47,2.37c-.06.06-.12.06-.24.06-.47,0-1.48-.3-2.43-.3-.71,0-1.54.24-2.2.24-1.24,0-2.9-.24-4-.24-1.78.12-2.14.24-4.1.24-1.54,0-4.15-.18-6-.18-.47,0-1,.06-1.3.06-.95.06-1.54.12-2,.12-.65,0-1.07-.06-1.07-.24a1.56,1.56,0,0,1,.89-1.66,5.89,5.89,0,0,0,2-2.61,2.63,2.63,0,0,0,.36-1.19c0-.41-.12-.95-.12-2.61,0-2.19-.06-2.67-.06-3.2a6.89,6.89,0,0,1,.29-2.49,2.11,2.11,0,0,0,.24-1.13c0-.77-.18-1.66-.24-2.49-.11-1.31-.23-2.37-.23-4s.23-2.9.23-4.86c0-1.54-.17-2.31-.17-3.62,0-.3.06-.65.06-1.07.11-2.07.06-3.2.17-5.1,0-1.24-.35-2.43-.41-3.74C173.44,25.49,172.91,25.37,172.31,25Z"/><path class="cls-2" d="M217.1,52.13a24,24,0,0,1,1.31,4A11.94,11.94,0,0,0,220,60.26c.71,1.18,1.19,3,2,4.09s1.6,1.78,1.6,2.19c0,.12,0,.18-.12.18a11.47,11.47,0,0,1-1.72.06c-1.13,0-2.55,0-3.62-.06H216c-.66,0-1.49.12-2.08.12-.42,0-.71-.06-.71-.24,0-.65.53-1.78.53-2.49,0-1.54-1.6-5.22-1.6-5.57A11,11,0,0,0,211.11,56a32.2,32.2,0,0,1-1.42-4.56,10.87,10.87,0,0,0-3.5,1.84c-.71.59-1.07.77-1.07,1.78,0,.23.06.47.06.77.06.65.06,1.18.06,1.72,0,1.06-.06,2.07-.06,3.5a4.62,4.62,0,0,0,1.3,3.73,11.84,11.84,0,0,1,1.43,2.14c-2,0-3.86-.36-5.93-.36-.18,0-.42.06-.72.06-1.3.12-2.37.3-3.2.3a2.4,2.4,0,0,1-.71-.06c-.18-.06-.24-.12-.24-.24,0-.41.71-1.12,1.13-1.78a7.74,7.74,0,0,0,1-4v-1c0-1.42-.18-2.2-.18-4.27,0-1.54-.12-3.09-.12-4.27,0-1,.3-2,.3-3.09,0-.89-.12-1.84-.18-3s.06-2.55.06-4.16c-.06-4.45-.18-6.23-.18-8.18V27a3.18,3.18,0,0,0-.65-1.78,8.75,8.75,0,0,1-1.49-2.67c0-.23.42-.29,1.13-.29h.77c.66,0,1.66-.06,2.61-.06a7,7,0,0,1,2,.18,4.39,4.39,0,0,0,1.3.12c1.31,0,2.79-.24,3.45-.24.89,0,2.49.12,4.27.29.29,0,.53.06.83.06,1.48,0,2.79-.35,3.85-.35,1.25,0,4,1.48,4,4.09,0,1.78-.06,3.09-.06,4.27a17.54,17.54,0,0,0,.06,1.78c.12,1.19.24,2.26.24,3.15a3.57,3.57,0,0,1-.12,1.18A4.2,4.2,0,0,0,221,38c0,.47.06.89.06,1.3s.06,2,.06,2.2a5.08,5.08,0,0,1-.95,3c-.71,1.24-4.51,3.55-4.51,3.91A37,37,0,0,1,217.1,52.13ZM208.56,46c.83-.71,1.72-1.25,2.67-2s2-.89,2.67-1.78a7.91,7.91,0,0,0,.89-4.09c0-1.25-.12-3.15-.12-6.05,0-1-.12-1.07-.12-2.32a2.07,2.07,0,0,0-2.13-2.13h-3.27c-.94.06-2.49.17-3.14.17s-.65,2.2-.65,3.62-.12,2.08-.12,3.56c0,.89-.12,1.6-.12,2.44a7,7,0,0,0,.24,1.83,7.24,7.24,0,0,1,.18,1.55c0,1.06-.24,2.07-.3,3.44-.06.83-.06,1.48-.06,2,0,.71.06,1.12.3,1.12A6.85,6.85,0,0,0,208.56,46Z"/><path class="cls-2" d="M234.37,22.17c.77,0,1.84.18,2.37.18.95,0,2.2-.12,3.56-.12s3.2-.12,5.1-.12c2.55,0,3.15.06,3.15.41s-.71,1.13-1.43,1.9c-.53.66-.53.54-.65,1.31,0,.12-.06.24-.06.35a1.85,1.85,0,0,0-.06.54c-.06.83.36,1.36.54,2.73.17,1.66.59,1.72,1,3.79s1.48,5.17,1.78,6.77,1.6,6.17,1.72,7.35a11.08,11.08,0,0,0,.89,3.15c.71,1.3.41,2.67.89,4.15s1.12,4.87,1.36,5.93a13.88,13.88,0,0,0,1.9,3.38c.65.84,1.66,2,1.66,2.44a.21.21,0,0,1-.24.23c-.89.12-3.5.12-5.63.24-.89,0-1.84-.06-2.73-.06a7.91,7.91,0,0,0-1.19.06,8.92,8.92,0,0,1-1.13.12c-.59,0-1-.12-.89-.36a.43.43,0,0,1,.12-.23c.3-.48,2.26-2.67,2.32-3a18.22,18.22,0,0,0-.48-2.91c-.35-1.66-1.13-4.39-1.48-5.45-.18-.66-.65-1.19-1.19-1.19a1,1,0,0,0-.71.36A17.81,17.81,0,0,1,242,55.93c-.59.47-2.31,0-2.61.83-.47.83-1.84,1.18-3.56,2.25s-2.07.77-2.25,2a7.67,7.67,0,0,0-.18,1.36,2,2,0,0,0,.18.83,4,4,0,0,0,1.18,2.32c.48.53.89,1,.83,1.24s-.05.12-.17.18a4.84,4.84,0,0,1-1.07.06c-1,0-2.37-.06-3.56-.06-1.37,0-3.09.18-4.27.18-.3,0-.54-.06-.77-.06-.66-.06-1.19-.18-1.13-.48A1.15,1.15,0,0,1,225,66c.78-.83,1.61-2.19,2.32-3,.53-.83.24-2.32.77-3.39s.65-2.9,1.13-5.57,2.13-7.66,2.31-8.72.59-3.92,1.13-4.63,1.13-4.81,1.13-4.81c2.07-8.42,2.19-8.72,2.19-9a2.9,2.9,0,0,0-.77-2.14c-.53-.53-1.6-1.66-1.66-2.19C233.54,22.23,233.89,22.17,234.37,22.17Zm4.74,15.07c-.47,1.9-.59,2.73-1.18,3.62s-.65,3.2-1.13,4.62a29.81,29.81,0,0,0-1.07,5,23.7,23.7,0,0,0-.29,3c.12-.23,2.55-1,3.56-1.84a26.59,26.59,0,0,1,5.28-3,1.08,1.08,0,0,0,.65-1.13,21,21,0,0,0-.83-4.09c-.71-2.43-.3-3.21-1.07-4.1a5.73,5.73,0,0,1-.89-3.14,15,15,0,0,0-.36-2.67c-.23-.42-.77-2.31-1.12-2.31S239.65,35.34,239.11,37.24Z"/><path class="cls-2" d="M255.07,21.93c.54,0,1.49.36,2.44.42a16.64,16.64,0,0,1,2.13.06,16,16,0,0,0,1.66.06H263a24.87,24.87,0,0,0,3-.18,6.05,6.05,0,0,1,1.07-.06c.89,0,2,.12,3.56.24a12.92,12.92,0,0,0,1.42.05,20.72,20.72,0,0,0,3.56-.29,8.45,8.45,0,0,1,1.84-.36,1.57,1.57,0,0,1,.53.06.46.46,0,0,1,.36.48,18.22,18.22,0,0,0-.41,3.32c0,.71.29,1.48.29,2.43s0,2.61-.71,2.61-4-3.08-4.33-3.32a2.48,2.48,0,0,0-1.13-.12,18.37,18.37,0,0,0-1.9.06c-.53.06-.71.65-.71,1.54a14.22,14.22,0,0,0,.12,1.54,6.46,6.46,0,0,1,.06,1.07c0,1.25-.18,2.73-.18,4s-.18,2.43-.18,3.5a5.11,5.11,0,0,0,.06,1,14.6,14.6,0,0,1,.12,2.07v1.37a6.08,6.08,0,0,1-.29,2.19,1.84,1.84,0,0,0-.18.77,2.33,2.33,0,0,0,.35,1.13,1.55,1.55,0,0,1,.18.83c0,.77-.24,2-.35,4-.06.6-.06,1.25-.06,2,0,2.85.23,6.29.23,6.88,0,.89.71,1.72.71,2.5.24.59,1.25.95,1.73,1.54a1.85,1.85,0,0,1,.47,1c0,.23-.18.41-.47.47a12.94,12.94,0,0,1-1.67.06h-1.77c-.72,0-1.79.18-3.62.18-1.37-.12-2.91-.18-4-.18-.35,0-.47-.06-.47-.12s.65-.65,1.06-1.24c.6-.89,1.55-1.55,1.73-2.32a2.09,2.09,0,0,0,0-.59c0-.41,0-.95,0-1.6a9,9,0,0,1,0-1.13c.18-1.66.06-3,.18-4,.06-.6.18-1.19.18-1.78a4.48,4.48,0,0,0-.12-1,21.37,21.37,0,0,1-.41-4.81,48.54,48.54,0,0,1,.35-6.58,3.92,3.92,0,0,0,.06-.89,16.5,16.5,0,0,0-.24-2.67c0-.6-.11-1.43-.11-2.32,0-1.6.11-3.56.17-5.1.06-.65.06-1.19.06-1.6,0-1.07-.17-1.37-.71-1.48a12,12,0,0,0-2.79-.18A2.53,2.53,0,0,0,257.45,29c-.3.42-1.43,1.48-1.72,2a.57.57,0,0,1-.54.3c-.41,0-.83-.36-.83-1.43,0-.89-.06-2.14-.06-3a9.93,9.93,0,0,1,.24-2.07,15.08,15.08,0,0,0,.12-2.61C254.66,22,254.84,21.93,255.07,21.93Z"/><path class="cls-2" d="M282,25c-.59-.36-1.48-1.37-1.48-1.84,0-.66.06-.95,1-.95,1.49,0,3.86.41,5.52.41.83,0,1.6-.12,2.38-.12.59,0,1.12,0,3.2.12,1.19,0,2.73-.12,3.68-.17h5.57a2.16,2.16,0,0,1,.95.11c.3.18.71.24.71,1.31s-.23,1.78-.23,2.67c0,1.13.23,1.84.23,2.55a7.09,7.09,0,0,1-.29,2.43c-.24.65-1.13.77-2.08,1.48s-.65,1.25-1.6,1.67a11.07,11.07,0,0,0-1.78,1,17.86,17.86,0,0,1-.12-2.78c0-1.19.06-2.08.06-2.91-.12-1.36-.06-2.08-.47-2.2a2.69,2.69,0,0,0-.83-.06c-.77,0-1.9,0-2.85,0h-.65a10.38,10.38,0,0,0-2.56.23c-.17.12-.23.36-.23.77v3.09c0,.18-.06.3-.06.47a29.57,29.57,0,0,1-.42,4.16,5.69,5.69,0,0,0-.12,1.36c0,.77.12,1.42.12,2.37s.06,2.26.06,3.27a5.63,5.63,0,0,1-.06,1.12c0,.12,0,.18.12.18.42,0,1.78-1.12,2.79-1.78,1.19-.71,2.79-.77,3.38-1.6a2.18,2.18,0,0,1,1.42-1,.43.43,0,0,1,.36.18c.24.3.24.89.24,1.84V46c0,.89-.12,1.13-1,1.42a27.54,27.54,0,0,0-2.67,1.25c-1.07.47-2,1.36-2.91,1.66s-.89,1.36-1.54,1.6-.71.53-.71,1.72c0,.36.06.71.06,1.19l.24,5.46s.05,1.78,1,1.89c1.13,0,2.38-.29,3.21-.29a1.46,1.46,0,0,1,.53.06,8,8,0,0,0,2.31.41,1.53,1.53,0,0,0,.83-.18c.48-.29.48-1,.48-2V57.47a.79.79,0,0,1,.47-.83c.72-.3,1.72-1.6,2.67-2.2A16.27,16.27,0,0,1,303.48,53c.18,0,.6.29.6,1.3,0,1.19-.3,2.85-.3,4,0,1,.06,1.72.06,2.31,0,1.07.12,2.26.12,4s-.12,2.13-.48,2.37c-.05.06-.11.06-.23.06-.48,0-1.48-.3-2.43-.3-.72,0-1.55.24-2.2.24-1.25,0-2.91-.24-4-.24-1.78.12-2.14.24-4.1.24-1.54,0-4.15-.18-6.05-.18-.47,0-.95.06-1.3.06-.95.06-1.55.12-2,.12-.65,0-1.07-.06-1.07-.24a1.56,1.56,0,0,1,.89-1.66,5.89,5.89,0,0,0,2-2.61,2.71,2.71,0,0,0,.35-1.19c0-.41-.11-.95-.11-2.61,0-2.19-.06-2.67-.06-3.2a6.89,6.89,0,0,1,.29-2.49,2.11,2.11,0,0,0,.24-1.13c0-.77-.18-1.66-.24-2.49a38.55,38.55,0,0,1-.23-4c0-1.6.23-2.9.23-4.86,0-1.54-.18-2.31-.18-3.62,0-.3.06-.65.06-1.07.12-2.07.06-3.2.18-5.1,0-1.24-.35-2.43-.41-3.74C283.08,25.49,282.54,25.37,282,25Z"/><path class="cls-2" d="M308.23,52.9c0-1.25.24-2.08.24-2.91a11.26,11.26,0,0,0-.06-1.48v-.24c-.06-.59-.18-2.37-.18-4.51,0-1,.06-2.07.12-3.08a23,23,0,0,0,.12-2.55c0-1-.06-1.37-.12-2.32-.06-1.3-.41-2.07-.41-3.44,0-2.31.17-3.26.17-4.33a11.56,11.56,0,0,0-.41-2.43c-.42-2.67-.42-3.44,1.48-3.44,1.19,0,2.14.47,3.21.47a1.3,1.3,0,0,0,.53-.06,5.31,5.31,0,0,1,1.9-.35c1.12,0,1.12,1.18.65,3.14a10.85,10.85,0,0,0-.83,4.21c0,2.44-.36,3.74-.36,5.94a4.79,4.79,0,0,1-.23,1.9,1.31,1.31,0,0,0-.12.47c0,.59.47,1.19.53,2,.06,1,.3,3.32.3,5.93s-.12,3.92-.12,5.64a36.64,36.64,0,0,1-.18,4.5c-.18,1.61-1.13.78-2.19.78s-2.2.23-3.27.23-.71-1.12-.71-1.6S308.23,53.61,308.23,52.9ZM311.08,60a10.49,10.49,0,0,0,2.67-.12c1.13-.12,1.07.71,1.19,1.66s-.24,1,0,2.43a2.67,2.67,0,0,1-.95,2.91c-.48.36-1.84.12-3.5.12s-2.08.12-2.44-.59-.11-1.13-.23-2.08a9,9,0,0,1,.12-3.62c.35-.71.83-.83,1.66-.59S310.25,59.84,311.08,60Z"/></g></svg>