<svg xmlns="http://www.w3.org/2000/svg" viewBox="0 0 534 291.04"><defs><style>.cls-1,.cls-5{fill:#2e3192;}.cls-1,.cls-2{stroke:#fff;stroke-width:3px;}.cls-1{stroke-miterlimit:10;}.cls-2{fill:#1b1464;}.cls-2,.cls-5,.cls-6{stroke-linejoin:round;}.cls-3{font-size:108.5px;font-family:CharcuterieBlock, Charcuterie Block;}.cls-3,.cls-4{fill:#fff;}.cls-5,.cls-6{stroke:#000;}.cls-6{fill:#8cc63f;}</style></defs><g id="Layer_3" data-name="Layer 3"><rect class="cls-1" x="363.52" y="183.61" width="168.98" height="105.93"/><rect class="cls-1" x="1.5" y="183.61" width="168.98" height="105.93"/><polygon class="cls-2" points="511.72 236.86 363.52 289.54 363.52 236.58 511.72 236.86"/><polygon class="cls-2" points="21.78 236.61 169.99 289.29 169.99 236.33 21.78 236.61"/><rect class="cls-1" x="16.32" y="90.6" width="495.41" height="146.26"/><text class="cls-3" transform="translate(61.56 212.48)">Git Terra</text><polygon class="cls-4" points="216.91 91.77 267.31 120.87 317.71 91.77 216.91 91.77"/><polygon class="cls-5" points="218.85 32.45 267.31 4.47 315.77 32.45 267.31 60.43 218.85 32.45"/><polygon class="cls-5" points="218.85 32.45 218.85 88.42 267.31 116.39 267.31 60.43 218.85 32.45"/><polygon class="cls-5" points="267.31 60.43 315.77 32.45 315.77 88.42 267.31 116.39 267.31 60.43"/><path class="cls-6" d="M227.48,93.4,226,76.32l11.19,3.38,1.77-14.57,10.84,5s-1.24,7.29-.71,7.29,6.93-2.55,6.93-3,4.62-12.49,2.13-12.49-18.47-4.62-19-4.62-9.06-6.75-9.06-6.75l6.51-7.88L218.85,32.45v56Z"/><path class="cls-6" d="M268.07,12.19,247.28,24.27l8.89,10.84-8.89,2.13,10.4,12.08V41.68l8.26.35,2.13,7.29,21.49-16.87-3.19-6.58,2.13-3s-6.58-3.73-7.29-3.73-9.77,4.26-9.77,4.26l-4.13-5.15,5.38-5Z"/><polygon class="cls-6" points="309.11 92.26 304.22 81.57 311.6 64.16 302.01 60.43 302.01 49.32 296.85 59.58 285.63 64.16 279.73 58.4 280.61 66.96 276.04 75.81 288.73 83.04 287.69 96.03 276.92 95.29 280.46 88.36 269.69 85.85 274.56 90.42 271.9 99.72 287.11 99.72 286.05 105.58 309.11 92.26"/></g></svg>