<svg xmlns="http://www.w3.org/2000/svg" viewBox="0 0 534 291.04"><defs><style>.cls-1,.cls-4{fill:#2e3192;}.cls-1,.cls-2{stroke:#fff;stroke-width:3px;}.cls-1{stroke-miterlimit:10;}.cls-2{fill:#1b1464;}.cls-2,.cls-4,.cls-5{stroke-linejoin:round;}.cls-3{fill:#fff;}.cls-4,.cls-5{stroke:#000;}.cls-5{fill:#8cc63f;}</style></defs><g id="Layer_3" data-name="Layer 3"><rect class="cls-1" x="363.52" y="183.61" width="168.98" height="105.93"/><rect class="cls-1" x="1.5" y="183.61" width="168.98" height="105.93"/><polygon class="cls-2" points="511.72 236.86 363.52 289.54 363.52 236.58 511.72 236.86"/><polygon class="cls-2" points="21.78 236.61 169.99 289.29 169.99 236.33 21.78 236.61"/><rect class="cls-1" x="16.32" y="90.6" width="495.41" height="146.26"/><path class="cls-3" d="M94.76,156.06c-.54,0-1-1.3-1-3a8.13,8.13,0,0,1,.11-1.63,26.25,26.25,0,0,0,.21-2.82c0-1.84-.21-3.69-.21-5.75,0-2.39-1.31-2.39-3.69-2.39s-5,.22-8.36.22-3,2.06-3.47,4.34a3,3,0,0,0-.11,1c0,1.52.54,2.82.54,4.44a5.33,5.33,0,0,1-.1,1.2c-.44,2.49-.44,5.75-.76,9.22,0,.54-.11,1-.11,1.41,0,2.17.65,2.93.65,5.75,0,2.28-.11,4.13-.11,6a20.48,20.48,0,0,0,.11,2.6A54.23,54.23,0,0,1,78,183.4c0,1.63.43,4.56.65,6.73.21,2.49.32,5.75.32,9.11s1.41,4.13,3.37,4.13c1.41,0,3.58-.55,5.53-.55.87,0,1.74.33,2.93.33,1.52,0,2.5-1,3.8-1,1,0,1-2.06,1-4.66a16.6,16.6,0,0,1,.11-2.39,25.45,25.45,0,0,0,.33-4.45c0-1.84-.11-3.58-.22-4.77-.22-2.28-.32-4.13-.32-4.13s-.22-.21-.33-.21c-1.08,0-4,3.25-5.21,3.25-1,0-1.08-1.95-1.08-4.23v-3.26A4.31,4.31,0,0,1,91,173.53c1.41-.65,4.55-1.74,6.07-2.5,2.83-1.41,4.78-3,7.92-3,2,0,1.52,1.52,1.52,3.26-.21,2.49-.43,6.94-.43,9.87s.65,2.61.65,4.34v5.32a37.22,37.22,0,0,1-.22,5.53,13.92,13.92,0,0,0-.21,1.74c0,1.08.21,2.39.21,6.51,0,6.18-7.27,7.92-8.57,8.14-1.73,0-3.69-.22-5.1-.22s-2.39.54-5.1.54c-2.39,0-5.1-.11-15.08-.11a5.33,5.33,0,0,1-5.53-5.1,22.44,22.44,0,0,1-.55-3.68c0-1.31.66-2.39.66-3.91,0-1.74-.55-3.8-.55-6.51v-2.28c0-2.6-.54-3.47-.54-7.16,0-.87,0-1.85.11-3,.43-7.16.43-9.76.43-12.15s-.43-6-.65-8.14c0-.43-.11-.76-.11-1.19,0-1.85,1-3.48,1-5.75,0-.87-.11-2-.22-3.69a25.32,25.32,0,0,1-.11-3.15c0-2.6.11-5.86.11-8.68,0-4.23,6.19-7.27,9.22-7.49s8.9-.21,9.88-.21c.76,0,2.49.32,4.12.32.44,0,.87-.11,1.2-.11,1.3-.11,2.6-.43,4-.43a11.76,11.76,0,0,1,2,.22,31.17,31.17,0,0,0,4.89.43c2.49,0,3.79,3.69,3.79,6,0,.76-.32,1.52-.32,2.82,0,1,.11,2.06.11,4.23,0,1.52.32,3.26.32,4.77,0,1.74-4,2.17-4.66,3.69s-3.69,1.85-4.34,2.5A2.21,2.21,0,0,1,94.76,156.06Z"/><path class="cls-3" d="M115.92,135a7,7,0,0,1-2.39-2.5,1,1,0,0,1-.11-.54c0-.44.44-.87,2.06-.87s3.48-.22,5.1-.22c2.18,0,3.91.87,5.86.87a2.39,2.39,0,0,0,1-.11,9.51,9.51,0,0,1,3.47-.65c1.52,0,2.5-.11,3.58-.11.65,0,1.09.22,1.31,1.2.1.65-2.39,2.93-3.69,4.66s-1.52,3.26-1.52,7.71-.65,6.83-.65,8.46v2.39a8.35,8.35,0,0,1-.44,3.47,2.52,2.52,0,0,0-.21.87c0,1.08.86,2.17,1,3.69.11,1.84.55,6.07.55,10.85s-.22,7.16-.22,10.31a78.19,78.19,0,0,1-.33,8.89c0,.44-.11.87-.11,1.41,0,2.28.44,4.56.44,7.71a6,6,0,0,0,.65,2.93c.22.32,2.06,3.47,3.25,4.12a3.07,3.07,0,0,1,1.52,2.06c0,.44-.32.76-1.08.76-2.06,0-7.16.11-9.33.11H120c-1.08.11-2.71.11-5.32.11-.54-.11-1-.22-1-.65a2.32,2.32,0,0,1,.54-1.3c1-1.52,2.71-2.93,3.15-4.24a13.28,13.28,0,0,0,.87-4.66c0-3.58.54-8.14.65-10.09s-.11-3.26-.11-4.56c0-2.28.43-3.8.43-5.32a20.66,20.66,0,0,0-.11-2.71v-.43c-.1-1.09-.32-4.34-.32-8.25,0-1.84.11-3.8.22-5.64a43.82,43.82,0,0,0,.21-4.67c0-1.73-.11-2.49-.21-4.23-.11-2.39-.76-3.8-.76-6.29,0-4.23.32-6,.32-7.92s-.76-3.69-.76-4.45S117.11,135.88,115.92,135Z"/><path class="cls-3" d="M140.66,130.45c1,0,2.71.65,4.44.76a30.61,30.61,0,0,1,3.91.11,29.11,29.11,0,0,0,3,.11h3a45.27,45.27,0,0,0,5.53-.33,11,11,0,0,1,1.95-.11c1.63,0,3.58.22,6.51.44a21.84,21.84,0,0,0,2.61.1,37.83,37.83,0,0,0,6.51-.54,15.77,15.77,0,0,1,3.36-.65,3,3,0,0,1,1,.11.83.83,0,0,1,.65.87c0,1-.76,2.39-.76,6.07,0,1.31.54,2.72.54,4.45s0,4.78-1.3,4.78-7.38-5.65-7.92-6.08a4.53,4.53,0,0,0-2.06-.22,33.43,33.43,0,0,0-3.48.11c-1,.11-1.3,1.2-1.3,2.82a26.17,26.17,0,0,0,.22,2.82,11.78,11.78,0,0,1,.11,2c0,2.28-.33,5-.33,7.38s-.32,4.44-.32,6.4a9.14,9.14,0,0,0,.11,1.73,28.23,28.23,0,0,1,.21,3.8v2.5a10.93,10.93,0,0,1-.54,4,3.33,3.33,0,0,0-.33,1.41,4.09,4.09,0,0,0,.66,2.06,3,3,0,0,1,.32,1.52c0,1.41-.43,3.69-.65,7.38-.11,1.09-.11,2.28-.11,3.58,0,5.21.44,11.5.44,12.59,0,1.63,1.3,3.15,1.3,4.56.43,1.08,2.28,1.73,3.14,2.82a3.24,3.24,0,0,1,.87,1.73c0,.44-.32.76-.87.87a23.27,23.27,0,0,1-3,.11h-3.26c-1.3,0-3.25.33-6.62.33-2.49-.22-5.31-.33-7.37-.33-.66,0-.87-.11-.87-.22,0-.32,1.19-1.19,1.95-2.28,1.09-1.62,2.82-2.82,3.15-4.23a3.27,3.27,0,0,0,.11-1.08c0-.76-.11-1.74-.11-2.93a13.64,13.64,0,0,1,.11-2.06c.32-3,.1-5.54.32-7.27a32.72,32.72,0,0,0,.33-3.26,8.25,8.25,0,0,0-.22-1.73,38.77,38.77,0,0,1-.76-8.79,90.09,90.09,0,0,1,.65-12,7.05,7.05,0,0,0,.11-1.63,31.33,31.33,0,0,0-.43-4.88c-.11-1.08-.22-2.6-.22-4.23,0-2.93.22-6.51.32-9.33.11-1.19.11-2.17.11-2.93,0-2-.32-2.5-1.3-2.71a21.82,21.82,0,0,0-5.1-.33c-2.6,0-3.47,2.06-4,2.82s-2.61,2.71-3.15,3.69a1,1,0,0,1-1,.54c-.76,0-1.52-.65-1.52-2.6,0-1.63-.11-3.91-.11-5.43a18.09,18.09,0,0,1,.44-3.79,27.53,27.53,0,0,0,.22-4.78C139.9,130.56,140.22,130.45,140.66,130.45Z"/><path class="cls-3" d="M212.91,130.45c1,0,2.72.65,4.45.76a30.61,30.61,0,0,1,3.91.11,29,29,0,0,0,3,.11h3a45.39,45.39,0,0,0,5.53-.33,11,11,0,0,1,2-.11c1.63,0,3.58.22,6.51.44a21.84,21.84,0,0,0,2.61.1,37.83,37.83,0,0,0,6.51-.54,15.77,15.77,0,0,1,3.36-.65,3,3,0,0,1,1,.11.83.83,0,0,1,.65.87c0,1-.76,2.39-.76,6.07,0,1.31.54,2.72.54,4.45s0,4.78-1.3,4.78-7.38-5.65-7.92-6.08a4.53,4.53,0,0,0-2.06-.22,33.43,33.43,0,0,0-3.48.11c-1,.11-1.3,1.2-1.3,2.82a26.17,26.17,0,0,0,.22,2.82,11.78,11.78,0,0,1,.11,2c0,2.28-.33,5-.33,7.38s-.32,4.44-.32,6.4a9.14,9.14,0,0,0,.11,1.73,28.23,28.23,0,0,1,.21,3.8v2.5a10.93,10.93,0,0,1-.54,4,3.33,3.33,0,0,0-.33,1.41,4.09,4.09,0,0,0,.66,2.06,3,3,0,0,1,.32,1.52c0,1.41-.43,3.69-.65,7.38-.11,1.09-.11,2.28-.11,3.58,0,5.21.44,11.5.44,12.59,0,1.63,1.3,3.15,1.3,4.56.43,1.08,2.28,1.73,3.14,2.82a3.24,3.24,0,0,1,.87,1.73c0,.44-.32.76-.87.87a23.27,23.27,0,0,1-3,.11h-3.26c-1.3,0-3.25.33-6.62.33-2.49-.22-5.31-.33-7.38-.33-.65,0-.86-.11-.86-.22,0-.32,1.19-1.19,1.95-2.28,1.08-1.62,2.82-2.82,3.15-4.23a3.58,3.58,0,0,0,.1-1.08c0-.76-.1-1.74-.1-2.93a15,15,0,0,1,.1-2.06c.33-3,.11-5.54.33-7.27a32.72,32.72,0,0,0,.33-3.26,8.25,8.25,0,0,0-.22-1.73,38.77,38.77,0,0,1-.76-8.79,88.38,88.38,0,0,1,.65-12,7.05,7.05,0,0,0,.11-1.63,30.33,30.33,0,0,0-.44-4.88c-.1-1.08-.21-2.6-.21-4.23,0-2.93.21-6.51.32-9.33.11-1.19.11-2.17.11-2.93,0-2-.32-2.5-1.3-2.71a21.94,21.94,0,0,0-5.1-.33c-2.61,0-3.47,2.06-4,2.82s-2.6,2.71-3.14,3.69a1,1,0,0,1-1,.54c-.76,0-1.52-.65-1.52-2.6,0-1.63-.11-3.91-.11-5.43a18.09,18.09,0,0,1,.44-3.79,28.82,28.82,0,0,0,.21-4.78C212.15,130.56,212.48,130.45,212.91,130.45Z"/><path class="cls-3" d="M262.06,136.09c-1.08-.65-2.71-2.49-2.71-3.36,0-1.2.11-1.74,1.85-1.74,2.71,0,7.05.76,10.09.76,1.51,0,2.93-.22,4.34-.22,1.08,0,2.06,0,5.86.22,2.17,0,5-.22,6.72-.32h10.2a3.87,3.87,0,0,1,1.74.21c.54.33,1.3.44,1.3,2.39,0,1.74-.43,3.26-.43,4.88,0,2.06.43,3.37.43,4.67a13.26,13.26,0,0,1-.54,4.45c-.44,1.19-2.06,1.41-3.8,2.71s-1.19,2.28-2.93,3a20.92,20.92,0,0,0-3.25,1.84,32.75,32.75,0,0,1-.22-5.1c0-2.17.11-3.79.11-5.31-.22-2.5-.11-3.8-.87-4a4.88,4.88,0,0,0-1.52-.11c-1.41,0-3.47-.11-5.21-.11H282c-2.5.22-3.8,0-4.67.44-.32.22-.43.65-.43,1.41v5.64c0,.33-.11.54-.11.87a55.54,55.54,0,0,1-.76,7.6,10.37,10.37,0,0,0-.22,2.49c0,1.41.22,2.61.22,4.34s.11,4.12.11,6a10.4,10.4,0,0,1-.11,2.06c0,.22,0,.33.22.33.76,0,3.25-2.07,5.1-3.26,2.17-1.3,5.1-1.41,6.18-2.93a3.94,3.94,0,0,1,2.61-1.84.8.8,0,0,1,.65.32c.43.54.43,1.63.43,3.37v6.61c0,1.63-.21,2.07-1.73,2.61a51.51,51.51,0,0,0-4.89,2.28c-1.95.87-3.58,2.49-5.31,3s-1.63,2.49-2.83,2.93c-1,.32-1.3,1-1.3,3.14,0,.65.11,1.3.11,2.17l.43,10s.11,3.26,1.85,3.48c2.06,0,4.34-.55,5.86-.55a2.7,2.7,0,0,1,1,.11,14.56,14.56,0,0,0,4.23.76,3,3,0,0,0,1.52-.32c.87-.55,1.41-2.07,1.41-3.91s-.54-3.25-.54-4.67a1.44,1.44,0,0,1,.86-1.51,46.08,46.08,0,0,0,4.89-2.93,28.53,28.53,0,0,1,4.66-2.61c.33,0,1.09.54,1.09,2.39,0,2.17-.55,4.12-.55,6.18,0,1.74.11,3.15.11,4.24,0,2-.22,4.12-.22,7.27s-.21,3.9-.86,4.34c-.11.1-.22.1-.44.1-.87,0-2.71-.54-4.45-.54-1.3,0-2.38.44-3.58.44-2.27,0-5.31-.44-7.27-.44-3.25.22-3.9.44-7.48.44-2.82,0-7.6-.33-11.07-.33-.87,0-1.74.11-2.39.11-1.73.11-2.82.22-3.69.22-1.19,0-1.95-.11-1.95-.44a2.85,2.85,0,0,1,1.63-3c1.95-1.08,3.25-3.79,3.69-4.77a4.9,4.9,0,0,0,.65-2.17c0-.76-.22-1.74-.22-4.78,0-4-.11-4.88-.11-5.85,0-1.74.11-3.91.54-4.56a3.84,3.84,0,0,0,.44-2.06c0-1.41-.33-3-.44-4.56-.21-2.39-.43-4.34-.43-7.27s.43-5.32.43-8.9c0-2.82-.32-4.23-.32-6.62,0-.54.11-1.19.11-1.95.21-3.8.11-5.86.32-9.33,0-2.28-.65-4.45-.76-6.84C264.12,137,263.15,136.74,262.06,136.09Z"/><path class="cls-3" d="M344,185.68c.43,1.41,2.17,5.1,2.39,7.27a21.55,21.55,0,0,0,2.82,7.59c1.3,2.17,2.17,5.54,3.69,7.49s2.93,3.26,2.93,4c0,.21,0,.32-.22.32a20.92,20.92,0,0,1-3.15.11c-2.06,0-4.66,0-6.62-.11H342c-1.2,0-2.72.22-3.8.22-.76,0-1.3-.11-1.3-.44,0-1.19,1-3.25,1-4.55,0-2.82-2.93-9.55-2.93-10.2,0-.87-1.19-3-2-4.67a59,59,0,0,1-2.6-8.35c-2.71,1.08-4.13,1.52-6.4,3.36-1.31,1.09-2,1.41-2,3.26,0,.43.11.86.11,1.41.11,1.19.11,2.17.11,3.14,0,2-.11,3.8-.11,6.4,0,3.91.87,5,2.39,6.84a21.14,21.14,0,0,1,2.6,3.91c-3.58,0-7.05-.65-10.85-.65-.32,0-.76.1-1.3.1-2.39.22-4.34.55-5.86.55a4.39,4.39,0,0,1-1.3-.11c-.33-.11-.44-.22-.44-.44,0-.76,1.31-2.06,2.07-3.25,1-1.52,1.62-3.47,1.84-7.27v-1.74c0-2.6-.33-4-.33-7.81,0-2.82-.21-5.64-.21-7.81,0-1.85.54-3.58.54-5.64,0-1.63-.22-3.37-.33-5.54.11-2,.11-4.66.11-7.59-.11-8.14-.32-11.4-.32-15V139.67a5.77,5.77,0,0,0-1.2-3.25c-1.19-1.52-2.71-4.23-2.71-4.89,0-.43.76-.54,2.06-.54h1.41c1.2,0,3-.11,4.78-.11a12.83,12.83,0,0,1,3.69.33,8,8,0,0,0,2.39.22c2.38,0,5.09-.44,6.29-.44,1.63,0,4.55.22,7.81.54.54,0,1,.11,1.52.11,2.71,0,5.1-.65,7.05-.65,2.28,0,7.38,2.72,7.38,7.49,0,3.25-.11,5.64-.11,7.81a32.28,32.28,0,0,0,.11,3.26c.22,2.17.43,4.12.43,5.75a6.89,6.89,0,0,1-.21,2.17,7.62,7.62,0,0,0-.33,2.28c0,.86.11,1.62.11,2.38,0,.55.11,3.58.11,4,0,2.28-.43,3.25-1.74,5.53s-8.24,6.51-8.24,7.16A68.12,68.12,0,0,1,344,185.68Zm-15.62-11.29c1.52-1.3,3.14-2.27,4.88-3.58s3.69-1.62,4.88-3.25,1.63-4.88,1.63-7.49c0-2.28-.22-5.75-.22-11.07,0-1.84-.22-1.95-.22-4.23a3.8,3.8,0,0,0-3.9-3.9h-6c-1.73.1-4.56.32-5.75.32-1,0-1.19,4-1.19,6.62s-.22,3.8-.22,6.51c0,1.63-.22,2.93-.22,4.45a12.83,12.83,0,0,0,.44,3.36,13.78,13.78,0,0,1,.32,2.82c0,2-.43,3.8-.54,6.3-.11,1.52-.11,2.71-.11,3.58,0,1.3.11,2.06.54,2.06A12.58,12.58,0,0,0,328.36,174.39Z"/><path class="cls-3" d="M396.17,185.68c.43,1.41,2.17,5.1,2.38,7.27a21.58,21.58,0,0,0,2.83,7.59c1.3,2.17,2.16,5.54,3.68,7.49s2.93,3.26,2.93,4c0,.21,0,.32-.21.32a21,21,0,0,1-3.15.11c-2.06,0-4.67,0-6.62-.11h-3.8c-1.19,0-2.71.22-3.79.22-.76,0-1.31-.11-1.31-.44,0-1.19,1-3.25,1-4.55,0-2.82-2.93-9.55-2.93-10.2,0-.87-1.19-3-2-4.67a59.5,59.5,0,0,1-2.61-8.35c-2.71,1.08-4.12,1.52-6.4,3.36-1.3,1.09-1.95,1.41-1.95,3.26,0,.43.11.86.11,1.41.11,1.19.11,2.17.11,3.14,0,2-.11,3.8-.11,6.4,0,3.91.86,5,2.38,6.84a21.48,21.48,0,0,1,2.61,3.91c-3.58,0-7.05-.65-10.85-.65-.33,0-.76.1-1.3.1-2.39.22-4.34.55-5.86.55a4.35,4.35,0,0,1-1.3-.11c-.33-.11-.44-.22-.44-.44,0-.76,1.3-2.06,2.06-3.25,1-1.52,1.63-3.47,1.85-7.27v-1.74c0-2.6-.33-4-.33-7.81,0-2.82-.22-5.64-.22-7.81,0-1.85.55-3.58.55-5.64,0-1.63-.22-3.37-.33-5.54.11-2,.11-4.66.11-7.59-.11-8.14-.33-11.4-.33-15V139.67a5.8,5.8,0,0,0-1.19-3.25c-1.19-1.52-2.71-4.23-2.71-4.89,0-.43.76-.54,2.06-.54h1.41c1.19,0,3-.11,4.77-.11a12.76,12.76,0,0,1,3.69.33,8,8,0,0,0,2.39.22c2.39,0,5.1-.44,6.29-.44,1.63,0,4.56.22,7.82.54.54,0,1,.11,1.52.11,2.71,0,5.1-.65,7.05-.65,2.28,0,7.38,2.72,7.38,7.49,0,3.25-.11,5.64-.11,7.81a32.28,32.28,0,0,0,.11,3.26c.21,2.17.43,4.12.43,5.75a6.59,6.59,0,0,1-.22,2.17,8,8,0,0,0-.32,2.28c0,.86.11,1.62.11,2.38,0,.55.1,3.58.1,4,0,2.28-.43,3.25-1.73,5.53s-8.25,6.51-8.25,7.16A66.53,66.53,0,0,1,396.17,185.68Zm-15.63-11.29c1.52-1.3,3.15-2.27,4.89-3.58s3.68-1.62,4.88-3.25,1.63-4.88,1.63-7.49c0-2.28-.22-5.75-.22-11.07,0-1.84-.22-1.95-.22-4.23a3.8,3.8,0,0,0-3.9-3.9h-6c-1.74.1-4.56.32-5.75.32-1,0-1.2,4-1.2,6.62s-.21,3.8-.21,6.51c0,1.63-.22,2.93-.22,4.45a13.22,13.22,0,0,0,.43,3.36A13.16,13.16,0,0,1,375,165c0,2-.44,3.8-.54,6.3-.11,1.52-.11,2.71-.11,3.58,0,1.3.11,2.06.54,2.06A12.51,12.51,0,0,0,380.54,174.39Z"/><path class="cls-3" d="M427.74,130.88c1.41,0,3.36.33,4.34.33,1.73,0,4-.22,6.51-.22s5.86-.21,9.33-.21c4.67,0,5.75.1,5.75.75s-1.3,2.07-2.6,3.48c-1,1.19-1,1-1.2,2.38,0,.22-.11.44-.11.66a3.58,3.58,0,0,0-.1,1c-.11,1.52.65,2.5,1,5,.33,3,1.09,3.15,1.74,7s2.71,9.44,3.25,12.37,2.93,11.28,3.15,13.45c.54,2.17.44,3.37,1.63,5.75s.76,4.89,1.63,7.6,2.06,8.9,2.49,10.85,2.17,4.23,3.47,6.18c1.2,1.52,3,3.58,3,4.45a.4.4,0,0,1-.43.44c-1.63.21-6.4.21-10.31.43-1.63,0-3.36-.11-5-.11a14.34,14.34,0,0,0-2.17.11,16.53,16.53,0,0,1-2.06.22c-1.09,0-1.74-.22-1.63-.65a.83.83,0,0,1,.22-.44c.54-.87,4.12-4.88,4.23-5.53a33.48,33.48,0,0,0-.87-5.32c-.65-3-2.06-8-2.71-10-.33-1.19-1.2-2.17-2.17-2.17a1.91,1.91,0,0,0-1.31.65c-1.3,1.41-3.9,2.5-5.1,3.36s-4.23,0-4.77,1.52c-.87,1.52-3.36,2.17-6.51,4.13s-3.8,1.41-4.12,3.58a13.92,13.92,0,0,0-.33,2.49,3.79,3.79,0,0,0,.33,1.52,7.26,7.26,0,0,0,2.17,4.23c.87,1,1.62,1.85,1.52,2.28,0,.22-.11.22-.33.33a8.67,8.67,0,0,1-1.95.11c-1.74,0-4.34-.11-6.51-.11-2.5,0-5.64.32-7.82.32-.54,0-1-.11-1.41-.11-1.19-.1-2.17-.32-2.06-.86a2,2,0,0,1,.65-1.09c1.41-1.52,2.93-4,4.24-5.53,1-1.52.43-4.23,1.41-6.19s1.19-5.31,2.06-10.2,3.9-14,4.23-15.95,1.09-7.16,2.06-8.46c1.2-1.3,2.06-8.79,2.06-8.79,3.8-15.41,4-16,4-16.49a5.28,5.28,0,0,0-1.41-3.91c-1-1-2.93-3-3-4C426.22,131,426.87,130.88,427.74,130.88Zm8.68,27.56c-.87,3.48-1.09,5-2.17,6.62s-1.2,5.86-2.06,8.47-1.31,5.42-2,9.11a42.42,42.42,0,0,0-.54,5.43c.22-.44,4.67-1.85,6.51-3.37,1.63-1.52,7.49-4.55,9.66-5.42a2,2,0,0,0,1.19-2.06c.11-1.52-.87-4.78-1.52-7.49-1.3-4.45-.54-5.86-1.95-7.49a10.43,10.43,0,0,1-1.63-5.75,27.76,27.76,0,0,0-.65-4.88c-.43-.76-1.41-4.23-2.06-4.23S437.39,155,436.42,158.44Z"/><polygon class="cls-3" points="216.91 91.77 267.31 120.87 317.71 91.77 216.91 91.77"/><polygon class="cls-4" points="218.85 32.45 267.31 4.47 315.77 32.45 267.31 60.43 218.85 32.45"/><polygon class="cls-4" points="218.85 32.45 218.85 88.42 267.31 116.39 267.31 60.43 218.85 32.45"/><polygon class="cls-4" points="267.31 60.43 315.77 32.45 315.77 88.42 267.31 116.39 267.31 60.43"/><path class="cls-5" d="M227.48,93.4,226,76.32l11.19,3.38,1.77-14.57,10.84,5s-1.24,7.29-.71,7.29,6.93-2.55,6.93-3,4.62-12.49,2.13-12.49-18.47-4.62-19-4.62-9.06-6.75-9.06-6.75l6.51-7.88L218.85,32.45v56Z"/><path class="cls-5" d="M268.07,12.19,247.28,24.27l8.89,10.84-8.89,2.13,10.4,12.08V41.68l8.26.35,2.13,7.29,21.49-16.87-3.19-6.58,2.13-3s-6.58-3.73-7.29-3.73-9.77,4.26-9.77,4.26l-4.13-5.15,5.38-5Z"/><polygon class="cls-5" points="309.11 92.26 304.22 81.57 311.6 64.16 302.01 60.43 302.01 49.32 296.85 59.58 285.63 64.16 279.73 58.4 280.61 66.96 276.04 75.81 288.73 83.04 287.69 96.03 276.92 95.29 280.46 88.36 269.69 85.85 274.56 90.42 271.9 99.72 287.11 99.72 286.05 105.58 309.11 92.26"/></g></svg>