<svg id="Layer_3" data-name="Layer 3" xmlns="http://www.w3.org/2000/svg" viewBox="0 0 458.69 910.04"><defs><style>.cls-1,.cls-8{fill:#1a1a1a;}.cls-1,.cls-10,.cls-11,.cls-2,.cls-3,.cls-31,.cls-4,.cls-8,.cls-9{stroke:#000;}.cls-1,.cls-11,.cls-2,.cls-4,.cls-8,.cls-9{stroke-linecap:round;stroke-linejoin:round;}.cls-1,.cls-2,.cls-3{stroke-width:3px;}.cls-2,.cls-9{fill:#333;}.cls-10,.cls-3{fill:#fed8af;}.cls-10,.cls-3,.cls-31{stroke-miterlimit:10;}.cls-11,.cls-4,.cls-6{fill:#fff;}.cls-5{fill:#a34f3f;}.cls-7{fill:#1b1464;}.cls-10,.cls-11,.cls-8,.cls-9{stroke-width:0.5px;}.cls-12,.cls-19{font-size:25.45px;}.cls-12{fill:#2e3192;}.cls-12,.cls-19,.cls-26{font-family:MyriadPro-Regular, Myriad Pro;}.cls-13{letter-spacing:-0.01em;}.cls-14{letter-spacing:0em;}.cls-15{letter-spacing:0em;}.cls-16{letter-spacing:0em;}.cls-17{letter-spacing:0em;}.cls-18{letter-spacing:-0.01em;}.cls-20{letter-spacing:-0.01em;}.cls-21{letter-spacing:0em;}.cls-22{letter-spacing:0.01em;}.cls-23{letter-spacing:-0.01em;}.cls-24{letter-spacing:0.03em;}.cls-25{letter-spacing:0.01em;}.cls-26{font-size:32.42px;}.cls-27{letter-spacing:-0.01em;}.cls-28{letter-spacing:-0.01em;}.cls-29{letter-spacing:0em;}.cls-30{letter-spacing:-0.01em;}.cls-31{fill:none;stroke-width:4px;}</style></defs><path class="cls-1" d="M105.1,310.11c-3.85,7.7-7.76,15.58-8.8,24.12-2.14,17.48,8,35.17,4,52.33a33.47,33.47,0,0,1-24,24.4c-4.61,1.15-9.52,1.32-13.8,3.38s-7.79,7-6.09,11.44c14.63,8.65,33.63,2.37,47.76-7.07,9.82-6.55,19-15.07,22.74-26.28,1.87-5.69,2.23-11.74,2.92-17.69a153,153,0,0,1,22.81-64c4.14-6.5,9.32-12.18,13.57-18.57,6.74-10.13,1-24-9.63-28.92-8.79-4.07-19.19-1.5-26.54,4.34-4.93,3.92-8.14,9.15-11,14.67-3.82,7.36-7.43,14.82-11.14,22.24Z" transform="translate(68.98 472.3)"/><path class="cls-1" d="M164,252.69c-13.13,26.05-9.85,58,2,84.65a52,52,0,0,0,7.66,13,58.71,58.71,0,0,0,10.81,9.17c22,15.63,45.73,29.2,71.32,37.83s53.2,12.19,79.85,7.78a84.46,84.46,0,0,0,15-3.72,58.1,58.1,0,0,0,32.09-27.92c6.54-13,7.51-28.77,2-42.2-.88-2.15-2-4.33-3.91-5.64a13.12,13.12,0,0,0-5.28-1.77,133.22,133.22,0,0,0-23.84-2c-2.88,0-5.83.12-8.56-.79-5-1.69-8.31-6.44-12.11-10.18s-9.74-6.69-14.29-3.92c-5.64,3.42-4,12.23-.11,17.53a33.93,33.93,0,0,0,17.2,12.16c5.61,1.72,11.6,1.95,17.2,3.7s11.16,5.59,12.38,11.33c1.08,5.07-1.57,10.36-5.44,13.81s-8.8,5.43-13.62,7.33a113.31,113.31,0,0,1-14,4.82c-13.49,3.37-27.86,1.76-41.1-2.49s-25.52-11-37.48-18.11c-5.26-3.11-10.61-6.4-14.29-11.27-5.91-7.81-6.6-18.25-7.06-28-.3-6.5-.54-13.34,2.4-19.14,2.83-5.61,8.24-9.45,13.77-12.42a34.42,34.42,0,0,1,10.57-4c7.21-1.19,14.46,1.3,21.74,1.82,18.23,1.3,35.63-10.27,45.52-25.64s13.43-34,14.91-52.18c.18-2.26.26-4.76-1.18-6.51-1.28-1.55-3.41-2.06-5.41-2.31-4.52-.56-9.38-.17-13.15,2.39-5.88,4-7.44,12-7.3,19.11s1.46,14.74-1.38,21.36c-4.67,10.91-18.42,14.52-30.29,14.4s-24.25-2.48-35.26,2c-11.27,4.54-20,15.87-32.19,16.14-9.64.22-18.67-8.07-19.29-17.68-.14-2.19,0-4.69-1.63-6.17-1.28-1.17-3.18-1.23-4.91-1.24H172" transform="translate(68.98 472.3)"/><path class="cls-2" d="M298.94,314.18c-9.21-4.85-20.94.16-27.82,8S260.64,340,255.46,349.06a85.9,85.9,0,0,1-17.72,21.68c-3.43,3-7.24,5.83-11.67,6.94-5.69,1.43-11.74-.12-17.07-2.57a52.52,52.52,0,0,1-27.39-30.27c-10.16-29.49,7.36-62.65-.73-92.78-5.76-21.46-23.56-37.52-42.12-49.73-5.62-3.7-11.57-7.24-18.19-8.44l-12.69,3.53c1.48,19.59,2.89,39.78-3.2,58.47a62.47,62.47,0,0,1-12.27,21.63c-.74.4-1.49.79-2.25,1.15-4.7,2.26-9.75,3.68-14.68,5.4-16.08,5.61-30.85,14.35-45.51,23-4.41,2.61-8.86,5.26-12.57,8.79-4,3.79-7,8.48-9.79,13.18-3.1,5.13-6.15,10.67-6.11,16.67A34.44,34.44,0,0,0,3,354.29c3.78,14.15,8.3,29.43,20.18,38,5.44,3.91,12.55,6.63,15,12.89,1.26,3.27,1.75,7.89,5.21,8.48,2,.34,3.87-1.09,4.76-2.87a14,14,0,0,0,1-5.83l.45-12.42c.1-2.7.13-5.63-1.43-7.83-1.32-1.87-3.53-2.85-5.54-4-12-6.66-19.17-21.92-15.07-35.06,4.16-13.33,17.86-21.53,31.44-24.77s27.8-2.75,41.51-5.38a47.46,47.46,0,0,0,5.72-1.45c0,.13.07.26.1.39.91.22,1.83.42,2.73.65,9.54-2.21,20.71,3.68,26.71,12.09,7.21,10.12,9.46,22.83,13.73,34.51C154,374,160.8,385.3,167.56,396.5c4.91,8.14,9.92,16.4,17,22.79,6.57,6,14.63,10,22.86,13.37,5,2,10.28,3.82,15.68,3.56s10.46-2.56,15.14-5.24A91.25,91.25,0,0,0,283,361.34c1-11.32.45-24.16,8.45-32.23,2.19-2.2,4.9-3.88,6.79-6.35S300.91,316.57,298.94,314.18Z" transform="translate(68.98 472.3)"/><polygon class="cls-2" points="137.82 541.35 254.82 473.8 371.82 541.35 254.82 608.9 137.82 541.35"/><polygon class="cls-2" points="137.82 541.35 137.82 676.45 254.82 744 254.82 608.9 137.82 541.35"/><polygon class="cls-2" points="254.82 608.9 371.82 541.35 371.82 676.45 254.82 744 254.82 608.9"/><polygon class="cls-3" points="361.03 682.68 347.27 617.21 361.03 591.36 338.83 575.54 310.35 604.02 270.26 613.51 262.35 645.69 275.01 652.55 274.39 732.7 361.03 682.68"/><polygon class="cls-4" points="285.44 658.23 306.94 645.81 306.94 670.64 285.44 683.06 285.44 658.23"/><polygon points="319.14 682.61 330.92 675.81 330.92 689.41 319.14 696.22 319.14 682.61"/><polygon class="cls-5" points="294.93 663.39 305.68 657.18 305.68 669.6 294.93 675.81 294.93 663.39"/><polygon class="cls-5" points="317.66 669.41 327.54 664.05 328.85 670.5 318.96 675.86 317.66 669.41"/><polygon class="cls-4" points="330.92 631.72 343.66 619.31 343.66 644.14 330.92 656.55 330.92 631.72"/><polygon class="cls-5" points="332.91 640.18 339.28 633.97 339.28 646.39 332.91 652.6 332.91 640.18"/><line class="cls-3" x1="294.93" y1="692.64" x2="238.09" y2="692.64"/><line class="cls-3" x1="294.93" y1="701.08" x2="244.94" y2="716.37"/><line class="cls-3" x1="350.97" y1="662.04" x2="381.56" y2="626.26"/><line class="cls-3" x1="350.97" y1="669.95" x2="384.2" y2="652.6"/><polyline class="cls-2" points="224.09 555.11 165.54 575.54 213.54 623.68"/><polyline class="cls-2" points="291.07 515.54 366.26 487.37 354.7 531.46 332.91 518.88"/><rect class="cls-6" x="0.5" y="257.18" width="343.97" height="100.27" rx="12.95"/><path class="cls-7" d="M262.54-214.61A12.46,12.46,0,0,1,275-202.16v74.37a12.46,12.46,0,0,1-12.45,12.45H-55.53A12.46,12.46,0,0,1-68-127.79v-74.37a12.46,12.46,0,0,1,12.45-12.45H262.54m0-1H-55.53A13.45,13.45,0,0,0-69-202.16v74.37a13.45,13.45,0,0,0,13.45,13.45H262.54A13.45,13.45,0,0,0,276-127.79v-74.37a13.45,13.45,0,0,0-13.45-13.45Z" transform="translate(68.98 472.3)"/><path class="cls-8" d="M-38.56-148.18a14.38,14.38,0,0,0-1.67,4.57c-.41,3.32,1.51,6.67.76,9.93A6.34,6.34,0,0,1-44-129.06a13.37,13.37,0,0,0-2.62.64,1.89,1.89,0,0,0-1.16,2.17c2.78,1.64,6.38.45,9.06-1.34a10.22,10.22,0,0,0,4.31-5,16.5,16.5,0,0,0,.56-3.36,28.91,28.91,0,0,1,2.27-8.3,29.34,29.34,0,0,1,2.05-3.83c.79-1.23,1.77-2.31,2.58-3.52a3.9,3.9,0,0,0-1.83-5.49,4.91,4.91,0,0,0-5,.83,8.06,8.06,0,0,0-2.09,2.78c-.72,1.39-1.41,2.81-2.11,4.22Z" transform="translate(68.98 472.3)"/><path class="cls-8" d="M-27.4-159.07c-2.49,4.94-1.86,11,.38,16a9.43,9.43,0,0,0,1.45,2.47,11.38,11.38,0,0,0,2.05,1.74A53.06,53.06,0,0,0-10-131.63a31.63,31.63,0,0,0,15.15,1.47,16.26,16.26,0,0,0,2.83-.7,11.07,11.07,0,0,0,6.09-5.3,9.76,9.76,0,0,0,.37-8,2.26,2.26,0,0,0-.74-1.07,2.48,2.48,0,0,0-1-.34,25.38,25.38,0,0,0-4.52-.38,4.61,4.61,0,0,1-1.62-.15A6.72,6.72,0,0,1,4.26-148c-.72-.71-1.85-1.27-2.71-.74-1.07.65-.77,2.32,0,3.32a6.4,6.4,0,0,0,3.26,2.31c1.06.33,2.2.37,3.26.7a3.21,3.21,0,0,1,2.35,2.15,2.89,2.89,0,0,1-1,2.62,8.52,8.52,0,0,1-2.59,1.39,20.85,20.85,0,0,1-2.66.91,14.27,14.27,0,0,1-7.79-.47,35.82,35.82,0,0,1-7.11-3.43,9.14,9.14,0,0,1-2.71-2.14c-1.12-1.48-1.25-3.46-1.34-5.32a7.3,7.3,0,0,1,.46-3.63,5.9,5.9,0,0,1,2.61-2.35,6.62,6.62,0,0,1,2-.76c1.36-.23,2.74.25,4.12.35,3.46.24,6.75-1.95,8.63-4.87s2.55-6.44,2.83-9.89a1.7,1.7,0,0,0-.23-1.24,1.49,1.49,0,0,0-1-.43,3.61,3.61,0,0,0-2.5.45A4.16,4.16,0,0,0,.7-165.48c0,1.37.28,2.8-.26,4-.89,2.07-3.49,2.76-5.75,2.73s-4.6-.47-6.68.37-3.8,3-6.11,3.07a3.73,3.73,0,0,1-3.66-3.36,1.66,1.66,0,0,0-.3-1.17A1.38,1.38,0,0,0-23-160h-2.88" transform="translate(68.98 472.3)"/><path class="cls-9" d="M-1.8-147.41c-1.75-.92-4,0-5.28,1.51s-2,3.39-3,5.1a16,16,0,0,1-3.36,4.11,5.4,5.4,0,0,1-2.21,1.32,5,5,0,0,1-3.24-.49A10,10,0,0,1-24-141.6c-1.93-5.59,1.39-11.88-.14-17.59-1.09-4.07-4.47-7.12-8-9.43a9.45,9.45,0,0,0-3.45-1.6l-2.4.67c.28,3.71.54,7.54-.61,11.08A12,12,0,0,1-41-154.36l-.42.22c-.9.42-1.85.69-2.79,1a48.85,48.85,0,0,0-8.63,4.36,12.87,12.87,0,0,0-2.38,1.67,11.7,11.7,0,0,0-1.86,2.5,6.19,6.19,0,0,0-1.16,3.16,7.07,7.07,0,0,0,.29,1.63c.72,2.68,1.57,5.58,3.83,7.2,1,.74,2.38,1.26,2.83,2.44.24.62.33,1.5,1,1.61a.91.91,0,0,0,.9-.54,2.61,2.61,0,0,0,.2-1.11l.09-2.35a2.43,2.43,0,0,0-.28-1.49,3,3,0,0,0-1-.75,5.91,5.91,0,0,1-2.85-6.65c.78-2.53,3.38-4.08,6-4.69s5.27-.53,7.87-1a8.52,8.52,0,0,0,1.08-.27.19.19,0,0,1,0,.07l.52.13a5.24,5.24,0,0,1,5.06,2.29c1.37,1.92,1.8,4.33,2.61,6.54a39,39,0,0,0,3.42,6.6,18.5,18.5,0,0,0,3.22,4.32,14.27,14.27,0,0,0,4.33,2.54,7.2,7.2,0,0,0,3,.67,6.53,6.53,0,0,0,2.87-1,17.28,17.28,0,0,0,8.48-13.21c.2-2.14.09-4.58,1.61-6.11a14.63,14.63,0,0,0,1.28-1.2A1.37,1.37,0,0,0-1.8-147.41Z" transform="translate(68.98 472.3)"/><polygon class="cls-9" points="23.54 278.4 45.73 265.59 67.92 278.4 45.73 291.21 23.54 278.4"/><polygon class="cls-9" points="23.54 278.4 23.54 304.02 45.73 316.83 45.73 291.21 23.54 278.4"/><polygon class="cls-9" points="45.73 291.21 67.92 278.4 67.92 304.02 45.73 316.83 45.73 291.21"/><polygon class="cls-10" points="65.87 305.2 63.26 292.79 65.87 287.88 61.66 284.88 56.26 290.29 48.66 292.08 47.16 298.19 49.56 299.49 49.44 314.69 65.87 305.2"/><polygon class="cls-11" points="51.53 300.56 55.61 298.21 55.61 302.92 51.53 305.27 51.53 300.56"/><polygon points="57.93 305.19 60.16 303.9 60.16 306.48 57.93 307.77 57.93 305.19"/><polygon class="cls-5" points="53.34 301.54 55.38 300.37 55.38 302.72 53.34 303.9 53.34 301.54"/><polygon class="cls-5" points="57.65 302.69 59.52 301.67 59.77 302.89 57.89 303.91 57.65 302.69"/><polygon class="cls-11" points="60.16 295.54 62.58 293.18 62.58 297.89 60.16 300.25 60.16 295.54"/><polygon class="cls-5" points="60.54 297.14 61.75 295.96 61.75 298.32 60.54 299.5 60.54 297.14"/><line class="cls-10" x1="53.34" y1="307.09" x2="42.56" y2="307.09"/><line class="cls-10" x1="53.34" y1="308.69" x2="43.86" y2="311.59"/><line class="cls-10" x1="63.96" y1="301.29" x2="69.76" y2="294.5"/><line class="cls-10" x1="63.96" y1="302.79" x2="70.26" y2="299.5"/><polyline class="cls-9" points="39.9 281.01 28.8 284.88 37.9 294.01"/><polyline class="cls-9" points="52.6 273.51 66.86 268.16 64.67 276.52 60.54 274.14"/><text class="cls-12" transform="translate(99.96 331.84)">Git<tspan class="cls-13" x="30.82" y="0">t</tspan><tspan x="39.09" y="0">e</tspan><tspan class="cls-14" x="51.84" y="0">r</tspan><tspan class="cls-15" x="60.26" y="0">r</tspan><tspan class="cls-16" x="68.46" y="0">agame/</tspan><tspan class="cls-13" x="149.92" y="0">g</tspan><tspan class="cls-17" x="163.99" y="0">it</tspan><tspan class="cls-13" x="178.37" y="0">t</tspan><tspan x="186.64" y="0">e</tspan><tspan class="cls-14" x="199.39" y="0">r</tspan><tspan class="cls-18" x="207.81" y="0">r</tspan><tspan x="216" y="0">a</tspan></text><text class="cls-19" transform="translate(99.96 296.97)"><tspan class="cls-20">T</tspan><tspan class="cls-17" x="12.47" y="0">he </tspan><tspan class="cls-21" x="44.74" y="0">C</tspan><tspan x="59.42" y="0">i</tspan><tspan class="cls-22" x="65.38" y="0">t</tspan><tspan x="74.03" y="0">y </tspan><tspan class="cls-14" x="91.41" y="0">R</tspan><tspan x="105.2" y="0">eposi</tspan><tspan class="cls-23" x="162.44" y="0">t</tspan><tspan class="cls-16" x="170.71" y="0">o</tspan><tspan class="cls-24" x="184.68" y="0">r</tspan><tspan class="cls-16" x="193.63" y="0">y!</tspan></text><rect class="cls-6" x="0.5" y="112.13" width="343.97" height="100.27" rx="12.95"/><path class="cls-7" d="M262.54-359.67A12.47,12.47,0,0,1,275-347.22v74.38a12.47,12.47,0,0,1-12.45,12.45H-55.53A12.46,12.46,0,0,1-68-272.84v-74.38a12.46,12.46,0,0,1,12.45-12.45H262.54m0-1H-55.53A13.45,13.45,0,0,0-69-347.22v74.38a13.45,13.45,0,0,0,13.45,13.45H262.54A13.46,13.46,0,0,0,276-272.84v-74.38a13.45,13.45,0,0,0-13.45-13.45Z" transform="translate(68.98 472.3)"/><path class="cls-8" d="M-38.56-293.24a14.44,14.44,0,0,0-1.67,4.58c-.41,3.31,1.51,6.67.76,9.92A6.34,6.34,0,0,1-44-274.11a13.37,13.37,0,0,0-2.62.64,1.89,1.89,0,0,0-1.16,2.17c2.78,1.64,6.38.45,9.06-1.34a10.24,10.24,0,0,0,4.31-5,16.4,16.4,0,0,0,.56-3.35,28.82,28.82,0,0,1,2.27-8.3,28.71,28.71,0,0,1,2.05-3.83c.79-1.24,1.77-2.32,2.58-3.53a3.89,3.89,0,0,0-1.83-5.48,4.93,4.93,0,0,0-5,.82,8.26,8.26,0,0,0-2.09,2.78c-.72,1.4-1.41,2.82-2.11,4.22Z" transform="translate(68.98 472.3)"/><path class="cls-8" d="M-27.4-304.13c-2.49,4.94-1.86,11,.38,16.06a9.6,9.6,0,0,0,1.45,2.47,11.32,11.32,0,0,0,2.05,1.73A52.74,52.74,0,0,0-10-276.69a31.51,31.51,0,0,0,15.15,1.47,16.26,16.26,0,0,0,2.83-.7,11,11,0,0,0,6.09-5.3,9.76,9.76,0,0,0,.37-8,2.26,2.26,0,0,0-.74-1.07,2.46,2.46,0,0,0-1-.33A24.49,24.49,0,0,0,8.18-291a5.13,5.13,0,0,1-1.62-.15,6.72,6.72,0,0,1-2.3-1.93c-.72-.71-1.85-1.27-2.71-.75-1.07.65-.77,2.32,0,3.33a6.33,6.33,0,0,0,3.26,2.3c1.06.33,2.2.37,3.26.71a3.21,3.21,0,0,1,2.35,2.14,2.87,2.87,0,0,1-1,2.62,8.31,8.31,0,0,1-2.59,1.39,20.9,20.9,0,0,1-2.66.92,14.37,14.37,0,0,1-7.79-.47,35.86,35.86,0,0,1-7.11-3.44,9,9,0,0,1-2.71-2.14c-1.12-1.48-1.25-3.46-1.34-5.31a7.3,7.3,0,0,1,.46-3.63,6,6,0,0,1,2.61-2.36,6.35,6.35,0,0,1,2-.75c1.36-.23,2.74.24,4.12.34,3.46.25,6.75-1.95,8.63-4.86a21.27,21.27,0,0,0,2.83-9.9,1.68,1.68,0,0,0-.23-1.23,1.5,1.5,0,0,0-1-.44,3.67,3.67,0,0,0-2.5.45A4.18,4.18,0,0,0,.7-310.53c0,1.36.28,2.79-.26,4-.89,2.07-3.49,2.75-5.75,2.73s-4.6-.47-6.68.37-3.8,3-6.11,3.06a3.73,3.73,0,0,1-3.66-3.35,1.64,1.64,0,0,0-.3-1.17,1.39,1.39,0,0,0-.94-.24h-2.88" transform="translate(68.98 472.3)"/><path class="cls-9" d="M-1.8-292.47c-1.75-.92-4,0-5.28,1.51s-2,3.4-3,5.11a16,16,0,0,1-3.36,4.11,5.51,5.51,0,0,1-2.21,1.32,5,5,0,0,1-3.24-.49A10,10,0,0,1-24-286.65c-1.93-5.6,1.39-11.88-.14-17.6-1.09-4.07-4.47-7.11-8-9.43a9.62,9.62,0,0,0-3.45-1.6l-2.4.67c.28,3.72.54,7.55-.61,11.09a11.86,11.86,0,0,1-2.33,4.1l-.42.22a25.15,25.15,0,0,1-2.79,1,48.9,48.9,0,0,0-8.63,4.37,12.41,12.41,0,0,0-2.38,1.67A11.39,11.39,0,0,0-57-289.65a6.26,6.26,0,0,0-1.16,3.17,6.89,6.89,0,0,0,.29,1.62c.72,2.68,1.57,5.58,3.83,7.2,1,.75,2.38,1.26,2.83,2.45.24.62.33,1.5,1,1.61a.92.92,0,0,0,.9-.55,2.59,2.59,0,0,0,.2-1.1l.09-2.36a2.4,2.4,0,0,0-.28-1.48,2.85,2.85,0,0,0-1-.75,5.92,5.92,0,0,1-2.85-6.65c.78-2.53,3.38-4.09,6-4.7s5.27-.52,7.87-1a8.58,8.58,0,0,0,1.08-.28.24.24,0,0,1,0,.08l.52.12A5.26,5.26,0,0,1-32.75-290c1.37,1.92,1.8,4.33,2.61,6.55a38.5,38.5,0,0,0,3.42,6.59,18.55,18.55,0,0,0,3.22,4.33A14.24,14.24,0,0,0-19.17-270a7.21,7.21,0,0,0,3,.68,6.54,6.54,0,0,0,2.87-1,17.27,17.27,0,0,0,8.48-13.2c.2-2.15.09-4.58,1.61-6.12a12.12,12.12,0,0,0,1.28-1.2A1.37,1.37,0,0,0-1.8-292.47Z" transform="translate(68.98 472.3)"/><polygon class="cls-9" points="23.54 133.34 45.73 120.53 67.92 133.34 45.73 146.16 23.54 133.34"/><polygon class="cls-9" points="23.54 133.34 23.54 158.97 45.73 171.78 45.73 146.16 23.54 133.34"/><polygon class="cls-9" points="45.73 146.16 67.92 133.34 67.92 158.97 45.73 171.78 45.73 146.16"/><polygon class="cls-10" points="65.87 160.15 63.26 147.73 65.87 142.83 61.66 139.83 56.26 145.23 48.66 147.03 47.16 153.13 49.56 154.43 49.44 169.63 65.87 160.15"/><polygon class="cls-11" points="51.53 155.51 55.61 153.16 55.61 157.86 51.53 160.22 51.53 155.51"/><polygon points="57.93 160.13 60.16 158.84 60.16 161.42 57.93 162.71 57.93 160.13"/><polygon class="cls-5" points="53.34 156.49 55.38 155.31 55.38 157.67 53.34 158.84 53.34 156.49"/><polygon class="cls-5" points="57.65 157.63 59.52 156.61 59.77 157.84 57.89 158.85 57.65 157.63"/><polygon class="cls-11" points="60.16 150.48 62.58 148.13 62.58 152.84 60.16 155.19 60.16 150.48"/><polygon class="cls-5" points="60.54 152.09 61.75 150.91 61.75 153.26 60.54 154.44 60.54 152.09"/><line class="cls-10" x1="53.34" y1="162.03" x2="42.56" y2="162.03"/><line class="cls-10" x1="53.34" y1="163.64" x2="43.86" y2="166.54"/><line class="cls-10" x1="63.96" y1="156.23" x2="69.76" y2="149.45"/><line class="cls-10" x1="63.96" y1="157.73" x2="70.26" y2="154.44"/><polyline class="cls-9" points="39.9 135.95 28.8 139.83 37.9 148.96"/><polyline class="cls-9" points="52.6 128.45 66.86 123.11 64.67 131.47 60.54 129.08"/><text class="cls-12" transform="translate(99.96 186.79)">Git<tspan class="cls-13" x="30.82" y="0">t</tspan><tspan x="39.09" y="0">e</tspan><tspan class="cls-14" x="51.84" y="0">r</tspan><tspan class="cls-15" x="60.26" y="0">r</tspan><tspan class="cls-16" x="68.46" y="0">agame/</tspan><tspan class="cls-13" x="149.92" y="0">g</tspan><tspan class="cls-17" x="163.99" y="0">it</tspan><tspan class="cls-13" x="178.37" y="0">t</tspan><tspan x="186.64" y="0">e</tspan><tspan class="cls-14" x="199.39" y="0">r</tspan><tspan class="cls-18" x="207.81" y="0">r</tspan><tspan x="216" y="0">a</tspan></text><text class="cls-19" transform="translate(99.96 151.91)"><tspan class="cls-25">S</tspan><tspan x="12.7" y="0">ee our </tspan><tspan class="cls-14" x="85.3" y="0">R</tspan><tspan x="99.09" y="0">eposi</tspan><tspan class="cls-23" x="156.33" y="0">t</tspan><tspan class="cls-16" x="164.6" y="0">o</tspan><tspan class="cls-24" x="178.57" y="0">r</tspan><tspan class="cls-16" x="187.53" y="0">y!</tspan></text><text class="cls-26" transform="translate(31.83 27.14)"><tspan class="cls-27">U</tspan><tspan x="20.78" y="0">se Hel</tspan><tspan class="cls-28" x="101.77" y="0">v</tspan><tspan class="cls-29" x="117.05" y="0">etica </tspan><tspan class="cls-30" x="188.64" y="0">f</tspan><tspan x="197.68" y="0">or Black</tspan></text><line class="cls-31" x1="182.51" y1="42.53" x2="182.51" y2="65.72"/><polygon points="182.5 93.96 166.24 54.16 182.5 63.6 198.76 54.16 182.5 93.96"/></svg>