<svg id="Layer_2" data-name="Layer 2" xmlns="http://www.w3.org/2000/svg" viewBox="0 0 389.71 437.74"><defs><style>.cls-1{fill:#1a1a1a;}.cls-1,.cls-2,.cls-3,.cls-4{stroke:#000;}.cls-1,.cls-2,.cls-4,.cls-6{stroke-linecap:round;stroke-linejoin:round;}.cls-1,.cls-2,.cls-3{stroke-width:3px;}.cls-2{fill:#333;}.cls-3{fill:#fed8af;stroke-miterlimit:10;}.cls-4,.cls-6{fill:#fff;}.cls-5{fill:#a34f3f;}.cls-6{stroke:#2e3192;}</style></defs><path class="cls-1" d="M105.1,310.11c-3.85,7.7-7.76,15.58-8.8,24.12-2.14,17.48,8,35.17,4,52.33a33.47,33.47,0,0,1-24,24.4c-4.61,1.15-9.52,1.32-13.8,3.38s-7.79,7-6.09,11.44c14.63,8.65,33.63,2.37,47.76-7.07,9.82-6.55,19-15.07,22.74-26.28,1.87-5.69,2.23-11.74,2.92-17.69a153,153,0,0,1,22.81-64c4.14-6.5,9.32-12.18,13.57-18.57,6.74-10.13,1-24-9.63-28.92-8.79-4.07-19.19-1.5-26.54,4.34-4.93,3.92-8.14,9.15-11,14.67-3.82,7.36-7.43,14.82-11.14,22.24Z"/><path class="cls-1" d="M164,252.69c-13.13,26.05-9.85,58,2,84.65a52,52,0,0,0,7.66,13,58.71,58.71,0,0,0,10.81,9.17c22,15.63,45.73,29.2,71.32,37.83s53.2,12.19,79.85,7.78a84.46,84.46,0,0,0,15-3.72,58.1,58.1,0,0,0,32.09-27.92c6.54-13,7.51-28.77,2-42.2-.88-2.15-2-4.33-3.91-5.64a13.12,13.12,0,0,0-5.28-1.77,133.22,133.22,0,0,0-23.84-2c-2.88,0-5.83.12-8.56-.79-5-1.69-8.31-6.44-12.11-10.18s-9.74-6.69-14.29-3.92c-5.64,3.42-4,12.23-.11,17.53a33.93,33.93,0,0,0,17.2,12.16c5.61,1.72,11.6,1.95,17.2,3.7s11.16,5.59,12.38,11.33c1.08,5.07-1.57,10.36-5.44,13.81s-8.8,5.43-13.62,7.33a113.31,113.31,0,0,1-14,4.82c-13.49,3.37-27.86,1.76-41.1-2.49s-25.52-11-37.48-18.11c-5.26-3.11-10.61-6.4-14.29-11.27-5.91-7.81-6.6-18.25-7.06-28-.3-6.5-.54-13.34,2.4-19.14,2.83-5.61,8.24-9.45,13.77-12.42a34.42,34.42,0,0,1,10.57-4c7.21-1.19,14.46,1.3,21.74,1.82,18.23,1.3,35.63-10.27,45.52-25.64s13.43-34,14.91-52.18c.18-2.26.26-4.76-1.18-6.51-1.28-1.55-3.41-2.06-5.41-2.31-4.52-.56-9.38-.17-13.15,2.39-5.88,4-7.44,12-7.3,19.11s1.46,14.74-1.38,21.36c-4.67,10.91-18.42,14.52-30.29,14.4s-24.25-2.48-35.26,2c-11.27,4.54-20,15.87-32.19,16.14-9.64.22-18.67-8.07-19.29-17.68-.14-2.19,0-4.69-1.63-6.17-1.28-1.17-3.18-1.23-4.91-1.24H172"/><path class="cls-2" d="M298.94,314.18c-9.21-4.85-20.94.16-27.82,8S260.64,340,255.46,349.06a85.9,85.9,0,0,1-17.72,21.68c-3.43,3-7.24,5.83-11.67,6.94-5.69,1.43-11.74-.12-17.07-2.57a52.52,52.52,0,0,1-27.39-30.27c-10.16-29.49,7.36-62.65-.73-92.78-5.76-21.46-23.56-37.52-42.12-49.73-5.62-3.7-11.57-7.24-18.19-8.44l-12.69,3.53c1.48,19.59,2.89,39.78-3.2,58.47a62.47,62.47,0,0,1-12.27,21.63c-.74.4-1.49.79-2.25,1.15-4.7,2.26-9.75,3.68-14.68,5.4-16.08,5.61-30.85,14.35-45.51,23-4.41,2.61-8.86,5.26-12.57,8.79-4,3.79-7,8.48-9.79,13.18-3.1,5.13-6.15,10.67-6.11,16.67A34.44,34.44,0,0,0,3,354.29c3.78,14.15,8.3,29.43,20.18,38,5.44,3.91,12.55,6.63,15,12.89,1.26,3.27,1.75,7.89,5.21,8.48,2,.34,3.87-1.09,4.76-2.87a14,14,0,0,0,1-5.83l.45-12.42c.1-2.7.13-5.63-1.43-7.83-1.32-1.87-3.53-2.85-5.54-4-12-6.66-19.17-21.92-15.07-35.06,4.16-13.33,17.86-21.53,31.44-24.77s27.8-2.75,41.51-5.38a47.46,47.46,0,0,0,5.72-1.45c0,.13.07.26.1.39.91.22,1.83.42,2.73.65,9.54-2.21,20.71,3.68,26.71,12.09,7.21,10.12,9.46,22.83,13.73,34.51C154,374,160.8,385.3,167.56,396.5c4.91,8.14,9.92,16.4,17,22.79,6.57,6,14.63,10,22.86,13.37,5,2,10.28,3.82,15.68,3.56s10.46-2.56,15.14-5.24A91.25,91.25,0,0,0,283,361.34c1-11.32.45-24.16,8.45-32.23,2.19-2.2,4.9-3.88,6.79-6.35S300.91,316.57,298.94,314.18Z"/><polygon class="cls-2" points="68.84 69.05 185.84 1.5 302.84 69.05 185.84 136.6 68.84 69.05"/><polygon class="cls-2" points="68.84 69.05 68.84 204.15 185.84 271.7 185.84 136.6 68.84 69.05"/><polygon class="cls-2" points="185.84 136.6 302.84 69.05 302.84 204.15 185.84 271.7 185.84 136.6"/><polygon class="cls-3" points="292.05 210.39 278.29 144.91 292.05 119.06 269.85 103.24 241.37 131.72 201.28 141.22 193.37 173.4 206.03 180.25 205.41 260.41 292.05 210.39"/><polygon class="cls-4" points="216.46 185.93 237.96 173.52 237.96 198.35 216.46 210.76 216.46 185.93"/><polygon points="250.16 210.31 261.94 203.51 261.94 217.12 250.16 223.92 250.16 210.31"/><polygon class="cls-5" points="225.95 191.09 236.7 184.89 236.7 197.3 225.95 203.51 225.95 191.09"/><polygon class="cls-5" points="248.68 197.11 258.56 191.75 259.87 198.21 249.98 203.56 248.68 197.11"/><polygon class="cls-4" points="261.94 159.43 274.68 147.01 274.68 171.84 261.94 184.26 261.94 159.43"/><polygon class="cls-5" points="263.93 167.89 270.3 161.68 270.3 174.09 263.93 180.3 263.93 167.89"/><line class="cls-3" x1="225.95" y1="220.34" x2="169.11" y2="220.34"/><line class="cls-3" x1="225.95" y1="228.78" x2="175.96" y2="244.08"/><line class="cls-3" x1="281.98" y1="189.75" x2="312.58" y2="153.97"/><line class="cls-3" x1="281.98" y1="197.66" x2="315.22" y2="180.3"/><polyline class="cls-2" points="155.1 82.81 96.56 103.24 144.56 151.38"/><polyline class="cls-2" points="222.09 43.25 297.28 15.07 285.71 59.16 263.93 46.58"/><polygon class="cls-6" points="297.28 264.7 339.58 289.13 297.28 313.55 254.98 289.13 297.28 264.7"/><polygon class="cls-6" points="297.28 313.55 297.28 321.58 254.98 297.16 254.98 289.13 297.28 313.55"/><polygon class="cls-6" points="297.28 313.55 297.28 321.58 339.58 297.16 339.58 289.13 297.28 313.55"/><polygon class="cls-6" points="318.43 301.34 339.58 289.13 338.26 279.2 319.89 291.63 318.43 301.34"/><polygon class="cls-6" points="277.25 274.23 277.25 285.51 300.2 299.71 300.2 288.99 277.25 274.23"/><polygon class="cls-6" points="288.52 263.42 317.11 280.13 307.82 285.32 319.89 291.63 338.26 279.2 301.89 259.9 288.52 263.42"/><polygon class="cls-6" points="304.53 263.42 304.53 272.78 288.52 263.42 288.52 273.81 307.82 286.34 307.82 285.32 317.11 280.13 317.11 270.75 304.53 263.42"/><polygon class="cls-6" points="327.92 264.7 327.92 273.9 317.11 280.13 317.11 270.75 327.92 264.7"/><polygon class="cls-6" points="310.24 280.96 310.24 294.16 300.2 299.71 300.2 288.29 310.24 280.96"/><path class="cls-6" d="M300.2,289c0-1.12,10-8,10-8s-21.44-14-21.86-14-11.13,7.24-11.13,7.24Z"/><polygon class="cls-6" points="317.11 270.75 315.11 251.82 304.53 263.42 317.11 270.75"/><polygon class="cls-6" points="315.11 251.82 325.27 249.04 327.92 264.7 317.11 270.75 315.11 251.82"/><polygon class="cls-6" points="307.82 285.32 307.82 296.83 318.43 301.34 319.89 291.63 307.82 285.32"/><polyline class="cls-6" points="311.51 283.25 307.82 285.32 313.24 288.15"/><path class="cls-6" d="M294.13,244.79v18.86c0,.83,1.91,1.51,4.26,1.51s4.25-.68,4.25-1.51V244.79Z"/><path class="cls-6" d="M293.12,242.19l1,2.6c0,.83,1.91,1.51,4.26,1.51s4.25-.68,4.25-1.51l1-2.6Z"/><path class="cls-6" d="M303.24,241.48l-4.85-8.56-4.86,8.56a1,1,0,0,0-.41.71c0,1,2.36,1.87,5.27,1.87s5.26-.84,5.26-1.87A.94.94,0,0,0,303.24,241.48Z"/><polygon class="cls-6" points="292.94 284.32 297.28 266.02 303.83 276.8 292.94 284.32"/><polygon class="cls-6" points="297.28 266.02 283.51 259.9 277.25 274.23 292.94 284.32 297.28 266.02"/><polygon class="cls-6" points="302.81 299.51 302.81 307.79 295.65 303.65 295.65 295.38 302.81 299.51"/><polygon class="cls-6" points="302.81 299.51 302.81 307.79 309.98 303.65 309.98 295.38 302.81 299.51"/><polygon class="cls-6" points="302.81 299.51 305.64 288.79 309.98 295.38 302.81 299.51"/><polygon class="cls-6" points="305.64 288.79 299.23 286.34 295.65 295.38 302.81 299.51 305.64 288.79"/><path class="cls-6" d="M265,257.88v32.31c0,1.42,3.26,2.57,7.29,2.57s7.28-1.15,7.28-2.57V257.88Z"/><path class="cls-6" d="M263.31,253.43l1.73,4.45c0,1.43,3.26,2.58,7.29,2.58s7.28-1.15,7.28-2.58l1.74-4.45Z"/><path class="cls-6" d="M280.65,252.2l-8.32-14.65L264,252.2a1.69,1.69,0,0,0-.69,1.23c0,1.76,4,3.19,9,3.19s9-1.43,9-3.19A1.67,1.67,0,0,0,280.65,252.2Z"/><polygon class="cls-6" points="284.36 294.08 284.36 302.36 277.19 298.22 277.19 289.94 284.36 294.08"/><polygon class="cls-6" points="284.36 294.08 284.36 302.36 291.53 298.22 291.53 289.94 284.36 294.08"/><polygon class="cls-6" points="284.36 294.08 287.18 283.36 291.53 289.94 284.36 294.08"/><polygon class="cls-6" points="287.18 283.36 280.78 280.91 277.19 289.94 284.36 294.08 287.18 283.36"/><path class="cls-6" d="M331,266l-2.74,13.64c0,.72,1.23,1.3,2.74,1.3s2.74-.58,2.74-1.3Z"/><path class="cls-6" d="M327.27,268.29l-2.74,13.64c0,.72,1.22,1.3,2.74,1.3s2.73-.58,2.73-1.3Z"/><path class="cls-6" d="M323.55,270.57l-2.73,13.64c0,.72,1.22,1.3,2.73,1.3s2.74-.58,2.74-1.3Z"/><path class="cls-6" d="M319.84,272.84l-2.74,13.64c0,.72,1.23,1.3,2.74,1.3s2.74-.58,2.74-1.3Z"/></svg>