<svg id="Layer_1" data-name="Layer 1" xmlns="http://www.w3.org/2000/svg" viewBox="0 0 1030.03 632.1"><defs><style>.cls-1{fill:#fbb03b;}.cls-2{fill:none;stroke:#000;stroke-linecap:round;stroke-linejoin:round;stroke-width:3px;stroke-dasharray:12;}</style></defs><path class="cls-1" d="M0,632.1S338.4,161.32,1030,161.32V632.1Z"/><polygon class="cls-2" points="626.64 370.2 626.64 85.37 524.51 44.23 524.51 325.9 626.64 370.2"/><polygon class="cls-2" points="626.64 370.2 626.64 85.37 728.76 44.23 728.76 325.9 626.64 370.2"/><polygon class="cls-2" points="524.51 44.23 626.64 1.5 728.76 44.23 626.64 85.37 524.51 44.23"/><polygon class="cls-2" points="754.47 407.66 754.47 240.79 660.68 216.69 660.68 381.7 754.47 407.66"/><polygon class="cls-2" points="754.47 407.66 754.47 240.79 848.26 216.69 848.26 381.7 754.47 407.66"/><polygon class="cls-2" points="660.68 216.69 754.47 191.66 848.26 216.69 754.47 240.79 660.68 216.69"/><polygon class="cls-2" points="835.17 301.37 835.17 134.5 741.38 110.4 741.38 275.41 835.17 301.37"/><polygon class="cls-2" points="835.17 301.37 835.17 134.5 928.96 110.4 928.96 275.41 835.17 301.37"/><polygon class="cls-2" points="741.38 110.4 835.17 85.37 928.96 110.4 835.17 134.5 741.38 110.4"/><path d="M572.85,251a85.62,85.62,0,0,1-10.51.4c-4.56,0-5-2-5.75-3.77s-.4-10.51-.2-13.08,3.57-7.94,6.74-10.91,4.76-2.77,5.75-4.56c.8-1.78,3.18-3.77,5.56-5.55a85.2,85.2,0,0,0,9.12-9.52c5.15-6.54,7.93-7.93,7.93-20.82,0-5.75.2-9.52.2-13.88,0-2.58.2-3.37.2-4.16a82.25,82.25,0,0,0-.8-8.72c-.39-1.59-1.59-5.16-8.92-5.16-5.36,0-5.75-.6-5.75-.79-.79,0-6.35,1-7.54,1-1.38,0-2.18,4.16-2.18,8.33s.2,4.56.4,10.9c0,2.58-.2,5-1,6.35-1.59,1.78-2.38,4-6.35,6.14-3.57,2.18-5.55,2.78-7.73,4.17a3.25,3.25,0,0,1-1.78.59c-2,0-3.77-1.59-3.77-3,0-2.78-1-5.75-1-8.33,0-2.78,1.58-5,1.58-7.54,0-2-1.19-3.37-1.19-5,0-2.18,1.19-4,1.19-5-.39-1.59-.39-9.12-.39-12.09,0-4.17,0-10.71,1.58-12.69,2.18-2.19,8.13-2.19,14.87-2.19,5.16,0,10.31,1,14.28,1a17.29,17.29,0,0,0,3.37-.4,13.08,13.08,0,0,1,4.16-.6c3,0,5.95.6,8.33.6,3.37,0,13.88.79,15.86,2.18,1.79,1.39,4.17,7.73,4.17,13.48,0,7.14,1,10.91,1.19,16.86,0,5.75-2,8.13-2,10.51a1.79,1.79,0,0,0,.2,1c.2,1.39.4,3.17.4,10.11a68.87,68.87,0,0,1,.79,7.34,7.59,7.59,0,0,1-.79,3.76c-1.59,3,.4,2.58-3.57,6.74-2.18,2.38-4.76,6.55-13.68,14.68-1.19,1.19-7.34,9.91-10.51,11.89s-4,3.57-5.35,5.75c-1.39,2.38-1.19,5.75-1.19,8.93S576.62,250.61,572.85,251Zm-5.55,7.54c2.77.39,5.15,0,8.92-.4s3.57,2.38,4,5.55-.8,3.37,0,8.13-.4,7.74-3.18,9.72c-1.58,1.19-6.14.39-11.69.39s-6.94.4-8.13-2-.4-3.77-.8-6.94-.79-9.71.4-12.09,2.77-2.78,5.55-2S564.52,258.14,567.3,258.54Z"/><path d="M708.94,340.41a58.91,58.91,0,0,1-7,.26c-3.06,0-3.32-1.32-3.85-2.52s-.27-7-.14-8.76,2.39-5.31,4.52-7.3,3.18-1.86,3.85-3,2.12-2.53,3.71-3.72a57.23,57.23,0,0,0,6.11-6.37c3.45-4.38,5.31-5.31,5.31-13.94,0-3.85.13-6.37.13-9.29,0-1.73.14-2.26.14-2.79a56.27,56.27,0,0,0-.53-5.84c-.27-1.07-1.07-3.46-6-3.46-3.58,0-3.85-.39-3.85-.53-.53,0-4.25.67-5,.67s-1.46,2.79-1.46,5.57.13,3.06.26,7.3a9.52,9.52,0,0,1-.66,4.25c-1.06,1.2-1.59,2.66-4.25,4.12-2.39,1.46-3.72,1.86-5.18,2.79a2.13,2.13,0,0,1-1.19.39,2.48,2.48,0,0,1-2.52-2c0-1.86-.67-3.85-.67-5.57s1.06-3.32,1.06-5.05c0-1.33-.79-2.25-.79-3.32,0-1.46.79-2.65.79-3.32a74.88,74.88,0,0,1-.26-8.09c0-2.79,0-7.17,1.06-8.5,1.46-1.46,5.44-1.46,10-1.46,3.45,0,6.9.66,9.56.66a11.88,11.88,0,0,0,2.25-.26,8.73,8.73,0,0,1,2.79-.4c2,0,4,.4,5.58.4,2.25,0,9.29.53,10.62,1.46s2.78,5.18,2.78,9c0,4.78.67,7.3.8,11.28s-1.33,5.44-1.33,7a1.15,1.15,0,0,0,.14.66,46.71,46.71,0,0,1,.26,6.77,47.39,47.39,0,0,1,.53,4.91,5,5,0,0,1-.53,2.52c-1.06,2,.27,1.73-2.39,4.52a79.06,79.06,0,0,1-9.16,9.82c-.79.8-4.91,6.64-7,8a9.58,9.58,0,0,0-3.59,3.85c-.93,1.59-.79,3.85-.79,6S711.46,340.14,708.94,340.41Zm-3.71,5a23.7,23.7,0,0,0,6-.26c2.52-.27,2.39,1.59,2.66,3.72s-.54,2.25,0,5.44-.27,5.18-2.13,6.5c-1.06.8-4.11.27-7.83.27s-4.65.26-5.44-1.33-.27-2.52-.54-4.65-.53-6.5.27-8.09,1.86-1.86,3.72-1.33S703.37,345.19,705.23,345.45Z"/><path d="M790,235.2a56.83,56.83,0,0,1-7,.27c-3,0-3.31-1.33-3.85-2.53s-.26-7-.13-8.76,2.39-5.31,4.51-7.3,3.19-1.86,3.86-3,2.12-2.52,3.71-3.72a57.26,57.26,0,0,0,6.11-6.37c3.45-4.38,5.31-5.31,5.31-13.94,0-3.85.13-6.37.13-9.29,0-1.73.13-2.26.13-2.79a53.63,53.63,0,0,0-.53-5.84c-.26-1.06-1.06-3.45-6-3.45-3.59,0-3.85-.4-3.85-.53-.53,0-4.25.66-5,.66s-1.46,2.79-1.46,5.58.13,3.05.26,7.3a9.47,9.47,0,0,1-.66,4.24c-1.07,1.2-1.6,2.66-4.25,4.12-2.39,1.46-3.72,1.86-5.18,2.79a2.2,2.2,0,0,1-1.19.4,2.5,2.5,0,0,1-2.53-2c0-1.85-.66-3.85-.66-5.57s1.06-3.32,1.06-5c0-1.32-.79-2.25-.79-3.31,0-1.46.79-2.66.79-3.32a75.17,75.17,0,0,1-.26-8.1c0-2.79,0-7.17,1.06-8.5,1.46-1.46,5.44-1.46,9.95-1.46,3.46,0,6.91.67,9.56.67a11.86,11.86,0,0,0,2.26-.27,9,9,0,0,1,2.79-.4c2,0,4,.4,5.57.4,2.26,0,9.3.53,10.62,1.46s2.79,5.18,2.79,9c0,4.78.67,7.3.8,11.28s-1.33,5.45-1.33,7a1.21,1.21,0,0,0,.13.66,44.33,44.33,0,0,1,.27,6.77,47.39,47.39,0,0,1,.53,4.91,5.08,5.08,0,0,1-.53,2.53c-1.06,2,.26,1.72-2.39,4.51a79.94,79.94,0,0,1-9.16,9.82c-.8.8-4.91,6.64-7,8a9.68,9.68,0,0,0-3.58,3.85c-.93,1.59-.8,3.85-.8,6S792.56,234.94,790,235.2Zm-3.72,5.05a23.84,23.84,0,0,0,6-.27c2.52-.27,2.39,1.59,2.65,3.72s-.53,2.25,0,5.44-.26,5.18-2.12,6.5c-1.06.8-4.12.27-7.83.27s-4.65.27-5.45-1.33-.26-2.52-.53-4.64-.53-6.51.27-8.1,1.86-1.86,3.71-1.33S784.46,240,786.32,240.25Z"/></svg>