<svg xmlns="http://www.w3.org/2000/svg" viewBox="0 0 788 452.46"><defs><style>.cls-1{fill:#fcee21;}</style></defs><g id="Layer_3" data-name="Layer 3"><path class="cls-1" d="M524.68,93.13c4.55-.41,4.55,1.45,18.19.41l.83-12.19c0-3.31.2-4.55,0-7.86-.21-4.55-1.45-7.23-1.45-12,0-8.06.62-11.37.62-15.09s-1.45-7-1.45-8.47S540,35.46,537.7,33.8s-4.13-3.51-4.55-4.75a1.94,1.94,0,0,1-.2-1c0-.82.82-1.65,3.92-1.65,2.9,0,6.62-.41,9.72-.41,4.13,0,7.44,1.65,11.16,1.65a4.5,4.5,0,0,0,1.86-.21,17.94,17.94,0,0,1,6.62-1.24c2.89,0,4.75-.2,6.82-.2,1.24,0,2.07.41,2.48,2.27.21,1.24-4.55,5.58-7,8.89s-2.89,6.2-2.89,14.68-1.24,13-1.24,16.12c0,7,0,9.51-.83,11.16a4.82,4.82,0,0,0-.41,1.66c0,2.06,1.65,4.13,1.86,7,.2,3.52,1,11.58,1,20.68s-.41,13.64-.41,19.63A151.1,151.1,0,0,1,565,145c0,.83-.21,1.66-.21,2.69,0,4.34.83,8.68.83,14.68a11.33,11.33,0,0,0,1.24,5.58c.41.62,3.92,6.61,6.2,7.85,1.45.83,2.89,2.69,2.89,3.93,0,.83-.62,1.45-2.06,1.45-3.93,0-13.65.2-17.78.2H545.56c-2.07.21-5.17.21-10.13.21-1-.21-1.86-.41-1.86-1.24a4.38,4.38,0,0,1,1-2.48c1.86-2.89,5.17-5.58,6-8.06a25.17,25.17,0,0,0,1.66-8.89c0-6.82,1-9.3,1.24-13,0-3.72-.21-8.27-.21-10.75,0-4.34.83-7.24.83-10.13a77.36,77.36,0,0,0-.62-9.72c-3.1.21-6.62.42-7.86.62-2.89.42-10.54-1.65-13.43-1.24a51,51,0,0,1-13.85,0c-4.55-.82-8.89.83-11.37,1.66s-6,6-8.06,6-1.24-11.78-1.24-20.88.41-17.77.41-23.77a151.19,151.19,0,0,1,.62-16.95c0-.82.21-1.65.21-2.68,0-4.35-.83-8.69-.83-14.68a11.41,11.41,0,0,0-1.24-5.58c-.41-.62-3.93-6.62-6.2-7.86-1.45-.82-2.9-2.68-2.9-3.93,0-.82.63-1.44,2.07-1.44,3.93,0,13.64-.21,17.78-.21h10.54c2.07-.21,5.17-.21,10.13-.21,1,.21,1.86.42,1.86,1.24a4.5,4.5,0,0,1-1,2.49c-1.86,2.89-5.17,5.58-6,8.06a25.37,25.37,0,0,0-1.65,8.89c0,6.82-1,15.5-1.24,19.22,0,3.72.21,6.2.21,8.68,0,4.34-.83,11.37-.83,14.27,0,1.86,1.65,3.1,1.86,4.54C512.28,94,520.13,93.54,524.68,93.13Z"/><path class="cls-1" d="M585.45,47c.83-10.33,3.1-15.5,7.86-18a30.3,30.3,0,0,1,13.43-2.9c7,0,15.51.42,18.61.42h8.27c1,0,2.27-.21,3.51-.21a56.33,56.33,0,0,1,5.79.41c3.31.42,18,3.11,18,19,0,11.58,1.24,21.71,1.24,27.91a14.25,14.25,0,0,1-.62,5,24.25,24.25,0,0,0-1.65,9.09c.21,5,.83,9.72.83,13.85,0,1,.82,2.9.82,5.17,0,4.76.21,13.44.21,21.09,0,1.24-.21,2.48-.21,3.72-.62,9.09-1,18.81-1.65,21.7a3.5,3.5,0,0,0-.21,1.45c0,2.48,1,5,1,8.89,0,6-5.38,17.77-13.85,17.77-13.44-.2-15.09-.41-17-.41a18.37,18.37,0,0,0-4.34.62,14.11,14.11,0,0,1-2.69.41c-7.65,0-12.82.42-21.71.42a33.64,33.64,0,0,1-5.58-.42c-3.31-.82-10.54-4.34-10.54-17.57,0-9.71-.83-15.5-.83-19.22,0-3.51,1.66-6.41,1.66-10.54,0-2.07-.62-4.14-.62-7.24,0-3.51.62-8.47.62-13.23,0-1.24-.21-2.48-.21-3.72-.62-7.23-1-8.06-1-13.43s1.24-16.75,1.24-20-1.66-5.79-1.66-10.13S585.25,50.13,585.45,47ZM607,70c0,6.82.83,11.78.83,18.81,0,5.58-.83,7.44-.83,9.51,0,2.68,1.45,5,1.45,8.06,0,2.89-1,5.17-1.66,8.27a10.35,10.35,0,0,0-.2,2.48c0,3.51,1.44,7,1.65,18,.21,6.2.21,11.58.21,15.92v5.37c0,5.38,3.31,4.76,6.82,6.2a11.13,11.13,0,0,0,4.55.83c2.48,0,5.58-.62,9.09-1,6-.83,7.24-.21,8.27-2.69s.83-7.44,1.24-16.33.42-18.81.62-23.77c0-4.76-.2-7-.2-9.1,0-2.68,1.65-5,1.65-8.06a14.1,14.1,0,0,0-.83-4.34c-1-3.93-1.24-9.92-1.24-16.12V76.59c0-5.17.21-11.57.21-16.53a57.35,57.35,0,0,0-.21-6.41,8.52,8.52,0,0,0-8.06-7.44c-2.89,0-8.06.82-11.16,1a51.46,51.46,0,0,1-5.58.21h-3.73c-1.24.2-2.68,3.3-2.68,14.88C607.16,64.81,607.16,67.29,607,70Z"/><path class="cls-1" d="M717.34,93.13c4.54-.41,4.54,1.45,18.19.41l.82-12.19c0-3.31.21-4.55,0-7.86-.2-4.55-1.44-7.23-1.44-12,0-8.06.62-11.37.62-15.09s-1.45-7-1.45-8.47-1.45-2.48-3.72-4.14-4.14-3.51-4.55-4.75a1.86,1.86,0,0,1-.21-1c0-.82.83-1.65,3.93-1.65,2.9,0,6.62-.41,9.72-.41,4.13,0,7.44,1.65,11.16,1.65a4.5,4.5,0,0,0,1.86-.21,17.88,17.88,0,0,1,6.61-1.24c2.9,0,4.76-.2,6.83-.2,1.24,0,2.06.41,2.48,2.27.2,1.24-4.55,5.58-7,8.89s-2.9,6.2-2.9,14.68S757,64.81,757,67.91c0,7,0,9.51-.82,11.16a4.84,4.84,0,0,0-.42,1.66c0,2.06,1.66,4.13,1.86,7,.21,3.52,1,11.58,1,20.68s-.42,13.64-.42,19.63a151.1,151.1,0,0,1-.62,16.95c0,.83-.2,1.66-.2,2.69,0,4.34.82,8.68.82,14.68A11.45,11.45,0,0,0,759.5,168c.42.62,3.93,6.61,6.21,7.85,1.44.83,2.89,2.69,2.89,3.93,0,.83-.62,1.45-2.07,1.45-3.92,0-13.64.2-17.77.2H738.21c-2.06.21-5.16.21-10.13.21-1-.21-1.86-.41-1.86-1.24a4.41,4.41,0,0,1,1-2.48c1.86-2.89,5.17-5.58,6-8.06a25.17,25.17,0,0,0,1.66-8.89c0-6.82,1-9.3,1.24-13,0-3.72-.21-8.27-.21-10.75,0-4.34.83-7.24.83-10.13a77.36,77.36,0,0,0-.62-9.72c-3.1.21-6.62.42-7.86.62-2.89.42-10.54-1.65-13.43-1.24a51,51,0,0,1-13.85,0c-4.55-.82-8.89.83-11.37,1.66s-6,6-8.06,6-1.25-11.78-1.25-20.88.42-17.77.42-23.77a151.19,151.19,0,0,1,.62-16.95c0-.82.21-1.65.21-2.68,0-4.35-.83-8.69-.83-14.68a11.41,11.41,0,0,0-1.24-5.58c-.42-.62-3.93-6.62-6.2-7.86-1.45-.82-2.9-2.68-2.9-3.93,0-.82.62-1.44,2.07-1.44,3.93,0,13.64-.21,17.78-.21H700.8c2.07-.21,5.17-.21,10.13-.21,1,.21,1.86.42,1.86,1.24a4.46,4.46,0,0,1-1,2.49c-1.86,2.89-5.16,5.58-6,8.06a25.14,25.14,0,0,0-1.65,8.89c0,6.82-1,15.5-1.24,19.22,0,3.72.2,6.2.2,8.68,0,4.34-.82,11.37-.82,14.27,0,1.86,1.65,3.1,1.86,4.54C704.93,94,712.79,93.54,717.34,93.13Z"/><path class="cls-1" d="M44.89,248.19c.82,0,2.27.54,3.73.63a26.18,26.18,0,0,1,3.27.09,22.44,22.44,0,0,0,2.54.1H57a38.9,38.9,0,0,0,4.63-.28,9.49,9.49,0,0,1,1.64-.09c1.36,0,3,.18,5.45.37a16.87,16.87,0,0,0,2.18.09,31.88,31.88,0,0,0,5.45-.46,13.07,13.07,0,0,1,2.82-.54,2.58,2.58,0,0,1,.82.09.68.68,0,0,1,.54.72,28.1,28.1,0,0,0-.63,5.09c0,1.09.45,2.27.45,3.73s0,4-1.09,4-6.18-4.73-6.63-5.09a3.9,3.9,0,0,0-1.73-.18,28.62,28.62,0,0,0-2.91.09c-.82.09-1.09,1-1.09,2.36a22.52,22.52,0,0,0,.18,2.36,10,10,0,0,1,.09,1.64c0,1.91-.27,4.18-.27,6.18s-.27,3.72-.27,5.36a7.85,7.85,0,0,0,.09,1.45,23,23,0,0,1,.18,3.18v2.09a9.17,9.17,0,0,1-.45,3.36,2.87,2.87,0,0,0-.28,1.19,3.48,3.48,0,0,0,.55,1.72,2.42,2.42,0,0,1,.27,1.27c0,1.19-.36,3.09-.54,6.18-.09.91-.09,1.91-.09,3,0,4.36.36,9.63.36,10.54,0,1.36,1.09,2.64,1.09,3.82.36.91,1.91,1.45,2.63,2.36a2.71,2.71,0,0,1,.73,1.45c0,.37-.27.64-.73.73a19.92,19.92,0,0,1-2.54.09H65.16c-1.1,0-2.73.27-5.55.27-2.09-.18-4.45-.27-6.18-.27-.54,0-.72-.09-.72-.18,0-.27,1-1,1.63-1.91.91-1.36,2.36-2.36,2.64-3.54a2.84,2.84,0,0,0,.09-.91c0-.64-.09-1.45-.09-2.45a11.74,11.74,0,0,1,.09-1.73c.27-2.54.09-4.63.27-6.09.09-.91.27-1.82.27-2.72a7.2,7.2,0,0,0-.18-1.46,32.72,32.72,0,0,1-.64-7.36,74.69,74.69,0,0,1,.55-10.08,6.15,6.15,0,0,0,.09-1.37,26.06,26.06,0,0,0-.36-4.09c-.09-.9-.18-2.18-.18-3.54,0-2.45.18-5.45.27-7.81.09-1,.09-1.82.09-2.46,0-1.63-.27-2.09-1.09-2.27a18.78,18.78,0,0,0-4.27-.27c-2.18,0-2.91,1.72-3.36,2.36s-2.18,2.27-2.64,3.09a.87.87,0,0,1-.82.45c-.63,0-1.27-.54-1.27-2.18,0-1.36-.09-3.27-.09-4.54a15.6,15.6,0,0,1,.36-3.18,22.34,22.34,0,0,0,.19-4C44.26,248.28,44.53,248.19,44.89,248.19Z"/><path class="cls-1" d="M85.05,251.55c-1.09-1.27-1.63-2-1.63-2.45,0-.28.36-.46,1.09-.46,1.45,0,2.82-.27,4-.27.27,0,.54.09.82.09,1.27.18,4.81.18,6.26.18a23.55,23.55,0,0,1,4.09.18c0,.55-2.36,3.27-2.81,4.09s-.55,3.46-.73,5.55c0,1.72.36,2.9.36,4.18a5.49,5.49,0,0,1-.36,2,6.41,6.41,0,0,0-.36,2.09c0,1.19.36,2,.36,2.73,0,.91.27,3.27.27,5.82v1.54c-.09,1-.09,2-.09,3,0,2,.09,3.36.09,4.81V287c0,1.63.09,3.18.82,3.18s2.36-1.37,4.45-2.09c2.73-1,6.73-2.64,7.64-2.64h1.09c.36-.09,2-1.27,2.36-1.45a2.34,2.34,0,0,0,1.18-2c0-.36.09-.73.09-1.18,0-1.36-.18-2.91-.18-5.45,0-3.37.18-4.18.18-6.91,0-2.18-.27-3.72-.27-5.36,0-.36.09-.82.09-1.27.09-1,.09-2,.09-2.82,0-1.91,0-3.36-.64-4.27-.72-1.27-1-3.09-2.09-4.36a2.09,2.09,0,0,1-.63-1.27c0-.28.09-.46.36-.46.55,0,3,.18,5.18.18,1.73,0,4.36-.45,6-.45a3.18,3.18,0,0,1,1,.09,7.59,7.59,0,0,0,2,.27c.63,0,1.18-.09,1.54-.09.18,0,.18.09.18.18,0,.46-1.09,1.73-2.18,3.37a4.3,4.3,0,0,0-.82,2.72v2.64c-.18,2.18-.63,6-.63,8.08a4.1,4.1,0,0,0,.09,1.18,10.78,10.78,0,0,1,.36,3.55c0,1.09.09,4,.09,7,0,1.54,0,3.08-.09,4.45-.18,3.27-.45,5.45-.45,7.09,0,1.18.18,2.27.18,3.36,0,.72,0,1.54.09,2.54.18,2.09.36,11.09.36,13.18,0,.91-.09,1.81-.09,2.63,0,1.09.09,1.91.55,2.18.73.55,2.63,2.64,3.45,3.18a.26.26,0,0,1,.18.28c0,.45-1.27,1-2.54,1-1,0-3-.1-4.45-.1a8.08,8.08,0,0,0-1.73.1,4.84,4.84,0,0,1-1.18.09c-.91,0-1.91-.09-3.27-.09a25.87,25.87,0,0,1-4.45-.19.29.29,0,0,1-.28-.27c0-.45.91-1.45,1.46-1.91a6.89,6.89,0,0,0,2.54-4.27c.09-1,.09-2.18.09-3.45s0-2.54.09-4c0-.54.09-1.09.09-1.63,0-2.18-.27-3.91-.45-6.64a10.56,10.56,0,0,1,.18-1.81c-1.27,0-3,1.18-4,1.63-2.27,1.09-5.63,2.91-7.45,3.09a7.84,7.84,0,0,0-4.45,2.09c-.91.91-1.64.82-1.82,4.27a55.79,55.79,0,0,0,.37,7c.72,3.18,2,3.09,3.45,5.45,0,0-1.73.09-4.18.09-1.82,0-4.27-.36-6-.36a4.28,4.28,0,0,0-1.63.18,8.33,8.33,0,0,1-2.28.27,10.89,10.89,0,0,1-2.72-.27c-.18-.18,2.45-4.36,3.36-5.54a2.41,2.41,0,0,0,.45-1.55c0-.91-.27-2.09-.27-4.09,0-3.18,0-4.81.18-7.45a20.72,20.72,0,0,0,.09-2.27c0-1.36-.09-2.54-.09-4,0-2.18,0-4.36-.18-7s-.18-7-.18-9.45a14.7,14.7,0,0,1,1.09-5L86.87,267a11.7,11.7,0,0,0,.18-2.27c0-.73-.09-1.55-.18-2.55a53.83,53.83,0,0,1-.36-7.09A5.11,5.11,0,0,0,85.05,251.55Z"/><path class="cls-1" d="M133.67,252a5.78,5.78,0,0,1-2-2.09.81.81,0,0,1-.09-.45c0-.36.36-.73,1.72-.73s2.91-.18,4.28-.18c1.81,0,3.27.73,4.9.73a2,2,0,0,0,.82-.09,7.7,7.7,0,0,1,2.91-.55c1.27,0,2.09-.09,3-.09.54,0,.9.18,1.09,1,.09.55-2,2.45-3.09,3.91s-1.28,2.72-1.28,6.45-.54,5.72-.54,7.09v2a7.09,7.09,0,0,1-.36,2.9,2.26,2.26,0,0,0-.19.73c0,.91.73,1.82.82,3.09.09,1.54.46,5.09.46,9.09s-.19,6-.19,8.63a67.07,67.07,0,0,1-.27,7.45c0,.36-.09.73-.09,1.18,0,1.91.36,3.82.36,6.45a5.08,5.08,0,0,0,.55,2.46c.18.27,1.73,2.9,2.73,3.45a2.58,2.58,0,0,1,1.27,1.73c0,.36-.27.63-.91.63-1.73,0-6,.09-7.82.09h-4.63c-.91.09-2.27.09-4.45.09-.46-.09-.82-.18-.82-.54a1.94,1.94,0,0,1,.45-1.09c.82-1.27,2.28-2.46,2.64-3.55a11.14,11.14,0,0,0,.73-3.9c0-3,.45-6.82.54-8.45s-.09-2.73-.09-3.82c0-1.91.36-3.18.36-4.45a17.6,17.6,0,0,0-.09-2.27v-.37c-.09-.91-.27-3.63-.27-6.9,0-1.55.09-3.18.18-4.73a35.9,35.9,0,0,0,.18-3.91c0-1.45-.09-2.09-.18-3.54-.09-2-.63-3.18-.63-5.27,0-3.54.27-5,.27-6.63a27.19,27.19,0,0,0-.64-3.73C135.3,253.19,134.67,252.73,133.67,252Z"/><path class="cls-1" d="M175.83,265c0-.91.36-1.91.36-3.09s-.45-1.91-.45-4.27c0-1.46-2.18-1-3.36-1.18-.73-.09-2-.09-3-.09h-2.27c-.73,0-1.91,1.27-2.28,3.18-.18,2-.09,3.54-.18,6.08l.18,1.73c0,1.18,0,2.82.1,4.09s2.45,1.63,3.18,2.27,4.27,2.73,4.27,3.45,2.72,1.09,4.36,1.64,3.63,2.63,5.9,3.91,2.82,2.72,3.55,4.09a3.47,3.47,0,0,1,.36,1.72,31.81,31.81,0,0,1-.36,3.36v2.37a16.73,16.73,0,0,1-.18,2.27.81.81,0,0,0-.09.45c0,1.09.9,2.18.9,4.82s-.54,4.45-.54,7.72c0,2.64-1.09,5.54-1.91,6.18s-5.72,1-7.27,1c-1.09,0-2.45.27-3.81.27a6.07,6.07,0,0,1-1.91-.27,8.14,8.14,0,0,0-1.55-.18c-1.82,0-4.18.45-6.54.45-3.09,0-5.82,0-6.82-1-.72-.91-.72-3.9-.72-5.81a50.69,50.69,0,0,1,.18-5.54,14.1,14.1,0,0,1-.55-2.28c0-.72.55-1.36.55-2.27,0-1.18-.73-2.18-.73-3.45s.46-2.55.46-3.82a1.7,1.7,0,0,1,1.72-1.36,1.46,1.46,0,0,1,.82.27c1,.64,1.91.91,3.55,1.91a8.53,8.53,0,0,1,2.9,2.82,6.37,6.37,0,0,1,.46,2.91v1.36c-.09,1.54-.18,1.72-.18,3.63s.36,3.82,1,3.82,3.09.45,3.46.45c0-.09.18-.36,2.63-.36,3.37,0,4.18-1.64,4.36-2.36a38.25,38.25,0,0,0,.37-4c0-.36-.09-.73-.09-1.91,0-2-.09-4.91-.09-7.54,0-2.91-3-4.45-4.37-5.09a44.09,44.09,0,0,1-7.17-4.27c-1.55-1.36-3.27-1.82-4.55-2.54a18.37,18.37,0,0,1-4.36-2.91c-.73-.91-1.09-3.73-1.09-6.36a16.68,16.68,0,0,1,.82-6.09c.09-.91.18-1.45.18-1.91a5.53,5.53,0,0,0-.18-1.36c-.46-1.18-.55-3.55-.55-9,0-3.72,5.09-4,7-4.09s4.63,0,6.63-.18c1.18-.09,2.46-.18,3.37-.18.72,0,1.27.18,2,.18s2.64-.27,4.91-.27c3,0,5.73,1,6.18,2.27s.18,2.55.36,4.73c0,2.27-.45,2.81-.72,4.54,0,1.63.54,3.18.54,5,0,3-.54,5-1.36,5s-2-1-4.09-1.54a8,8,0,0,1-3.54-1.73A1.76,1.76,0,0,1,175.83,265Z"/><path class="cls-1" d="M215.36,252a5.78,5.78,0,0,1-2-2.09.81.81,0,0,1-.09-.45c0-.36.36-.73,1.72-.73s2.91-.18,4.27-.18c1.82,0,3.27.73,4.91.73a2.05,2.05,0,0,0,.82-.09,7.65,7.65,0,0,1,2.9-.55c1.28,0,2.1-.09,3-.09.55,0,.91.18,1.09,1,.1.55-2,2.45-3.09,3.91s-1.27,2.72-1.27,6.45-.54,5.72-.54,7.09v2a6.92,6.92,0,0,1-.37,2.9,2.23,2.23,0,0,0-.18.73c0,.91.73,1.82.82,3.09.09,1.54.45,5.09.45,9.09s-.18,6-.18,8.63a67.07,67.07,0,0,1-.27,7.45c0,.36-.09.73-.09,1.18,0,1.91.36,3.82.36,6.45a5.08,5.08,0,0,0,.55,2.46c.18.27,1.72,2.9,2.72,3.45a2.56,2.56,0,0,1,1.28,1.73c0,.36-.28.63-.91.63-1.73,0-6,.09-7.82.09h-4.63c-.91.09-2.27.09-4.45.09-.46-.09-.82-.18-.82-.54a1.94,1.94,0,0,1,.45-1.09c.82-1.27,2.27-2.46,2.64-3.55a11.16,11.16,0,0,0,.72-3.9c0-3,.46-6.82.55-8.45s-.09-2.73-.09-3.82c0-1.91.36-3.18.36-4.45a17.6,17.6,0,0,0-.09-2.27v-.37c-.09-.91-.27-3.63-.27-6.9,0-1.55.09-3.18.18-4.73a35.9,35.9,0,0,0,.18-3.91c0-1.45-.09-2.09-.18-3.54-.09-2-.64-3.18-.64-5.27,0-3.54.28-5,.28-6.63a27.19,27.19,0,0,0-.64-3.73C217,253.19,216.36,252.73,215.36,252Z"/><path class="cls-1" d="M257.52,265c0-.91.36-1.91.36-3.09s-.45-1.91-.45-4.27c0-1.46-2.18-1-3.37-1.18-.72-.09-2-.09-3-.09h-2.28c-.72,0-1.9,1.27-2.27,3.18-.18,2-.09,3.54-.18,6.08l.18,1.73c0,1.18,0,2.82.09,4.09s2.46,1.63,3.18,2.27,4.27,2.73,4.27,3.45,2.73,1.09,4.37,1.64,3.63,2.63,5.9,3.91,2.82,2.72,3.55,4.09a3.47,3.47,0,0,1,.36,1.72,31.81,31.81,0,0,1-.36,3.36v2.37a16.63,16.63,0,0,1-.19,2.27.81.81,0,0,0-.09.45c0,1.09.91,2.18.91,4.82s-.54,4.45-.54,7.72c0,2.64-1.09,5.54-1.91,6.18s-5.73,1-7.27,1c-1.09,0-2.45.27-3.82.27a6.16,6.16,0,0,1-1.91-.27,8,8,0,0,0-1.54-.18c-1.82,0-4.18.45-6.54.45-3.09,0-5.82,0-6.82-1-.72-.91-.72-3.9-.72-5.81a50.69,50.69,0,0,1,.18-5.54,14.1,14.1,0,0,1-.55-2.28c0-.72.55-1.36.55-2.27,0-1.18-.73-2.18-.73-3.45s.45-2.55.45-3.82a1.71,1.71,0,0,1,1.73-1.36,1.48,1.48,0,0,1,.82.27c1,.64,1.91.91,3.54,1.91a8.58,8.58,0,0,1,2.91,2.82,6.53,6.53,0,0,1,.45,2.91v1.36c-.09,1.54-.18,1.72-.18,3.63s.37,3.82,1,3.82,3.09.45,3.46.45c0-.09.18-.36,2.63-.36,3.36,0,4.18-1.64,4.36-2.36a38.25,38.25,0,0,0,.37-4c0-.36-.1-.73-.1-1.91,0-2-.09-4.91-.09-7.54,0-2.91-3-4.45-4.36-5.09a44.58,44.58,0,0,1-7.18-4.27c-1.54-1.36-3.27-1.82-4.54-2.54a18.37,18.37,0,0,1-4.36-2.91c-.73-.91-1.09-3.73-1.09-6.36a16.68,16.68,0,0,1,.82-6.09c.09-.91.18-1.45.18-1.91a5.53,5.53,0,0,0-.18-1.36c-.46-1.18-.55-3.55-.55-9,0-3.72,5.09-4,7-4.09s4.63,0,6.63-.18c1.18-.09,2.45-.18,3.36-.18.73,0,1.28.18,2,.18s2.64-.27,4.91-.27c3,0,5.72,1,6.18,2.27s.18,2.55.36,4.73c0,2.27-.45,2.81-.73,4.54,0,1.63.55,3.18.55,5,0,3-.55,5-1.36,5s-2-1-4.09-1.54a8,8,0,0,1-3.55-1.73A1.77,1.77,0,0,1,257.52,265Z"/><path class="cls-1" d="M297.32,251.91c-.37-1.09-1.73-1.72-1.73-2.45,0-.55,0-.73,1.91-.73s2.54.37,3.63.37c2-.19,3.45-.28,4.91-.28.73,0,1.27-.18,1.82-.18s.9.18,1.18,1c.54,1.55,1.81,4.45,2.81,6.82s2.19,4,2.19,5.63c0,.55-.1.91-.1,1.18a2.72,2.72,0,0,0,1.18,2.45c1.1.82,2.46,4,3.82,6.46s2.18,5.81,3.18,7.63,1.82,4.54,2.91,6.45,2.45,3.36,2.73,5.18,1.54,5.45,2.72,5.45c.55,0,.46-3.18.64-5.63s.09-3.82.27-4.64c0-1.09-.55-2.18-.64-5.36,0-2.81.09-3.81.09-4.9a13.6,13.6,0,0,0-.09-1.82c-.36-2.45-.09-4.18-.45-7a16.8,16.8,0,0,1-.18-2.91c0-1.36.09-2.54.09-3.81,0-1.64.09-3.18.09-5.36a4.27,4.27,0,0,0-1.82-3.55c-1.54-1.36-1.91-2.27-1.91-2.72s.1-.73,1.55-.73a28.35,28.35,0,0,1,4.09.27,10.55,10.55,0,0,0,1.82.09,24.85,24.85,0,0,0,2.72-.09c1.27-.09,2.09-.09,3.18-.09.55,0,1.27-.09,2-.09,1,0,1.82.09,1.82.55a6.66,6.66,0,0,1-2.36,3.36c-.73.36-.91,1-1.1,2.18a41.13,41.13,0,0,0-1,7.54c0,2.64.18,4.09.18,5.45,0,1.91-.09,3.73-.09,5.73,0,3.54-.09,5.36-.09,7.63s.09,5.18.09,8c0,2.27.27,4.09.27,5.45,0,.36-.09.63-.09.91-.09,1-.27,3.09-.27,5.18,0,.91,0,1.81.09,10.63,0,1.82.09,3.18.09,4,0,1-.09,1.36-.82,1.45-.55,0-1,.09-1.36.09-1.28,0-1.82-.18-3.55-.27-1.09,0-1.81.18-2.63.18-1.64-.09-2.18-2-2.82-3.18-3-6.18-5.36-9.54-5.81-11.18s-.73-3.27-1.73-4.45a7.56,7.56,0,0,1-1.82-3.63c-.73-2.19-3.91-6.91-4.09-8s-1-1.82-1.54-3.27-1.55-2.18-2.27-4.09a52.33,52.33,0,0,0-1.91-5.54c0-.37-.91,1.54-1,4v2.19c0,2,.09,4.08.18,6.72.09,2.36.36,3.54.36,4.82a13.58,13.58,0,0,1-.27,2.45,18.58,18.58,0,0,0-.73,4.18,7.06,7.06,0,0,0,.28,1.91,9.92,9.92,0,0,1,.27,2.36c0,1-.09,2-.09,3.18v.54c0,2.19,0,5.55.73,6.73s2.81,3.27,2.81,3.91-1.27.72-3.27.72h-6s-4.36-.27-5.36-.27c-.72,0-2.09-.18-2.09-.73a.68.68,0,0,1,.18-.36c.64-.82,3.09-2.36,3.46-3.18a23.83,23.83,0,0,0,.72-4.82,2.23,2.23,0,0,0-.09-.81,18.45,18.45,0,0,1-.27-3.73,16.38,16.38,0,0,1,.36-4,6,6,0,0,0,.37-1.91,10.46,10.46,0,0,0-.27-1.9,20.43,20.43,0,0,1-.46-4.09,9,9,0,0,1,.09-1.55c.18-2,.18-5.81.18-8.81,0-2.09.37-2.91.37-4.82a26.09,26.09,0,0,0-.28-3.27,29.09,29.09,0,0,1-.36-3.91,21.56,21.56,0,0,1,.27-2.63c.09-1.09.28-2.91.28-4.64a18.08,18.08,0,0,0-.19-2.54,15.69,15.69,0,0,1-.27-3.36C299,253.55,297.86,253.09,297.32,251.91Z"/><path class="cls-1" d="M348.84,257.82c.36-4.54,1.36-6.82,3.45-7.91a13.45,13.45,0,0,1,5.91-1.27c3.09,0,6.81.18,8.18.18H370c.45,0,1-.09,1.54-.09a24.28,24.28,0,0,1,2.55.18c1.45.19,7.9,1.37,7.9,8.36,0,5.09.55,9.54.55,12.27a6.37,6.37,0,0,1-.27,2.18,10.59,10.59,0,0,0-.73,4c.09,2.18.36,4.27.36,6.09a19.32,19.32,0,0,1,.37,2.27c0,2.09.09,5.91.09,9.27,0,.54-.09,1.09-.09,1.63-.28,4-.46,8.27-.73,9.54a1.6,1.6,0,0,0-.09.64c0,1.09.45,2.18.45,3.91,0,2.63-2.36,7.81-6.08,7.81-5.91-.09-6.64-.18-7.46-.18a8,8,0,0,0-1.9.27,6.38,6.38,0,0,1-1.19.18c-3.36,0-5.63.19-9.54.19a13.8,13.8,0,0,1-2.45-.19c-1.45-.36-4.63-1.9-4.63-7.72,0-4.27-.37-6.81-.37-8.45s.73-2.82.73-4.63c0-.91-.27-1.82-.27-3.18,0-1.55.27-3.73.27-5.82,0-.54-.09-1.09-.09-1.63a56.38,56.38,0,0,1-.46-5.91c0-2.36.55-7.36.55-8.81s-.73-2.55-.73-4.46S348.75,259.18,348.84,257.82Zm9.45,10.09c0,3,.36,5.17.36,8.26a40.48,40.48,0,0,1-.36,4.18c0,1.19.63,2.19.63,3.55a18.49,18.49,0,0,1-.72,3.63,4.5,4.5,0,0,0-.09,1.09c0,1.55.63,3.09.72,7.91.09,2.72.09,5.09.09,7v2.37c0,2.36,1.46,2.09,3,2.72a4.78,4.78,0,0,0,2,.37c1.09,0,2.46-.28,4-.46,2.63-.36,3.18-.09,3.63-1.18s.37-3.27.55-7.18.18-8.27.27-10.45-.09-3.09-.09-4c0-1.19.73-2.19.73-3.55a6.05,6.05,0,0,0-.37-1.91,31.8,31.8,0,0,1-.54-7.08v-2.37c0-2.27.09-5.09.09-7.27a25.65,25.65,0,0,0-.09-2.81,3.75,3.75,0,0,0-3.54-3.27c-1.28,0-3.55.36-4.91.45a23.22,23.22,0,0,1-2.45.09h-1.64c-.55.09-1.18,1.46-1.18,6.54C358.38,265.63,358.38,266.72,358.29,267.91Z"/><path class="cls-1" d="M387.37,248.19c.81,0,2.27.54,3.72.63a26.18,26.18,0,0,1,3.27.09,22.52,22.52,0,0,0,2.55.1h2.54a38.65,38.65,0,0,0,4.63-.28,9.49,9.49,0,0,1,1.64-.09c1.36,0,3,.18,5.45.37a17,17,0,0,0,2.18.09,31.78,31.78,0,0,0,5.45-.46,13.07,13.07,0,0,1,2.82-.54,2.55,2.55,0,0,1,.82.09.68.68,0,0,1,.54.72,28.1,28.1,0,0,0-.63,5.09c0,1.09.45,2.27.45,3.73s0,4-1.09,4-6.18-4.73-6.63-5.09a3.87,3.87,0,0,0-1.73-.18,28.32,28.32,0,0,0-2.9.09c-.82.09-1.1,1-1.1,2.36a22.65,22.65,0,0,0,.19,2.36,10,10,0,0,1,.09,1.64c0,1.91-.28,4.18-.28,6.18s-.27,3.72-.27,5.36a7.85,7.85,0,0,0,.09,1.45,23,23,0,0,1,.18,3.18v2.09a9.17,9.17,0,0,1-.45,3.36,2.86,2.86,0,0,0-.27,1.19,3.46,3.46,0,0,0,.54,1.72,2.41,2.41,0,0,1,.28,1.27c0,1.19-.37,3.09-.55,6.18-.09.91-.09,1.91-.09,3,0,4.36.36,9.63.36,10.54,0,1.36,1.09,2.64,1.09,3.82.37.91,1.91,1.45,2.64,2.36a2.78,2.78,0,0,1,.73,1.45c0,.37-.28.64-.73.73a20.18,20.18,0,0,1-2.55.09h-2.72c-1.09,0-2.73.27-5.54.27-2.09-.18-4.46-.27-6.18-.27-.55,0-.73-.09-.73-.18,0-.27,1-1,1.64-1.91.9-1.36,2.36-2.36,2.63-3.54a2.84,2.84,0,0,0,.09-.91c0-.64-.09-1.45-.09-2.45a11.74,11.74,0,0,1,.09-1.73c.27-2.54.09-4.63.27-6.09a25.33,25.33,0,0,0,.28-2.72,7.2,7.2,0,0,0-.18-1.46,32.11,32.11,0,0,1-.64-7.36,75.19,75.19,0,0,1,.54-10.08,5.55,5.55,0,0,0,.1-1.37,26.26,26.26,0,0,0-.37-4.09c-.09-.9-.18-2.18-.18-3.54,0-2.45.18-5.45.27-7.81.09-1,.09-1.82.09-2.46,0-1.63-.27-2.09-1.09-2.27a18.71,18.71,0,0,0-4.27-.27c-2.18,0-2.91,1.72-3.36,2.36s-2.18,2.27-2.63,3.09a.89.89,0,0,1-.82.45c-.64,0-1.27-.54-1.27-2.18,0-1.36-.1-3.27-.1-4.54a15.72,15.72,0,0,1,.37-3.18,23.57,23.57,0,0,0,.18-4C386.73,248.28,387,248.19,387.37,248.19Z"/><path class="cls-1" d="M447.88,248.19c.82,0,2.27.54,3.73.63a26.18,26.18,0,0,1,3.27.09,22.44,22.44,0,0,0,2.54.1H460a38.77,38.77,0,0,0,4.63-.28,9.49,9.49,0,0,1,1.64-.09c1.36,0,3,.18,5.45.37a17,17,0,0,0,2.18.09,31.88,31.88,0,0,0,5.45-.46,13.07,13.07,0,0,1,2.82-.54,2.58,2.58,0,0,1,.82.09.68.68,0,0,1,.54.72,28.1,28.1,0,0,0-.63,5.09c0,1.09.45,2.27.45,3.73s0,4-1.09,4-6.18-4.73-6.63-5.09a3.9,3.9,0,0,0-1.73-.18,28.62,28.62,0,0,0-2.91.09c-.82.09-1.09,1-1.09,2.36a22.52,22.52,0,0,0,.18,2.36,10,10,0,0,1,.09,1.64c0,1.91-.27,4.18-.27,6.18s-.27,3.72-.27,5.36a7.85,7.85,0,0,0,.09,1.45,23,23,0,0,1,.18,3.18v2.09a9.17,9.17,0,0,1-.45,3.36,2.87,2.87,0,0,0-.28,1.19,3.48,3.48,0,0,0,.55,1.72,2.42,2.42,0,0,1,.27,1.27c0,1.19-.36,3.09-.54,6.18-.09.91-.09,1.91-.09,3,0,4.36.36,9.63.36,10.54,0,1.36,1.09,2.64,1.09,3.82.36.91,1.91,1.45,2.64,2.36a2.76,2.76,0,0,1,.72,1.45c0,.37-.27.64-.72.73a20.18,20.18,0,0,1-2.55.09h-2.72c-1.1,0-2.73.27-5.55.27-2.09-.18-4.45-.27-6.18-.27-.54,0-.72-.09-.72-.18,0-.27,1-1,1.63-1.91.91-1.36,2.36-2.36,2.64-3.54a2.84,2.84,0,0,0,.09-.91c0-.64-.09-1.45-.09-2.45a11.74,11.74,0,0,1,.09-1.73c.27-2.54.09-4.63.27-6.09.09-.91.27-1.82.27-2.72a7.2,7.2,0,0,0-.18-1.46,33,33,0,0,1-.63-7.36,75.19,75.19,0,0,1,.54-10.08,6.15,6.15,0,0,0,.09-1.37,26.06,26.06,0,0,0-.36-4.09c-.09-.9-.18-2.18-.18-3.54,0-2.45.18-5.45.27-7.81.09-1,.09-1.82.09-2.46,0-1.63-.27-2.09-1.09-2.27a18.78,18.78,0,0,0-4.27-.27c-2.18,0-2.91,1.72-3.36,2.36s-2.18,2.27-2.64,3.09a.87.87,0,0,1-.82.45c-.63,0-1.27-.54-1.27-2.18,0-1.36-.09-3.27-.09-4.54a15.6,15.6,0,0,1,.36-3.18,22.34,22.34,0,0,0,.19-4C447.25,248.28,447.52,248.19,447.88,248.19Z"/><path class="cls-1" d="M488,251.55c-1.09-1.27-1.63-2-1.63-2.45,0-.28.36-.46,1.09-.46,1.45,0,2.82-.27,4-.27.27,0,.54.09.82.09,1.27.18,4.81.18,6.26.18a23.55,23.55,0,0,1,4.09.18c0,.55-2.36,3.27-2.81,4.09s-.55,3.46-.73,5.55c0,1.72.36,2.9.36,4.18a5.49,5.49,0,0,1-.36,2,6.41,6.41,0,0,0-.36,2.09c0,1.19.36,2,.36,2.73,0,.91.27,3.27.27,5.82v1.54c-.09,1-.09,2-.09,3,0,2,.09,3.36.09,4.81V287c0,1.63.09,3.18.82,3.18s2.36-1.37,4.45-2.09c2.73-1,6.73-2.64,7.64-2.64h1.09c.36-.09,2-1.27,2.36-1.45a2.34,2.34,0,0,0,1.18-2c0-.36.09-.73.09-1.18,0-1.36-.18-2.91-.18-5.45,0-3.37.18-4.18.18-6.91,0-2.18-.27-3.72-.27-5.36,0-.36.09-.82.09-1.27.09-1,.09-2,.09-2.82,0-1.91,0-3.36-.64-4.27-.72-1.27-1-3.09-2.09-4.36a2.09,2.09,0,0,1-.63-1.27c0-.28.09-.46.36-.46.55,0,3,.18,5.18.18,1.73,0,4.36-.45,6-.45a3.18,3.18,0,0,1,1,.09,7.59,7.59,0,0,0,2,.27c.63,0,1.18-.09,1.54-.09.18,0,.18.09.18.18,0,.46-1.09,1.73-2.18,3.37a4.3,4.3,0,0,0-.82,2.72v2.64c-.18,2.18-.63,6-.63,8.08a4.1,4.1,0,0,0,.09,1.18,10.78,10.78,0,0,1,.36,3.55c0,1.09.09,4,.09,7,0,1.54,0,3.08-.09,4.45-.18,3.27-.45,5.45-.45,7.09,0,1.18.18,2.27.18,3.36,0,.72,0,1.54.09,2.54.18,2.09.36,11.09.36,13.18,0,.91-.09,1.81-.09,2.63,0,1.09.09,1.91.55,2.18.73.55,2.63,2.64,3.45,3.18a.26.26,0,0,1,.18.28c0,.45-1.27,1-2.54,1-1,0-3-.1-4.45-.1a8.08,8.08,0,0,0-1.73.1,4.84,4.84,0,0,1-1.18.09c-.91,0-1.91-.09-3.27-.09a25.87,25.87,0,0,1-4.45-.19.29.29,0,0,1-.28-.27c0-.45.91-1.45,1.46-1.91a6.89,6.89,0,0,0,2.54-4.27c.09-1,.09-2.18.09-3.45s0-2.54.09-4c0-.54.09-1.09.09-1.63,0-2.18-.27-3.91-.45-6.64a10.56,10.56,0,0,1,.18-1.81c-1.27,0-3,1.18-4,1.63-2.27,1.09-5.63,2.91-7.45,3.09a7.84,7.84,0,0,0-4.45,2.09c-.91.91-1.64.82-1.82,4.27a55.79,55.79,0,0,0,.37,7c.72,3.18,2,3.09,3.45,5.45,0,0-1.73.09-4.18.09-1.82,0-4.27-.36-6-.36a4.28,4.28,0,0,0-1.63.18,8.33,8.33,0,0,1-2.28.27,10.89,10.89,0,0,1-2.72-.27c-.18-.18,2.45-4.36,3.36-5.54a2.41,2.41,0,0,0,.45-1.55c0-.91-.27-2.09-.27-4.09,0-3.18,0-4.81.18-7.45a20.72,20.72,0,0,0,.09-2.27c0-1.36-.09-2.54-.09-4,0-2.18,0-4.36-.18-7s-.18-7-.18-9.45a14.7,14.7,0,0,1,1.09-5l-.91-3.18a11.7,11.7,0,0,0,.18-2.27c0-.73-.09-1.55-.18-2.55a53.83,53.83,0,0,1-.36-7.09A5.11,5.11,0,0,0,488,251.55Z"/><path class="cls-1" d="M537.38,252.91c-.9-.54-2.27-2.09-2.27-2.81,0-1,.09-1.46,1.55-1.46,2.27,0,5.9.64,8.45.64,1.27,0,2.45-.18,3.63-.18.91,0,1.73,0,4.91.18,1.82,0,4.18-.18,5.63-.27h8.55a3.14,3.14,0,0,1,1.45.18c.45.27,1.09.36,1.09,2,0,1.45-.36,2.72-.36,4.08,0,1.73.36,2.82.36,3.91a11.08,11.08,0,0,1-.45,3.73c-.37,1-1.73,1.18-3.18,2.27s-1,1.91-2.46,2.54a17.35,17.35,0,0,0-2.72,1.55,26.68,26.68,0,0,1-.19-4.27c0-1.82.09-3.18.09-4.45-.18-2.09-.09-3.18-.72-3.37a4.17,4.17,0,0,0-1.27-.09c-1.19,0-2.91-.09-4.37-.09h-1c-2.09.18-3.18,0-3.9.37-.28.18-.37.54-.37,1.18v4.72c0,.27-.09.46-.09.73a46.13,46.13,0,0,1-.63,6.36,8.48,8.48,0,0,0-.19,2.09c0,1.18.19,2.18.19,3.63s.09,3.46.09,5a9,9,0,0,1-.09,1.73c0,.18,0,.27.18.27.63,0,2.72-1.73,4.27-2.73,1.82-1.09,4.27-1.18,5.18-2.45a3.27,3.27,0,0,1,2.18-1.54.64.64,0,0,1,.54.27c.37.45.37,1.36.37,2.82V285c0,1.36-.18,1.72-1.46,2.18a42.87,42.87,0,0,0-4.08,1.91c-1.64.72-3,2.09-4.46,2.54s-1.36,2.09-2.36,2.45c-.82.28-1.09.82-1.09,2.64,0,.55.09,1.09.09,1.82l.36,8.36s.09,2.72,1.55,2.9c1.73,0,3.63-.45,4.91-.45a2.23,2.23,0,0,1,.81.09,12.53,12.53,0,0,0,3.55.64,2.32,2.32,0,0,0,1.27-.28c.73-.45,1.18-1.72,1.18-3.27s-.45-2.72-.45-3.9a1.23,1.23,0,0,1,.72-1.28,35.92,35.92,0,0,0,4.09-2.45,24.41,24.41,0,0,1,3.91-2.18c.27,0,.91.45.91,2,0,1.82-.46,3.45-.46,5.18,0,1.45.1,2.63.1,3.54,0,1.64-.19,3.46-.19,6.09s-.18,3.27-.72,3.63c-.09.1-.19.1-.37.1-.72,0-2.27-.46-3.72-.46-1.09,0-2,.36-3,.36-1.91,0-4.45-.36-6.09-.36-2.73.18-3.27.36-6.27.36-2.36,0-6.36-.27-9.27-.27-.72,0-1.45.09-2,.09-1.45.09-2.36.18-3.09.18-1,0-1.63-.09-1.63-.36a2.37,2.37,0,0,1,1.36-2.54c1.64-.91,2.73-3.18,3.09-4a4.16,4.16,0,0,0,.55-1.82c0-.63-.19-1.45-.19-4,0-3.36-.09-4.09-.09-4.9,0-1.46.09-3.27.46-3.82a3.27,3.27,0,0,0,.36-1.73c0-1.18-.27-2.54-.36-3.81a59.82,59.82,0,0,1-.37-6.09c0-2.45.37-4.45.37-7.45,0-2.36-.28-3.55-.28-5.54,0-.46.1-1,.1-1.64.18-3.18.09-4.91.27-7.81,0-1.91-.55-3.73-.64-5.73C539.11,253.64,538.29,253.46,537.38,252.91Z"/><path class="cls-1" d="M620.8,268.09c0-.37-.09-.73-.09-1.09,0-1.28.27-2.09.27-4.46s-.36-2.27-.36-4.72c0-1.55-1.09-1.82-2.82-1.82-1.91,0-4.45.09-6,.09s-2.36.73-2.9,2.55a8.72,8.72,0,0,0-.28,2.27c0,1.18.19,2.45.28,4,0,1.18-.46,1.81-.64,4.09v1.18c0,1.81.27,3,.45,5.36,0,2.72.19,6,.19,8.45a11.09,11.09,0,0,1-.37,2.82,7.28,7.28,0,0,0-.36,1.9c0,.64.18,1,.18,1.82v.64a8.35,8.35,0,0,0-.09,1.54c0,1.64.18,3.55.18,5.64,0,2.27-.09,3.9-.09,5.36,0,2.63.18,4.54.73,4.9a5,5,0,0,0,2.18.46c.91,0,1.82-.27,3.36-.27,1.18,0,2.64.09,3.82.09,1.72,0,3.27-.46,3.45-2.28s-.09-1.63-.09-4.27a26.53,26.53,0,0,1,.36-5c.18-1,2.91-2.18,4.36-3.28s2.09-2.09,3.73-2.09c1,0,1.18.64,1.18,1.55,0,.54-.09,1.27-.09,1.82,0,1.45-.36,3.36-.36,5.9s.18,3.91.36,6.36c0,2.64-1,3.55-1.82,5.37-.91,2-3,2.81-4.09,3.54a4.92,4.92,0,0,1-2.54.45,33.71,33.71,0,0,1-3.45-.27c-1,0-2.64.73-4.64.73a60.05,60.05,0,0,0-7.81-.55c-3.91,0-5.73-.18-7-2.27s-.63-6.27-1-7.72a7.2,7.2,0,0,1-.18-1.46c0-1.72.73-3.45.73-5.45a5.4,5.4,0,0,0-.37-2c-.54-1.81-.54-7.81-.54-11.54,0-2.45.18-5,.18-7.54a18.36,18.36,0,0,1,.64-6,4.78,4.78,0,0,0,.18-1.54c0-1.46-.55-2.73-.64-5.82-.09-1.09-.09-2.09-.09-3,0-2.45.18-4.45.46-7.45.36-4.09,3.18-5.36,4.72-6.08a8.67,8.67,0,0,1,3.27-.55c.91,0,1.82.09,3,.18s2.45-.36,4.27-.54c2.82,0,5.27.36,8.91.36,4.27,0,4.63,1.45,5.36,2.36s.91,3.73.91,5.27.36,1.09.36,5.18c0,2.27,0,3.73-.73,4.45-1.09,1.09-2.91,1.82-4.27,3.19a5.35,5.35,0,0,1-3.09,1.72C621.35,270.63,621,270.09,620.8,268.09Z"/><path class="cls-1" d="M638.07,252a5.78,5.78,0,0,1-2-2.09.81.81,0,0,1-.09-.45c0-.36.36-.73,1.72-.73s2.91-.18,4.27-.18c1.82,0,3.27.73,4.91.73a2.05,2.05,0,0,0,.82-.09,7.65,7.65,0,0,1,2.9-.55c1.28,0,2.1-.09,3-.09.55,0,.91.18,1.09,1,.1.55-2,2.45-3.09,3.91s-1.27,2.72-1.27,6.45-.54,5.72-.54,7.09v2a6.92,6.92,0,0,1-.37,2.9,2.23,2.23,0,0,0-.18.73c0,.91.73,1.82.82,3.09.09,1.54.45,5.09.45,9.09s-.18,6-.18,8.63a67.07,67.07,0,0,1-.27,7.45c0,.36-.09.73-.09,1.18,0,1.91.36,3.82.36,6.45a5.08,5.08,0,0,0,.55,2.46c.18.27,1.72,2.9,2.72,3.45a2.56,2.56,0,0,1,1.28,1.73c0,.36-.28.63-.91.63-1.73,0-6,.09-7.82.09h-4.63c-.91.09-2.27.09-4.45.09-.46-.09-.82-.18-.82-.54a1.94,1.94,0,0,1,.45-1.09c.82-1.27,2.27-2.46,2.64-3.55a11.16,11.16,0,0,0,.72-3.9c0-3,.46-6.82.55-8.45s-.09-2.73-.09-3.82c0-1.91.36-3.18.36-4.45a17.6,17.6,0,0,0-.09-2.27v-.37c-.09-.91-.27-3.63-.27-6.9,0-1.55.09-3.18.18-4.73a35.9,35.9,0,0,0,.18-3.91c0-1.45-.09-2.09-.18-3.54-.09-2-.64-3.18-.64-5.27,0-3.54.28-5,.28-6.63a27.19,27.19,0,0,0-.64-3.73C639.7,253.19,639.07,252.73,638.07,252Z"/><path class="cls-1" d="M658.78,248.19c.82,0,2.27.54,3.73.63a26.18,26.18,0,0,1,3.27.09,22.44,22.44,0,0,0,2.54.1h2.55a38.77,38.77,0,0,0,4.63-.28,9.49,9.49,0,0,1,1.64-.09c1.36,0,3,.18,5.45.37a17,17,0,0,0,2.18.09,31.88,31.88,0,0,0,5.45-.46,13.07,13.07,0,0,1,2.82-.54,2.58,2.58,0,0,1,.82.09.68.68,0,0,1,.54.72,28.1,28.1,0,0,0-.63,5.09c0,1.09.45,2.27.45,3.73s0,4-1.09,4S687,257,686.5,256.64a3.9,3.9,0,0,0-1.73-.18,28.62,28.62,0,0,0-2.91.09c-.82.09-1.09,1-1.09,2.36a22.52,22.52,0,0,0,.18,2.36,10,10,0,0,1,.09,1.64c0,1.91-.27,4.18-.27,6.18s-.27,3.72-.27,5.36a7.85,7.85,0,0,0,.09,1.45,23,23,0,0,1,.18,3.18v2.09a9.17,9.17,0,0,1-.45,3.36,2.87,2.87,0,0,0-.28,1.19,3.48,3.48,0,0,0,.55,1.72,2.42,2.42,0,0,1,.27,1.27c0,1.19-.36,3.09-.54,6.18-.09.91-.09,1.91-.09,3,0,4.36.36,9.63.36,10.54,0,1.36,1.09,2.64,1.09,3.82.36.91,1.91,1.45,2.64,2.36a2.76,2.76,0,0,1,.72,1.45c0,.37-.27.64-.72.73a20.18,20.18,0,0,1-2.55.09h-2.72c-1.09,0-2.73.27-5.55.27-2.09-.18-4.45-.27-6.18-.27-.54,0-.72-.09-.72-.18,0-.27,1-1,1.63-1.91.91-1.36,2.36-2.36,2.64-3.54a2.84,2.84,0,0,0,.09-.91c0-.64-.09-1.45-.09-2.45a11.74,11.74,0,0,1,.09-1.73c.27-2.54.09-4.63.27-6.09.09-.91.27-1.82.27-2.72a7.2,7.2,0,0,0-.18-1.46,33,33,0,0,1-.63-7.36,75.19,75.19,0,0,1,.54-10.08,6.15,6.15,0,0,0,.09-1.37A26.06,26.06,0,0,0,671,273c-.09-.9-.18-2.18-.18-3.54,0-2.45.18-5.45.27-7.81.09-1,.09-1.82.09-2.46,0-1.63-.27-2.09-1.09-2.27a18.78,18.78,0,0,0-4.27-.27c-2.18,0-2.91,1.72-3.36,2.36s-2.18,2.27-2.64,3.09a.87.87,0,0,1-.82.45c-.63,0-1.27-.54-1.27-2.18,0-1.36-.09-3.27-.09-4.54a15.6,15.6,0,0,1,.36-3.18,22.34,22.34,0,0,0,.19-4C658.15,248.28,658.42,248.19,658.78,248.19Z"/><path class="cls-1" d="M697.4,248.55c1.09,0,5.54.09,7.9.09h1.28c2.81,0,4-.09,5.09-.09a3.81,3.81,0,0,1,2.54.64c-.09.91-.73,1.63-.82,2.54,0,1.27.73,2.45,1,3.73a49.73,49.73,0,0,0,1.36,4.9c.46,1.82,1.46,3.37,2,5.18a49.84,49.84,0,0,0,2,6.09c.64,1.55.91,3.27,2,4.64.46-.37.37-1,1.46-3.64.9-2.27,1.36-4.82,2.27-7.18a37.47,37.47,0,0,1,2.09-6.18c1.09-1.9,1.09-4.72,1.09-6.9-.09-.82-1.09-1.46-1.09-2.37,0-.72.81-1.18,1.63-1.18h7.27c.82,0,1.73.19,2.91.19.73,0,1.45-.1,2.63-.1l2.28-.09c-1.82,2.64-3.91,4.91-5.09,6.82-.91,1.18-1.18,2.72-1.73,4.09-.73,2.09-1.45,4.18-2,6.27-.36,1.63-1.45,2.91-2,4.45a28.69,28.69,0,0,0-2.18,6c-.09,2.18-1.45,3.9-2.09,5.9s-1.18,4.09-1.72,6.18a22.31,22.31,0,0,0-.46,2.36,20.09,20.09,0,0,1-.09,2.37,51.62,51.62,0,0,1-.54,7.18,5.26,5.26,0,0,1,.09.9c.18,1.82.36,3.64.45,5.46a20.59,20.59,0,0,0,.55,5.27c.81,1,2,1.54,2.9,2.45a3.32,3.32,0,0,1,.64,1.82,1.53,1.53,0,0,1-.09.63c-1.27.09-2.64.18-4,.18a12.33,12.33,0,0,1-1.82-.09,14.8,14.8,0,0,0-2-.09c-1.9,0-3.72.28-5.63.37-1,0-2.09.27-3.09.27a3.57,3.57,0,0,1-1.63-.36c.45-1.73,2.27-2.55,3.18-4a25.22,25.22,0,0,0,.72-4.27c0-2.46.18-5,.18-8,0-1.82-.54-3.54-.54-5.72a13.64,13.64,0,0,0,.09-1.91,12.45,12.45,0,0,0-.36-2.64l-.64-2.18c-.91-3.27-2.27-6.18-3.45-9.27-.91-2.45-2.46-6.27-2.55-8.9s-1.54-1.64-2.36-3.09c-1.18-2.09-1.54-4.63-2.45-6.82a32.07,32.07,0,0,0-3.82-6.54,8.61,8.61,0,0,0-3-3c-.72-.45-1.54-1.36-1.54-1.9C696.22,248.64,696.85,248.55,697.4,248.55Z"/><path class="cls-1" d="M2.09,357.59c1.09,0,5.54.09,7.91.09h1.27c2.81,0,4-.09,5.09-.09a3.81,3.81,0,0,1,2.54.64c-.09.91-.73,1.63-.82,2.54,0,1.27.73,2.46,1,3.73a50.77,50.77,0,0,0,1.37,4.91c.45,1.81,1.45,3.36,2,5.17a49.84,49.84,0,0,0,2,6.09c.64,1.55.91,3.27,2,4.64.46-.37.37-1,1.46-3.64.9-2.27,1.36-4.81,2.27-7.18a37.47,37.47,0,0,1,2.09-6.18c1.09-1.9,1.09-4.72,1.09-6.9-.09-.82-1.09-1.45-1.09-2.36,0-.73.82-1.18,1.63-1.18h7.27c.82,0,1.73.18,2.91.18.73,0,1.45-.09,2.64-.09l2.27-.09c-1.82,2.63-3.91,4.9-5.09,6.81-.91,1.18-1.18,2.73-1.73,4.09-.73,2.09-1.45,4.18-2,6.27-.36,1.63-1.45,2.91-2,4.45a28.69,28.69,0,0,0-2.18,6c-.09,2.18-1.45,3.91-2.09,5.9s-1.18,4.09-1.72,6.18a22,22,0,0,0-.46,2.37,20,20,0,0,1-.09,2.36,51.62,51.62,0,0,1-.54,7.18,5.3,5.3,0,0,1,.09.91c.18,1.81.36,3.63.45,5.45a20.59,20.59,0,0,0,.55,5.27c.81,1,2,1.54,2.9,2.45a3.34,3.34,0,0,1,.64,1.82,1.53,1.53,0,0,1-.09.63c-1.27.1-2.64.19-4,.19a12.4,12.4,0,0,1-1.82-.09,13.34,13.34,0,0,0-2-.1c-1.9,0-3.72.28-5.63.37-1,0-2.09.27-3.09.27a3.57,3.57,0,0,1-1.63-.36c.45-1.73,2.27-2.55,3.18-4a25.22,25.22,0,0,0,.72-4.27c0-2.46.19-5,.19-8,0-1.81-.55-3.54-.55-5.72a13.57,13.57,0,0,0,.09-1.91,12.45,12.45,0,0,0-.36-2.64l-.64-2.18c-.91-3.27-2.27-6.18-3.45-9.26-.91-2.46-2.46-6.27-2.55-8.91s-1.54-1.64-2.36-3.09c-1.18-2.09-1.54-4.63-2.45-6.81A32.13,32.13,0,0,0,5.45,363a8.5,8.5,0,0,0-3-3c-.72-.46-1.54-1.37-1.54-1.91C.91,357.68,1.54,357.59,2.09,357.59Z"/><path class="cls-1" d="M50.34,366.86c.37-4.54,1.36-6.81,3.45-7.9a13.26,13.26,0,0,1,5.91-1.28c3.09,0,6.82.19,8.18.19h3.63c.46,0,1-.1,1.55-.1a24.11,24.11,0,0,1,2.54.19c1.46.18,7.91,1.36,7.91,8.36,0,5.08.54,9.54.54,12.26a6.37,6.37,0,0,1-.27,2.18,10.82,10.82,0,0,0-.73,4c.09,2.18.37,4.27.37,6.09a19.81,19.81,0,0,1,.36,2.27c0,2.09.09,5.91.09,9.27,0,.54-.09,1.09-.09,1.63-.27,4-.45,8.27-.73,9.55a1.53,1.53,0,0,0-.09.63c0,1.09.46,2.18.46,3.91,0,2.63-2.37,7.81-6.09,7.81-5.91-.09-6.63-.18-7.45-.18A8.08,8.08,0,0,0,68,426a5.63,5.63,0,0,1-1.18.19c-3.36,0-5.64.18-9.54.18a15.32,15.32,0,0,1-2.46-.18c-1.45-.37-4.63-1.91-4.63-7.73,0-4.27-.36-6.81-.36-8.45s.72-2.81.72-4.63c0-.91-.27-1.82-.27-3.18,0-1.55.27-3.73.27-5.82,0-.54-.09-1.09-.09-1.63a56,56,0,0,1-.45-5.91c0-2.36.54-7.36.54-8.81s-.72-2.55-.72-4.46S50.25,368.22,50.34,366.86ZM59.79,377c0,3,.37,5.18.37,8.27a40,40,0,0,1-.37,4.18c0,1.18.64,2.18.64,3.54a18.54,18.54,0,0,1-.73,3.63,4.5,4.5,0,0,0-.09,1.09c0,1.55.64,3.09.73,7.91.09,2.73.09,5.09.09,7v2.36c0,2.36,1.45,2.09,3,2.72a4.74,4.74,0,0,0,2,.37,38.76,38.76,0,0,0,4-.46c2.64-.36,3.18-.09,3.64-1.18s.36-3.27.54-7.18.19-8.26.28-10.45-.09-3.08-.09-4c0-1.18.72-2.18.72-3.55a6.27,6.27,0,0,0-.36-1.91,31.14,31.14,0,0,1-.55-7.08v-2.37c0-2.27.09-5.08.09-7.26a25.94,25.94,0,0,0-.09-2.82,3.75,3.75,0,0,0-3.54-3.27c-1.27,0-3.54.36-4.91.45a23.12,23.12,0,0,1-2.45.09H61.06c-.54.09-1.18,1.46-1.18,6.54C59.88,374.68,59.88,375.77,59.79,377Z"/><path class="cls-1" d="M89.6,357.77c1,0,2.36.19,3.09.19s1.09-.19,1.81-.19a6.89,6.89,0,0,1,1.64.28,9.2,9.2,0,0,0,1.73.18c2.09,0,5.08-.46,6.36-.46s2,.19,2,.82a1.56,1.56,0,0,1-.45,1,30.46,30.46,0,0,0-2.64,3.91,13,13,0,0,0-.36,4c0,.91,0,1.91.09,2.9,0,.46.09,1.1.09,1.82,0,2.82-.27,7.36-.27,10.27,0,1.09.18,2.09.18,3.27,0,1.45-.54,2.64-.54,4.18,0,1.18.36,2.27.36,4V396c0,1-.18,1.54-.18,2.09,0,.73.36,1.36.36,2.63v1.55a24,24,0,0,0,.09,2.45v7.09a33.63,33.63,0,0,0,.18,3.54c.37,2.27,1.64,2.82,3.46,2.91l1.18.73c1,0,1.54-.82,2.73-.82.45,0,1.09,0,2.54.09a4,4,0,0,0,3.27-1.09c.73-.82.36-2.91.73-3.72a1.2,1.2,0,0,0,.09-.55c0-.82-.37-2.09-.37-4,0-.36.1-.82.1-1.27.09-1.54.18-3.36.18-5s-.09-3.18-.18-4l.09-2.72c0-.37.91-.73.91-1.36,0-.91-1.1-1.55-1.1-2.37a48.85,48.85,0,0,1,.55-7c.09-.82.18-1.46.18-2a6.8,6.8,0,0,0-.63-2.91,6.59,6.59,0,0,1-.19-2.18V365.32a12.29,12.29,0,0,0-.63-3.55c-.37-1-1.73-1.81-2.18-3.27,0-.09-.09-.27-.09-.36,0-.55.63-.64,1.27-.64a4.26,4.26,0,0,1,1.18.18h7.54c1.27,0,2.36-.18,3.27-.18a4.31,4.31,0,0,1,1.55.27c.82.37,1.36.73,1.36,1.19a.78.78,0,0,1-.27.54c-.73.73-2.55,4.18-3,4.73a4.13,4.13,0,0,0-.55,2.36v.63c.09.91.28,2.28.28,3.46S126,373,126,374.49a27.32,27.32,0,0,0,.28,3.46,10.46,10.46,0,0,1,.09,1.72c0,2.55-.37,5.82-.37,7.82,0,1.09.28,2.09.28,3.45,0,1.09-.1,2.36-.1,3.73,0,.81-.18,1.81-.27,3.36a30.71,30.71,0,0,0,.37,3.54,40.36,40.36,0,0,1,.27,4.18v14.09c0,4.72-6.36,6.27-8.18,6.27-5.82,0-6.63,0-7.09.09-.91.09-2.09.27-3.18.27a6.91,6.91,0,0,1-1.36-.09,24.19,24.19,0,0,0-4.09-.18H98.5c-3.91,0-5.81-3.73-5.81-7.91,0-2-.28-7.54-.46-10.36,0-.54-.09-1.36-.09-2.27,0-3.63.27-9.27.27-10.54,0-.91-.18-3.36-.18-5.54a16.08,16.08,0,0,1,.27-3.36,9,9,0,0,0,.28-2c0-1.46-.55-2.82-.55-5.18,0-2.18.18-4.91.27-7.18v-.36c.09-1.82.19-3.46.19-4.73A19.22,19.22,0,0,0,92.5,364a6.21,6.21,0,0,0-1.72-3.54c-.91-.82-2.18-1.82-2.18-2.45C88.6,357.77,89.05,357.77,89.6,357.77Z"/><path class="cls-1" d="M169.29,357.59c1.18,0,2.81.28,3.63.28,1.46,0,3.36-.19,5.45-.19s4.91-.18,7.82-.18c3.9,0,4.81.09,4.81.64s-1.09,1.72-2.18,2.91c-.82,1-.82.81-1,2,0,.19-.09.37-.09.55a2.81,2.81,0,0,0-.09.82c-.09,1.27.55,2.09.82,4.18.27,2.54.91,2.63,1.45,5.81s2.27,7.91,2.73,10.36,2.45,9.45,2.63,11.27c.46,1.82.37,2.82,1.37,4.81s.63,4.09,1.36,6.37,1.73,7.45,2.09,9.08a21,21,0,0,0,2.91,5.18c1,1.27,2.54,3,2.54,3.73a.33.33,0,0,1-.36.36c-1.36.18-5.36.18-8.63.36-1.37,0-2.82-.09-4.18-.09a12.26,12.26,0,0,0-1.82.09,14.38,14.38,0,0,1-1.73.19c-.91,0-1.45-.19-1.36-.55a.68.68,0,0,1,.18-.36c.46-.73,3.45-4.09,3.54-4.64a28,28,0,0,0-.72-4.45c-.55-2.54-1.73-6.72-2.27-8.36-.28-1-1-1.82-1.82-1.82a1.59,1.59,0,0,0-1.09.55c-1.09,1.18-3.27,2.09-4.27,2.82s-3.55,0-4,1.27c-.73,1.27-2.82,1.81-5.45,3.45s-3.18,1.18-3.46,3a11.93,11.93,0,0,0-.27,2.09,3.22,3.22,0,0,0,.27,1.27,6.22,6.22,0,0,0,1.82,3.54c.73.82,1.37,1.55,1.27,1.91,0,.18-.09.18-.27.28a7.45,7.45,0,0,1-1.63.09c-1.46,0-3.64-.09-5.46-.09-2.09,0-4.72.27-6.54.27-.45,0-.82-.09-1.18-.09-1-.09-1.82-.28-1.73-.73a1.73,1.73,0,0,1,.55-.91c1.18-1.27,2.45-3.36,3.54-4.63.82-1.27.37-3.55,1.18-5.18s1-4.45,1.73-8.54,3.27-11.72,3.54-13.36.91-6,1.73-7.09c1-1.09,1.73-7.36,1.73-7.36,3.18-12.9,3.36-13.36,3.36-13.81a4.39,4.39,0,0,0-1.18-3.27c-.82-.82-2.46-2.55-2.55-3.36C168,357.68,168.56,357.59,169.29,357.59Zm7.27,23.08c-.73,2.91-.91,4.18-1.82,5.55s-1,4.9-1.73,7.08a43.68,43.68,0,0,0-1.63,7.64,34.88,34.88,0,0,0-.46,4.54c.18-.36,3.91-1.55,5.45-2.82,1.37-1.27,6.27-3.81,8.09-4.54a1.64,1.64,0,0,0,1-1.73c.09-1.27-.73-4-1.27-6.27-1.09-3.72-.46-4.9-1.64-6.27a8.73,8.73,0,0,1-1.36-4.81,22.27,22.27,0,0,0-.55-4.09c-.36-.64-1.18-3.55-1.72-3.55S177.37,377.76,176.56,380.67Z"/><path class="cls-1" d="M238.16,403.48c.37,1.18,1.82,4.27,2,6.09a18.15,18.15,0,0,0,2.37,6.36c1.09,1.82,1.81,4.63,3.09,6.27s2.45,2.72,2.45,3.36c0,.18,0,.27-.18.27a18.06,18.06,0,0,1-2.64.09c-1.72,0-3.91,0-5.54-.09h-3.18c-1,0-2.27.18-3.18.18-.64,0-1.09-.09-1.09-.36,0-1,.82-2.73.82-3.82,0-2.36-2.46-8-2.46-8.54,0-.72-1-2.54-1.63-3.9a49.66,49.66,0,0,1-2.18-7,16.74,16.74,0,0,0-5.37,2.82c-1.09.91-1.63,1.18-1.63,2.72,0,.37.09.73.09,1.18.09,1,.09,1.82.09,2.64,0,1.63-.09,3.18-.09,5.36,0,3.27.73,4.18,2,5.72a17.65,17.65,0,0,1,2.18,3.28c-3,0-5.91-.55-9.09-.55-.27,0-.63.09-1.09.09-2,.18-3.63.46-4.9.46a3.39,3.39,0,0,1-1.09-.1c-.28-.09-.37-.18-.37-.36,0-.63,1.09-1.73,1.73-2.73.82-1.27,1.36-2.9,1.54-6.08v-1.46c0-2.18-.27-3.36-.27-6.54,0-2.36-.18-4.72-.18-6.54,0-1.55.45-3,.45-4.73,0-1.36-.18-2.81-.27-4.63.09-1.64.09-3.91.09-6.36-.09-6.82-.27-9.54-.27-12.54V365a4.84,4.84,0,0,0-1-2.72,13.79,13.79,0,0,1-2.27-4.09c0-.37.63-.46,1.72-.46H210c1,0,2.54-.09,4-.09a10.57,10.57,0,0,1,3.09.28,6.92,6.92,0,0,0,2,.18c2,0,4.27-.37,5.27-.37,1.37,0,3.82.19,6.54.46.46,0,.82.09,1.28.09,2.27,0,4.27-.55,5.9-.55,1.91,0,6.18,2.28,6.18,6.27,0,2.73-.09,4.73-.09,6.55,0,.9,0,1.81.09,2.72.18,1.82.37,3.45.37,4.82a5.33,5.33,0,0,1-.19,1.81,6.58,6.58,0,0,0-.27,1.91c0,.73.09,1.37.09,2,0,.46.09,3,.09,3.36a7.75,7.75,0,0,1-1.45,4.64c-1.09,1.91-6.91,5.45-6.91,6A57.09,57.09,0,0,1,238.16,403.48ZM225.08,394c1.27-1.09,2.63-1.91,4.09-3s3.09-1.36,4.09-2.72,1.36-4.09,1.36-6.27c0-1.91-.18-4.82-.18-9.27,0-1.55-.18-1.64-.18-3.55A3.19,3.19,0,0,0,231,366h-5c-1.46.09-3.82.27-4.82.27-.82,0-1,3.37-1,5.55S220,375,220,377.22c0,1.36-.18,2.45-.18,3.73a11,11,0,0,0,.36,2.81,11.29,11.29,0,0,1,.28,2.36c0,1.64-.37,3.18-.46,5.27-.09,1.28-.09,2.28-.09,3,0,1.09.09,1.73.45,1.73A10.54,10.54,0,0,0,225.08,394Z"/><path class="cls-1" d="M253.61,362c-.91-.54-2.27-2.09-2.27-2.81,0-1,.09-1.46,1.54-1.46,2.28,0,5.91.64,8.45.64,1.28,0,2.46-.18,3.64-.18.91,0,1.73,0,4.91.18,1.81,0,4.18-.18,5.63-.27h8.54a3.12,3.12,0,0,1,1.45.18c.46.27,1.09.36,1.09,2,0,1.45-.36,2.72-.36,4.09,0,1.72.36,2.81.36,3.9a11.08,11.08,0,0,1-.45,3.73c-.36,1-1.73,1.18-3.18,2.27s-1,1.91-2.45,2.55a16.68,16.68,0,0,0-2.73,1.54,28.15,28.15,0,0,1-.18-4.27c0-1.82.09-3.18.09-4.45-.18-2.09-.09-3.18-.73-3.37a4.13,4.13,0,0,0-1.27-.09c-1.18,0-2.91-.09-4.36-.09h-1c-2.09.18-3.18,0-3.91.37-.27.18-.36.54-.36,1.18v4.72c0,.28-.09.46-.09.73a44.59,44.59,0,0,1-.64,6.36,8.94,8.94,0,0,0-.18,2.09c0,1.18.18,2.18.18,3.63s.09,3.46.09,5a9,9,0,0,1-.09,1.73c0,.18,0,.27.18.27.64,0,2.73-1.72,4.28-2.72,1.81-1.09,4.27-1.19,5.17-2.46a3.29,3.29,0,0,1,2.19-1.54.64.64,0,0,1,.54.27c.36.45.36,1.36.36,2.82V394c0,1.36-.18,1.73-1.45,2.18a43.08,43.08,0,0,0-4.09,1.91c-1.63.73-3,2.09-4.45,2.54s-1.36,2.09-2.36,2.46c-.82.27-1.09.81-1.09,2.63,0,.55.09,1.09.09,1.82l.36,8.36s.09,2.72,1.54,2.91c1.73,0,3.64-.46,4.91-.46a2.29,2.29,0,0,1,.82.09,12.12,12.12,0,0,0,3.54.64,2.46,2.46,0,0,0,1.28-.27c.72-.46,1.18-1.73,1.18-3.28s-.46-2.72-.46-3.9a1.21,1.21,0,0,1,.73-1.27,38.7,38.7,0,0,0,4.09-2.46,24,24,0,0,1,3.9-2.18c.28,0,.91.46.91,2,0,1.82-.45,3.45-.45,5.18,0,1.45.09,2.63.09,3.54,0,1.64-.18,3.46-.18,6.09s-.18,3.27-.73,3.64c-.09.09-.18.09-.36.09-.73,0-2.27-.46-3.73-.46-1.09,0-2,.37-3,.37-1.9,0-4.45-.37-6.08-.37-2.73.18-3.27.37-6.27.37-2.37,0-6.36-.28-9.27-.28-.73,0-1.46.09-2,.09-1.45.1-2.36.19-3.09.19-1,0-1.64-.09-1.64-.37a2.37,2.37,0,0,1,1.37-2.54c1.63-.91,2.72-3.18,3.09-4a4.1,4.1,0,0,0,.54-1.82c0-.63-.18-1.45-.18-4,0-3.37-.09-4.09-.09-4.91a10.42,10.42,0,0,1,.45-3.82,3.16,3.16,0,0,0,.37-1.72c0-1.19-.28-2.55-.37-3.82a60,60,0,0,1-.36-6.09c0-2.45.36-4.45.36-7.45,0-2.36-.27-3.54-.27-5.54,0-.46.09-1,.09-1.64.18-3.18.09-4.91.27-7.81,0-1.91-.54-3.73-.63-5.73C255.34,362.68,254.52,362.5,253.61,362Z"/><path class="cls-1" d="M315.58,361.05a6.77,6.77,0,0,1-1.82-2.73c0-.55.28-.82,2.64-.82s4,.37,5.18.37,3.63,0,4.91-.1h5.08c.28,0,.37,0,.37.19a9.23,9.23,0,0,1-1.55,2.45c-1.54,2.09-1.45,1.63-2,3.45a15.23,15.23,0,0,0-.72,5.27c0,1.64.09,3.27.09,4.73a13.66,13.66,0,0,1-.09,2c0,1-.37,2-.37,3,0,1.46.46,2.55.46,3.82,0,2-.28,4.73-.37,6.45,0,.55-.09,1-.09,1.46,0,1.54.18,3.09.18,5.18,0,10.54-.18,13.72-.18,15.9s0,5.63,1,6a5.33,5.33,0,0,0,1.46.19c1.18,0,2.72-.19,3.36-.19.36,0,1.27.1,2.09.1,1.09,0,2.09-.19,2.09-1.09,0-3.46.18-4.91.18-6.46,0-.27.09-.54.73-1.09,1.27-1.18,2.81-1.9,3.63-3.09s3.09-2.72,3.82-2.72,1.18.72,1.18,2.82a32.07,32.07,0,0,1-.46,5.08,11.15,11.15,0,0,0-.09,1.73,37.43,37.43,0,0,0,.37,4.27c0,2-.28,3.82-.28,5.09,0,.82.1,1.54.1,2.18a1.56,1.56,0,0,1-.46,1.36c-.54.46-2.09.46-3.81.46h-1.73c-2.36,0-2.36-.28-5.54-.46-1.09-.09-1.73-.09-2.37-.09-1.18,0-1.9.09-4.18.09-3.36,0-4.72-.27-6.54-.36-1.63,0-1.91.36-3.18.36H317c-1.37,0-2.73.28-3.46.28a3.56,3.56,0,0,1-.45-.1,26,26,0,0,1,1.54-2.36,7.36,7.36,0,0,0,2.18-3.18,21.2,21.2,0,0,0,.73-5.18v-1.36c0-1.36.09-3,.18-4.27.09-1.09.37-2.91.37-4.45,0-1.37-.37-2.37-.37-3.46,0-2.27.46-5.63.46-7.27,0-2.09-.64-4.08-.64-5.9a52.69,52.69,0,0,1,.73-6.18,25.08,25.08,0,0,0-.91-3.73,3.46,3.46,0,0,1-.09-1.18c0-.82,0-2,.09-4,.09-2.18.54-4.45.54-6.08a2.81,2.81,0,0,0-.09-.91,7.1,7.1,0,0,0-1-2.64C316.4,362.86,316.76,362.32,315.58,361.05Z"/><path class="cls-1" d="M351.93,366.86c.36-4.54,1.36-6.81,3.45-7.9a13.26,13.26,0,0,1,5.91-1.28c3.09,0,6.81.19,8.17.19h3.64c.45,0,1-.1,1.54-.1a24.3,24.3,0,0,1,2.55.19c1.45.18,7.9,1.36,7.9,8.36,0,5.08.55,9.54.55,12.26a6.37,6.37,0,0,1-.27,2.18,10.62,10.62,0,0,0-.73,4c.09,2.18.36,4.27.36,6.09a19.32,19.32,0,0,1,.37,2.27c0,2.09.09,5.91.09,9.27,0,.54-.09,1.09-.09,1.63-.28,4-.46,8.27-.73,9.55a1.53,1.53,0,0,0-.09.63c0,1.09.45,2.18.45,3.91,0,2.63-2.36,7.81-6.08,7.81-5.91-.09-6.64-.18-7.46-.18a8,8,0,0,0-1.9.27,5.72,5.72,0,0,1-1.19.19c-3.36,0-5.63.18-9.54.18a15.07,15.07,0,0,1-2.45-.18c-1.45-.37-4.63-1.91-4.63-7.73,0-4.27-.37-6.81-.37-8.45s.73-2.81.73-4.63c0-.91-.27-1.82-.27-3.18,0-1.55.27-3.73.27-5.82,0-.54-.09-1.09-.09-1.63a56.38,56.38,0,0,1-.46-5.91c0-2.36.55-7.36.55-8.81s-.73-2.55-.73-4.46S351.84,368.22,351.93,366.86ZM361.38,377c0,3,.36,5.18.36,8.27a41.09,41.09,0,0,1-.36,4.18c0,1.18.63,2.18.63,3.54a18.49,18.49,0,0,1-.72,3.63,4.5,4.5,0,0,0-.09,1.09c0,1.55.63,3.09.72,7.91.09,2.73.09,5.09.09,7v2.36c0,2.36,1.46,2.09,3,2.72a4.78,4.78,0,0,0,2,.37,39.39,39.39,0,0,0,4-.46c2.63-.36,3.18-.09,3.63-1.18s.37-3.27.55-7.18.18-8.26.27-10.45-.09-3.08-.09-4c0-1.18.73-2.18.73-3.55a6.05,6.05,0,0,0-.37-1.91,31.8,31.8,0,0,1-.54-7.08v-2.37c0-2.27.09-5.08.09-7.26a25.94,25.94,0,0,0-.09-2.82,3.75,3.75,0,0,0-3.54-3.27c-1.28,0-3.55.36-4.91.45a23.22,23.22,0,0,1-2.45.09h-1.64c-.55.09-1.18,1.46-1.18,6.54C361.47,374.68,361.47,375.77,361.38,377Z"/><path class="cls-1" d="M391.64,366.86c.36-4.54,1.36-6.81,3.45-7.9a13.26,13.26,0,0,1,5.91-1.28c3.08,0,6.81.19,8.17.19h3.64c.45,0,1-.1,1.54-.1a24.3,24.3,0,0,1,2.55.19c1.45.18,7.9,1.36,7.9,8.36,0,5.08.55,9.54.55,12.26a6.37,6.37,0,0,1-.27,2.18,10.62,10.62,0,0,0-.73,4c.09,2.18.36,4.27.36,6.09a19.32,19.32,0,0,1,.37,2.27c0,2.09.09,5.91.09,9.27,0,.54-.09,1.09-.09,1.63-.28,4-.46,8.27-.73,9.55a1.53,1.53,0,0,0-.09.63c0,1.09.45,2.18.45,3.91,0,2.63-2.36,7.81-6.09,7.81-5.9-.09-6.63-.18-7.45-.18a8.15,8.15,0,0,0-1.91.27,5.53,5.53,0,0,1-1.18.19c-3.36,0-5.63.18-9.54.18a15.07,15.07,0,0,1-2.45-.18c-1.46-.37-4.63-1.91-4.63-7.73,0-4.27-.37-6.81-.37-8.45s.73-2.81.73-4.63c0-.91-.27-1.82-.27-3.18,0-1.55.27-3.73.27-5.82,0-.54-.09-1.09-.09-1.63a56.38,56.38,0,0,1-.46-5.91c0-2.36.55-7.36.55-8.81s-.73-2.55-.73-4.46S391.55,368.22,391.64,366.86ZM401.09,377c0,3,.36,5.18.36,8.27a41.09,41.09,0,0,1-.36,4.18c0,1.18.63,2.18.63,3.54a18.49,18.49,0,0,1-.72,3.63,4.07,4.07,0,0,0-.1,1.09c0,1.55.64,3.09.73,7.91.09,2.73.09,5.09.09,7v2.36c0,2.36,1.46,2.09,3,2.72a4.78,4.78,0,0,0,2,.37,39.39,39.39,0,0,0,4-.46c2.63-.36,3.18-.09,3.63-1.18s.37-3.27.55-7.18.18-8.26.27-10.45-.09-3.08-.09-4c0-1.18.73-2.18.73-3.55a6.05,6.05,0,0,0-.37-1.91,31.8,31.8,0,0,1-.54-7.08v-2.37c0-2.27.09-5.08.09-7.26a25.94,25.94,0,0,0-.09-2.82,3.75,3.75,0,0,0-3.55-3.27c-1.27,0-3.54.36-4.9.45A23.31,23.31,0,0,1,404,367h-1.63c-.55.09-1.18,1.46-1.18,6.54C401.18,374.68,401.18,375.77,401.09,377Z"/><path class="cls-1" d="M461.88,403.66c1.36,2.27,2,3.91,2,4.73s.63,1.09,1.45,2a15.54,15.54,0,0,1,2.36,3.81,20.39,20.39,0,0,1,1.46,4.09c.45,1.27,2.9,2.82,3.27,3.64s2.72,2,2.72,2.72v.55c0,.45-.18.63-2.09.63-2.54,0-3.45-.09-4.9-.09s-3.73.09-5.27.18-4.46.09-5,.09c0-.63,2.09-2.72,2.18-2.81a1.17,1.17,0,0,0,.18-.46,10.1,10.1,0,0,0-1.09-2.72c-.45-1.27-1.64-2.73-2-4.18s-.91-3.36-1.91-4-.91-1.73-1.63-3.18-2.64-4.82-3.55-6.36-1.9-4.09-2.36-4.82c-.18-.27-3.91,5-4,5.45-.09.82-.18,3-.18,5.37,0,1.54-.63,3-.63,4.45.81,1.09.9,3.63.9,4.45a27.8,27.8,0,0,0,.09,3,3.18,3.18,0,0,0,.91,2.09c1.18,1.18,3.09,2.54,3.09,3.18,0,.45-.45.54-3,.54-1.45-.09-3.18-.09-4.81-.09-3.64,0-4-.27-5.09-.27-2,.09-3.36.27-4.18.27-.55,0-.91-.09-.91-.27,0-1.18,1.09-1.36,2.18-2.54s2-2.18,2.18-3.64a6.91,6.91,0,0,0,.09-1.36c0-.91-.09-1.91-.09-3.27,0-2.09.18-3.64.18-5.18,0-1.09-.36-2.55-.36-3.82a3.55,3.55,0,0,1,.18-1.36,15.26,15.26,0,0,0,.55-4.54c0-1.73-.27-3-.27-4.37,0-1.54.18-3.36.18-4.54,0-.91-.18-1.73-.18-2.54V383.4a38.87,38.87,0,0,1-.28-5.73c.09-1.27.18-2.27.18-3.54a15.87,15.87,0,0,0-.18-2.73,14.39,14.39,0,0,1-.18-2.54c0-1.91-.18-3.54-.18-5.09,0-.82-.55-1-1.09-2.09-.82-1.63-2.55-2.36-2.55-3.27,0-.36.37-.64,1.46-.64,1.63,0,3.45-.09,4.45-.09,1.18.09,3.18.09,4.55.09H442a18.41,18.41,0,0,1,2.45-.09,7.55,7.55,0,0,1,1.64.09c.36.1.54.28.54.64a5.1,5.1,0,0,1-.91,2.18,9.73,9.73,0,0,0-1.72,5.73c0,2.36.27,4.72.27,6.45,0,1.54-.55,2.54-.55,3.72,0,.91.09,1.73.09,2.64-.18,2.54-.18,3.63-.18,5.63,0,2.36.27,3.64.27,4.36,0,.37,2.28-2.54,2.55-3.36,1-2.18,1.82-5.09,2.82-5.72s1.63-2.55,2.18-4.09c0-.09.09-.28.09-.37.54-1.54,2.54-2.9,3.09-5a16.93,16.93,0,0,1,2.18-4.82c.72-1.27,1.91-2.82,1.91-4.09a2.53,2.53,0,0,0-.82-2c-.91-.63-1.27-1.27-1.27-1.63s1.09-.46,2.36-.46a6.91,6.91,0,0,1,1.36.09,15.59,15.59,0,0,0,2.18.09c1.64,0,3.55-.09,4.55-.09H471c1.46,0,2.09.55,2.09,1.18a1.09,1.09,0,0,1-.72,1c-2.09,1.09-3.37,3.46-4.55,5.64-2,3.54-3.27,5.63-4.72,8.36s-1.73,4.81-2.82,5.54-1.73,2.18-2.63,4a37.76,37.76,0,0,0-2,4.72,3.65,3.65,0,0,0-.28,1.46c0,1.18.46,2.54,1.82,4.9C458.79,397.76,460.24,400.94,461.88,403.66Z"/><path class="cls-1" d="M480.87,361.05a5.94,5.94,0,0,1-2-2.09.86.86,0,0,1-.09-.46c0-.36.36-.73,1.72-.73s2.91-.18,4.28-.18c1.81,0,3.27.73,4.9.73a2,2,0,0,0,.82-.09,7.9,7.9,0,0,1,2.91-.55c1.27,0,2.09-.09,3-.09.54,0,.91.18,1.09,1,.09.55-2,2.46-3.09,3.91s-1.28,2.73-1.28,6.45-.54,5.73-.54,7.09v2a7.17,7.17,0,0,1-.36,2.91,2.14,2.14,0,0,0-.19.72c0,.91.73,1.82.82,3.09.09,1.55.46,5.09.46,9.09s-.19,6-.19,8.63a67,67,0,0,1-.27,7.45c0,.36-.09.73-.09,1.18,0,1.91.36,3.82.36,6.45a5,5,0,0,0,.55,2.46c.18.27,1.73,2.9,2.73,3.45a2.58,2.58,0,0,1,1.27,1.73c0,.36-.27.63-.91.63-1.73,0-6,.09-7.81.09h-4.64c-.91.09-2.27.09-4.45.09-.46-.09-.82-.18-.82-.54a1.94,1.94,0,0,1,.45-1.09c.82-1.27,2.28-2.45,2.64-3.55a11.09,11.09,0,0,0,.73-3.9c0-3,.45-6.82.54-8.45s-.09-2.73-.09-3.82c0-1.91.36-3.18.36-4.45a17.6,17.6,0,0,0-.09-2.27v-.37c-.09-.9-.27-3.63-.27-6.9,0-1.55.09-3.18.18-4.73a35.74,35.74,0,0,0,.18-3.9c0-1.46-.09-2.09-.18-3.55-.09-2-.63-3.18-.63-5.27,0-3.54.27-5,.27-6.63a27.19,27.19,0,0,0-.64-3.73C482.5,362.23,481.87,361.77,480.87,361.05Z"/><path class="cls-1" d="M503.67,361c-.36-1.09-1.72-1.72-1.72-2.45,0-.54,0-.73,1.91-.73s2.54.37,3.63.37c2-.18,3.45-.27,4.91-.27.72,0,1.27-.19,1.81-.19s.91.19,1.19,1c.54,1.55,1.81,4.46,2.81,6.82s2.18,4,2.18,5.63c0,.55-.09.91-.09,1.18a2.75,2.75,0,0,0,1.18,2.46c1.09.81,2.46,4,3.82,6.45s2.18,5.81,3.18,7.63,1.82,4.54,2.91,6.45,2.45,3.36,2.72,5.18,1.55,5.45,2.73,5.45c.55,0,.45-3.18.64-5.63s.09-3.82.27-4.63c0-1.09-.55-2.19-.64-5.37,0-2.81.09-3.81.09-4.9a13.6,13.6,0,0,0-.09-1.82c-.36-2.45-.09-4.18-.45-7a16.75,16.75,0,0,1-.18-2.9c0-1.37.09-2.55.09-3.82,0-1.64.09-3.18.09-5.36a4.28,4.28,0,0,0-1.82-3.55c-1.54-1.36-1.91-2.27-1.91-2.72s.09-.73,1.55-.73a28.35,28.35,0,0,1,4.09.27,9.45,9.45,0,0,0,1.81.1,22.55,22.55,0,0,0,2.73-.1c1.27-.09,2.09-.09,3.18-.09.54,0,1.27-.09,2-.09,1,0,1.82.09,1.82.55a6.58,6.58,0,0,1-2.37,3.36c-.72.36-.91,1-1.09,2.18a40.91,40.91,0,0,0-1,7.54c0,2.64.19,4.09.19,5.45,0,1.91-.09,3.73-.09,5.73,0,3.54-.1,5.36-.1,7.63s.1,5.18.1,8c0,2.27.27,4.09.27,5.45,0,.36-.09.64-.09.91-.09,1-.28,3.09-.28,5.18,0,.91,0,1.82.1,10.63,0,1.82.09,3.18.09,4,0,1-.09,1.36-.82,1.45-.55,0-1,.09-1.36.09-1.28,0-1.82-.18-3.55-.27-1.09,0-1.82.18-2.63.18-1.64-.09-2.19-2-2.82-3.18-3-6.18-5.36-9.54-5.82-11.18s-.72-3.27-1.72-4.45a7.56,7.56,0,0,1-1.82-3.63c-.73-2.18-3.91-6.91-4.09-8s-1-1.82-1.54-3.27-1.55-2.18-2.28-4.09a50.58,50.58,0,0,0-1.9-5.54c0-.37-.91,1.54-1,4v2.18c0,2,.09,4.09.18,6.72.09,2.36.36,3.54.36,4.82a13.58,13.58,0,0,1-.27,2.45,18.58,18.58,0,0,0-.73,4.18,6.64,6.64,0,0,0,.28,1.91,10,10,0,0,1,.27,2.36c0,1-.09,2-.09,3.18v.55c0,2.18,0,5.54.72,6.72s2.82,3.27,2.82,3.91-1.27.72-3.27.72h-6s-4.36-.27-5.36-.27c-.73,0-2.09-.18-2.09-.72a.68.68,0,0,1,.18-.37c.64-.82,3.09-2.36,3.46-3.18a23.83,23.83,0,0,0,.72-4.81,2.26,2.26,0,0,0-.09-.82,18.45,18.45,0,0,1-.27-3.73,16.38,16.38,0,0,1,.36-4,6,6,0,0,0,.37-1.9,9.81,9.81,0,0,0-.28-1.91,21.16,21.16,0,0,1-.45-4.09,9,9,0,0,1,.09-1.55c.18-2,.18-5.81.18-8.81,0-2.09.37-2.91.37-4.82a28.34,28.34,0,0,0-.28-3.27,29.11,29.11,0,0,1-.36-3.9,21.53,21.53,0,0,1,.27-2.64c.09-1.09.27-2.91.27-4.63a19.92,19.92,0,0,0-.18-2.55,15.69,15.69,0,0,1-.27-3.36C505.4,362.59,504.22,362.14,503.67,361Z"/><path class="cls-1" d="M578.28,378.67c-.46,0-.82-1.09-.82-2.54a6.86,6.86,0,0,1,.09-1.36,22.7,22.7,0,0,0,.18-2.37c0-1.54-.18-3.09-.18-4.81,0-2-1.09-2-3.09-2s-4.18.18-7,.18-2.54,1.73-2.9,3.64a2.26,2.26,0,0,0-.1.81c0,1.28.46,2.37.46,3.73a4.15,4.15,0,0,1-.09,1c-.37,2.09-.37,4.81-.64,7.72,0,.46-.09.82-.09,1.18,0,1.82.55,2.46.55,4.82,0,1.91-.09,3.45-.09,5a17.74,17.74,0,0,0,.09,2.18,44.49,44.49,0,0,1-.46,5.72c0,1.36.37,3.82.55,5.64.18,2.09.27,4.81.27,7.63s1.18,3.45,2.82,3.45c1.18,0,3-.45,4.63-.45.73,0,1.46.27,2.46.27,1.27,0,2.08-.82,3.17-.82.82,0,.82-1.73.82-3.91a14.08,14.08,0,0,1,.09-2,20.86,20.86,0,0,0,.28-3.73c0-1.54-.09-3-.19-4-.18-1.91-.27-3.45-.27-3.45s-.18-.18-.27-.18c-.91,0-3.36,2.72-4.36,2.72-.82,0-.91-1.63-.91-3.54v-2.73a3.64,3.64,0,0,1,1.82-3.18c1.18-.54,3.81-1.45,5.08-2.09,2.37-1.18,4-2.54,6.64-2.54,1.63,0,1.27,1.27,1.27,2.72-.18,2.09-.36,5.82-.36,8.27s.54,2.18.54,3.64v4.45a31.85,31.85,0,0,1-.18,4.63,10.63,10.63,0,0,0-.18,1.46c0,.91.18,2,.18,5.45,0,5.18-6.09,6.63-7.18,6.82-1.45,0-3.09-.19-4.27-.19s-2,.46-4.27.46c-2,0-4.27-.09-12.63-.09a4.46,4.46,0,0,1-4.63-4.27,19.15,19.15,0,0,1-.46-3.09c0-1.09.55-2,.55-3.27,0-1.46-.46-3.18-.46-5.46v-1.9c0-2.18-.45-2.91-.45-6,0-.73,0-1.55.09-2.55.36-6,.36-8.17.36-10.17s-.36-5-.54-6.82c0-.36-.09-.63-.09-1,0-1.54.81-2.91.81-4.81,0-.73-.09-1.64-.18-3.09a21.76,21.76,0,0,1-.09-2.64c0-2.18.09-4.9.09-7.27,0-3.54,5.18-6.08,7.73-6.27s7.45-.18,8.26-.18c.64,0,2.1.27,3.46.27.36,0,.73-.09,1-.09,1.09-.09,2.18-.36,3.36-.36a10,10,0,0,1,1.63.18,25.46,25.46,0,0,0,4.09.37c2.09,0,3.18,3.08,3.18,5,0,.64-.27,1.27-.27,2.37,0,.81.09,1.72.09,3.54,0,1.27.27,2.73.27,4,0,1.45-3.36,1.81-3.9,3.09S580.55,377.4,580,378A1.83,1.83,0,0,1,578.28,378.67Z"/><path class="cls-1" d="M617.89,423.65a9.72,9.72,0,0,0,1.64-3.81,5.72,5.72,0,0,0,.09-1.28c0-1-.09-2.27-.09-4.72,0-2.73-.27-4.18-.27-5.45a5.18,5.18,0,0,1,.09-1.18,19.61,19.61,0,0,0,.54-4.09,6.45,6.45,0,0,0-.18-1.46,60.6,60.6,0,0,1-.18-7.08c0-3.37,0-7.18-.18-9.46,0-.45-.09-.9-.09-1.36,0-3.27,1.18-4.09,1.36-6.09,0-1.63-1.09-3-1.09-5.08l.36-6.18a18.89,18.89,0,0,0-.54-3.55,46.89,46.89,0,0,0-3.55-4.81,10.66,10.66,0,0,1,2.28-.18c.72,0,1.18.09,1.45.09.91,0,1.55-.19,2.09-.19.18,0,.36.1.55.1.9.18,3,.9,3.27.9a21.73,21.73,0,0,0,2.81-.36,11.09,11.09,0,0,1,3.91-.82,6.47,6.47,0,0,1,1.27.09c2.18.28,5.82.64,7.73.64.45,0,.81-.09,1-.09a39.22,39.22,0,0,1,4.81-.55c1.27,0,2.91.09,2.91,1.82,0,1.36.36,3.91.36,6,0,.63-.54,1.45-.54,2,0,1.36.27,1.72.27,2.45a5.26,5.26,0,0,1-.09,1.45,7.67,7.67,0,0,1-2.91,2.28c-1.54.72-2.27.72-3.54,2a1.57,1.57,0,0,1-1.09.55c-.64,0-1.18-.91-1.18-2.73,0-1.18.09-1.9.09-2.45,0-1.63-.18-2.36-.18-3.36s-.55-1.73-1.91-1.73a3.41,3.41,0,0,0-.91.09,32.91,32.91,0,0,1-5.36.46,6.6,6.6,0,0,1-1.46-.09c-.18,0-.45-.09-.63-.09-.91,0-1.27.54-1.27,3.09,0,3-.1,5.08-.1,8.9,0,2.91.19,4.09.19,5.09,0,.36-.09.63-.09,1a51.73,51.73,0,0,0-.1,5.36c0,1.18.1,2.18.73,2.18a1.49,1.49,0,0,0,.82-.36,22,22,0,0,1,5.27-3.27c1.45-.55,2.18-1.73,3.27-2.64a3.3,3.3,0,0,1,1.82-.82c.63,0,1.09.46,1.18,1.91,0,.55.09,1.09.09,1.55,0,1.81-.27,2.81-.27,4.45,0,2-.28,2.27-2.64,3.27a16.15,16.15,0,0,0-3.09,1.73,51.85,51.85,0,0,0-4.27,3.08c-1.18.82-2.91,1.73-3.09,3a6.15,6.15,0,0,0-.09,1.37c0,1.72.18,4.45.18,7.54,0,3.54.28,5.36.82,6.72s2.18,3,2.91,4,1.45,1.64,1.45,2c0,.54-2.09.27-4.81.45-2.09.19-3.55.46-4.64.46s-1.81-.37-2.54-.37c-1.45,0-2.36.19-3.36.19-1.28,0-2.55-.09-3-.09A9.39,9.39,0,0,1,617.89,423.65Z"/><path class="cls-1" d="M654.42,366.86c.37-4.54,1.37-6.81,3.46-7.9a13.16,13.16,0,0,1,5.9-1.28c3.09,0,6.82.19,8.18.19h3.64c.45,0,1-.1,1.54-.1a23.91,23.91,0,0,1,2.54.19c1.46.18,7.91,1.36,7.91,8.36,0,5.08.54,9.54.54,12.26a6.37,6.37,0,0,1-.27,2.18,10.8,10.8,0,0,0-.72,4c.09,2.18.36,4.27.36,6.09a19.81,19.81,0,0,1,.36,2.27c0,2.09.09,5.91.09,9.27,0,.54-.09,1.09-.09,1.63-.27,4-.45,8.27-.72,9.55a1.39,1.39,0,0,0-.1.63c0,1.09.46,2.18.46,3.91,0,2.63-2.36,7.81-6.09,7.81-5.91-.09-6.63-.18-7.45-.18a8.08,8.08,0,0,0-1.91.27,5.63,5.63,0,0,1-1.18.19c-3.36,0-5.63.18-9.54.18a15.07,15.07,0,0,1-2.45-.18c-1.46-.37-4.64-1.91-4.64-7.73,0-4.27-.36-6.81-.36-8.45s.73-2.81.73-4.63c0-.91-.28-1.82-.28-3.18,0-1.55.28-3.73.28-5.82,0-.54-.1-1.09-.1-1.63a56,56,0,0,1-.45-5.91c0-2.36.55-7.36.55-8.81s-.73-2.55-.73-4.46S654.33,368.22,654.42,366.86ZM663.87,377c0,3,.37,5.18.37,8.27a40,40,0,0,1-.37,4.18c0,1.18.64,2.18.64,3.54a17.83,17.83,0,0,1-.73,3.63,4.5,4.5,0,0,0-.09,1.09c0,1.55.64,3.09.73,7.91.09,2.73.09,5.09.09,7v2.36c0,2.36,1.45,2.09,3,2.72a4.75,4.75,0,0,0,2,.37,39.39,39.39,0,0,0,4-.46c2.63-.36,3.18-.09,3.63-1.18s.36-3.27.55-7.18.18-8.26.27-10.45-.09-3.08-.09-4c0-1.18.72-2.18.72-3.55a6.27,6.27,0,0,0-.36-1.91,31.8,31.8,0,0,1-.54-7.08v-2.37c0-2.27.09-5.08.09-7.26a25.94,25.94,0,0,0-.09-2.82,3.76,3.76,0,0,0-3.55-3.27c-1.27,0-3.54.36-4.91.45a23,23,0,0,1-2.45.09h-1.63c-.55.09-1.19,1.46-1.19,6.54C664,374.68,664,375.77,663.87,377Z"/><path class="cls-1" d="M723.75,403.48c.37,1.18,1.82,4.27,2,6.09a18.34,18.34,0,0,0,2.37,6.36c1.09,1.82,1.81,4.63,3.09,6.27s2.45,2.72,2.45,3.36c0,.18,0,.27-.18.27a18.06,18.06,0,0,1-2.64.09c-1.72,0-3.9,0-5.54-.09h-3.18c-1,0-2.27.18-3.18.18-.64,0-1.09-.09-1.09-.36,0-1,.82-2.73.82-3.82,0-2.36-2.46-8-2.46-8.54,0-.72-1-2.54-1.63-3.9a49.66,49.66,0,0,1-2.18-7,16.59,16.59,0,0,0-5.36,2.82c-1.09.91-1.64,1.18-1.64,2.72,0,.37.09.73.09,1.18.09,1,.09,1.82.09,2.64,0,1.63-.09,3.18-.09,5.36,0,3.27.73,4.18,2,5.72a17.65,17.65,0,0,1,2.18,3.28c-3,0-5.91-.55-9.09-.55-.27,0-.63.09-1.09.09-2,.18-3.63.46-4.9.46a3.39,3.39,0,0,1-1.09-.1c-.28-.09-.37-.18-.37-.36,0-.63,1.09-1.73,1.73-2.73.82-1.27,1.36-2.9,1.54-6.08v-1.46c0-2.18-.27-3.36-.27-6.54,0-2.36-.18-4.72-.18-6.54,0-1.55.45-3,.45-4.73,0-1.36-.18-2.81-.27-4.63.09-1.64.09-3.91.09-6.36-.09-6.82-.27-9.54-.27-12.54V365a4.84,4.84,0,0,0-1-2.72,13.79,13.79,0,0,1-2.27-4.09c0-.37.63-.46,1.73-.46h1.18c1,0,2.54-.09,4-.09a10.57,10.57,0,0,1,3.09.28,6.92,6.92,0,0,0,2,.18c2,0,4.27-.37,5.27-.37,1.37,0,3.82.19,6.55.46.45,0,.81.09,1.27.09,2.27,0,4.27-.55,5.9-.55,1.91,0,6.18,2.28,6.18,6.27,0,2.73-.09,4.73-.09,6.55,0,.9,0,1.81.09,2.72.18,1.82.37,3.45.37,4.82a5.33,5.33,0,0,1-.19,1.81,6.58,6.58,0,0,0-.27,1.91c0,.73.09,1.37.09,2,0,.46.09,3,.09,3.36a7.75,7.75,0,0,1-1.45,4.64c-1.09,1.91-6.91,5.45-6.91,6A57.09,57.09,0,0,1,723.75,403.48ZM710.67,394c1.27-1.09,2.64-1.91,4.09-3s3.09-1.36,4.09-2.72,1.36-4.09,1.36-6.27c0-1.91-.18-4.82-.18-9.27,0-1.55-.18-1.64-.18-3.55a3.19,3.19,0,0,0-3.27-3.27h-5c-1.46.09-3.82.27-4.82.27-.81,0-1,3.37-1,5.55s-.18,3.18-.18,5.45c0,1.36-.18,2.45-.18,3.73a11,11,0,0,0,.36,2.81,10.66,10.66,0,0,1,.28,2.36c0,1.64-.37,3.18-.46,5.27-.09,1.28-.09,2.28-.09,3,0,1.09.09,1.73.46,1.73A10.52,10.52,0,0,0,710.67,394Z"/><path class="cls-1" d="M742.75,413.57a21.92,21.92,0,0,0,4.81-.19c2-.27,1.91,1.28,2.09,3s-.36,1.73,0,4.36-.18,4.09-1.63,5.18c-.91.64-3.37.19-6.36.19s-3.73.27-4.37-1-.18-2.09-.36-3.73-.45-5.27.18-6.54,1.46-1.46,3-1.09S741.29,413.38,742.75,413.57Z"/><path class="cls-1" d="M760.56,413.57a21.92,21.92,0,0,0,4.81-.19c2-.27,1.91,1.28,2.09,3s-.36,1.73,0,4.36-.18,4.09-1.63,5.18c-.91.64-3.37.19-6.36.19s-3.73.27-4.37-1-.18-2.09-.36-3.73-.45-5.27.18-6.54,1.46-1.46,3-1.09S759.1,413.38,760.56,413.57Z"/><path class="cls-1" d="M778.37,413.57a21.92,21.92,0,0,0,4.81-.19c2-.27,1.91,1.28,2.09,3s-.36,1.73,0,4.36-.18,4.09-1.63,5.18c-.91.64-3.37.19-6.36.19s-3.73.27-4.37-1-.18-2.09-.36-3.73-.45-5.27.18-6.54,1.46-1.46,3-1.09S776.91,413.38,778.37,413.57Z"/></g></svg>