<svg xmlns="http://www.w3.org/2000/svg" viewBox="0 0 1618.73 564.66"><defs><style>.cls-1{fill:#f7931e;}.cls-2{fill:none;stroke:#000;stroke-linecap:round;stroke-linejoin:round;stroke-width:5px;}</style></defs><g id="Layer_2" data-name="Layer 2"><path class="cls-1" d="M1618.73,564.66S1140.27,279,0,279V564.66Z"/><polyline class="cls-2" points="171.59 329.27 171.59 198.32 220.25 149.66 220.25 35.73"/><polyline class="cls-2" points="171.59 229.18 137.18 194.76 137.18 106.94 105.13 106.94"/><polyline class="cls-2" points="138.36 138.44 171.32 105.48 171.32 2.5"/><polyline class="cls-2" points="201.86 168.06 178.52 144.72 178.52 118.81"/><polyline class="cls-2" points="220.25 112.87 239.24 93.89 239.24 35.73"/><polyline class="cls-2" points="171.32 252.92 125.31 252.92 97.42 225.03 97.42 173.35"/><polyline class="cls-2" points="1077.13 522.73 1077.13 391.77 1125.79 343.12 1125.79 229.18"/><polyline class="cls-2" points="1077.13 422.63 1042.71 388.21 1042.71 300.39 1010.67 300.39"/><polyline class="cls-2" points="1043.9 331.89 1076.86 298.93 1076.86 195.95"/><polyline class="cls-2" points="1107.4 361.51 1084.06 338.17 1084.06 312.26"/><polyline class="cls-2" points="1125.79 306.32 1144.78 287.33 1144.78 229.18"/><polyline class="cls-2" points="1076.86 446.37 1030.85 446.37 1002.96 418.48 1002.96 366.8"/><polyline class="cls-2" points="1240.91 492.66 1240.91 361.71 1289.57 313.05 1289.57 199.12"/><polyline class="cls-2" points="1240.91 392.57 1206.49 358.15 1206.49 270.33 1174.45 270.33"/><polyline class="cls-2" points="1207.68 301.83 1240.64 268.87 1240.64 165.89"/><polyline class="cls-2" points="1271.18 331.45 1247.84 308.11 1247.84 282.19"/><polyline class="cls-2" points="1289.57 276.26 1308.56 257.27 1308.56 199.12"/><polyline class="cls-2" points="1240.64 416.31 1194.63 416.31 1166.74 388.42 1166.74 336.74"/></g></svg>