<svg id="Layer_1" data-name="Layer 1" xmlns="http://www.w3.org/2000/svg" viewBox="0 0 4000 8000">
    <defs>
        <style>
            .cls-1 {
                fill: none;
                stroke: #2e3192;
                stroke-miterlimit: 10;
                stroke-width: 5px;
                opacity: 0.4;
            }
        </style>
    </defs>
    <circle class="cls-1" cx="708" cy="874" r="1394.5" />
    <circle class="cls-1" cx="708" cy="874" r="867.5" />
    <circle class="cls-1" cx="708" cy="874" r="360" />
    <line class="cls-1" x1="708" y1="8609" x2="708" y2="-6862" />
    <line class="cls-1" x1="3353.7" y1="8142.49" x2="-1937.7" y2="-6395.49" />
    <line class="cls-1" x1="5680.28" y1="6799.24" x2="-4264.28" y2="-5052.24" />
    <line class="cls-1" x1="7407.14" y1="4741.25" x2="-5991.14" y2="-2994.25" />
    <line class="cls-1" x1="8325.98" y1="2216.76" x2="-6909.98" y2="-469.76" />
    <line class="cls-1" x1="8325.98" y1="-469.76" x2="-6909.98" y2="2216.76" />
    <line class="cls-1" x1="7407.14" y1="-2994.25" x2="-5991.14" y2="4741.25" />
    <line class="cls-1" x1="5680.28" y1="-5052.24" x2="-4264.28" y2="6799.24" />
    <line class="cls-1" x1="3353.7" y1="-6395.49" x2="-1937.7" y2="8142.49" />
    <circle class="cls-1" cx="708" cy="874" r="38" />
    <circle class="cls-1" cx="708" cy="874" r="2187.5" />
    <circle class="cls-1" cx="708" cy="874" r="2923.5" />
    <circle class="cls-1" cx="708" cy="874" r="3710.5" />
    <circle class="cls-1" cx="708" cy="874" r="7224.5" />
    <circle class="cls-1" cx="708" cy="874" r="6048.5" />
    <circle class="cls-1" cx="708" cy="874" r="4757.5" />
</svg>