<svg id="site_loading_loading" xmlns="http://www.w3.org/2000/svg" viewBox="0 0 1920 1080" shape-rendering="geometricPrecision" text-rendering="geometricPrecision"><style>@keyframes site_loading_loading-logothing_to__to{0%{transform:translate(305.5px,151.770004px)}50%{transform:translate(305.5px,177.328433px)}to{transform:translate(305.5px,158.461664px)}}@keyframes site_loading_loading-city1_to__to{0%{transform:translate(587.000015px,-251.127676px)}16.666667%{transform:translate(587.000015px,650.554108px)}23.333333%,to{transform:translate(587.000015px,609.723235px)}}@keyframes site_loading_loading-city2_to__to{0%,23.333333%{transform:translate(959.999969px,-254.3927px)}46.666667%{transform:translate(959.999969px,638.833222px)}53.333333%,to{transform:translate(959.999969px,603.608222px)}}@keyframes site_loading_loading-city3_to__to{0%,53.333333%{transform:translate(1333px,-254.3927px)}76.666667%{transform:translate(1333px,644.543222px)}83.333333%,to{transform:translate(1333px,601.778222px)}}</style><g transform="translate(305.5 151.77)" style="animation:site_loading_loading-logothing_to__to 3000ms linear infinite normal forwards" id="site_loading_loading-layer-2"><g id="site_loading_loading-logothing" transform="translate(-305.5 -151.77)"><rect id="site_loading_loading-rect1" width="168.98" height="105.93" rx="0" ry="0" transform="translate(402.02 190.61)" fill="#2E3192" stroke="#FFF" stroke-width="3" stroke-miterlimit="10"/><rect id="site_loading_loading-rect2" width="168.98" height="105.93" rx="0" ry="0" transform="translate(40 190.61)" fill="#2E3192" stroke="#FFF" stroke-width="3" stroke-miterlimit="10"/><path id="site_loading_loading-polygon1" fill="#1B1464" stroke="#FFF" stroke-width="3" stroke-linejoin="round" d="M550.22 243.86l-148.2 52.68v-52.96l148.2.28z"/><path id="site_loading_loading-polygon2" fill="#1B1464" stroke="#FFF" stroke-width="3" stroke-linejoin="round" d="M60.28 243.61l148.21 52.68v-52.96l-148.21.28z"/><rect id="site_loading_loading-rect3" width="495.41" height="146.26" rx="0" ry="0" transform="translate(54.82 97.6)" fill="#2E3192" stroke="#FFF" stroke-width="3" stroke-miterlimit="10"/><path id="site_loading_loading-polygon3" fill="#FFF" stroke="none" stroke-width="1" d="M305.5 7l-52.34 30.22v60.43l52.34 30.22 52.34-30.22V37.22L305.5 7z"/><path id="site_loading_loading-polygon4" fill="#2E3192" stroke="#000" stroke-width="1" stroke-linejoin="round" d="M257.04 39.45l48.46-27.98 48.46 27.98-48.46 27.98-48.46-27.98z"/><path id="site_loading_loading-polygon5" fill="#2E3192" stroke="#000" stroke-width="1" stroke-linejoin="round" d="M257.04 39.45v55.97l48.46 27.97V67.43l-48.46-27.98z"/><path id="site_loading_loading-polygon6" fill="#2E3192" stroke="#000" stroke-width="1" stroke-linejoin="round" d="M305.5 67.43l48.46-27.98v55.97l-48.46 27.97V67.43z"/><path id="site_loading_loading-path1" d="M265.67 100.4l-1.51-17.08 11.19 3.38 1.77-14.57 10.84 5s-1.24 7.29-.71 7.29 6.93-2.55 6.93-3c0-.45 4.62-12.49 2.13-12.49s-18.48-4.62-19-4.62c-.52 0-9.06-6.75-9.06-6.75l6.51-7.88L257 39.45v56z" fill="#8CC63F" stroke="#000" stroke-width="1" stroke-miterlimit="10"/><path id="site_loading_loading-path2" d="M306.26 19.19l-20.79 12.08 8.89 10.84-8.89 2.13 10.4 12.08v-7.64l8.26.35 2.13 7.29 21.49-16.87-3.2-6.58 2.14-3s-6.58-3.73-7.29-3.73-9.77 4.26-9.77 4.26l-4.13-5.15 5.38-5z" fill="#8CC63F" stroke="#000" stroke-width="1" stroke-miterlimit="10"/><path id="site_loading_loading-polygon7" fill="#8CC63F" stroke="#000" stroke-width="1" stroke-miterlimit="10" d="M347.3 99.26l-4.89-10.69 7.38-17.41-9.59-3.73V56.32l-5.17 10.26-11.21 4.58-5.9-5.76.88 8.56-4.57 8.85 12.69 7.23-1.04 12.99-10.77-.74 3.54-6.93-10.77-2.51 4.87 4.57-2.66 9.3h15.2l-1.05 5.86 23.06-13.32z"/><text id="site_loading_loading-text1" dx="0" dy="0" font-family="CharcuterieBlock, Charcuterie Block" font-size="108.5" transform="translate(99.75 219.48)" fill="#FFF" stroke="none" stroke-width="1"><tspan id="site_loading_loading-tspan1" font-family="CharcuterieBlock, Charcuterie Block" font-size="108.5" stroke="none" stroke-width="0"><![CDATA[Git Terra]]></tspan></text></g></g><g id="site_loading_loading-layer-3"><g transform="translate(587 -251.128)" style="animation:site_loading_loading-city1_to__to 3000ms linear infinite normal forwards"><g id="site_loading_loading-city1" transform="translate(-587 -564.93)" fill="#FFF" stroke="#2E3192" stroke-width="3" stroke-linecap="round" stroke-linejoin="round"><path id="site_loading_loading-polygon8" transform="translate(0 -17.57)" d="M587 530.83l174.21 100.58L587 731.99 412.79 631.41 587 530.83z"/><path id="site_loading_loading-polygon9" transform="translate(0 -17.57)" d="M587 731.99v33.08L412.79 664.48v-33.07L587 731.99z"/><path id="site_loading_loading-polygon10" transform="translate(0 -17.57)" d="M587 731.99v33.08l174.21-100.59v-33.07L587 731.99z"/><path id="site_loading_loading-polygon11" transform="translate(0 -17.57)" d="M674.11 681.7l87.1-50.29-5.43-40.89-75.67 51.22-6 39.96z"/><path id="site_loading_loading-polygon12" transform="translate(0 -17.57)" d="M504.5 570.08v46.43l94.54 58.48v-44.15l-94.54-60.76z"/><path id="site_loading_loading-polygon13" transform="translate(0 -17.57)" d="M550.93 525.55l117.71 68.79-38.22 21.41 49.69 25.99 75.67-51.22-149.81-79.49-55.04 14.52z"/><path id="site_loading_loading-polygon14" transform="translate(0 -17.57)" d="M616.86 525.55v38.53l-65.93-38.53v42.81l79.49 51.59v-4.2l38.22-21.41v-38.6l-51.78-30.19z"/><path id="site_loading_loading-polygon15" transform="translate(0 -17.57)" d="M713.17 530.83v37.88l-44.53 25.63v-38.6l44.53-24.91z"/><path id="site_loading_loading-polygon16" transform="translate(0 -17.57)" d="M640.36 597.78v54.38l-41.32 22.83v-47.01l41.32-30.2z"/><path id="site_loading_loading-path3" d="M599 630.84c.05-4.58 41.32-33.06 41.32-33.06s-88.28-57.51-90-57.51c-1.72 0-45.86 29.81-45.86 29.81z" transform="translate(0 -17.57)"/><path id="site_loading_loading-polygon17" transform="translate(0 -17.57)" d="M668.64 555.74l-8.21-77.96-43.57 47.77 51.78 30.19z"/><path id="site_loading_loading-polygon18" transform="translate(0 -17.57)" d="M660.43 477.78l41.85-11.47 10.89 64.52-44.53 24.91-8.21-77.96z"/><path id="site_loading_loading-polygon19" transform="translate(0 -17.57)" d="M630.42 615.75v47.39l43.69 18.56 6-39.96-49.69-25.99z"/><path id="site_loading_loading-polyline1" transform="translate(0 -17.57)" d="M645.62 607.24l-15.2 8.51 22.29 11.65"/><path id="site_loading_loading-path4" d="M574 448.83v77.67c0 3.42 7.84 6.19 17.51 6.19 9.67 0 17.51-2.77 17.51-6.19v-77.67z" transform="translate(0 -17.57)"/><path id="site_loading_loading-path5" d="M569.86 438.13l4.18 10.7c0 3.42 7.84 6.19 17.51 6.19 9.67 0 17.51-2.77 17.51-6.19l4.18-10.7z" transform="translate(0 -17.57)"/><path id="site_loading_loading-path6" d="M611.56 435.17l-20-35.24-20 35.24a4 4 0 00-1.68 3c0 4.23 9.71 7.67 21.69 7.67s21.69-3.44 21.69-7.67a4 4 0 00-1.7-3z" transform="translate(0 -17.57)"/><path id="site_loading_loading-polygon20" transform="translate(0 -17.57)" d="M569.11 611.61L587 536.25l26.99 44.41-44.88 30.95z"/><path id="site_loading_loading-polygon21" transform="translate(0 -17.57)" d="M587 536.25l-56.71-25.22-25.79 59.05 64.61 41.53L587 536.25z"/><path id="site_loading_loading-polygon22" transform="translate(0 -17.57)" d="M609.79 674.2v34.08l-29.52-17.04v-34.08l29.52 17.04z"/><path id="site_loading_loading-polygon23" transform="translate(0 -17.57)" d="M609.79 674.2v34.08l29.51-17.04v-34.08l-29.51 17.04z"/><path id="site_loading_loading-polygon24" transform="translate(0 -17.57)" d="M609.79 674.2l11.62-44.16 17.89 27.12-29.51 17.04z"/><path id="site_loading_loading-polygon25" transform="translate(0 -17.57)" d="M621.41 630.04l-26.38-10.09-14.76 37.21 29.52 17.04 11.62-44.16z"/><path id="site_loading_loading-path7" d="M454.23 502.75v133c0 5.86 13.43 10.61 30 10.61s30-4.75 30-10.61v-133z" transform="translate(0 -17.57)"/><path id="site_loading_loading-path8" d="M447.08 484.41l7.15 18.33c0 5.86 13.43 10.62 30 10.62s30-4.76 30-10.62l7.16-18.33z" transform="translate(0 -17.57)"/><path id="site_loading_loading-path9" d="M518.5 479.35L484.23 419 450 479.35c-1.84 1.55-2.87 3.26-2.87 5.06 0 7.26 16.63 13.14 37.15 13.14s37.15-5.88 37.15-13.14c-.05-1.8-1.09-3.51-2.93-5.06z" transform="translate(0 -17.57)"/><path id="site_loading_loading-polygon26" transform="translate(0 -17.57)" d="M533.78 651.82v34.08l-29.51-17.04v-34.08l29.51 17.04z"/><path id="site_loading_loading-polygon27" transform="translate(0 -17.57)" d="M533.78 651.82v34.08l29.52-17.04v-34.08l-29.52 17.04z"/><path id="site_loading_loading-polygon28" transform="translate(0 -17.57)" d="M533.78 651.82l11.63-44.17 17.89 27.13-29.52 17.04z"/><path id="site_loading_loading-polygon29" transform="translate(0 -17.57)" d="M545.41 607.65l-26.39-10.08-14.75 37.21 29.51 17.04 11.63-44.17z"/><path id="site_loading_loading-path10" d="M725.78 536.25l-11.27 56.18c0 3 5 5.35 11.27 5.35s11.28-2.39 11.28-5.35z" transform="translate(0 -17.57)"/><path id="site_loading_loading-path11" d="M710.49 545.62l-11.27 56.18c0 3 5 5.35 11.27 5.35s11.28-2.4 11.28-5.35z" transform="translate(0 -17.57)"/><path id="site_loading_loading-path12" d="M695.21 555l-11.28 56.18c0 3 5.05 5.35 11.28 5.35 6.23 0 11.27-2.39 11.27-5.35z" transform="translate(0 -17.57)"/><path id="site_loading_loading-path13" d="M679.92 564.34l-11.28 56.18c0 3 5.05 5.35 11.28 5.35 6.23 0 11.27-2.39 11.27-5.35z" transform="translate(0 -17.57)"/></g></g><g transform="translate(960 -254.393)" style="animation:site_loading_loading-city2_to__to 3000ms linear infinite normal forwards"><g id="site_loading_loading-city2" transform="translate(-960 254.393)" fill="#FFF" stroke="#2E3192" stroke-width="3" stroke-linecap="round" stroke-linejoin="round"><path id="site_loading_loading-polygon30" transform="translate(0 -836.893)" d="M960 530.83l174.21 100.58L960 731.99 785.79 631.41 960 530.83z"/><path id="site_loading_loading-polygon31" transform="translate(0 -836.893)" d="M960 731.99v33.08L785.79 664.48v-33.07L960 731.99z"/><path id="site_loading_loading-polygon32" transform="translate(0 -836.893)" d="M960 731.99v33.08l174.21-100.59v-33.07L960 731.99z"/><path id="site_loading_loading-polygon33" transform="translate(0 -836.893)" d="M1047.11 681.7l87.1-50.29-5.43-40.89-75.67 51.22-6 39.96z"/><path id="site_loading_loading-polygon34" transform="translate(0 -836.893)" d="M877.5 570.08v46.43l94.54 58.48v-44.15l-94.54-60.76z"/><path id="site_loading_loading-polygon35" transform="translate(0 -836.893)" d="M923.93 525.55l117.71 68.79-38.22 21.41 49.69 25.99 75.67-51.22-149.81-79.49-55.04 14.52z"/><path id="site_loading_loading-polygon36" transform="translate(0 -836.893)" d="M989.86 525.55v38.53l-65.93-38.53v42.81l79.49 51.59v-4.2l38.22-21.41v-38.6l-51.78-30.19z"/><path id="site_loading_loading-polygon37" transform="translate(0 -836.893)" d="M1086.17 530.83v37.88l-44.53 25.63v-38.6l44.53-24.91z"/><path id="site_loading_loading-polygon38" transform="translate(0 -836.893)" d="M1013.36 597.78v54.38l-41.32 22.83v-47.01l41.32-30.2z"/><path id="site_loading_loading-path14" d="M972 630.84c.05-4.58 41.32-33.06 41.32-33.06s-88.28-57.51-90-57.51c-1.72 0-45.86 29.81-45.86 29.81z" transform="translate(0 -836.893)"/><path id="site_loading_loading-polygon39" transform="translate(0 -836.893)" d="M1041.64 555.74l-8.21-77.96-43.57 47.77 51.78 30.19z"/><path id="site_loading_loading-polygon40" transform="translate(0 -836.893)" d="M1033.43 477.78l41.85-11.47 10.89 64.52-44.53 24.91-8.21-77.96z"/><path id="site_loading_loading-polygon41" transform="translate(0 -836.893)" d="M1003.42 615.75v47.39l43.69 18.56 6-39.96-49.69-25.99z"/><path id="site_loading_loading-polyline2" transform="translate(0 -836.893)" d="M1018.62 607.24l-15.2 8.51 22.29 11.65"/><path id="site_loading_loading-path15" d="M947 448.83v77.67c0 3.42 7.84 6.19 17.51 6.19 9.67 0 17.51-2.77 17.51-6.19v-77.67z" transform="translate(0 -836.893)"/><path id="site_loading_loading-path16" d="M942.86 438.13l4.18 10.7c0 3.42 7.84 6.19 17.51 6.19 9.67 0 17.51-2.77 17.51-6.19l4.18-10.7z" transform="translate(0 -836.893)"/><path id="site_loading_loading-path17" d="M984.56 435.17l-20-35.24-20 35.24a4 4 0 00-1.68 3c0 4.23 9.71 7.67 21.69 7.67s21.69-3.44 21.69-7.67a4 4 0 00-1.7-3z" transform="translate(0 -836.893)"/><path id="site_loading_loading-polygon42" transform="translate(0 -836.893)" d="M942.11 611.61L960 536.25l26.99 44.41-44.88 30.95z"/><path id="site_loading_loading-polygon43" transform="translate(0 -836.893)" d="M960 536.25l-56.71-25.22-25.79 59.05 64.61 41.53L960 536.25z"/><path id="site_loading_loading-polygon44" transform="translate(0 -836.893)" d="M982.79 674.2v34.08l-29.52-17.04v-34.08l29.52 17.04z"/><path id="site_loading_loading-polygon45" transform="translate(0 -836.893)" d="M982.79 674.2v34.08l29.51-17.04v-34.08l-29.51 17.04z"/><path id="site_loading_loading-polygon46" transform="translate(0 -836.893)" d="M982.79 674.2l11.62-44.16 17.89 27.12-29.51 17.04z"/><path id="site_loading_loading-polygon47" transform="translate(0 -836.893)" d="M994.41 630.04l-26.38-10.09-14.76 37.21 29.52 17.04 11.62-44.16z"/><path id="site_loading_loading-path18" d="M827.23 502.75v133c0 5.86 13.43 10.61 30 10.61s30-4.75 30-10.61v-133z" transform="translate(0 -836.893)"/><path id="site_loading_loading-path19" d="M820.08 484.41l7.15 18.33c0 5.86 13.43 10.62 30 10.62s30-4.76 30-10.62l7.16-18.33z" transform="translate(0 -836.893)"/><path id="site_loading_loading-path20" d="M891.5 479.35L857.23 419 823 479.35c-1.84 1.55-2.87 3.26-2.87 5.06 0 7.26 16.63 13.14 37.15 13.14s37.15-5.88 37.15-13.14c-.05-1.8-1.09-3.51-2.93-5.06z" transform="translate(0 -836.893)"/><path id="site_loading_loading-polygon48" transform="translate(0 -836.893)" d="M906.78 651.82v34.08l-29.51-17.04v-34.08l29.51 17.04z"/><path id="site_loading_loading-polygon49" transform="translate(0 -836.893)" d="M906.78 651.82v34.08l29.52-17.04v-34.08l-29.52 17.04z"/><path id="site_loading_loading-polygon50" transform="translate(0 -836.893)" d="M906.78 651.82l11.63-44.17 17.89 27.13-29.52 17.04z"/><path id="site_loading_loading-polygon51" transform="translate(0 -836.893)" d="M918.41 607.65l-26.39-10.08-14.75 37.21 29.51 17.04 11.63-44.17z"/><path id="site_loading_loading-path21" d="M1098.78 536.25l-11.27 56.18c0 3 5 5.35 11.27 5.35s11.28-2.39 11.28-5.35z" transform="translate(0 -836.893)"/><path id="site_loading_loading-path22" d="M1083.49 545.62l-11.27 56.18c0 3 5 5.35 11.27 5.35s11.28-2.4 11.28-5.35z" transform="translate(0 -836.893)"/><path id="site_loading_loading-path23" d="M1068.21 555l-11.28 56.18c0 3 5 5.35 11.28 5.35 6.28 0 11.27-2.39 11.27-5.35z" transform="translate(0 -836.893)"/><path id="site_loading_loading-path24" d="M1052.92 564.34l-11.28 56.18c0 3 5 5.35 11.28 5.35 6.28 0 11.27-2.39 11.27-5.35z" transform="translate(0 -836.893)"/></g></g><g transform="translate(1333 -254.393)" style="animation:site_loading_loading-city3_to__to 3000ms linear infinite normal forwards"><g id="site_loading_loading-city3" transform="translate(-1333 254.393)" fill="#FFF" stroke="#2E3192" stroke-width="3" stroke-linecap="round" stroke-linejoin="round"><path id="site_loading_loading-polygon52" transform="translate(0 -731.893)" d="M1333 425.83l174.21 100.58L1333 626.99l-174.21-100.58L1333 425.83z"/><path id="site_loading_loading-polygon53" transform="translate(0 -731.893)" d="M1333 626.99v33.08l-174.21-100.59v-33.07L1333 626.99z"/><path id="site_loading_loading-polygon54" transform="translate(0 -731.893)" d="M1333 626.99v33.08l174.21-100.59v-33.07L1333 626.99z"/><path id="site_loading_loading-polygon55" transform="translate(0 -731.893)" d="M1420.11 576.7l87.1-50.29-5.43-40.89-75.67 51.22-6 39.96z"/><path id="site_loading_loading-polygon56" transform="translate(0 -731.893)" d="M1250.49 465.08v46.43l94.55 58.48v-44.15l-94.55-60.76z"/><path id="site_loading_loading-polygon57" transform="translate(0 -731.893)" d="M1296.93 420.55l117.71 68.79-38.22 21.41 49.69 25.99 75.67-51.22-149.82-79.49-55.03 14.52z"/><path id="site_loading_loading-polygon58" transform="translate(0 -731.893)" d="M1362.86 420.55v38.53l-65.93-38.53v42.81l79.49 51.59v-4.2l38.22-21.41v-38.6l-51.78-30.19z"/><path id="site_loading_loading-polygon59" transform="translate(0 -731.893)" d="M1459.17 425.83v37.88l-44.53 25.63v-38.6l44.53-24.91z"/><path id="site_loading_loading-polygon60" transform="translate(0 -731.893)" d="M1386.36 492.78v54.38l-41.32 22.83v-47.01l41.32-30.2z"/><path id="site_loading_loading-path25" d="M1345 525.84c0-4.58 41.32-33.06 41.32-33.06s-88.28-57.51-90-57.51c-1.72 0-45.86 29.81-45.86 29.81z" transform="translate(0 -731.893)"/><path id="site_loading_loading-polygon61" transform="translate(0 -731.893)" d="M1414.64 450.74l-8.21-77.96-43.57 47.77 51.78 30.19z"/><path id="site_loading_loading-polygon62" transform="translate(0 -731.893)" d="M1406.43 372.78l41.85-11.47 10.89 64.52-44.53 24.91-8.21-77.96z"/><path id="site_loading_loading-polygon63" transform="translate(0 -731.893)" d="M1376.42 510.75v47.39l43.69 18.56 6-39.96-49.69-25.99z"/><path id="site_loading_loading-polyline3" transform="translate(0 -731.893)" d="M1391.62 502.24l-15.2 8.51 22.29 11.65"/><path id="site_loading_loading-path26" d="M1320 343.83v77.67c0 3.42 7.84 6.19 17.51 6.19 9.67 0 17.51-2.77 17.51-6.19v-77.67z" transform="translate(0 -731.893)"/><path id="site_loading_loading-path27" d="M1315.86 333.13l4.18 10.7c0 3.42 7.84 6.19 17.51 6.19 9.67 0 17.51-2.77 17.51-6.19l4.18-10.7z" transform="translate(0 -731.893)"/><path id="site_loading_loading-path28" d="M1357.56 330.17l-20-35.24-20 35.24a4 4 0 00-1.68 3c0 4.23 9.71 7.67 21.69 7.67s21.69-3.44 21.69-7.67a4 4 0 00-1.7-3z" transform="translate(0 -731.893)"/><path id="site_loading_loading-polygon64" transform="translate(0 -731.893)" d="M1315.11 506.61l17.89-75.36 26.99 44.41-44.88 30.95z"/><path id="site_loading_loading-polygon65" transform="translate(0 -731.893)" d="M1333 431.25l-56.71-25.22-25.8 59.05 64.62 41.53 17.89-75.36z"/><path id="site_loading_loading-polygon66" transform="translate(0 -731.893)" d="M1355.79 569.2v34.08l-29.52-17.04v-34.08l29.52 17.04z"/><path id="site_loading_loading-polygon67" transform="translate(0 -731.893)" d="M1355.79 569.2v34.08l29.51-17.04v-34.08l-29.51 17.04z"/><path id="site_loading_loading-polygon68" transform="translate(0 -731.893)" d="M1355.79 569.2l11.62-44.16 17.89 27.12-29.51 17.04z"/><path id="site_loading_loading-polygon69" transform="translate(0 -731.893)" d="M1367.41 525.04l-26.38-10.09-14.76 37.21 29.52 17.04 11.62-44.16z"/><path id="site_loading_loading-path29" d="M1200.23 397.75v133c0 5.86 13.43 10.61 30 10.61s30-4.75 30-10.61v-133z" transform="translate(0 -731.893)"/><path id="site_loading_loading-path30" d="M1193.08 379.41l7.15 18.33c0 5.86 13.43 10.62 30 10.62s30-4.76 30-10.62l7.16-18.33z" transform="translate(0 -731.893)"/><path id="site_loading_loading-path31" d="M1264.5 374.35L1230.23 314 1196 374.35c-1.84 1.55-2.87 3.26-2.87 5.06 0 7.26 16.63 13.14 37.15 13.14s37.15-5.88 37.15-13.14c-.05-1.8-1.09-3.51-2.93-5.06z" transform="translate(0 -731.893)"/><path id="site_loading_loading-polygon70" transform="translate(0 -731.893)" d="M1279.78 546.82v34.08l-29.51-17.04v-34.08l29.51 17.04z"/><path id="site_loading_loading-polygon71" transform="translate(0 -731.893)" d="M1279.78 546.82v34.08l29.52-17.04v-34.08l-29.52 17.04z"/><path id="site_loading_loading-polygon72" transform="translate(0 -731.893)" d="M1279.78 546.82l11.63-44.17 17.89 27.13-29.52 17.04z"/><path id="site_loading_loading-polygon73" transform="translate(0 -731.893)" d="M1291.41 502.65l-26.38-10.08-14.76 37.21 29.51 17.04 11.63-44.17z"/><path id="site_loading_loading-path32" d="M1471.78 431.25l-11.27 56.18c0 3 5 5.35 11.27 5.35s11.28-2.39 11.28-5.35z" transform="translate(0 -731.893)"/><path id="site_loading_loading-path33" d="M1456.49 440.62l-11.27 56.18c0 2.95 5 5.35 11.27 5.35s11.28-2.4 11.28-5.35z" transform="translate(0 -731.893)"/><path id="site_loading_loading-path34" d="M1441.21 450l-11.28 56.18c0 3 5 5.35 11.28 5.35 6.28 0 11.27-2.39 11.27-5.35z" transform="translate(0 -731.893)"/><path id="site_loading_loading-path35" d="M1425.92 459.34l-11.28 56.18c0 3 5 5.35 11.28 5.35 6.28 0 11.27-2.39 11.27-5.35z" transform="translate(0 -731.893)"/></g></g><g id="site_loading_loading-textimage" fill="#2E3192" stroke="none" stroke-width="1"><path id="site_loading_loading-path36" d="M343.16 855.29c-.79-1.11-3.48-4.11-3.48-5.06 0-.48.95-1 1.74-1 1.58 0 11.54.32 14.55.63 2.06.16 4.27.79 5.85.79 1.74 0 3.16-1 5.54-1a15.24 15.24 0 012.53.16c1.42 0 3.32-.79 6.16-.79 2.85.16 9.49.16 12 .16h3c2.06 0 4.43.16 6.17 1.74 2.53 2.37 5.53 5.06 5.53 13 0 2.69-.94 5.38-.94 8.22.149 1.368.2 2.745.15 4.12v9.17a18.45 18.45 0 01-.47 4.27c-.79 2.69-2.37 4-4.27 5.53l-.48.32c-1.89 1.42-3.63 2.85-3.63 4.43 0 1.74 2.68 3.16 7.43 6.17 4.27 2.69 6.48 6.32 6.48 12.65 0 7.75-.63 7.12-.63 10.75s1.27 5.86 1.27 7.75c0 1.89-.32 8.7-.32 13.13v3.32a21.58 21.58 0 01-1.42 8.54c-1.9 4.43-6 4.43-7.59 5.06-1.59.63-5.22 1-10.13 1-3.63 0-6-1.1-8.69-1.1-1.43 0-2.69.63-4.59.63-1.27 0-3.16-.16-6.17-.16-4.59 0-7.75.16-10.44.16h-15.63c-2.68 0-3.16-.48-3.16-1.9s3-3.64 4.59-5.06c1.59-1.42 2.21-3.8 2.37-7.28 0-2.53-.63-5.37-.63-7.27 0-1.58.31-4.9.31-8.38 0-1.11-.15-2.22-.15-4.27 0-2.85.63-4.59.63-6.49a68.26 68.26 0 01-.48-7.43 17.16 17.16 0 00-.16-2.8c-.16-2.05-.8-3.79-.8-6.8a12.63 12.63 0 01.16-2.37c.32-3.48.32-6.33.32-9.17v-2.85c.16-2.53.32-4.75.32-7a22.94 22.94 0 00-.32-4.43c0-2.37 1.9-4.27 1.9-5.69a1.2 1.2 0 00-.63-1.11 2.86 2.86 0 01-1.11-2.69c0-1.26.31-2.85.31-4.11 0-3.32-1.1-6.8-1.1-10.91a6.82 6.82 0 00-1.89-4.58zm19.29 47.92c1.43 0 4-1.42 5.7-2.53 2.69-1.58 3.79-2.69 7.11-5.38 3.32-2.69 2.22-1.58 6.49-4.74 4.11-3 4.43-4.75 4.43-6.17a18 18 0 00.16-2.85c0-2.37-.32-4.42-.32-8.06 0-3.32.63-.48.63-4.11 0-3.63-.95-5.22-2.69-6-1.26-.64-2.21-.64-5.53-.64-2.06 0-4.9.48-7.91.48-1.42 0-2.85-.32-4.43-.32-2.37 0-3.32.63-4.11 2.85a11.4 11.4 0 00-.47 4.11c0 7.43-.16 7.43-.16 8.07v5.37c0 3.64.63 5.7.94 9.18 0 4.43-.78 7.75-.78 9.8 0 .78.31.94.94.94zm.32 39.7c0 4-.32 4.27-.32 6a14.45 14.45 0 00.16 2.37c.16 2.22.32 2.69.95 2.69a17 17 0 012.85-.47c2.37.15 5.06.47 8.22.47 1.9 0 4.11-.16 6.17-.32 3-.15 4.27-.79 6-.95 1.58-.15 4.11-1.89 4.11-5.53v-5.06c0-1.42.16-2.53.16-3.64 0-2.06-.63-4.11-.63-6.48 0-2.06.31-4.43.31-7.75-.15-3.64-.47-5.7-2.05-7.91-1.42-2.22-5.54-5.85-7.12-7a1.87 1.87 0 00-1.26-.32c-1.43 0-3 1.11-4.91 2.53-2.37 1.9-3.48 1.27-7.27 3.8-3.79 2.53-3.48 3.48-4.59 6-1.11 2.52-1.27 10.12-1.27 12.49 0 2.37.49 3.86.49 9.08z"/><path id="site_loading_loading-path37" d="M417.33 849.28c1.74 0 4.11.32 5.38.32 1.1 0 1.89-.32 3.16-.32a12 12 0 012.85.47c.987.202 1.992.31 3 .32 3.64 0 8.86-.79 11.07-.79 2.06 0 3.48.32 3.48 1.42a2.7 2.7 0 01-.79 1.74 51.91 51.91 0 00-4.59 6.8c-.47 1-.63 3.64-.63 7 0 1.59 0 3.32.16 5.06 0 .79.16 1.9.16 3.17 0 4.9-.48 12.81-.48 17.87 0 1.9.32 3.64.32 5.69 0 2.53-.95 4.59-.95 7.28 0 2.05.63 4 .63 7v3.63c0 1.74-.31 2.69-.31 3.64 0 1.27.63 2.38.63 4.59v2.69a41 41 0 00.16 4.27v12.33a60.67 60.67 0 00.31 6.17c.64 4 2.85 4.91 6 5.06l2.06 1.27c1.74 0 2.69-1.42 4.75-1.42.79 0 1.89 0 4.42.15 2.85 0 4.59-.63 5.7-1.9 1.26-1.42.63-5.06 1.26-6.48a2 2 0 00.16-1c0-1.42-.63-3.64-.63-7 0-.63.16-1.42.16-2.21.15-2.69.31-5.85.31-8.7 0-2.85-.16-5.53-.31-7l.15-4.74c0-.64 1.59-1.27 1.59-2.38 0-1.58-1.9-2.68-1.9-4.11a84 84 0 01.95-12.18c.15-1.42.31-2.53.31-3.48a11.75 11.75 0 00-1.1-5.06 11.77 11.77 0 01-.32-3.79v-22.3a20.91 20.91 0 00-1.11-6.17c-.63-1.74-3-3.16-3.79-5.69 0-.16-.16-.48-.16-.64 0-.95 1.11-1.1 2.21-1.1a7.43 7.43 0 012.06.31h13.14c2.21 0 4.11-.31 5.69-.31a7.31 7.31 0 012.69.47c1.42.63 2.37 1.27 2.37 2.06a1.41 1.41 0 01-.47.95c-1.27 1.26-4.43 7.27-5.22 8.22a7.11 7.11 0 00-.95 4.11v1.11c.16 1.58.47 3.95.47 6s-.63 4-.63 6.64a50.84 50.84 0 00.47 6 18 18 0 01.16 3c0 4.43-.63 10.12-.63 13.6 0 1.9.47 3.64.47 6 0 1.9-.15 4.11-.15 6.48 0 1.43-.32 3.17-.48 5.85a59.55 59.55 0 00.63 6.17 68.69 68.69 0 01.48 7.28v24.6c0 8.23-11.07 10.91-14.24 10.91-10.12 0-11.54 0-12.33.16a55.05 55.05 0 01-5.54.48 11.81 11.81 0 01-2.37-.16 41.18 41.18 0 00-7.12-.32h-7.27c-6.8 0-10.12-6.48-10.12-13.76 0-3.48-.48-13.12-.79-18 0-1-.16-2.37-.16-4 0-6.33.47-16.13.47-18.35 0-1.58-.31-5.85-.31-9.64a27.8 27.8 0 01.47-5.86 16.13 16.13 0 00.48-3.48c0-2.53-.95-4.9-.95-9 0-3.8.31-8.54.47-12.5v-.63c.16-3.16.32-6 .32-8.22a33.11 33.11 0 00-.32-4.75 10.74 10.74 0 00-3-6.16c-1.58-1.43-3.79-3.17-3.79-4.28-.01-.46.78-.46 1.73-.46z"/><path id="site_loading_loading-path38" d="M497.51 855c-1.74-1.26-3.16-2.68-3.48-3.63a1.43 1.43 0 01-.16-.79c0-.64.64-1.27 3-1.27 2.21 0 5.06-.32 7.43-.32 3.16 0 5.7 1.27 8.54 1.27a3.52 3.52 0 001.43-.16 13.73 13.73 0 015.06-1c2.21 0 3.63-.16 5.22-.16 1 0 1.58.32 1.89 1.74.16.95-3.48 4.27-5.37 6.8-1.89 2.53-2.22 4.75-2.22 11.23s-1 10-1 12.34v3.48c0 1.9 0 3.8-.63 5.06-.182.4-.29.83-.32 1.27 0 1.58 1.27 3.16 1.43 5.37.16 2.69.79 8.86.79 15.82 0 6.96-.32 10.44-.32 15a116.72 116.72 0 01-.47 13c0 .64-.16 1.27-.16 2.06 0 3.32.63 6.64.63 11.23a8.71 8.71 0 00.95 4.27c.32.47 3 5.06 4.75 6a4.48 4.48 0 012.21 3c0 .64-.48 1.11-1.58 1.11-3 0-10.44.16-13.6.16h-8.07c-1.58.16-3.95.16-7.75.16-.79-.16-1.42-.32-1.42-.95.06-.7.336-1.364.79-1.9 1.42-2.21 3.95-4.27 4.58-6.17a19.1 19.1 0 001.27-6.8c0-5.22.79-11.86.95-14.71 0-2.84-.16-4.74-.16-6.64 0-3.32.63-5.54.63-7.75a32.06 32.06 0 00-.15-3.95v-.64c-.16-1.58-.48-6.32-.48-12 0-2.69.16-5.53.32-8.22a63 63 0 00.31-6.8c0-2.53-.15-3.64-.31-6.17-.16-3.48-1.11-5.54-1.11-9.17 0-6.17.47-8.7.47-11.55 0-2.85-1.1-5.38-1.1-6.48 0-1.1-1.05-1.9-2.79-3.14z"/><path id="site_loading_loading-path39" d="M537.52 855c-1.9-2.05-3.16-4-3.16-4.74 0-1 .47-1.42 4.59-1.42s6.95.63 9 .63 6.33 0 8.54-.16h8.86c.47 0 .63 0 .63.32s-1 1.89-2.69 4.27c-2.69 3.63-2.53 2.84-3.48 6a26.19 26.19 0 00-1.26 9.17c0 2.85.15 5.69.15 8.22a24.63 24.63 0 01-.15 3.48c0 1.74-.64 3.48-.64 5.22 0 2.53.79 4.43.79 6.65 0 3.47-.47 8.22-.63 11.22 0 .95-.16 1.74-.16 2.54 0 2.68.32 5.37.32 9 0 18.35-.32 23.88-.32 27.68 0 3.8 0 9.8 1.74 10.44.828.206 1.677.31 2.53.31 2.06 0 4.75-.31 5.86-.31.63 0 2.21.15 3.63.15 1.9 0 3.64-.31 3.64-1.89 0-6 .32-8.54.32-11.23 0-.48.15-.95 1.26-1.9 2.22-2.06 4.91-3.32 6.33-5.38 1.42-1.9 5.38-4.74 6.64-4.74 1.26 0 2.06 1.26 2.06 4.9a58.17 58.17 0 01-.79 8.86 18.86 18.86 0 00-.16 3 64.86 64.86 0 00.63 7.43c0 3.48-.47 6.65-.47 8.86 0 1.43.15 2.69.15 3.8 0 1.11-.15 1.9-.79 2.37-1 .79-3.63.79-6.64.79h-3c-4.12 0-4.12-.47-9.65-.79-1.9-.16-3-.16-4.11-.16-2.06 0-3.32.16-7.28.16-5.85 0-8.22-.47-11.38-.63-2.85 0-3.33.63-5.54.63h-2.85c-2.37 0-4.74.47-6 .47a7.56 7.56 0 01-.79-.15 44.65 44.65 0 012.69-4.12 12.91 12.91 0 003.8-5.53 37.72 37.72 0 001.26-9V947c0-2.37.16-5.22.32-7.43.16-1.9.63-5.06.63-7.75 0-2.37-.63-4.11-.63-6 0-4 .79-9.81.79-12.65 0-3.64-1.11-7.12-1.11-10.28a91.31 91.31 0 011.27-10.76c0-1.26-1.27-5.38-1.58-6.48a6 6 0 01-.16-2.06c0-1.42 0-3.48.16-7 .15-3.79.94-7.75.94-10.6a5.15 5.15 0 00-.15-1.58c-.48-2.69-1-2.84-1.74-4.58-.74-1.74-.16-2.64-2.22-4.83z"/><path id="site_loading_loading-path40" d="M602.36 944a11.09 11.09 0 00.16-2.22c0-3.79-1.42-5.38-1.42-8.7.31-3.63.31-6.64.31-10.75 0-3.64 1-5.85 1-11.86-.31-5.54-.31-7.91-.63-12.34-.32-3.64-.79-7-.79-9.8 0-.64.16-1.43.16-2.06a78.65 78.65 0 00.95-9.33c-.16-3.8-.16-4.75-.16-5.85 0-1.1 0-2.06-.16-4.59-.32-4.9.32-7.28-1.9-9.49-2.22-2.21-5.22-4.9-5.22-6.17 0-1.27 1.11-1.58 4.27-1.58 2.22 0 6.49-.47 9.49-.47 2.37 0 4.75.94 7.44.94a5.51 5.51 0 002.37-.31 26.36 26.36 0 017.59-.79c1.27 0 2.69 0 6.33.16 2.69 0 4.27-.16 6-.16a14.31 14.31 0 012.53.16c3.48.63 7.75 1.1 10.91 3.16s6.8 4.9 6.8 11.39c0 4.9.47 10.12.47 14.55a36.29 36.29 0 01-.15 4.11 63.91 63.91 0 00-.95 7.91c0 2.21.79 4.43.79 7.43 0 2.69-.79 5.38-.79 8.54 0 1.9.31 3.64.31 7.75 0 6.17 1 12.49 1 19.14a126.41 126.41 0 01-1.26 15.34c-.32 3 .16 8.54-2.06 12.18a13.66 13.66 0 01-8.7 6.48 54.73 54.73 0 01-9.33 1.27c-2.21 0-3-.64-4.59-.64-3.79 0-6.16-.15-8.38-.15-1.89 0-3.79.63-5.85.63-2.06 0-3.64-.79-5.69-.79a5.28 5.28 0 00-1.58.16 49.63 49.63 0 01-8.54.63c-1 0-3.8.31-5.86.31-1.42 0-2.53-.15-2.53-.63 0-.63.95-1.58 3-3.64 3.16-3.16 3.79-5.37 3.79-7.9 0-2.53.24-6.15.87-12.02zm15.5-52c0 .79.16 1.43.16 2.22 0 3-.48 5.85-.48 9.17-.033 4.342.18 8.682.64 13 0 2.06-.64 3.32-.64 7.59 0 3.16.48 6.33.48 9.17 0 1.27 0 2.38-.16 4.43 0 3.32 1.27 6.64 1.27 11.07 0 4.43.31 6 2.37 6 1.58-.15 2.85-.15 3.64-.15 1.58 0 2.37.79 4.43.79 1.73 0 3.32-1 5.53-1 3 0 6.17-3.8 6.8-7.44.63-3.64.64-13.76 1-18.5 0-2.85-.63-5.54-.63-8.54 0-2.37.16-5.38.16-8.07 0-1.9-.32-3.79-.32-6.8 0-2.69 1.42-5.06 1.42-8.06a26.5 26.5 0 00-1.58-7.12c-.852-2.29.32-5.85.32-10.91v-2.38c-.16-4.74-.48-7.75-1.9-10.28-1.27-2.21-6.8-3.32-11.7-3.32-3.48.32-5.22 1-7.91 1-2.69 0-1.9 3.32-2.22 5.54-.15 1.58-.79 2.21-.79 4 .057.849.164 1.694.32 2.53a7 7 0 01.16 1.74c0 2.53-1.11 3.48-1.11 6.64-.05 3.68.42 3.23.74 7.68z"/><path id="site_loading_loading-path41" d="M670.84 855c-1.74-1.26-3.16-2.68-3.48-3.63a1.43 1.43 0 01-.16-.79c0-.64.64-1.27 3-1.27 2.21 0 5.06-.32 7.43-.32 3.16 0 5.7 1.27 8.54 1.27a3.52 3.52 0 001.43-.16 13.73 13.73 0 015.06-1c2.21 0 3.63-.16 5.22-.16 1 0 1.58.32 1.89 1.74.16.95-3.48 4.27-5.37 6.8-1.89 2.53-2.22 4.75-2.22 11.23s-1 10-1 12.34v3.48c0 1.9 0 3.8-.63 5.06-.182.4-.29.83-.32 1.27 0 1.58 1.27 3.16 1.43 5.37.16 2.69.79 8.86.79 15.82 0 6.96-.32 10.44-.32 15a116.72 116.72 0 01-.47 13c0 .64-.16 1.27-.16 2.06 0 3.32.63 6.64.63 11.23a8.71 8.71 0 00.95 4.27c.32.47 3 5.06 4.75 6a4.48 4.48 0 012.21 3c0 .64-.48 1.11-1.58 1.11-3 0-10.44.16-13.6.16h-8.07c-1.58.16-4 .16-7.75.16-.79-.16-1.42-.32-1.42-.95.06-.7.336-1.364.79-1.9 1.42-2.21 3.95-4.27 4.58-6.17a19.1 19.1 0 001.27-6.8c0-5.22.79-11.86.95-14.71 0-2.84-.16-4.74-.16-6.64 0-3.32.63-5.54.63-7.75a32.06 32.06 0 00-.15-3.95v-.64c-.16-1.58-.48-6.32-.48-12 0-2.69.16-5.53.32-8.22a63 63 0 00.31-6.8c0-2.53-.15-3.64-.31-6.17-.16-3.48-1.11-5.54-1.11-9.17 0-6.17.47-8.7.47-11.55 0-2.85-1.1-5.38-1.1-6.48 0-1.1-1.05-1.9-2.79-3.14z"/><path id="site_loading_loading-path42" d="M710.54 854.82c-.64-1.9-3-3-3-4.27 0-.95 0-1.27 3.32-1.27 3.17 0 4.43.63 6.33.63 3.48-.31 6-.47 8.54-.47 1.26 0 2.21-.32 3.16-.32.95 0 1.58.32 2.06 1.74.95 2.69 3.16 7.75 4.9 11.86 1.58 4 3.8 7 3.8 9.81 0 1-.16 1.58-.16 2.06a4.73 4.73 0 002.06 4.27c1.89 1.42 4.26 6.95 6.64 11.22 2.21 4.28 3.79 10.13 5.53 13.29 1.58 3.16 3.17 7.91 5.06 11.23 1.89 3.32 4.27 5.85 4.75 9 .48 3.15 2.69 9.49 4.74 9.49 1 0 .79-5.53 1.11-9.8.32-4.27.16-6.64.47-8.07 0-1.9-.94-3.79-1.1-9.33 0-4.9.16-6.64.16-8.54a23.05 23.05 0 00-.16-3.16c-.63-4.27-.16-7.28-.79-12.18a28.63 28.63 0 01-.32-5.06c0-2.37.16-4.43.16-6.64 0-2.85.16-5.54.16-9.34-.16-2.37-.48-3.79-3.17-6.16s-3.32-4-3.32-4.75.16-1.26 2.69-1.26a48.41 48.41 0 017.12.47 18 18 0 003.16.16 42.65 42.65 0 004.75-.16c2.21-.16 3.63-.16 5.53-.16.95 0 2.22-.16 3.48-.16 1.74 0 3.16.16 3.16.95 0 1.27-2.68 5.22-4.11 5.85-1.26.64-1.58 1.74-1.9 3.8-.31 1.9-1.74 7.59-1.74 13.13 0 4.58.32 7.11.32 9.49 0 3.32-.16 6.48-.16 10 0 6.17-.16 9.33-.16 13.29 0 3.96.16 9 .16 13.91 0 4 .48 7.12.48 9.49 0 .64-.16 1.11-.16 1.59-.16 1.74-.48 5.37-.48 9 0 1.58 0 3.16.16 18.5 0 3.17.16 5.54.16 7 0 1.74-.16 2.38-1.42 2.53-1 0-1.74.16-2.38.16-2.21 0-3.16-.31-6.16-.47-1.9 0-3.17.31-4.59.31-2.85-.15-3.8-3.48-4.9-5.53-5.22-10.76-9.33-16.61-10.12-19.45-1-2.85-1.27-5.7-3-7.75s-2.06-2.69-3.16-6.33c-1.27-3.8-6.8-12-7.12-13.92-.32-1.92-1.74-3.16-2.69-5.69-.95-2.53-2.69-3.8-4-7.12-1.31-3.32-2.69-8.86-3.32-9.65 0-.63-1.59 2.69-1.74 7v3.8c0 3.48.15 7.11.31 11.7.16 4.11.63 6.17.63 8.38a22.94 22.94 0 01-.47 4.27 31.85 31.85 0 00-1.26 7.28c0 1.123.157 2.241.47 3.32a17.09 17.09 0 01.47 4.11c0 1.74-.15 3.48-.15 5.54v.95c0 3.79 0 9.64 1.26 11.7 1.27 2.22 4.9 5.69 4.9 6.8 0 1.11-2.21 1.27-5.69 1.27h-10.41s-7.59-.48-9.33-.48c-1.27 0-3.64-.31-3.64-1.26.04-.24.151-.464.32-.64 1.11-1.42 5.38-4.11 6-5.53a40.81 40.81 0 001.27-8.38 3.92 3.92 0 00-.16-1.43 31.28 31.28 0 01-.48-6.48 27.84 27.84 0 01.64-7 10.85 10.85 0 00.63-3.32 17.83 17.83 0 00-.48-3.32 36.79 36.79 0 01-.79-7.12c-.026-.9.027-1.8.16-2.69.32-3.48.32-10.12.32-15.34 0-3.64.63-5.06.63-8.38A48.85 48.85 0 00714 891a49.44 49.44 0 01-.64-6.8 36.88 36.88 0 01.48-4.58c.16-1.9.47-5.06.47-8.07a35.85 35.85 0 00-.31-4.43 26.79 26.79 0 01-.48-5.85c.02-3.61-2.04-4.4-2.98-6.45z"/><path id="site_loading_loading-path43" d="M840.38 885.66c-.79 0-1.42-1.9-1.42-4.43a12.59 12.59 0 01.15-2.37 38.68 38.68 0 00.32-4.12c0-2.69-.32-5.37-.32-8.38 0-3.48-1.89-3.48-5.37-3.48-3.48 0-7.28.32-12.18.32-4.9 0-4.43 3-5.06 6.32a4.37 4.37 0 00-.16 1.43c0 2.21.79 4.11.79 6.48a7 7 0 01-.16 1.74c-.63 3.64-.63 8.38-1.1 13.45 0 .79-.16 1.42-.16 2 0 3.16.95 4.27.95 8.38 0 3.33-.16 6-.16 8.7a30.19 30.19 0 00.16 3.8 78.2 78.2 0 01-.79 10c0 2.37.63 6.65.94 9.81.32 3.64.48 8.38.48 13.28 0 4.9 2.05 6 4.9 6 2.06 0 5.22-.79 8.07-.79 1.26 0 2.53.48 4.27.48 2.21 0 3.63-1.43 5.53-1.43 1.43 0 1.43-3 1.43-6.8a25.88 25.88 0 01.15-3.48 37 37 0 00.48-6.48c0-2.69-.16-5.22-.32-7-.31-3.32-.47-6-.47-6-.16-.16-.32-.32-.48-.32-1.58 0-5.85 4.75-7.59 4.75-1.42 0-1.58-2.85-1.58-6.17v-4.74a6.31 6.31 0 013.16-5.54c2.06-1 6.65-2.53 8.86-3.64 4.11-2.05 7-4.43 11.55-4.43 2.84 0 2.21 2.22 2.21 4.75-.32 3.64-.63 10.12-.63 14.39 0 4.11.95 3.8.95 6.33v7.75a54.43 54.43 0 01-.32 8.06 18.12 18.12 0 00-.32 2.53c0 1.59.32 3.48.32 9.49 0 9-10.6 11.55-12.5 11.86-2.52 0-5.37-.31-7.43-.31-1.9 0-3.48.79-7.43.79-3.48 0-7.43-.16-22-.16-7.12 0-8.07-6.48-8.07-7.43a33.57 33.57 0 01-.79-5.38c0-1.9 1-3.48 1-5.69 0-2.53-.79-5.54-.79-9.49v-3.32c0-3.8-.8-5.06-.8-10.44 0-1.27 0-2.69.16-4.43.64-10.44.64-14.23.64-17.71 0-3.48-.64-8.7-.95-11.87 0-.63-.16-1.1-.16-1.74 0-2.68 1.42-5.06 1.42-8.38 0-1.26-.16-2.85-.31-5.38a36.68 36.68 0 01-.16-4.58c0-3.8.16-8.54.16-12.65 0-6.17 9-10.6 13.44-10.92 4.44-.32 13-.31 14.39-.31 1.11 0 3.64.47 6 .47.63 0 1.27-.16 1.74-.16 1.9-.16 3.8-.63 5.85-.63.957.027 1.91.135 2.85.32 2.353.4 4.734.61 7.12.63 3.64 0 5.53 5.38 5.53 8.7 0 1.1-.47 2.21-.47 4.11 0 1.42.16 3 .16 6.17 0 2.21.47 4.74.47 7 0 2.53-5.85 3.16-6.8 5.37-.95 2.21-5.38 2.69-6.33 3.64a3.19 3.19 0 01-3.02 1.28z"/><path id="site_loading_loading-path44" d="M906.17 849c1.89 0 9.64.16 13.76.16h2.21c4.9 0 7-.16 8.86-.16a6.66 6.66 0 014.43 1.11c-.16 1.58-1.27 2.85-1.43 4.43 0 2.21 1.27 4.27 1.74 6.48a87 87 0 002.38 8.54c.79 3.17 2.53 5.86 3.47 9a83.67 83.67 0 003.48 10.6c1.11 2.69 1.59 5.69 3.48 8.06.79-.63.64-1.74 2.53-6.32 1.59-4 2.38-8.39 4-12.5a65.43 65.43 0 013.64-10.75c1.89-3.32 1.89-8.23 1.89-12-.15-1.43-1.89-2.53-1.89-4.12 0-1.26 1.42-2 2.84-2h12.66c1.42 0 3 .31 5.06.31 1.26 0 2.53-.15 4.58-.15l4-.16c-3.17 4.59-6.8 8.54-8.86 11.86-1.58 2.06-2.06 4.74-3 7.12-1.26 3.63-2.53 7.27-3.47 10.91-.64 2.85-2.54 5.06-3.48 7.75-1.43 3.48-3.17 6.64-3.8 10.44-.16 3.79-2.53 6.8-3.64 10.28-1.11 3.48-2 7.12-3 10.75-.16 1.43-.79 2.69-.79 4.12a34 34 0 01-.16 4.11c-.16 9.64-1 10.91-1 12.49a9.28 9.28 0 01.16 1.58c.31 3.17.63 6.33.79 9.49.16 3 0 6.17.95 9.18 1.42 1.74 3.48 2.69 5.06 4.27a5.9 5.9 0 011.11 3.16 2.68 2.68 0 01-.16 1.11c-2.22.15-4.59.31-7 .31a20.85 20.85 0 01-3.16-.16 27.09 27.09 0 00-3.48-.15c-3.32 0-6.49.47-9.81.63-1.74 0-3.64.47-5.38.47a6.1 6.1 0 01-2.84-.63c.79-3 4-4.43 5.53-7 1.11-5.38 1.27-6.48 1.27-7.43 0-4.27.31-8.7.31-13.92 0-3.16-1-6.17-1-10a23.14 23.14 0 00.16-3.32 21.09 21.09 0 00-.63-4.59l-1.11-3.8c-1.58-5.69-4-10.75-6-16.13-1.58-4.27-4.27-10.91-4.43-15.5-.16-4.59-2.68-2.84-4.11-5.38-2-3.63-2.69-8.06-4.27-11.86-1.42-3.79-4.11-7.75-6.64-11.39a15 15 0 00-5.22-5.21c-1.26-.79-2.69-2.38-2.69-3.33.04-.64 1.15-.76 2.1-.76z"/><path id="site_loading_loading-path45" d="M990 865.1c.63-7.91 2.37-11.87 6-13.76a23.08 23.08 0 0110.28-2.22c5.37 0 11.86.32 14.23.32h6.33c.79 0 1.74-.16 2.69-.16a41.42 41.42 0 014.43.32c2.53.31 13.75 2.37 13.75 14.55 0 8.85 1 16.6 1 21.35a10.92 10.92 0 01-.47 3.79 18.6 18.6 0 00-1.27 7c.16 3.8.64 7.44.64 10.6a34.57 34.57 0 01.63 3.95c0 3.64.16 10.28.16 16.14 0 .94-.16 1.89-.16 2.84-.48 7-.79 14.39-1.27 16.61a2.84 2.84 0 00-.15 1.11c0 1.89.79 3.79.79 6.8 0 4.58-4.12 13.6-10.6 13.6-10.28-.16-11.55-.32-13-.32a13.81 13.81 0 00-3.32.48 11.46 11.46 0 01-2.06.31c-5.85 0-9.8.32-16.6.32a25.84 25.84 0 01-4.27-.32c-2.53-.63-8.07-3.32-8.07-13.44 0-7.43-.63-11.86-.63-14.71 0-2.69 1.26-4.9 1.26-8.06 0-1.59-.47-3.17-.47-5.54 0-2.69.47-6.49.47-10.12 0-1-.16-1.9-.16-2.85-.47-5.53-.78-6.17-.78-10.28 0-4.11.94-12.81.94-15.34 0-2.53-1.32-4.47-1.32-7.79 0-3.32.83-12.81 1-15.18zm16.45 17.55c0 5.22.63 9 .63 14.39 0 4.27-.63 5.7-.63 7.28 0 2.06 1.1 3.8 1.1 6.17 0 2.21-.79 4-1.26 6.32a7.67 7.67 0 00-.16 1.9c0 2.69 1.11 5.38 1.26 13.76.16 4.75.16 8.86.16 12.18v4.11c0 4.11 2.53 3.64 5.22 4.75a8.61 8.61 0 003.48.63c1.9 0 4.27-.48 7-.79 4.59-.64 5.54-.16 6.33-2.06.79-1.9.63-5.69.94-12.49.31-6.8.32-14.39.48-18.19 0-3.64-.16-5.38-.16-7 0-2.06 1.27-3.8 1.27-6.17a10.62 10.62 0 00-.64-3.32c-.79-3-1-7.59-1-12.33v-4.12c0-4 .16-8.85.16-12.65a43.93 43.93 0 00-.16-4.9 6.52 6.52 0 00-6.16-5.7c-2.22 0-6.17.64-8.54.79a39.63 39.63 0 01-4.27.16h-2.85c-.95.16-2.06 2.53-2.06 11.39 0 1.94 0 3.84-.15 5.89z"/><path id="site_loading_loading-path46" d="M1058.31 849.28c1.74 0 4.11.32 5.38.32 1.1 0 1.89-.32 3.16-.32a12 12 0 012.85.47c.987.203 1.992.31 3 .32 3.64 0 8.86-.79 11.07-.79 2.06 0 3.48.32 3.48 1.42a2.7 2.7 0 01-.79 1.74 51.91 51.91 0 00-4.59 6.8c-.47 1-.63 3.64-.63 7 0 1.59 0 3.32.16 5.06 0 .79.16 1.9.16 3.17 0 4.9-.48 12.81-.48 17.87 0 1.9.32 3.64.32 5.69 0 2.53-1 4.59-1 7.28 0 2.05.63 4 .63 7v3.63c0 1.74-.31 2.69-.31 3.64 0 1.27.63 2.38.63 4.59v2.69a41 41 0 00.16 4.27v12.33a57.87 57.87 0 00.31 6.17c.64 4 2.85 4.91 6 5.06l2.06 1.27c1.74 0 2.69-1.42 4.74-1.42.79 0 1.9 0 4.43.15 2.85 0 4.59-.63 5.7-1.9 1.26-1.42.63-5.06 1.26-6.48a2 2 0 00.16-1c0-1.42-.63-3.64-.63-7 0-.63.15-1.42.15-2.21.16-2.69.32-5.85.32-8.7 0-2.85-.16-5.53-.32-7l.16-4.74c0-.64 1.58-1.27 1.58-2.38 0-1.58-1.89-2.68-1.89-4.11a85.58 85.58 0 01.94-12.18 34.65 34.65 0 00.32-3.48 11.76 11.76 0 00-1.11-5.06 12.14 12.14 0 01-.31-3.79v-22.3a21.24 21.24 0 00-1.11-6.17c-.63-1.74-3-3.16-3.79-5.69 0-.16-.16-.48-.16-.64 0-.95 1.1-1.1 2.21-1.1a7.43 7.43 0 012.06.31h13.13c2.21 0 4.11-.31 5.69-.31a7.31 7.31 0 012.69.47c1.42.63 2.37 1.27 2.37 2.06-.027.368-.2.71-.48.95-1.26 1.26-4.42 7.27-5.21 8.22a7.11 7.11 0 00-.95 4.11v1.11c.15 1.58.47 3.95.47 6s-.63 4-.63 6.64a50.84 50.84 0 00.47 6 18 18 0 01.16 3c0 4.43-.63 10.12-.63 13.6 0 1.9.47 3.64.47 6 0 1.9-.16 4.11-.16 6.48 0 1.43-.31 3.17-.47 5.85a56.91 56.91 0 00.63 6.17 68.69 68.69 0 01.48 7.28v24.6c0 8.23-11.07 10.91-14.24 10.91-10.12 0-11.54 0-12.33.16a55.05 55.05 0 01-5.54.48 11.81 11.81 0 01-2.37-.16 41.18 41.18 0 00-7.12-.32h-7.27c-6.8 0-10.12-6.48-10.12-13.76 0-3.48-.48-13.12-.8-18 0-1-.15-2.37-.15-4 0-6.33.47-16.13.47-18.35 0-1.58-.32-5.85-.32-9.64a27.68 27.68 0 01.48-5.86 16 16 0 00.47-3.48c0-2.53-.95-4.9-.95-9 0-3.8.32-8.54.48-12.5v-.63c.16-3.16.32-6 .32-8.22a33.11 33.11 0 00-.32-4.75 10.8 10.8 0 00-3-6.16c-1.58-1.43-3.79-3.17-3.79-4.28.05-.46.84-.46 1.79-.46z"/><path id="site_loading_loading-path47" d="M1188.94 928.83c.63 2.06 3.17 7.44 3.48 10.6.31 3.16 2.21 7.91 4.11 11.07 1.9 3.16 3.17 8.07 5.38 10.91 2.37 3 4.27 4.75 4.27 5.86 0 .31 0 .47-.31.47a30.67 30.67 0 01-4.59.16c-3 0-6.8 0-9.65-.16h-5.53c-1.74 0-4 .32-5.54.32-1.11 0-1.9-.16-1.9-.64 0-1.74 1.43-4.74 1.43-6.64 0-4.11-4.28-13.92-4.28-14.86 0-1.27-1.74-4.43-2.84-6.81-1.9-4.11-3.8-12.17-3.8-12.17-4 1.58-6 2.21-9.33 4.9-1.9 1.58-2.85 2-2.85 4.74 0 .64.16 1.27.16 2.06.16 1.74.16 3.16.16 4.59 0 2.84-.16 5.53-.16 9.33 0 5.69 1.27 7.27 3.48 10a31.12 31.12 0 013.8 5.69c-5.22 0-10.28-.94-15.82-.94-.47 0-1.11.15-1.9.15-3.48.32-6.32.79-8.54.79a6.79 6.79 0 01-1.89-.15c-.48-.16-.64-.32-.64-.64 0-1.1 1.9-3 3-4.74 1.42-2.22 2.37-5.06 2.69-10.6v-2.53c0-3.79-.48-5.85-.48-11.38 0-4.12-.32-8.23-.32-11.39 0-2.69.8-5.22.8-8.23 0-2.37-.32-4.9-.48-8.06.16-2.85.16-6.8.16-11.07-.16-11.87-.48-16.61-.48-21.83v-15.86a8.47 8.47 0 00-1.73-4.74c-1.74-2.21-4-6.17-4-7.12 0-.63 1.11-.79 3-.79h2.05c1.74 0 4.43-.16 7-.16a18.7 18.7 0 015.38.48 12.08 12.08 0 003.48.31c3.48 0 7.43-.63 9.17-.63 2.37 0 6.64.32 11.39.79.79 0 1.42.16 2.21.16 4 0 7.44-1 10.28-1 3.33 0 10.76 4 10.76 10.92 0 4.74-.16 8.22-.16 11.38a47.12 47.12 0 00.16 4.75c.32 3.16.63 6 .63 8.38a9.94 9.94 0 01-.31 3.16 11.15 11.15 0 00-.48 3.32c0 1.27.16 2.38.16 3.48 0 .79.16 5.22.16 5.86 0 3.32-.64 4.74-2.53 8.06-1.89 3.32-12 9.49-12 10.44a101.09 101.09 0 013.79 10.01zm-22.77-16.45c2.21-1.89 4.58-3.32 7.12-5.21 2.54-1.89 5.37-2.38 7.11-4.75 1.74-2.37 2.37-7.12 2.37-10.91 0-3.32-.31-8.38-.31-16.13 0-2.69-.32-2.85-.32-6.17a5.54 5.54 0 00-5.69-5.7h-8.7c-2.53.16-6.64.48-8.38.48-1.43 0-1.74 5.85-1.74 9.65 0 4-.32 5.53-.32 9.49 0 2.37-.32 4.27-.32 6.48a18.7 18.7 0 00.64 4.9 19.8 19.8 0 01.47 4.12c0 2.84-.63 5.53-.79 9.17-.16 2.21-.16 4-.16 5.22 0 1.9.16 3 .79 3a18.21 18.21 0 008.23-3.64z"/><path id="site_loading_loading-path48" d="M1290.79 883c0-.64-.16-1.27-.16-1.9 0-2.21.48-3.64.48-7.75 0-4.27-.64-4-.64-8.22 0-2.69-1.9-3.17-4.9-3.17-3.32 0-7.75.16-10.44.16-2.69 0-4.11 1.27-5.06 4.43a15.78 15.78 0 00-.47 4c0 2.06.31 4.27.47 7 0 2.06-.79 3.17-1.11 7.12v2.06c0 3.16.48 5.22.79 9.33 0 4.74.32 10.44.32 14.71a20 20 0 01-.63 4.9 12.46 12.46 0 00-.64 3.32c0 1.11.32 1.74.32 3.16v1.11a14.31 14.31 0 00-.16 2.69c0 2.85.32 6.17.32 9.8 0 4-.16 6.81-.16 9.34 0 4.58.32 7.9 1.27 8.54a9 9 0 003.79.79c1.58 0 3.17-.48 5.85-.48 2.06 0 4.59.16 6.65.16 3 0 5.69-.79 6-4 .31-3.21-.16-2.85-.16-7.44a45.66 45.66 0 01.63-8.7c.32-1.73 5.06-3.79 7.59-5.69 2.53-1.9 3.64-3.64 6.49-3.64 1.74 0 2 1.11 2 2.69 0 1-.16 2.22-.16 3.17 0 2.53-.63 5.85-.63 10.28s.32 6.8.63 11.07c0 4.58-1.74 6.16-3.16 9.33-1.58 3.48-5.22 4.9-7.12 6.17-.79.63-2.68.79-4.42.79a57.27 57.27 0 01-6-.48c-1.74 0-4.59 1.27-8.07 1.27a104 104 0 00-13.6-1c-6.8 0-10-.32-12.18-4-2.18-3.68-1.11-10.91-1.74-13.44a12.14 12.14 0 01-.32-2.53c0-3 1.27-6 1.27-9.49a9.66 9.66 0 00-.63-3.48c-1-3.16-1-13.6-1-20.08 0-4.27.31-8.7.31-13.13 0-4.43 0-6.49 1.11-10.44a8.22 8.22 0 00.32-2.69c0-2.53-1-4.74-1.11-10.12-.16-1.9-.16-3.64-.16-5.22 0-4.27.32-7.75.79-13 .64-7.12 5.54-9.33 8.23-10.6a15.34 15.34 0 015.69-.94c1.58 0 3.16.15 5.22.31 2.06 0 4.27-.63 7.43-1 4.91 0 9.18.64 15.5.64 7.44 0 8.07 2.53 9.34 4.11 1.27 1.58 1.58 6.48 1.58 9.17 0 2.69.63 1.9.63 9 0 3.95 0 6.48-1.27 7.75-1.89 1.89-5.06 3.16-7.43 5.53-1.9 1.9-4.11 3-5.38 3-1.27 0-1.79-.82-2.11-4.27z"/><path id="site_loading_loading-path49" d="M1320.84 855c-1.74-1.26-3.17-2.68-3.48-3.63a1.43 1.43 0 01-.16-.79c0-.64.63-1.27 3-1.27 2.22 0 5.06-.32 7.44-.32 3.16 0 5.69 1.27 8.54 1.27a3.47 3.47 0 001.42-.16 13.78 13.78 0 015.06-1c2.22 0 3.64-.16 5.22-.16.95 0 1.58.32 1.9 1.74.16.95-3.48 4.27-5.38 6.8-1.9 2.53-2.21 4.75-2.21 11.23s-1 10-1 12.34v3.48c0 1.9 0 3.8-.63 5.06-.182.4-.29.83-.32 1.27 0 1.58 1.26 3.16 1.42 5.37.16 2.69.79 8.86.79 15.82 0 6.96-.31 10.44-.31 15a114.3 114.3 0 01-.48 13c0 .64-.16 1.27-.16 2.06 0 3.32.64 6.64.64 11.23a8.86 8.86 0 00.94 4.27c.32.47 3 5.06 4.75 6a4.45 4.45 0 012.21 3c0 .64-.47 1.11-1.58 1.11-3 0-10.44.16-13.6.16h-8.06c-1.59.16-4 .16-7.75.16-.8-.16-1.43-.32-1.43-.95.06-.7.336-1.364.79-1.9 1.43-2.21 4-4.27 4.59-6.17a19.34 19.34 0 001.26-6.8c0-5.22.8-11.86 1-14.71 0-2.84-.15-4.74-.15-6.64 0-3.32.63-5.54.63-7.75a30.07 30.07 0 00-.16-3.95v-.64c-.16-1.58-.47-6.32-.47-12 0-2.69.15-5.53.31-8.22.233-2.259.34-4.53.32-6.8 0-2.53-.16-3.64-.32-6.17-.16-3.48-1.11-5.54-1.11-9.17 0-6.17.48-8.7.48-11.55 0-2.85-1.11-5.38-1.11-6.48 0-1.1-1.11-1.9-2.84-3.14z"/><path id="site_loading_loading-path50" d="M1356.89 848.33c1.42 0 4 .95 6.49 1.11a44.58 44.58 0 015.69.16c1.58.15 3 .15 4.43.15h4.43a66.14 66.14 0 008.06-.47 16.1 16.1 0 012.85-.16c2.37 0 5.22.32 9.49.63a28.87 28.87 0 003.79.16 55 55 0 009.49-.79 23 23 0 014.91-1 4.34 4.34 0 011.42.16 1.21 1.21 0 011 1.27c0 1.42-1.11 3.48-1.11 8.85 0 1.9.79 4 .79 6.49s0 7-1.9 7-10.75-8.23-11.54-8.86c-.32-.32-1.58-.32-3-.32a48.68 48.68 0 00-5.06.16c-1.42.16-1.89 1.74-1.89 4.11a38.56 38.56 0 00.31 4.12c.133.94.187 1.89.16 2.84 0 3.32-.47 7.28-.47 10.76 0 3.48-.48 6.48-.48 9.33a13.45 13.45 0 00.16 2.53 39.23 39.23 0 01.32 5.54v3.63a15.89 15.89 0 01-.79 5.85 4.87 4.87 0 00-.48 2.06 6.07 6.07 0 00.95 3 4.13 4.13 0 01.47 2.21c0 2.06-.63 5.38-.94 10.75-.16 1.59-.16 3.33-.16 5.22 0 7.6.63 16.77.63 18.35 0 2.37 1.9 4.59 1.9 6.64.63 1.58 3.32 2.53 4.58 4.11a4.79 4.79 0 011.27 2.53c0 .64-.48 1.11-1.27 1.27a34.19 34.19 0 01-4.43.16h-4.74c-1.9 0-4.74.47-9.65.47-3.63-.31-7.75-.47-10.75-.47-1 0-1.27-.16-1.27-.32 0-.47 1.74-1.74 2.85-3.32 1.58-2.37 4.11-4.11 4.59-6.17a5.11 5.11 0 00.15-1.58c0-1.11-.15-2.53-.15-4.27a21.13 21.13 0 01.15-3c.48-4.43.16-8.07.48-10.6a47.43 47.43 0 00.47-4.75 12.33 12.33 0 00-.31-2.53 56.4 56.4 0 01-1.11-12.81c0-7.11.47-15.65 1-17.55a10.36 10.36 0 00.16-2.37 44.31 44.31 0 00-.64-7.12c-.15-1.58-.31-3.8-.31-6.17 0-4.27.31-9.49.47-13.6.16-1.74.16-3.16.16-4.27 0-2.85-.47-3.64-1.9-4-1.43-.36-2.69-.47-7.43-.47-3.8 0-5.06 3-5.85 4.11-.79 1.11-3.8 4-4.59 5.38a1.52 1.52 0 01-1.42.79c-1.11 0-2.22-1-2.22-3.8 0-2.37-.15-5.69-.15-7.9 0-2.69.15-2.06.63-5.54a41.38 41.38 0 00.31-7c-.11-.53.37-.69 1-.69z"/><path id="site_loading_loading-path51" d="M1424.1 849c1.9 0 9.65.16 13.76.16h2.22c4.9 0 7-.16 8.86-.16a6.62 6.62 0 014.42 1.11c-.15 1.58-1.26 2.85-1.42 4.43 0 2.21 1.27 4.27 1.74 6.48a84.24 84.24 0 002.37 8.54c.79 3.17 2.53 5.86 3.48 9a83.67 83.67 0 003.48 10.6c1.11 2.69 1.58 5.69 3.48 8.06.79-.63.63-1.74 2.53-6.32 1.58-4 2.37-8.39 4-12.5a66.38 66.38 0 013.64-10.75c1.9-3.32 1.9-8.23 1.9-12-.16-1.43-1.9-2.53-1.9-4.12 0-1.26 1.43-2 2.85-2h12.65c1.43 0 3 .31 5.06.31 1.27 0 2.53-.15 4.59-.15l4-.16c-3.16 4.59-6.8 8.54-8.85 11.86-1.58 2.06-2.06 4.74-3 7.12-1.26 3.63-2.53 7.27-3.48 10.91-.63 2.85-2.53 5.06-3.48 7.75-1.42 3.48-3.16 6.64-3.79 10.44-.16 3.79-2.53 6.8-3.64 10.28-1.27 3.48-2.06 7.12-3 10.75-.16 1.43-.79 2.69-.79 4.12a36.29 36.29 0 01-.15 4.11c-.16 9.64-1 10.91-1 12.49a9.87 9.87 0 01.15 1.58c.32 3.17.64 6.33.8 9.49.15 3 0 6.17.94 9.18 1.43 1.74 3.48 2.69 5.07 4.27a5.88 5.88 0 011.1 3.16 2.68 2.68 0 01-.16 1.11c-2.21.15-4.58.31-7 .31a21 21 0 01-3.17-.16 27 27 0 00-3.48-.15c-3.32 0-6.48.47-9.8.63-1.74 0-3.64.47-5.38.47a6.14 6.14 0 01-2.85-.63c.79-3 4-4.43 5.54-7 1.1-5.38 1.26-6.48 1.26-7.43 0-4.27.32-8.7.32-13.92 0-3.16-1-6.17-1-10a23.14 23.14 0 00.16-3.32 21.72 21.72 0 00-.63-4.59l-1.11-3.8c-1.58-5.69-4-10.75-6-16.13-1.58-4.27-4.27-10.91-4.43-15.5-.32-4.74-2.69-2.84-4.11-5.38-2.06-3.63-2.69-8.06-4.27-11.86-1.42-3.79-4.11-7.75-6.64-11.39a15 15 0 00-5.22-5.21c-1.27-.79-2.69-2.38-2.69-3.33.02-.64 1.12-.76 2.07-.76z"/><path id="site_loading_loading-path52" d="M1507.92 946.39c2.69.32 4.91 0 8.39-.32 3.48-.47 3.32 2.22 3.63 5.22.48 2.85-.63 3 0 7.59.79 4.43-.31 7.12-2.84 9-1.58 1.11-5.85.31-11.07.31-5.07 0-6.49.48-7.59-1.74-1.1-2.22-.32-3.63-.64-6.48-.47-3-.79-9.17.32-11.39 1.11-2.22 2.53-2.53 5.22-1.89 2.53.81 2.05-.62 4.58-.3z"/><path id="site_loading_loading-path53" d="M1538.92 946.39c2.69.32 4.9 0 8.38-.32 3.48-.47 3.32 2.22 3.64 5.22.48 2.85-.63 3 0 7.59.79 4.43-.32 7.12-2.85 9-1.58 1.11-5.85.31-11.07.31-5.06 0-6.48.48-7.59-1.74-1.11-2.22-.31-3.63-.63-6.48-.48-3-.79-9.17.32-11.39 1.11-2.22 2.53-2.53 5.21-1.89 2.68.64 2.06-.62 4.59-.3z"/><path id="site_loading_loading-path54" d="M1569.92 946.39c2.69.32 4.9 0 8.38-.32 3.48-.47 3.32 2.22 3.64 5.22.32 3-.64 3 0 7.59.79 4.43-.32 7.12-2.85 9-1.58 1.11-5.85.31-11.07.31-5.06 0-6.48.48-7.59-1.74-1.11-2.22-.32-3.63-.63-6.48-.48-3-.79-9.17.31-11.39 1.1-2.22 2.53-2.53 5.22-1.89 2.53.81 2.06-.62 4.59-.3z"/></g></g></svg>