<svg xmlns="http://www.w3.org/2000/svg" viewBox="0 0 1920 1080"><defs><style>.cls-1,.cls-10,.cls-12,.cls-4{fill:#2e3192;}.cls-1,.cls-2{stroke:#fff;}.cls-1,.cls-5,.cls-8,.cls-9{stroke-miterlimit:10;}.cls-1,.cls-11,.cls-2{stroke-width:3px;}.cls-2{fill:#1b1464;}.cls-11,.cls-2,.cls-4{stroke-linejoin:round;}.cls-11,.cls-3,.cls-6{fill:#fff;}.cls-4,.cls-5{stroke:#000;}.cls-5{fill:#8cc63f;}.cls-6{font-size:108.5px;}.cls-12,.cls-6{font-family:CharcuterieBlock, Charcuterie Block;}.cls-7{opacity:0.3;}.cls-8,.cls-9{fill:none;stroke-width:130px;}.cls-11,.cls-8,.cls-9{stroke:#2e3192;}.cls-9{stroke-dasharray:37.45 37.45;}.cls-11{stroke-linecap:round;}.cls-12{font-size:158.15px;}.cls-13{letter-spacing:-0.02em;}.cls-14{letter-spacing:-0.01em;}.cls-15{letter-spacing:0em;}.cls-16{letter-spacing:-0.02em;}.cls-17{letter-spacing:-0.03em;}.cls-18{letter-spacing:-0.09em;}</style></defs><g id="Layer_2" data-name="Layer 2"><rect class="cls-1" x="402.02" y="190.61" width="168.98" height="105.93"/><rect class="cls-1" x="40" y="190.61" width="168.98" height="105.93"/><polygon class="cls-2" points="550.22 243.86 402.02 296.54 402.02 243.58 550.22 243.86"/><polygon class="cls-2" points="60.28 243.61 208.49 296.29 208.49 243.33 60.28 243.61"/><rect class="cls-1" x="54.82" y="97.6" width="495.41" height="146.26"/><polygon class="cls-3" points="305.5 7 253.16 37.22 253.16 97.65 305.5 127.87 357.84 97.65 357.84 37.22 305.5 7"/><polygon class="cls-4" points="257.04 39.45 305.5 11.47 353.96 39.45 305.5 67.43 257.04 39.45"/><polygon class="cls-4" points="257.04 39.45 257.04 95.42 305.5 123.39 305.5 67.43 257.04 39.45"/><polygon class="cls-4" points="305.5 67.43 353.96 39.45 353.96 95.42 305.5 123.39 305.5 67.43"/><path class="cls-5" d="M265.67,100.4l-1.51-17.08,11.19,3.38,1.77-14.57,10.84,5s-1.24,7.29-.71,7.29,6.93-2.55,6.93-3,4.62-12.49,2.13-12.49-18.48-4.62-19-4.62-9.06-6.75-9.06-6.75l6.51-7.88L257,39.45v56Z"/><path class="cls-5" d="M306.26,19.19,285.47,31.27l8.89,10.84-8.89,2.13,10.4,12.08V48.68l8.26.35,2.13,7.29,21.49-16.87-3.2-6.58,2.14-3s-6.58-3.73-7.29-3.73-9.77,4.26-9.77,4.26l-4.13-5.15,5.38-5Z"/><polygon class="cls-5" points="347.3 99.26 342.41 88.57 349.79 71.16 340.2 67.43 340.2 56.32 335.03 66.58 323.82 71.16 317.92 65.4 318.8 73.96 314.23 82.81 326.92 90.04 325.88 103.03 315.11 102.29 318.65 95.36 307.88 92.85 312.75 97.42 310.09 106.72 325.29 106.72 324.24 112.58 347.3 99.26"/><text class="cls-6" transform="translate(99.75 219.48)">Git Terra</text></g><g id="Layer_3" data-name="Layer 3"><g class="cls-7"><line class="cls-8" x1="1333" y1="291.28" x2="1333" y2="271.28"/><line class="cls-9" x1="1333" y1="233.83" x2="1333" y2="-196.86"/><polygon class="cls-10" points="1175.07 270.11 1490.93 270.11 1333 428 1175.07 270.11"/></g><polygon class="cls-11" points="587 530.83 761.21 631.41 587 731.99 412.79 631.41 587 530.83"/><polygon class="cls-11" points="587 731.99 587 765.07 412.79 664.48 412.79 631.41 587 731.99"/><polygon class="cls-11" points="587 731.99 587 765.07 761.21 664.48 761.21 631.41 587 731.99"/><polygon class="cls-11" points="674.11 681.7 761.21 631.41 755.78 590.52 680.11 641.74 674.11 681.7"/><polygon class="cls-11" points="504.5 570.08 504.5 616.51 599.04 674.99 599.04 630.84 504.5 570.08"/><polygon class="cls-11" points="550.93 525.55 668.64 594.34 630.42 615.75 680.11 641.74 755.78 590.52 605.97 511.03 550.93 525.55"/><polygon class="cls-11" points="616.86 525.55 616.86 564.08 550.93 525.55 550.93 568.36 630.42 619.95 630.42 615.75 668.64 594.34 668.64 555.74 616.86 525.55"/><polygon class="cls-11" points="713.17 530.83 713.17 568.71 668.64 594.34 668.64 555.74 713.17 530.83"/><polygon class="cls-11" points="640.36 597.78 640.36 652.16 599.04 674.99 599.04 627.98 640.36 597.78"/><path class="cls-11" d="M599,630.84c.05-4.58,41.32-33.06,41.32-33.06s-88.28-57.51-90-57.51-45.86,29.81-45.86,29.81Z"/><polygon class="cls-11" points="668.64 555.74 660.43 477.78 616.86 525.55 668.64 555.74"/><polygon class="cls-11" points="660.43 477.78 702.28 466.31 713.17 530.83 668.64 555.74 660.43 477.78"/><polygon class="cls-11" points="630.42 615.75 630.42 663.14 674.11 681.7 680.11 641.74 630.42 615.75"/><polyline class="cls-11" points="645.62 607.24 630.42 615.75 652.71 627.4"/><path class="cls-11" d="M574,448.83V526.5c0,3.42,7.84,6.19,17.51,6.19s17.51-2.77,17.51-6.19V448.83Z"/><path class="cls-11" d="M569.86,438.13l4.18,10.7c0,3.42,7.84,6.19,17.51,6.19s17.51-2.77,17.51-6.19l4.18-10.7Z"/><path class="cls-11" d="M611.56,435.17l-20-35.24-20,35.24a4,4,0,0,0-1.68,3c0,4.23,9.71,7.67,21.69,7.67s21.69-3.44,21.69-7.67A4,4,0,0,0,611.56,435.17Z"/><polygon class="cls-11" points="569.11 611.61 587 536.25 613.99 580.66 569.11 611.61"/><polygon class="cls-11" points="587 536.25 530.29 511.03 504.5 570.08 569.11 611.61 587 536.25"/><polygon class="cls-11" points="609.79 674.2 609.79 708.28 580.27 691.24 580.27 657.16 609.79 674.2"/><polygon class="cls-11" points="609.79 674.2 609.79 708.28 639.3 691.24 639.3 657.16 609.79 674.2"/><polygon class="cls-11" points="609.79 674.2 621.41 630.04 639.3 657.16 609.79 674.2"/><polygon class="cls-11" points="621.41 630.04 595.03 619.95 580.27 657.16 609.79 674.2 621.41 630.04"/><path class="cls-11" d="M454.23,502.75v133c0,5.86,13.43,10.61,30,10.61s30-4.75,30-10.61v-133Z"/><path class="cls-11" d="M447.08,484.41l7.15,18.33c0,5.86,13.43,10.62,30,10.62s30-4.76,30-10.62l7.16-18.33Z"/><path class="cls-11" d="M518.5,479.35,484.23,419,450,479.35c-1.84,1.55-2.87,3.26-2.87,5.06,0,7.26,16.63,13.14,37.15,13.14s37.15-5.88,37.15-13.14C521.38,482.61,520.34,480.9,518.5,479.35Z"/><polygon class="cls-11" points="533.78 651.82 533.78 685.9 504.27 668.86 504.27 634.78 533.78 651.82"/><polygon class="cls-11" points="533.78 651.82 533.78 685.9 563.3 668.86 563.3 634.78 533.78 651.82"/><polygon class="cls-11" points="533.78 651.82 545.41 607.65 563.3 634.78 533.78 651.82"/><polygon class="cls-11" points="545.41 607.65 519.02 597.57 504.27 634.78 533.78 651.82 545.41 607.65"/><path class="cls-11" d="M725.78,536.25l-11.27,56.18c0,3,5,5.35,11.27,5.35s11.28-2.39,11.28-5.35Z"/><path class="cls-11" d="M710.49,545.62,699.22,601.8c0,3,5,5.35,11.27,5.35s11.28-2.4,11.28-5.35Z"/><path class="cls-11" d="M695.21,555l-11.28,56.18c0,3,5.05,5.35,11.28,5.35s11.27-2.39,11.27-5.35Z"/><path class="cls-11" d="M679.92,564.34l-11.28,56.18c0,3,5.05,5.35,11.28,5.35s11.27-2.39,11.27-5.35Z"/><polygon class="cls-11" points="960 530.83 1134.21 631.41 960 731.99 785.79 631.41 960 530.83"/><polygon class="cls-11" points="960 731.99 960 765.07 785.79 664.48 785.79 631.41 960 731.99"/><polygon class="cls-11" points="960 731.99 960 765.07 1134.21 664.48 1134.21 631.41 960 731.99"/><polygon class="cls-11" points="1047.11 681.7 1134.21 631.41 1128.78 590.52 1053.11 641.74 1047.11 681.7"/><polygon class="cls-11" points="877.5 570.08 877.5 616.51 972.04 674.99 972.04 630.84 877.5 570.08"/><polygon class="cls-11" points="923.93 525.55 1041.64 594.34 1003.42 615.75 1053.11 641.74 1128.78 590.52 978.97 511.03 923.93 525.55"/><polygon class="cls-11" points="989.86 525.55 989.86 564.08 923.93 525.55 923.93 568.36 1003.42 619.95 1003.42 615.75 1041.64 594.34 1041.64 555.74 989.86 525.55"/><polygon class="cls-11" points="1086.17 530.83 1086.17 568.71 1041.64 594.34 1041.64 555.74 1086.17 530.83"/><polygon class="cls-11" points="1013.36 597.78 1013.36 652.16 972.04 674.99 972.04 627.98 1013.36 597.78"/><path class="cls-11" d="M972,630.84c.05-4.58,41.32-33.06,41.32-33.06s-88.28-57.51-90-57.51-45.86,29.81-45.86,29.81Z"/><polygon class="cls-11" points="1041.64 555.74 1033.43 477.78 989.86 525.55 1041.64 555.74"/><polygon class="cls-11" points="1033.43 477.78 1075.28 466.31 1086.17 530.83 1041.64 555.74 1033.43 477.78"/><polygon class="cls-11" points="1003.42 615.75 1003.42 663.14 1047.11 681.7 1053.11 641.74 1003.42 615.75"/><polyline class="cls-11" points="1018.62 607.24 1003.42 615.75 1025.71 627.4"/><path class="cls-11" d="M947,448.83V526.5c0,3.42,7.84,6.19,17.51,6.19s17.51-2.77,17.51-6.19V448.83Z"/><path class="cls-11" d="M942.86,438.13l4.18,10.7c0,3.42,7.84,6.19,17.51,6.19s17.51-2.77,17.51-6.19l4.18-10.7Z"/><path class="cls-11" d="M984.56,435.17l-20-35.24-20,35.24a4,4,0,0,0-1.68,3c0,4.23,9.71,7.67,21.69,7.67s21.69-3.44,21.69-7.67A4,4,0,0,0,984.56,435.17Z"/><polygon class="cls-11" points="942.11 611.61 960 536.25 986.99 580.66 942.11 611.61"/><polygon class="cls-11" points="960 536.25 903.29 511.03 877.5 570.08 942.11 611.61 960 536.25"/><polygon class="cls-11" points="982.79 674.2 982.79 708.28 953.27 691.24 953.27 657.16 982.79 674.2"/><polygon class="cls-11" points="982.79 674.2 982.79 708.28 1012.3 691.24 1012.3 657.16 982.79 674.2"/><polygon class="cls-11" points="982.79 674.2 994.41 630.04 1012.3 657.16 982.79 674.2"/><polygon class="cls-11" points="994.41 630.04 968.03 619.95 953.27 657.16 982.79 674.2 994.41 630.04"/><path class="cls-11" d="M827.23,502.75v133c0,5.86,13.43,10.61,30,10.61s30-4.75,30-10.61v-133Z"/><path class="cls-11" d="M820.08,484.41l7.15,18.33c0,5.86,13.43,10.62,30,10.62s30-4.76,30-10.62l7.16-18.33Z"/><path class="cls-11" d="M891.5,479.35,857.23,419,823,479.35c-1.84,1.55-2.87,3.26-2.87,5.06,0,7.26,16.63,13.14,37.15,13.14s37.15-5.88,37.15-13.14C894.38,482.61,893.34,480.9,891.5,479.35Z"/><polygon class="cls-11" points="906.78 651.82 906.78 685.9 877.27 668.86 877.27 634.78 906.78 651.82"/><polygon class="cls-11" points="906.78 651.82 906.78 685.9 936.3 668.86 936.3 634.78 906.78 651.82"/><polygon class="cls-11" points="906.78 651.82 918.41 607.65 936.3 634.78 906.78 651.82"/><polygon class="cls-11" points="918.41 607.65 892.02 597.57 877.27 634.78 906.78 651.82 918.41 607.65"/><path class="cls-11" d="M1098.78,536.25l-11.27,56.18c0,3,5,5.35,11.27,5.35s11.28-2.39,11.28-5.35Z"/><path class="cls-11" d="M1083.49,545.62l-11.27,56.18c0,3,5,5.35,11.27,5.35s11.28-2.4,11.28-5.35Z"/><path class="cls-11" d="M1068.21,555l-11.28,56.18c0,3,5,5.35,11.28,5.35s11.27-2.39,11.27-5.35Z"/><path class="cls-11" d="M1052.92,564.34l-11.28,56.18c0,3,5,5.35,11.28,5.35s11.27-2.39,11.27-5.35Z"/><polygon class="cls-11" points="1333 425.83 1507.21 526.41 1333 626.99 1158.79 526.41 1333 425.83"/><polygon class="cls-11" points="1333 626.99 1333 660.07 1158.79 559.48 1158.79 526.41 1333 626.99"/><polygon class="cls-11" points="1333 626.99 1333 660.07 1507.21 559.48 1507.21 526.41 1333 626.99"/><polygon class="cls-11" points="1420.11 576.7 1507.21 526.41 1501.78 485.52 1426.11 536.74 1420.11 576.7"/><polygon class="cls-11" points="1250.49 465.08 1250.49 511.51 1345.04 569.99 1345.04 525.84 1250.49 465.08"/><polygon class="cls-11" points="1296.93 420.55 1414.64 489.34 1376.42 510.75 1426.11 536.74 1501.78 485.52 1351.96 406.03 1296.93 420.55"/><polygon class="cls-11" points="1362.86 420.55 1362.86 459.08 1296.93 420.55 1296.93 463.36 1376.42 514.95 1376.42 510.75 1414.64 489.34 1414.64 450.74 1362.86 420.55"/><polygon class="cls-11" points="1459.17 425.83 1459.17 463.71 1414.64 489.34 1414.64 450.74 1459.17 425.83"/><polygon class="cls-11" points="1386.36 492.78 1386.36 547.16 1345.04 569.99 1345.04 522.98 1386.36 492.78"/><path class="cls-11" d="M1345,525.84c0-4.58,41.32-33.06,41.32-33.06s-88.28-57.51-90-57.51-45.86,29.81-45.86,29.81Z"/><polygon class="cls-11" points="1414.64 450.74 1406.43 372.78 1362.86 420.55 1414.64 450.74"/><polygon class="cls-11" points="1406.43 372.78 1448.28 361.31 1459.17 425.83 1414.64 450.74 1406.43 372.78"/><polygon class="cls-11" points="1376.42 510.75 1376.42 558.14 1420.11 576.7 1426.11 536.74 1376.42 510.75"/><polyline class="cls-11" points="1391.62 502.24 1376.42 510.75 1398.71 522.4"/><path class="cls-11" d="M1320,343.83V421.5c0,3.42,7.84,6.19,17.51,6.19s17.51-2.77,17.51-6.19V343.83Z"/><path class="cls-11" d="M1315.86,333.13l4.18,10.7c0,3.42,7.84,6.19,17.51,6.19s17.51-2.77,17.51-6.19l4.18-10.7Z"/><path class="cls-11" d="M1357.56,330.17l-20-35.24-20,35.24a4,4,0,0,0-1.68,3c0,4.23,9.71,7.67,21.69,7.67s21.69-3.44,21.69-7.67A4,4,0,0,0,1357.56,330.17Z"/><polygon class="cls-11" points="1315.11 506.61 1333 431.25 1359.99 475.66 1315.11 506.61"/><polygon class="cls-11" points="1333 431.25 1276.29 406.03 1250.49 465.08 1315.11 506.61 1333 431.25"/><polygon class="cls-11" points="1355.79 569.2 1355.79 603.28 1326.27 586.24 1326.27 552.16 1355.79 569.2"/><polygon class="cls-11" points="1355.79 569.2 1355.79 603.28 1385.3 586.24 1385.3 552.16 1355.79 569.2"/><polygon class="cls-11" points="1355.79 569.2 1367.41 525.04 1385.3 552.16 1355.79 569.2"/><polygon class="cls-11" points="1367.41 525.04 1341.03 514.95 1326.27 552.16 1355.79 569.2 1367.41 525.04"/><path class="cls-11" d="M1200.23,397.75v133c0,5.86,13.43,10.61,30,10.61s30-4.75,30-10.61v-133Z"/><path class="cls-11" d="M1193.08,379.41l7.15,18.33c0,5.86,13.43,10.62,30,10.62s30-4.76,30-10.62l7.16-18.33Z"/><path class="cls-11" d="M1264.5,374.35,1230.23,314,1196,374.35c-1.84,1.55-2.87,3.26-2.87,5.06,0,7.26,16.63,13.14,37.15,13.14s37.15-5.88,37.15-13.14C1267.38,377.61,1266.34,375.9,1264.5,374.35Z"/><polygon class="cls-11" points="1279.78 546.82 1279.78 580.9 1250.27 563.86 1250.27 529.78 1279.78 546.82"/><polygon class="cls-11" points="1279.78 546.82 1279.78 580.9 1309.3 563.86 1309.3 529.78 1279.78 546.82"/><polygon class="cls-11" points="1279.78 546.82 1291.41 502.65 1309.3 529.78 1279.78 546.82"/><polygon class="cls-11" points="1291.41 502.65 1265.03 492.57 1250.27 529.78 1279.78 546.82 1291.41 502.65"/><path class="cls-11" d="M1471.78,431.25l-11.27,56.18c0,3,5,5.35,11.27,5.35s11.28-2.39,11.28-5.35Z"/><path class="cls-11" d="M1456.49,440.62l-11.27,56.18c0,2.95,5,5.35,11.27,5.35s11.28-2.4,11.28-5.35Z"/><path class="cls-11" d="M1441.21,450l-11.28,56.18c0,3,5,5.35,11.28,5.35s11.27-2.39,11.27-5.35Z"/><path class="cls-11" d="M1425.92,459.34l-11.28,56.18c0,3,5,5.35,11.28,5.35s11.27-2.39,11.27-5.35Z"/><text class="cls-12" transform="translate(336.36 967.9)">Bui<tspan class="cls-13" x="193.57" y="0">l</tspan><tspan class="cls-14" x="255.09" y="0">d</tspan><tspan class="cls-15" x="327.68" y="0">i</tspan><tspan class="cls-16" x="366.9" y="0">n</tspan><tspan class="cls-15" x="455.63" y="0">g </tspan><tspan class="cls-17" x="566.17" y="0">Y</tspan><tspan x="647.94" y="0">our Cit</tspan><tspan class="cls-18" x="1084.11" y="0">y</tspan><tspan x="1157.33" y="0">...</tspan></text></g></svg>