<svg id="e6kwvtpm1nek1" xmlns="http://www.w3.org/2000/svg" xmlns:xlink="http://www.w3.org/1999/xlink" viewBox="0 0 2201.980000 1043.650000" shape-rendering="geometricPrecision" text-rendering="geometricPrecision"><style><![CDATA[#e6kwvtpm1nek4_to {animation: e6kwvtpm1nek4_to__to 4000ms linear infinite normal forwards}@keyframes e6kwvtpm1nek4_to__to { 0% {transform: translate(433.914998px,630.281990px)} 50% {transform: translate(693.333786px,630.281990px)} 62.500000% {transform: translate(693.333786px,630.281990px)} 92.500000% {transform: translate(397.310013px,630.281990px)} 100% {transform: translate(397.310013px,630.281990px)} }#e6kwvtpm1nek4_tr {animation: e6kwvtpm1nek4_tr__tr 4000ms linear infinite normal forwards}@keyframes e6kwvtpm1nek4_tr__tr { 0% {transform: rotate(0deg)} 50% {transform: rotate(0deg)} 52.500000% {transform: rotate(7.053720deg)} 55% {transform: rotate(0deg)} 92.500000% {transform: rotate(0deg)} 95% {transform: rotate(-4.734552deg)} 97.500000% {transform: rotate(0deg)} 100% {transform: rotate(0deg)} }#e6kwvtpm1nek15_to {animation: e6kwvtpm1nek15_to__to 4000ms linear infinite normal forwards}@keyframes e6kwvtpm1nek15_to__to { 0% {transform: translate(1586.862355px,554.029990px)} 42.500000% {transform: translate(1401.563221px,554.029990px)} 57.500000% {transform: translate(1401.563221px,554.029990px)} 87.500000% {transform: translate(1586.862355px,554.029990px)} 100% {transform: translate(1586.862355px,554.029990px)} }#e6kwvtpm1nek15_tr {animation: e6kwvtpm1nek15_tr__tr 4000ms linear infinite normal forwards}@keyframes e6kwvtpm1nek15_tr__tr { 0% {transform: rotate(0deg)} 42.500000% {transform: rotate(0deg)} 45% {transform: rotate(-8.446099deg)} 47.500000% {transform: rotate(0deg)} 87.500000% {transform: rotate(0deg)} 90% {transform: rotate(9.434625deg)} 92.500000% {transform: rotate(0deg)} 100% {transform: rotate(0deg)} }#e6kwvtpm1nek26_to {animation: e6kwvtpm1nek26_to__to 4000ms linear infinite normal forwards}@keyframes e6kwvtpm1nek26_to__to { 0% {transform: translate(397.310002px,204.110012px)} 50% {transform: translate(481.493797px,204.110012px)} 100% {transform: translate(397.310002px,204.110012px)} }#e6kwvtpm1nek29_to {animation: e6kwvtpm1nek29_to__to 4000ms linear infinite normal forwards}@keyframes e6kwvtpm1nek29_to__to { 0% {transform: translate(970.754785px,255.612068px)} 50% {transform: translate(1063.294974px,255.612068px)} 100% {transform: translate(970.754785px,255.612068px)} }#e6kwvtpm1nek32_to {animation: e6kwvtpm1nek32_to__to 4000ms linear infinite normal forwards}@keyframes e6kwvtpm1nek32_to__to { 0% {transform: translate(1192.469980px,113.244048px)} 50% {transform: translate(1134.103239px,113.244048px)} 100% {transform: translate(1192.469980px,113.244048px)} }]]></style><path id="e6kwvtpm1nek2" d="M2178.050000,803.880000C2178.050000,803.880000,1498.470000,362.310000,934.750000,816.410000L530.750000,1113.930000L2178.050000,1113.930000Z" transform="matrix(1 0 0 1 21.92000000000000 -69.36073242000010)" fill="rgb(128,128,128)" stroke="rgb(0,0,0)" stroke-width="4" stroke-miterlimit="10"/><path id="e6kwvtpm1nek3" d="M-19.920000,886.930000C-19.920000,886.930000,495.150000,552.250000,922.410000,896.430000L1228.600000,1121.920000L-19.920000,1121.920000Z" transform="matrix(1 0 0 1 21.92000000000000 -80.27000000000000)" fill="rgb(179,179,179)" stroke="rgb(0,0,0)" stroke-width="4" stroke-miterlimit="10"/><g id="e6kwvtpm1nek4_to" transform="translate(433.914998,630.281990)"><g id="e6kwvtpm1nek4_tr" transform="rotate(0)"><g id="e6kwvtpm1nek4" transform="translate(-505.354996,-574.734985)"><rect id="e6kwvtpm1nek5" width="11.420000" height="335.350000" rx="0" ry="0" transform="matrix(1 0 0 1 742.85000000000002 336.19999999999999)" fill="rgb(26,26,26)" stroke="rgb(0,0,0)" stroke-width="4" stroke-miterlimit="10"/><polygon id="e6kwvtpm1nek6" points="375.310000,576.030000 742.850000,323.740000 517.550000,589.530000 375.310000,576.030000" fill="rgb(26,26,26)" stroke="rgb(0,0,0)" stroke-width="4" stroke-miterlimit="10"/><rect id="e6kwvtpm1nek7" width="33.220000" height="75.170000" rx="0" ry="0" transform="matrix(1 0 0 1 577.76999999999998 760.08000000000004)" fill="rgb(128,128,128)" stroke="rgb(0,0,0)" stroke-width="4" stroke-miterlimit="10"/><rect id="e6kwvtpm1nek8" width="171.310000" height="75.170000" rx="0" ry="0" transform="matrix(1 0 0 1 406.45999999999998 760.08000000000004)" fill="rgb(77,77,77)" stroke="rgb(0,0,0)" stroke-width="4" stroke-miterlimit="10"/><rect id="e6kwvtpm1nek9" width="139.120000" height="74.750000" rx="0" ry="0" transform="matrix(1 0 0 1 358.69999999999999 719.30999999999995)" fill="rgb(26,26,26)" stroke="rgb(0,0,0)" stroke-width="4" stroke-miterlimit="10"/><rect id="e6kwvtpm1nek10" width="180.650000" height="180.650000" rx="0" ry="0" transform="matrix(1 0 0 1 423.06999999999999 558.38999999999999)" fill="rgb(251,176,59)" stroke="rgb(0,0,0)" stroke-width="4" stroke-miterlimit="10"/><rect id="e6kwvtpm1nek11" width="180.650000" height="180.650000" rx="0" ry="0" transform="matrix(1 0 0 1 242.41999999999999 558.38999999999999)" fill="rgb(247,147,30)" stroke="rgb(0,0,0)" stroke-width="4" stroke-miterlimit="10"/><rect id="e6kwvtpm1nek12" width="33.220000" height="75.170000" rx="0" ry="0" transform="matrix(1 0 0 1 452.13999999999999 776)" fill="rgb(128,128,128)" stroke="rgb(0,0,0)" stroke-width="4" stroke-miterlimit="10"/><rect id="e6kwvtpm1nek13" width="171.310000" height="75.170000" rx="0" ry="0" transform="matrix(1 0 0 1 280.83999999999997 776)" fill="rgb(77,77,77)" stroke="rgb(0,0,0)" stroke-width="4" stroke-miterlimit="10"/><circle id="e6kwvtpm1nek14" r="25.440000" transform="matrix(1 0 0 1 742.85000000000002 323.74000000000001)" fill="rgb(26,26,26)" stroke="rgb(0,0,0)" stroke-width="4" stroke-miterlimit="10"/></g></g></g><g id="e6kwvtpm1nek15_to" transform="translate(1586.862355,554.029990)"><g id="e6kwvtpm1nek15_tr" transform="rotate(0)"><g id="e6kwvtpm1nek15" transform="translate(-1383.190002,-503.890015)"><rect id="e6kwvtpm1nek16" width="7.640000" height="224.450000" rx="0" ry="0" transform="matrix(-1 0 -0 -1 1224.23000000000002 568.69000000000028)" fill="rgb(26,26,26)" stroke="rgb(0,0,0)" stroke-width="4" stroke-miterlimit="10"/><polygon id="e6kwvtpm1nek17" points="1470.220000,504.760000 1224.230000,335.900000 1375.030000,513.790000 1470.220000,504.760000" fill="rgb(26,26,26)" stroke="rgb(0,0,0)" stroke-width="4" stroke-miterlimit="10"/><rect id="e6kwvtpm1nek18" width="22.240000" height="50.310000" rx="0" ry="0" transform="matrix(-1 0 -0 -1 1334.72000000000025 678.25000000000011)" fill="rgb(128,128,128)" stroke="rgb(0,0,0)" stroke-width="4" stroke-miterlimit="10"/><rect id="e6kwvtpm1nek19" width="114.660000" height="50.310000" rx="0" ry="0" transform="matrix(-1 0 -0 -1 1449.37999999999988 678.25000000000011)" fill="rgb(77,77,77)" stroke="rgb(0,0,0)" stroke-width="4" stroke-miterlimit="10"/><rect id="e6kwvtpm1nek20" width="93.120000" height="50.030000" rx="0" ry="0" transform="matrix(-1 0 -0 -1 1481.34000000000015 650.68000000000006)" fill="rgb(26,26,26)" stroke="rgb(0,0,0)" stroke-width="4" stroke-miterlimit="10"/><rect id="e6kwvtpm1nek21" width="120.910000" height="120.910000" rx="0" ry="0" transform="matrix(-1 0 -0 -1 1438.25999999999999 613.85000000000002)" fill="rgb(251,176,59)" stroke="rgb(0,0,0)" stroke-width="4" stroke-miterlimit="10"/><rect id="e6kwvtpm1nek22" width="120.910000" height="120.910000" rx="0" ry="0" transform="matrix(-1 0 -0 -1 1559.17000000000030 613.85000000000014)" fill="rgb(247,147,30)" stroke="rgb(0,0,0)" stroke-width="4" stroke-miterlimit="10"/><rect id="e6kwvtpm1nek23" width="22.240000" height="50.310000" rx="0" ry="0" transform="matrix(-1 0 -0 -1 1418.80999999999972 688.90000000000009)" fill="rgb(128,128,128)" stroke="rgb(0,0,0)" stroke-width="4" stroke-miterlimit="10"/><rect id="e6kwvtpm1nek24" width="114.660000" height="50.310000" rx="0" ry="0" transform="matrix(-1 0 -0 -1 1533.46000000000004 688.90000000000020)" fill="rgb(77,77,77)" stroke="rgb(0,0,0)" stroke-width="4" stroke-miterlimit="10"/><circle id="e6kwvtpm1nek25" r="17.020000" transform="matrix(1 0 0 1 1224.23000000000002 335.89999999999998)" fill="rgb(26,26,26)" stroke="rgb(0,0,0)" stroke-width="4" stroke-miterlimit="10"/></g></g></g><g id="e6kwvtpm1nek26_to" transform="translate(397.310002,204.110012)"><g id="e6kwvtpm1nek26" transform="translate(-375.284988,-118.325012)"><path id="e6kwvtpm1nek27" d="M428.240000,162.710000Q421.710000,162.710000,415.360000,163.060000C420.910000,156.240000,424,148.790000,424,140.970000C424,108.550000,371.400000,82.270000,306.510000,82.270000C241.620000,82.270000,189,108.550000,189,141C189,152.140000,195.220000,162.560000,206,171.440000C172.150000,184.160000,149.060000,209.560000,149.060000,238.830000C149.060000,280.830000,196.630000,314.920000,255.320000,314.920000C289,314.920000,318.990000,303.690000,338.460000,286.190000C361.740000,298.590000,393.360000,306.190000,428.210000,306.190000C499.700000,306.190000,557.670000,274.070000,557.670000,234.450000C557.670000,194.830000,499.730000,162.710000,428.240000,162.710000Z" transform="matrix(1 0 0 1 21.92000000000000 -80.27000000000000)" fill="rgb(179,179,179)" stroke="rgb(0,0,0)" stroke-width="4" stroke-miterlimit="10"/><ellipse id="e6kwvtpm1nek28" rx="97.010000" ry="49.730000" transform="matrix(1 0 0 1 420.88000000000000 104.45000000000000)" fill="rgb(179,179,179)" stroke="rgb(0,0,0)" stroke-width="4" stroke-miterlimit="10"/></g></g><g id="e6kwvtpm1nek29_to" transform="translate(970.754785,255.612068)"><g id="e6kwvtpm1nek29" transform="translate(-1070.854950,-213.154999)"><path id="e6kwvtpm1nek30" d="M994.140000,267.180000Q998.930000,267.180000,1003.570000,267.440000C999.500000,262.440000,997.250000,256.990000,997.250000,251.270000C997.250000,227.540000,1035.750000,208.270000,1083.250000,208.270000C1130.750000,208.270000,1169.250000,227.510000,1169.250000,251.270000C1169.250000,259.430000,1164.700000,267.050000,1156.800000,273.550000C1181.580000,282.860000,1198.490000,301.450000,1198.490000,322.880000C1198.490000,353.640000,1163.660000,378.580000,1120.700000,378.580000C1096.050000,378.580000,1074.090000,370.360000,1059.840000,357.580000C1042.840000,366.660000,1019.650000,372.250000,994.140000,372.250000C941.800000,372.250000,899.380000,348.730000,899.380000,319.730000C899.380000,290.730000,941.800000,267.180000,994.140000,267.180000Z" transform="matrix(1 0 0 1 21.92000000000000 -80.27000000000000)" fill="rgb(179,179,179)" stroke="rgb(0,0,0)" stroke-width="4" stroke-miterlimit="10"/><ellipse id="e6kwvtpm1nek31" rx="71.020000" ry="36.400000" transform="matrix(1 0 0 1 1037.50000000000000 203.02000000000001)" fill="rgb(179,179,179)" stroke="rgb(0,0,0)" stroke-width="4" stroke-miterlimit="10"/></g></g><g id="e6kwvtpm1nek32_to" transform="translate(1192.469980,113.244048)"><g id="e6kwvtpm1nek32" transform="translate(-1372.670044,-87.785004)"><path id="e6kwvtpm1nek33" d="M1384.230000,152C1382.230000,152,1380.360000,152.060000,1378.470000,152.160000C1380.871170,149.414672,1382.236656,145.916057,1382.330000,142.270000C1382.330000,127.760000,1358.780000,115.990000,1329.740000,115.990000C1300.700000,115.990000,1277.150000,127.760000,1277.150000,142.270000C1277.150000,147.270000,1279.930000,151.920000,1284.760000,155.890000C1269.610000,161.590000,1259.270000,172.960000,1259.270000,186.060000C1259.270000,204.870000,1280.560000,220.120000,1306.840000,220.120000C1321.910000,220.120000,1335.340000,215.120000,1344.060000,207.260000C1354.470000,212.820000,1368.630000,216.260000,1384.230000,216.260000C1416.230000,216.260000,1442.230000,201.880000,1442.230000,184.150000C1442.230000,166.420000,1416.240000,152,1384.230000,152Z" transform="matrix(1 0 0 1 21.92000000000000 -80.27000000000000)" fill="rgb(179,179,179)" stroke="rgb(0,0,0)" stroke-width="4" stroke-miterlimit="10"/><ellipse id="e6kwvtpm1nek34" rx="43.430000" ry="22.260000" transform="matrix(1 0 0 1 1393.04999999999995 81.59000000000000)" fill="rgb(179,179,179)" stroke="rgb(0,0,0)" stroke-width="4" stroke-miterlimit="10"/></g></g></svg>