<svg id="Layer_1" data-name="Layer 1" xmlns="http://www.w3.org/2000/svg" viewBox="0 0 126.99 139.16"><defs><style>.cls-1{fill:#d0d2d3;}.cls-1,.cls-2,.cls-3,.cls-4,.cls-5,.cls-6{stroke:#231f20;stroke-linecap:round;stroke-linejoin:round;stroke-width:1.5px;}.cls-2{fill:#a6a8ab;}.cls-3{fill:#808184;}.cls-4{fill:#8cc63f;}.cls-5{fill:#39b54a;}.cls-6{fill:#009245;}</style></defs><polygon class="cls-1" points="26.5 47.3 126.24 104.89 100.5 119.48 0.75 61.89 26.5 47.3"/><polygon class="cls-2" points="100.5 119.48 100.5 138.41 0.75 80.83 0.75 61.89 100.5 119.48"/><polygon class="cls-3" points="100.5 119.48 100.5 138.41 126.24 123.88 126.24 104.89 100.5 119.48"/><polygon class="cls-1" points="38.35 48.97 113.37 92.28 94.01 103.25 18.99 59.94 38.35 48.97"/><polygon class="cls-2" points="94.01 103.63 94.01 109.45 18.99 66.14 18.99 60.31 94.01 103.63"/><polygon class="cls-3" points="94.01 103.02 94.01 109.45 113.37 98.52 113.37 92.05 94.01 103.02"/><polygon class="cls-4" points="41.91 0.75 104.74 37.03 92.91 43.01 30.08 6.73 41.91 0.75"/><polygon class="cls-5" points="92.91 43.01 92.91 97.19 30.08 60.91 30.08 6.73 92.91 43.01"/><polygon class="cls-6" points="92.91 43.01 92.91 97.19 104.74 91.24 104.74 37.03 92.91 43.01"/></svg>