<svg id="Layer_1" data-name="Layer 1" xmlns="http://www.w3.org/2000/svg" viewBox="0 0 126.99 92.61"><defs><style>.cls-1{fill:#8cc63f;}.cls-1,.cls-2,.cls-3,.cls-4{stroke:#231f20;stroke-linecap:round;stroke-linejoin:round;stroke-width:1.5px;}.cls-2{fill:#808184;}.cls-3{fill:#a6a8ab;}.cls-4{fill:#006837;}</style></defs><polygon class="cls-1" points="100.5 0.75 0.75 58.34 26.5 72.93 126.24 15.34 100.5 0.75"/><polygon class="cls-2" points="26.5 72.93 26.5 91.86 126.24 34.27 126.24 15.34 26.5 72.93"/><polygon class="cls-3" points="26.5 72.93 26.5 91.86 0.75 77.32 0.75 58.34 26.5 72.93"/><polyline class="cls-4" points="109.29 19.91 111.27 13.05 106.79 15.34 102.17 8.96 101.78 15.34 98.22 15.34 100.59 21.49"/><polyline class="cls-4" points="76.19 26.17 78.17 19.32 73.69 21.6 69.07 15.23 68.68 21.6 65.12 21.6 67.49 27.75"/><polyline class="cls-4" points="58.79 48.46 60.77 41.6 56.28 43.89 51.67 37.51 51.27 43.89 47.71 43.89 50.08 50.04"/><polyline class="cls-4" points="33.73 45.69 35.71 38.83 31.23 41.12 26.61 34.74 26.22 41.12 22.66 41.12 25.03 47.27"/></svg>