<svg id="Layer_1" data-name="Layer 1" xmlns="http://www.w3.org/2000/svg" viewBox="0 0 126.99 92.61"><defs><style>.cls-1{fill:#d0d2d3;}.cls-1,.cls-2,.cls-3,.cls-4{stroke:#231f20;stroke-linecap:round;stroke-linejoin:round;stroke-width:1.5px;}.cls-2{fill:#808184;}.cls-3{fill:#a6a8ab;}.cls-4{fill:none;}</style></defs><polygon class="cls-1" points="100.5 0.75 0.75 58.34 26.5 72.93 126.24 15.34 100.5 0.75"/><polygon class="cls-2" points="26.5 72.93 26.5 91.86 126.24 34.27 126.24 15.34 26.5 72.93"/><polygon class="cls-3" points="26.5 72.93 26.5 91.86 0.75 77.32 0.75 58.34 26.5 72.93"/><line class="cls-4" x1="106.31" y1="21.8" x2="96.42" y2="15.34"/><line class="cls-4" x1="100.77" y1="18.57" x2="98.27" y2="21.8"/><line class="cls-4" x1="99.52" y1="23.38" x2="87.06" y2="16"/><line class="cls-4" x1="58.19" y1="38.98" x2="51.47" y2="34.9"/><line class="cls-4" x1="53.21" y1="35.95" x2="48.96" y2="38.98"/><line class="cls-4" x1="51.09" y1="40.96" x2="40.92" y2="35.95"/><line class="cls-4" x1="40.08" y1="54.51" x2="46.21" y2="58.34"/><path class="cls-4" d="M43.54,56.42c.05.28-4.45,3.23-4.45,3.23"/><line class="cls-4" x1="35.53" y1="58.03" x2="43.86" y2="62.9"/><line class="cls-4" x1="73.4" y1="27.38" x2="79.54" y2="31.22"/><path class="cls-4" d="M76.86,29.3c0,.28-4.45,3.23-4.45,3.23"/><line class="cls-4" x1="68.85" y1="30.91" x2="77.18" y2="35.78"/></svg>