<svg id="Layer_1" data-name="Layer 1" xmlns="http://www.w3.org/2000/svg" viewBox="0 0 126.99 160.98"><defs><style>.cls-1{fill:#d0d2d3;}.cls-1,.cls-2,.cls-3,.cls-4,.cls-5{stroke:#231f20;stroke-linecap:round;stroke-linejoin:round;stroke-width:1.5px;}.cls-2{fill:#a6a8ab;}.cls-3{fill:#808184;}.cls-4{fill:none;}.cls-5{fill:#ffc200;}</style></defs><polygon class="cls-1" points="26.5 69.12 126.24 126.71 100.5 141.3 0.75 83.71 26.5 69.12"/><polygon class="cls-2" points="100.5 141.3 100.5 160.23 0.75 102.64 0.75 83.71 100.5 141.3"/><polygon class="cls-3" points="100.5 141.3 100.5 160.23 126.24 145.69 126.24 126.71 100.5 141.3"/><line class="cls-4" x1="113.37" y1="134" x2="113.37" y2="59.79"/><line class="cls-4" x1="105.36" y1="129.35" x2="105.36" y2="55.15"/><line class="cls-4" x1="97.35" y1="124.71" x2="97.35" y2="50.5"/><line class="cls-4" x1="89.34" y1="120.06" x2="89.34" y2="45.85"/><line class="cls-4" x1="81.33" y1="115.41" x2="81.33" y2="41.2"/><line class="cls-4" x1="73.32" y1="110.76" x2="73.32" y2="36.55"/><line class="cls-4" x1="65.31" y1="106.11" x2="65.31" y2="31.9"/><line class="cls-4" x1="57.3" y1="101.46" x2="57.3" y2="27.26"/><line class="cls-4" x1="49.29" y1="96.82" x2="49.29" y2="22.61"/><line class="cls-4" x1="41.28" y1="92.17" x2="41.28" y2="17.96"/><line class="cls-4" x1="33.27" y1="87.52" x2="33.27" y2="13.31"/><line class="cls-4" x1="25.26" y1="82.87" x2="25.26" y2="8.66"/><line class="cls-4" x1="17.25" y1="78.22" x2="17.25" y2="4.01"/><path class="cls-4" d="M117.42,115.41c-.79-.16-104.63-60.89-104.63-60.89"/><path class="cls-4" d="M117.42,80.86C116.63,80.7,12.79,20,12.79,20"/><circle class="cls-5" cx="113.37" cy="59.79" r="3.26"/><circle class="cls-5" cx="105.36" cy="55.15" r="3.26"/><circle class="cls-5" cx="97.35" cy="50.5" r="3.26"/><circle class="cls-5" cx="89.34" cy="45.85" r="3.26"/><circle class="cls-5" cx="81.33" cy="41.2" r="3.26"/><circle class="cls-5" cx="73.32" cy="36.55" r="3.26"/><circle class="cls-5" cx="65.31" cy="31.9" r="3.26"/><circle class="cls-5" cx="57.3" cy="27.26" r="3.26"/><circle class="cls-5" cx="49.29" cy="22.61" r="3.26"/><circle class="cls-5" cx="41.28" cy="17.96" r="3.26"/><circle class="cls-5" cx="33.27" cy="13.31" r="3.26"/><circle class="cls-5" cx="25.26" cy="8.66" r="3.26"/><circle class="cls-5" cx="17.25" cy="4.01" r="3.26"/></svg>