<svg id="Layer_1" data-name="Layer 1" xmlns="http://www.w3.org/2000/svg" viewBox="0 0 126.99 92.61"><defs><style>.cls-1{fill:#d0d2d3;}.cls-1,.cls-2,.cls-3,.cls-4{stroke:#231f20;stroke-linecap:round;stroke-linejoin:round;stroke-width:1.5px;}.cls-2{fill:#a6a8ab;}.cls-3{fill:#808184;}.cls-4{fill:none;}</style></defs><polygon class="cls-1" points="26.5 0.75 126.24 58.34 100.5 72.93 0.75 15.34 26.5 0.75"/><polygon class="cls-2" points="100.5 72.93 100.5 91.86 0.75 34.27 0.75 15.34 100.5 72.93"/><polygon class="cls-3" points="100.5 72.93 100.5 91.86 126.24 77.32 126.24 58.34 100.5 72.93"/><line class="cls-4" x1="20.68" y1="21.8" x2="30.57" y2="15.34"/><line class="cls-4" x1="26.22" y1="18.57" x2="28.72" y2="21.8"/><line class="cls-4" x1="27.47" y1="23.38" x2="39.93" y2="16"/><line class="cls-4" x1="68.8" y1="38.98" x2="75.52" y2="34.9"/><line class="cls-4" x1="73.78" y1="35.95" x2="78.03" y2="38.98"/><line class="cls-4" x1="75.9" y1="40.96" x2="86.07" y2="35.95"/><line class="cls-4" x1="86.91" y1="54.51" x2="80.78" y2="58.34"/><path class="cls-4" d="M83.45,56.42c0,.28,4.45,3.23,4.45,3.23"/><line class="cls-4" x1="91.46" y1="58.03" x2="83.13" y2="62.9"/><line class="cls-4" x1="53.59" y1="27.38" x2="47.46" y2="31.22"/><path class="cls-4" d="M50.13,29.3c-.05.28,4.45,3.23,4.45,3.23"/><line class="cls-4" x1="58.14" y1="30.91" x2="49.81" y2="35.78"/></svg>