<svg id="Layer_1" data-name="Layer 1" xmlns="http://www.w3.org/2000/svg" viewBox="0 0 52.99 161.76"><defs><style>.cls-1{fill:#d0d2d3;}.cls-1,.cls-2,.cls-3,.cls-4,.cls-5{stroke:#231f20;stroke-linecap:round;stroke-linejoin:round;stroke-width:1.5px;}.cls-2{fill:#808184;}.cls-3{fill:#a6a8ab;}.cls-4{fill:#4d4d4d;}.cls-5{fill:#ff0;}</style></defs><polygon class="cls-1" points="26.5 112.9 52.24 127.49 26.5 142.07 0.75 127.49 26.5 112.9"/><polygon class="cls-2" points="26.5 142.07 26.5 161.01 52.24 146.47 52.24 127.49 26.5 142.07"/><polygon class="cls-3" points="26.5 142.07 26.5 161.01 0.75 146.47 0.75 127.49 26.5 142.07"/><ellipse class="cls-4" cx="26.5" cy="126.47" rx="14.06" ry="5.6"/><rect class="cls-4" x="24.43" y="22.62" width="4.13" height="103.65"/><path class="cls-4" d="M34.89,35.26V3.63H18.1V35.26a1.58,1.58,0,0,0-.79,1.21c0,1.63,4.11,3,9.19,3s9.18-1.33,9.18-3A1.58,1.58,0,0,0,34.89,35.26Z"/><ellipse class="cls-4" cx="26.5" cy="3.63" rx="10.18" ry="2.88"/><rect class="cls-5" x="17.86" y="8.58" width="4.13" height="22.81"/><rect class="cls-5" x="30.82" y="8.58" width="4.13" height="22.81"/><rect class="cls-5" x="24.43" y="11.21" width="4.13" height="22.81"/></svg>