<svg id="Layer_1" data-name="Layer 1" xmlns="http://www.w3.org/2000/svg" viewBox="0 0 126.99 139.16"><defs><style>.cls-1{fill:#d0d2d3;}.cls-1,.cls-2,.cls-3,.cls-4,.cls-5,.cls-6{stroke:#231f20;stroke-linecap:round;stroke-linejoin:round;stroke-width:1.5px;}.cls-2{fill:#808184;}.cls-3{fill:#a6a8ab;}.cls-4{fill:#8cc63f;}.cls-5{fill:#009245;}.cls-6{fill:#39b54a;}</style></defs><polygon class="cls-1" points="100.5 47.3 0.75 104.89 26.5 119.48 126.24 61.89 100.5 47.3"/><polygon class="cls-2" points="26.5 119.48 26.5 138.41 126.24 80.83 126.24 61.89 26.5 119.48"/><polygon class="cls-3" points="26.5 119.48 26.5 138.41 0.75 123.88 0.75 104.89 26.5 119.48"/><polygon class="cls-1" points="88.64 48.97 13.62 92.28 32.99 103.25 108 59.94 88.64 48.97"/><polygon class="cls-2" points="32.99 103.63 32.99 109.45 108 66.14 108 60.31 32.99 103.63"/><polygon class="cls-3" points="32.99 103.02 32.99 109.45 13.62 98.52 13.62 92.05 32.99 103.02"/><polygon class="cls-4" points="85.08 0.75 22.25 37.03 34.08 43.01 96.91 6.73 85.08 0.75"/><polygon class="cls-5" points="34.08 43.01 34.08 97.19 96.91 60.91 96.91 6.73 34.08 43.01"/><polygon class="cls-6" points="34.08 43.01 34.08 97.19 22.25 91.24 22.25 37.03 34.08 43.01"/></svg>