<svg id="Layer_1" data-name="Layer 1" xmlns="http://www.w3.org/2000/svg" viewBox="0 0 126.99 160.98"><defs><style>.cls-1{fill:#d0d2d3;}.cls-1,.cls-2,.cls-3,.cls-4,.cls-5{stroke:#231f20;stroke-linecap:round;stroke-linejoin:round;stroke-width:1.5px;}.cls-2{fill:#808184;}.cls-3{fill:#a6a8ab;}.cls-4{fill:none;}.cls-5{fill:#ffc200;}</style></defs><polygon class="cls-1" points="100.5 69.12 0.75 126.71 26.5 141.3 126.24 83.71 100.5 69.12"/><polygon class="cls-2" points="26.5 141.3 26.5 160.23 126.24 102.64 126.24 83.71 26.5 141.3"/><polygon class="cls-3" points="26.5 141.3 26.5 160.23 0.75 145.69 0.75 126.71 26.5 141.3"/><line class="cls-4" x1="13.62" y1="134" x2="13.62" y2="59.79"/><line class="cls-4" x1="21.63" y1="129.35" x2="21.63" y2="55.15"/><line class="cls-4" x1="29.64" y1="124.71" x2="29.64" y2="50.5"/><line class="cls-4" x1="37.65" y1="120.06" x2="37.65" y2="45.85"/><line class="cls-4" x1="45.66" y1="115.41" x2="45.66" y2="41.2"/><line class="cls-4" x1="53.67" y1="110.76" x2="53.67" y2="36.55"/><line class="cls-4" x1="61.68" y1="106.11" x2="61.68" y2="31.9"/><line class="cls-4" x1="69.69" y1="101.46" x2="69.69" y2="27.26"/><line class="cls-4" x1="77.7" y1="96.82" x2="77.7" y2="22.61"/><line class="cls-4" x1="85.71" y1="92.17" x2="85.71" y2="17.96"/><line class="cls-4" x1="93.72" y1="87.52" x2="93.72" y2="13.31"/><line class="cls-4" x1="101.73" y1="82.87" x2="101.73" y2="8.66"/><line class="cls-4" x1="109.75" y1="78.22" x2="109.75" y2="4.01"/><path class="cls-4" d="M9.57,115.41c.79-.16,104.63-60.89,104.63-60.89"/><path class="cls-4" d="M9.57,80.86C10.36,80.7,114.2,20,114.2,20"/><circle class="cls-5" cx="13.62" cy="59.79" r="3.26"/><circle class="cls-5" cx="21.63" cy="55.15" r="3.26"/><circle class="cls-5" cx="29.64" cy="50.5" r="3.26"/><circle class="cls-5" cx="37.65" cy="45.85" r="3.26"/><circle class="cls-5" cx="45.66" cy="41.2" r="3.26"/><circle class="cls-5" cx="53.67" cy="36.55" r="3.26"/><circle class="cls-5" cx="61.68" cy="31.9" r="3.26"/><circle class="cls-5" cx="69.69" cy="27.26" r="3.26"/><circle class="cls-5" cx="77.7" cy="22.61" r="3.26"/><circle class="cls-5" cx="85.71" cy="17.96" r="3.26"/><circle class="cls-5" cx="93.72" cy="13.31" r="3.26"/><circle class="cls-5" cx="101.73" cy="8.66" r="3.26"/><circle class="cls-5" cx="109.75" cy="4.01" r="3.26"/></svg>