<svg id="Layer_1" data-name="Layer 1" xmlns="http://www.w3.org/2000/svg" viewBox="0 0 126.99 92.61"><defs><style>.cls-1{fill:#8cc63f;}.cls-1,.cls-2,.cls-3,.cls-4{stroke:#231f20;stroke-linecap:round;stroke-linejoin:round;stroke-width:1.5px;}.cls-2{fill:#a6a8ab;}.cls-3{fill:#808184;}.cls-4{fill:#006837;}</style></defs><polygon class="cls-1" points="26.5 0.75 126.24 58.34 100.5 72.93 0.75 15.34 26.5 0.75"/><polygon class="cls-2" points="100.5 72.93 100.5 91.86 0.75 34.27 0.75 15.34 100.5 72.93"/><polygon class="cls-3" points="100.5 72.93 100.5 91.86 126.24 77.32 126.24 58.34 100.5 72.93"/><polyline class="cls-4" points="17.7 19.91 15.72 13.05 20.2 15.34 24.82 8.96 25.22 15.34 28.78 15.34 26.4 21.49"/><polyline class="cls-4" points="50.8 26.17 48.82 19.32 53.3 21.6 57.92 15.23 58.31 21.6 61.88 21.6 59.5 27.75"/><polyline class="cls-4" points="68.2 48.46 66.23 41.6 70.71 43.89 75.33 37.51 75.72 43.89 79.28 43.89 76.91 50.04"/><polyline class="cls-4" points="93.26 45.69 91.28 38.83 95.77 41.12 100.38 34.74 100.78 41.12 104.34 41.12 101.96 47.27"/></svg>