<svg id="Layer_1" data-name="Layer 1" xmlns="http://www.w3.org/2000/svg" xmlns:xlink="http://www.w3.org/1999/xlink" viewBox="0 0 201.74 246.33"><defs><style>.cls-1{fill:none;}.cls-2{fill:#bf6113;}.cls-3{fill:#a34f11;}.cls-4{fill:#87420e;}.cls-5{fill:#16248e;}.cls-6{fill:#d0d2d3;}.cls-10,.cls-11,.cls-13,.cls-14,.cls-15,.cls-16,.cls-17,.cls-18,.cls-19,.cls-20,.cls-21,.cls-22,.cls-23,.cls-24,.cls-25,.cls-6,.cls-7,.cls-8,.cls-9{stroke:#231f20;stroke-linecap:round;stroke-linejoin:round;stroke-width:1.5px;}.cls-7{fill:#a6a8ab;}.cls-8{fill:#808184;}.cls-9{fill:url(#New_Pattern_Swatch_5);}.cls-10{fill:url(#New_Pattern_Swatch_6);}.cls-11{fill:url(#New_Pattern_Swatch_7);}.cls-12{fill:#231f20;}.cls-13{fill:url(#New_Pattern_Swatch_6-3);}.cls-14{fill:url(#New_Pattern_Swatch_8);}.cls-15{fill:url(#New_Pattern_Swatch_5-3);}.cls-16{fill:url(#New_Pattern_Swatch_5-5);}.cls-17{fill:#ec1c24;}.cls-18{fill:#99141e;}.cls-19{fill:#333;}.cls-20{fill:#4d4d4d;}.cls-21{fill:#666;}.cls-22{fill:#8bc53f;}.cls-23{fill:#a87c4f;}.cls-24{fill:#37b34a;}.cls-25{fill:#d6de23;}</style><pattern id="New_Pattern_Swatch_5" data-name="New Pattern Swatch 5" width="26.8" height="26.8" patternUnits="userSpaceOnUse" viewBox="0 0 26.8 26.8"><rect class="cls-1" width="26.8" height="26.8"/><rect class="cls-2" width="26.8" height="26.8"/></pattern><pattern id="New_Pattern_Swatch_6" data-name="New Pattern Swatch 6" width="26.8" height="26.8" patternUnits="userSpaceOnUse" viewBox="0 0 26.8 26.8"><rect class="cls-1" width="26.8" height="26.8"/><rect class="cls-3" width="26.8" height="26.8"/></pattern><pattern id="New_Pattern_Swatch_7" data-name="New Pattern Swatch 7" width="27.16" height="27.16" patternUnits="userSpaceOnUse" viewBox="0 0 27.16 27.16"><rect class="cls-1" width="27.16" height="27.16"/><rect class="cls-4" width="27.16" height="27.16"/></pattern><pattern id="New_Pattern_Swatch_6-3" data-name="New Pattern Swatch 6" width="26.8" height="26.8" patternTransform="translate(11.64 -5.37) scale(0.75 0.66)" patternUnits="userSpaceOnUse" viewBox="0 0 26.8 26.8"><rect class="cls-1" width="26.8" height="26.8"/><rect class="cls-3" width="26.8" height="26.8"/></pattern><pattern id="New_Pattern_Swatch_8" data-name="New Pattern Swatch 8" width="27.03" height="27.03" patternUnits="userSpaceOnUse" viewBox="0 0 27.03 27.03"><rect class="cls-1" width="27.03" height="27.03"/><rect class="cls-5" width="27.03" height="27.03"/></pattern><pattern id="New_Pattern_Swatch_5-3" data-name="New Pattern Swatch 5" width="26.8" height="26.8" patternTransform="translate(-2.77 -5.27)" patternUnits="userSpaceOnUse" viewBox="0 0 26.8 26.8"><rect class="cls-1" width="26.8" height="26.8"/><rect class="cls-2" width="26.8" height="26.8"/></pattern><pattern id="New_Pattern_Swatch_5-5" data-name="New Pattern Swatch 5" width="26.8" height="26.8" patternTransform="translate(2.39 -12.88) scale(0.78)" patternUnits="userSpaceOnUse" viewBox="0 0 26.8 26.8"><rect class="cls-1" width="26.8" height="26.8"/><rect class="cls-2" width="26.8" height="26.8"/></pattern></defs><polygon class="cls-6" points="100.5 111.47 200.24 169.06 100.5 226.65 0.75 169.06 100.5 111.47"/><polygon class="cls-7" points="100.5 226.65 100.5 245.58 0.75 188 0.75 169.06 100.5 226.65"/><polygon class="cls-8" points="100.5 226.65 100.5 245.58 200.24 188 200.24 169.06 100.5 226.65"/><polygon class="cls-9" points="80.34 88.31 168.54 140.16 200.99 124.1 108.82 79.61 80.34 88.31"/><polygon class="cls-10" points="80.34 88.31 80.34 137.23 170.8 186.16 168.54 140.16 80.34 88.31"/><polygon class="cls-11" points="170.8 186.16 200.24 169.06 200.99 124.1 168.54 140.16 170.8 186.16"/><polygon class="cls-12" points="141.69 170.42 141.69 157.47 146.07 151.94 150.37 161.18 150.37 174.54 141.69 170.42"/><polygon class="cls-12" points="87.83 115.25 87.83 107.34 90.5 103.95 93.13 109.6 93.13 117.77 87.83 115.25"/><polygon class="cls-12" points="87.83 134.01 87.83 126.11 90.5 122.72 93.13 128.37 93.13 136.53 87.83 134.01"/><polygon class="cls-12" points="99.43 140.92 99.43 133.01 102.11 129.63 104.73 135.28 104.73 143.44 99.43 140.92"/><polygon class="cls-12" points="111.03 147.83 111.03 139.92 113.71 136.53 116.34 142.18 116.34 150.35 111.03 147.83"/><polygon class="cls-12" points="122.64 154.74 122.64 146.83 125.32 143.44 127.94 149.09 127.94 157.26 122.64 154.74"/><polygon class="cls-12" points="99.43 121.18 99.43 113.27 102.11 109.88 104.73 115.53 104.73 123.7 99.43 121.18"/><polygon class="cls-12" points="111.03 127.11 111.03 119.2 113.71 115.81 116.34 121.46 116.34 129.63 111.03 127.11"/><polygon class="cls-12" points="122.64 133.03 122.64 125.13 125.32 121.74 127.94 127.39 127.94 135.56 122.64 133.03"/><polygon class="cls-12" points="134.24 138.96 134.24 131.05 136.92 127.67 139.55 133.32 139.55 141.49 134.24 138.96"/><polygon class="cls-12" points="145.85 144.89 145.85 136.98 148.53 133.6 151.15 139.25 151.15 147.41 145.85 144.89"/><path class="cls-13" d="M117.29,42.75H96.57L93.13,90.82c0,2.4,6.18,4.35,13.8,4.35s13.8-2,13.8-4.35Z"/><path class="cls-14" d="M123.23,20h0l-.09-.11a19.07,19.07,0,0,0-3.7-4.36L106.93.75,93.77,16.09a19.07,19.07,0,0,0-2.58,3l0,0h0a19.11,19.11,0,1,0,32.07.86Z"/><polygon class="cls-15" points="135.79 93.06 165.78 108.09 190.18 95.23 157.15 79.61 135.79 93.06"/><polygon class="cls-16" points="139.49 54.1 162.95 65.86 177.23 54.72 156.2 43.57 139.49 54.1"/><polygon class="cls-10" points="135.79 93.06 138.36 110.86 164.27 126.22 165.78 108.09 135.79 93.06"/><polygon class="cls-11" points="190.18 95.23 187.02 121.74 164.27 126.22 165.78 108.09 190.18 95.23"/><polygon class="cls-10" points="139.49 54.1 140.66 89.99 162.99 98.93 162.95 65.86 139.49 54.1"/><polygon class="cls-10" points="177.23 54.72 177.23 93.06 162.99 98.93 162.95 65.86 177.23 54.72"/><polygon class="cls-17" points="139.49 54.1 148.5 31.61 162.95 65.86 139.49 54.1"/><polygon class="cls-18" points="148.5 31.61 167.11 23.7 177.23 54.72 162.95 65.86 148.5 31.61"/><path class="cls-19" d="M17.75,155.27V167c0,.55.61,1,1.37,1s1.36-.44,1.36-1V155.27Z"/><path class="cls-20" d="M15.25,147.75v11.88c0,.55,1.73,1,3.87,1s3.87-.45,3.87-1V147.75Z"/><path class="cls-20" d="M20.14,154.19,27,158.68s1.36.94,1.36,3.85H25.27s.34-2.48-5.13-5.9Z"/><polygon class="cls-21" points="15.88 143.25 36.47 150.67 38.92 149.91 18.83 141.97 15.88 143.25"/><circle class="cls-21" cx="18.96" cy="146.32" r="2.35"/><polygon class="cls-6" points="102.08 215.17 148.5 186.16 127.94 175.37 84.17 204.62 102.08 215.17"/><polygon class="cls-22" points="90.91 204.16 127.94 179.83 139.55 186.16 102.08 209.69 90.91 204.16"/><polygon class="cls-6" points="46.96 180.53 93.37 151.52 72.82 140.73 29.04 169.98 46.96 180.53"/><polygon class="cls-22" points="35.79 169.52 72.82 145.19 84.42 151.52 46.96 175.06 35.79 169.52"/><ellipse class="cls-22" cx="81.53" cy="183.55" rx="15.16" ry="8.18"/><rect class="cls-23" x="78.89" y="149.45" width="5.27" height="34.1"/><circle class="cls-24" cx="81.53" cy="144.89" r="13.87"/><circle class="cls-22" cx="72.19" cy="136.41" r="12.87"/><circle class="cls-25" cx="81.1" cy="126.6" r="9.81"/></svg>