<svg id="Layer_1" data-name="Layer 1" xmlns="http://www.w3.org/2000/svg" viewBox="0 0 199.69 160.05"><defs><style>.cls-1{fill:#a6a8ab;}.cls-1,.cls-10,.cls-11,.cls-12,.cls-13,.cls-2,.cls-3,.cls-5,.cls-6,.cls-7,.cls-8,.cls-9{stroke:#231f20;stroke-linecap:round;stroke-linejoin:round;stroke-width:1.5px;}.cls-2{fill:#d0d2d3;}.cls-3{fill:#808184;}.cls-4{fill:#231f20;}.cls-5{fill:#b79711;}.cls-6{fill:#edc914;}.cls-7{fill:#bbbdbf;}.cls-8{fill:#e6e7e8;}.cls-9{fill:#8a5d3b;}.cls-10{fill:#c3996b;}.cls-11{fill:#be1e2d;}.cls-12{fill:#fff100;}.cls-13{fill:#1b75bb;}</style></defs><polygon class="cls-1" points="99.85 12.6 191.04 61.35 191.04 78.22 99.85 25.84 99.85 12.6"/><polygon class="cls-1" points="99.85 25.84 99.85 12.6 7.01 62.48 7.01 79.44 99.85 25.84"/><polygon class="cls-2" points="99.85 25.84 199.59 83.42 99.85 141.01 0.1 83.42 99.85 25.84"/><polygon class="cls-1" points="99.85 141.01 99.85 159.95 0.1 102.36 0.1 83.42 99.85 141.01"/><polygon class="cls-3" points="99.85 141.01 99.85 159.95 199.59 102.36 199.59 83.42 99.85 141.01"/><polygon class="cls-1" points="96.61 36.51 96.32 63.63 151.63 94.22 152.41 38.62 130.39 27.78 130.39 58.55 96.61 36.51"/><polygon class="cls-2" points="152.41 38.62 172.87 26.93 148.8 14.79 130.39 27.78 152.41 38.62"/><polygon class="cls-2" points="96.61 36.51 120.14 27.78 130.39 33.83 130.39 58.55 96.61 36.51"/><polygon class="cls-3" points="172.87 26.93 172.87 76.94 151.63 94.22 152.41 38.62 172.87 26.93"/><polygon class="cls-4" points="135.46 85.28 135.46 69.72 141.58 73.94 141.58 88.66 135.46 85.28"/><polygon class="cls-4" points="139.65 66.02 139.65 54.64 142.37 56.78 142.37 68.06 139.65 66.02"/><polygon class="cls-4" points="100.81 58.37 100.81 46.99 103.53 49.13 103.53 60.41 100.81 58.37"/><polygon class="cls-4" points="106.61 62.75 106.61 51.36 109.33 53.5 109.33 64.79 106.61 62.75"/><polygon class="cls-4" points="112.41 65.67 112.41 54.29 115.13 56.43 115.13 67.72 112.41 65.67"/><polygon class="cls-4" points="118.2 68.87 118.2 57.49 120.93 59.63 120.93 70.92 118.2 68.87"/><polygon class="cls-4" points="124 72.73 124 61.35 126.73 63.49 126.73 74.78 124 72.73"/><polygon class="cls-4" points="139.65 51.66 139.65 40.27 142.37 42.41 142.37 53.7 139.65 51.66"/><polygon class="cls-4" points="164.8 64.37 164.8 52.98 162.08 55.13 162.08 66.41 164.8 64.37"/><polygon class="cls-4" points="164.8 77.8 164.8 66.41 162.08 68.55 162.08 79.84 164.8 77.8"/><polygon class="cls-4" points="164.8 50 164.8 38.62 162.08 40.76 162.08 52.05 164.8 50"/><path class="cls-5" d="M61.87,43.17A19.26,19.26,0,0,0,42.61,62.43c0,3.29,8.62,6,19.26,6s19.25-2.67,19.25-6A19.25,19.25,0,0,0,61.87,43.17Z"/><path class="cls-6" d="M40.34,56.82A21.52,21.52,0,0,0,18.81,78.35C18.81,82,28.44,85,40.34,85s21.53-3,21.53-6.66A21.53,21.53,0,0,0,40.34,56.82Z"/><path class="cls-6" d="M33.26,59.7l4.27-16.53,6.89,17.24s-3.15,4-6.09.94"/><path class="cls-5" d="M57.14,46.1l3.61-14L66.6,46.71s-2.68,3.34-5.17.79"/><path class="cls-7" d="M69.59,8.83c0-3.11-3.48-5.64-7.77-5.64a8.35,8.35,0,0,0-6.78,3A12.65,12.65,0,0,0,51.1,5.6a12.19,12.19,0,0,0-6.5,1.84,13.88,13.88,0,0,0-4.5-.75c-6.07,0-11,3.73-11,8.32s4.92,8.31,11,8.31a13.65,13.65,0,0,0,5.65-1.21,12.44,12.44,0,0,0,5.35,1.21c.38,0,.74-.06,1.11-.09a13.37,13.37,0,0,0-.35,2.94c0,5.44,3,9.85,6.79,9.85s6.78-4.41,6.78-9.85c0-4.06-1.69-7.54-4.11-9a7.48,7.48,0,0,0,.55-2.66h0C66.13,14.44,69.59,11.93,69.59,8.83Z"/><path class="cls-8" d="M48.13,24.88c0-3.29-3.88-6-8.67-6A11.09,11.09,0,0,0,34.77,20a10.82,10.82,0,0,0-3.07-4.07c2.4-1.68,3.9-3.93,3.9-6.42C35.6,4.31,29.2.1,21.3.1S7,4.31,7,9.51s6.11,9.18,13.74,9.37a15.16,15.16,0,0,0-1.93,7.53c0,6.68,3.87,12.09,8.65,12.09.18,0,.36-.06.55-.07,0,0,0,0,0,.07,0,5.5,3.4,10,7.59,10s7.58-4.46,7.58-10a11.2,11.2,0,0,0-2.91-7.78C44.66,30.43,48.13,28,48.13,24.88Z"/><path class="cls-9" d="M117.07,94.37v9.12c0,2.51,5.66,4.56,12.65,4.56s12.65-2,12.65-4.56V94.37Z"/><ellipse class="cls-10" cx="129.72" cy="94.37" rx="12.65" ry="4.56"/><ellipse class="cls-11" cx="129.72" cy="94.37" rx="10" ry="2.79"/><path class="cls-9" d="M74.54,97.8v9.12c0,2.51,5.67,4.56,12.65,4.56s12.66-2,12.66-4.56V97.8Z"/><ellipse class="cls-10" cx="87.19" cy="97.8" rx="12.65" ry="4.56"/><ellipse class="cls-12" cx="87.19" cy="97.8" rx="10" ry="2.79"/><path class="cls-9" d="M92.67,99.5V112c0,3.46,7.79,6.26,17.39,6.26s17.38-2.8,17.38-6.26V99.5Z"/><ellipse class="cls-10" cx="110.06" cy="99.5" rx="17.38" ry="6.26"/><ellipse class="cls-13" cx="110.06" cy="99.5" rx="13.73" ry="3.84"/><polygon class="cls-3" points="191.04 61.35 103.53 109.98 103.53 128.36 191.04 78.22 191.04 61.35"/><polygon class="cls-3" points="7.01 62.48 70.46 94.85 70.46 111.48 7.01 79.44 7.01 62.48"/><polygon class="cls-1" points="103.53 109.98 85.95 104.64 85.95 121.69 103.53 128.36 103.53 109.98"/></svg>