<svg id="Layer_1" data-name="Layer 1" xmlns="http://www.w3.org/2000/svg" viewBox="0 0 199.69 168.82"><defs><style>.cls-1{fill:#d0d2d3;}.cls-1,.cls-10,.cls-11,.cls-2,.cls-3,.cls-4,.cls-5,.cls-6,.cls-7,.cls-8,.cls-9{stroke:#231f20;stroke-linecap:round;stroke-linejoin:round;stroke-width:1.5px;}.cls-2{fill:#a6a8ab;}.cls-3{fill:#808184;}.cls-4{fill:#edc914;}.cls-5{fill:#ec1c24;}.cls-6{fill:#99141e;}.cls-7{fill:#8bc53f;}.cls-8{fill:#37b34a;}.cls-9{fill:#006838;}.cls-10{fill:#fff100;}.cls-11{fill:#00adee;}</style></defs><polygon class="cls-1" points="99.85 34.61 199.59 92.2 99.85 149.78 0.1 92.2 99.85 34.61"/><polygon class="cls-2" points="99.85 149.78 99.85 168.72 0.1 111.13 0.1 92.2 99.85 149.78"/><polygon class="cls-3" points="99.85 149.78 99.85 168.72 199.59 111.13 199.59 92.2 99.85 149.78"/><polygon class="cls-1" points="3.44 66.05 105.41 6.12 136.48 21.95 91.41 47.78 118.98 65.94 99.85 83.23 64.27 61.44 31.45 83.67 3.44 66.05"/><polygon class="cls-2" points="3.44 66.05 3.44 94.13 30.35 108.76 31.45 83.67 3.44 66.05"/><polygon class="cls-2" points="99.85 83.23 99.85 103.88 65.15 88.35 64.27 61.44 99.85 83.23"/><polygon class="cls-3" points="118.98 65.94 118.98 88.35 99.85 103.88 99.85 83.23 118.98 65.94"/><polygon class="cls-3" points="64.27 61.44 65.15 88.35 30.35 108.76 31.45 83.67 64.27 61.44"/><polygon class="cls-3" points="136.48 21.95 136.48 55.76 118.98 65.94 109.43 59.65 91.41 47.78 136.48 21.95"/><polygon class="cls-1" points="66.15 4.17 89.44 17.61 66.15 31.05 42.87 17.61 66.15 4.17"/><polygon class="cls-2" points="66.15 31.05 66.15 57.94 42.87 44.5 42.87 17.61 66.15 31.05"/><polygon class="cls-3" points="66.15 31.05 66.15 57.94 89.44 44.5 89.44 17.61 66.15 31.05"/><path class="cls-4" d="M65.15,2.11A14.48,14.48,0,0,0,50.66,16.59c0,2.48,6.49,4.49,14.49,4.49s14.48-2,14.48-4.49A14.48,14.48,0,0,0,65.15,2.11Z"/><polygon class="cls-5" points="11.26 66.05 19.3 46.49 26.03 74.28 11.26 66.05"/><polygon class="cls-6" points="19.3 46.49 56.63 30.46 60.3 54.56 26.03 74.28 19.3 46.49"/><polygon class="cls-6" points="89.44 17.61 118.1 0.1 126.53 16.88 89.44 40.62 89.44 17.61"/><polygon class="cls-1" points="98.84 131.94 187.25 80.86 196.88 85.64 103.44 140.26 93.59 133.47 98.84 131.94"/><polygon class="cls-2" points="93.59 133.47 93.59 140.26 103.44 146.38 103.44 140.26 93.59 133.47"/><polygon class="cls-3" points="103.44 146.38 196.25 94.13 196.88 85.64 103.44 140.26 103.44 146.38"/><polygon class="cls-7" points="101.03 117.15 109.41 122.04 195.89 74.28 188.67 70.34 101.03 117.15"/><polygon class="cls-8" points="101.03 117.15 101.03 132.21 107.99 135.82 109.41 122.04 101.03 117.15"/><polygon class="cls-9" points="107.99 135.82 192.94 85.1 195.89 74.28 109.41 122.04 107.99 135.82"/><polygon class="cls-1" points="42.87 103.88 53.01 109.74 73.29 98.03 63.15 92.18 42.87 103.88"/><polygon class="cls-2" points="42.87 103.88 42.87 109.74 53.01 115.59 53.01 109.74 42.87 103.88"/><polygon class="cls-3" points="53.01 115.59 73.29 103.88 73.29 98.03 53.01 109.74 53.01 115.59"/><polygon class="cls-1" points="119.96 66.05 130.1 71.9 150.38 60.2 140.24 54.34 119.96 66.05"/><polygon class="cls-2" points="119.96 66.05 119.96 71.9 130.1 77.76 130.1 71.9 119.96 66.05"/><polygon class="cls-3" points="130.1 77.76 150.38 66.05 150.38 60.2 130.1 71.9 130.1 77.76"/><polygon class="cls-5" points="103.44 52.95 125.1 66.05 136.48 59.29 123.14 48.57 103.44 52.95"/><polygon class="cls-10" points="37.03 92.2 54.75 81.01 71.33 87.41 47.75 103.88 37.03 92.2"/><path class="cls-11" d="M128,46.16l13.35,9.41s12.91-10.64,12-10.68-19.91-7.48-19.91-7.48Z"/></svg>