<svg id="Layer_1" data-name="Layer 1" xmlns="http://www.w3.org/2000/svg" viewBox="0 0 200.99 253.96"><defs><style>.cls-1{fill:#d0d2d3;}.cls-1,.cls-10,.cls-2,.cls-3,.cls-4,.cls-5,.cls-6,.cls-7,.cls-9{stroke:#231f20;stroke-linecap:round;stroke-linejoin:round;stroke-width:1.5px;}.cls-2{fill:#a6a8ab;}.cls-3{fill:#808184;}.cls-4{fill:#f6921e;}.cls-5{fill:#e6e7e8;}.cls-6{fill:#ec1c24;}.cls-7{fill:#99141e;}.cls-8{fill:#231f20;}.cls-9{fill:#fbb03b;}.cls-10{fill:#f7931e;}</style></defs><polygon class="cls-1" points="100.5 119.09 200.24 176.68 100.5 234.27 0.75 176.68 100.5 119.09"/><polygon class="cls-2" points="100.5 234.27 100.5 253.21 0.75 195.62 0.75 176.68 100.5 234.27"/><polygon class="cls-3" points="100.5 234.27 100.5 253.21 200.24 195.62 200.24 176.68 100.5 234.27"/><path class="cls-1" d="M22.67,131.7l81.1-42.92L134,104s-83.67,51.11-84.27,50.38S22.67,131.7,22.67,131.7Z"/><polygon class="cls-2" points="22.67 131.69 22.67 169.87 50.62 188.66 49.77 154.38 22.67 131.69"/><polygon class="cls-3" points="134.04 104 134.04 142.77 50.62 188.66 49.77 154.38 134.04 104"/><path class="cls-4" d="M115.09,65.78H111l-2.21,38.51c0,1.26,1.91,2.28,4.28,2.28s4.27-1,4.27-2.28Z"/><path class="cls-2" d="M148.38,30.3c-1.1-2.51-4.92-4.36-9.48-4.36-5.42,0-9.81,2.6-9.81,5.82a3.75,3.75,0,0,0,.31,1.43c-2.94,1.73-4.73,4-4.73,6.53A5.86,5.86,0,0,0,125.73,43c-4.12.87-7.29,3.11-8.18,5.89a15.6,15.6,0,0,0-4.08-.54c-5.54,0-10,2.74-10,6.12,0,2.63,2.73,4.87,6.55,5.73a5.89,5.89,0,0,0-.21,1.57c0,4.23,4.32,7.67,9.66,7.67s9.65-3.44,9.65-7.67a6.44,6.44,0,0,0-1-3.46c.49,0,1,.07,1.49.07,6.75,0,12.23-3.53,12.23-7.89a4.62,4.62,0,0,0-.11-1c.53,0,1.05,0,1.59,0,10.25,0,18.57-4.39,18.57-9.8C161.82,35.25,156.14,31.47,148.38,30.3Z"/><path class="cls-4" d="M98.77,54.21H93.22l-3,51.67c0,1.7,2.56,3.07,5.73,3.07s5.74-1.37,5.74-3.07Z"/><path class="cls-5" d="M143.43,6.6C142,3.24,136.83.75,130.71.75c-7.27,0-13.16,3.5-13.16,7.81a5,5,0,0,0,.42,1.92c-4,2.32-6.35,5.4-6.35,8.76A7.82,7.82,0,0,0,113,23.63c-5.53,1.17-9.78,4.17-11,7.9a21.24,21.24,0,0,0-5.48-.71c-7.43,0-13.45,3.67-13.45,8.2,0,3.53,3.65,6.53,8.77,7.69a8.72,8.72,0,0,0-.27,2.11c0,5.68,5.8,10.28,13,10.28s13-4.6,13-10.28a8.57,8.57,0,0,0-1.4-4.64c.66,0,1.32.09,2,.09,9.06,0,16.41-4.74,16.41-10.59a7.41,7.41,0,0,0-.14-1.33c.7,0,1.41,0,2.12,0,13.77,0,24.93-5.89,24.93-13.16C161.47,13.24,153.84,8.18,143.43,6.6Z"/><polygon class="cls-6" points="36.65 132.68 42.65 107.56 49.77 141.19 36.65 132.68"/><polygon class="cls-7" points="42.65 107.56 78.36 92.53 85.58 118.66 49.77 141.19 42.65 107.56"/><path class="cls-8" d="M69.73,160.73A1.09,1.09,0,0,0,70,160a1.12,1.12,0,0,0-.63-1l.78-1.62-2-3.82-1.39,4.61,1.33,1.12a1.05,1.05,0,0,0-.28.71,1.09,1.09,0,0,0,.64,1l-2.33,4.83v14.31l5.25-2.89V162.09Z"/><path class="cls-8" d="M81.71,149a.8.8,0,0,0,.2-.52.81.81,0,0,0-.47-.74l.58-1.21-1.51-2.83-1,3.42,1,.83a.83.83,0,0,0-.2.53.81.81,0,0,0,.47.73L79,152.83v10.61l3.9-2.14V150Z"/><path class="cls-8" d="M91,143.89a.8.8,0,0,0-.27-1.26l.58-1.21-1.5-2.84-1,3.43,1,.83a.8.8,0,0,0-.2.52.83.83,0,0,0,.47.74l-1.72,3.58V158.3l3.89-2.14V144.89Z"/><path class="cls-8" d="M100.32,138.75a.85.85,0,0,0,.2-.53.84.84,0,0,0-.47-.74l.58-1.2-1.51-2.84-1,3.43,1,.83a.8.8,0,0,0-.2.52.81.81,0,0,0,.47.74l-1.73,3.58v10.62l3.9-2.15V139.75Z"/><path class="cls-8" d="M109.62,133.6a.8.8,0,0,0,.2-.52.81.81,0,0,0-.47-.74l.58-1.2-1.51-2.84-1,3.42,1,.83a.85.85,0,0,0-.2.53.82.82,0,0,0,.47.74l-1.73,3.58V148l3.9-2.14V134.61Z"/><path class="cls-8" d="M118.92,128.46a.8.8,0,0,0,.2-.52.81.81,0,0,0-.47-.74l.58-1.21-1.51-2.83-1,3.42,1,.83a.81.81,0,0,0-.2.53.82.82,0,0,0,.47.73l-1.72,3.59v10.61l3.89-2.14V129.46Z"/><path class="cls-8" d="M128.22,123.32a.8.8,0,0,0,.21-.53.84.84,0,0,0-.47-.74l.58-1.2L127,118l-1,3.43,1,.83a.81.81,0,0,0-.21.52.83.83,0,0,0,.47.74l-1.72,3.58v10.62l3.9-2.14V124.32Z"/><polygon class="cls-1" points="34.74 170.07 20.1 174.94 95.99 216.75 118.17 203.78 115.44 201.48 97.61 211.41 28.41 176.68 39.29 172.59 34.74 170.07"/><polygon class="cls-2" points="20.1 174.94 20.1 187.86 95.99 231.67 95.99 216.75 20.1 174.94"/><polygon class="cls-3" points="118.17 203.78 118.17 218.13 95.99 231.67 95.99 217.73 118.17 203.78"/><polygon class="cls-3" points="39.29 172.59 39.29 182.14 28.41 176.68 39.29 172.59"/><polygon class="cls-1" points="134.04 128.3 184.28 158.3 129.42 201.48 125.52 196.97 175.38 158.3 134.04 133.73 134.04 128.3"/><polygon class="cls-3" points="129.42 201.48 129.42 211.21 184.28 168.49 184.28 158.3 129.42 201.48"/><polygon class="cls-2" points="134.04 133.73 134.04 142.77 168.75 163.44 175.38 158.3 134.04 133.73"/><polygon class="cls-2" points="125.52 196.97 125.52 208.05 129.42 211.21 129.42 201.48 125.52 196.97"/><path class="cls-9" d="M119.55,150.5a4.15,4.15,0,0,0-3.33-2.06c-2.62,0-4.75,3.21-4.75,7.18s2.13,7.17,4.75,7.17l24.07,15.33V163.78S126.14,154.29,119.55,150.5Z"/><ellipse class="cls-10" cx="140.29" cy="170.95" rx="4.75" ry="7.17"/><path class="cls-9" d="M130,140.38a4.09,4.09,0,0,0-3.33-2.06c-2.62,0-4.74,3.21-4.74,7.17s2.12,7.17,4.74,7.17L150.71,168V153.65S136.55,144.17,130,140.38Z"/><ellipse class="cls-10" cx="150.71" cy="160.82" rx="4.75" ry="7.17"/><path class="cls-9" d="M121.1,135.66a4.13,4.13,0,0,0-3.33-2.06c-2.62,0-4.74,3.21-4.74,7.18s2.12,7.17,4.74,7.17l24.08,15.33V148.94S127.69,139.45,121.1,135.66Z"/><ellipse class="cls-10" cx="141.85" cy="156.11" rx="4.75" ry="7.17"/></svg>