<svg id="Layer_1" data-name="Layer 1" xmlns="http://www.w3.org/2000/svg" viewBox="0 0 200.99 418.98"><defs><style>.cls-1{fill:#37b34a;}.cls-1,.cls-2,.cls-3,.cls-4,.cls-6,.cls-7{stroke:#231f20;stroke-linecap:round;stroke-linejoin:round;stroke-width:1.5px;}.cls-2,.cls-5{fill:#d0d2d3;}.cls-3{fill:#a6a8ab;}.cls-4{fill:#808184;}.cls-6{fill:#8bc53f;}.cls-7{fill:#a87c4f;}.cls-8{fill:#231f20;}</style></defs><path class="cls-1" d="M104.9,23.23a10.56,10.56,0,0,0,7.58.4c2.34-.79,3.72-2.31,3.84-3.83s-.88-3-2.43-4.29c-.57-.47-1.25-1-.77-1.55a3.76,3.76,0,0,1,2-.59A15.08,15.08,0,0,0,120,12c1.32-.73,2.12-1.82,1.68-2.82s-2-1.8-3.78-2.26-3.61-.68-5.38-1.08-3.49-1-4.23-2-.11-2.33,1.67-2.7a6.2,6.2,0,0,0-4.6.18,2.2,2.2,0,0,0-1.44,2.55,4.72,4.72,0,0,0,2.45,2.37c.64.34,1.42.75,1.2,1.23a1.54,1.54,0,0,1-.7.53,15.42,15.42,0,0,1-5.59,1.36,20.34,20.34,0,0,0-4,.35c-2.07.56-2.7,2.23-1.47,3.32C96.93,14,99,14.39,101,14.29c1.11-.06,2.4-.52,3.47-.18a3.66,3.66,0,0,1,1.62,1c.53.65,0,1.3-.62,1.87a9.5,9.5,0,0,0-2.09,2.37,2.72,2.72,0,0,0,1,3.49A3.62,3.62,0,0,0,104.9,23.23Z"/><polygon class="cls-2" points="100.5 284.12 200.24 341.7 100.5 399.29 0.75 341.7 100.5 284.12"/><polygon class="cls-3" points="100.5 399.29 100.5 418.23 0.75 360.64 0.75 341.7 100.5 399.29"/><polygon class="cls-4" points="100.5 399.29 100.5 418.23 200.24 360.64 200.24 341.7 100.5 399.29"/><path class="cls-4" d="M38,304.37s2.64-15,62.64-14.64,62.57,13.94,62.57,13.94v14.84l-62.57,13.94L38,318.51Z"/><path class="cls-2" d="M100.61,292.33c32.63,0,59.08,5.31,59.08,11.87h6.85c0-9.54-29.52-17.26-65.93-17.26s-65.94,7.72-65.94,17.26h6.86C41.53,297.64,68,292.33,100.61,292.33Z"/><rect class="cls-5" x="160.36" y="303.08" width="5.14" height="2.47"/><rect class="cls-5" x="35.65" y="303.08" width="5.14" height="2.47"/><path class="cls-3" d="M114,79.58H87l-14.45,252c0,8.25,12.52,14.95,28,14.95s28-6.7,28-14.95Z"/><path class="cls-3" d="M175.68,335.69l-9.14-31.49h-6.85c0,6.55-26.45,11.87-59.08,11.87s-59.08-5.32-59.08-11.87H34.67l-9.14,31.49a5.94,5.94,0,0,0-.88,3c0,11,34,19.89,76,19.89s76-8.9,76-19.89A5.94,5.94,0,0,0,175.68,335.69Z"/><path class="cls-2" d="M100.61,316.07c-32.63,0-59.08-5.32-59.08-11.87H34.67c0,9.53,29.52,17.26,65.94,17.26s65.93-7.73,65.93-17.26h-6.85C159.69,310.75,133.24,316.07,100.61,316.07Z"/><path class="cls-4" d="M131.53,60.79H69.46L86.23,79.58c0,2,6.39,3.67,14.27,3.67s14.26-1.64,14.26-3.67a1.13,1.13,0,0,0-.2-.59Z"/><ellipse class="cls-2" cx="100.5" cy="60.79" rx="31.03" ry="8"/><ellipse class="cls-6" cx="113.97" cy="58.55" rx="9.24" ry="3.21"/><rect class="cls-7" x="112.29" y="37.73" width="3.35" height="21.66"/><polygon class="cls-4" points="76.84 58.55 90.78 55.34 95.23 58.55 80.7 62.26 76.84 58.55"/><polygon class="cls-8" points="90.78 55.34 90.78 59.68 95.23 58.55 90.78 55.34"/><path class="cls-6" d="M109.59,44a6.84,6.84,0,0,0,8.14.77,9.06,9.06,0,0,0,4.12-7.37,13.76,13.76,0,0,0-2.61-8.25c-.61-.9-1.34-2-.82-3a3,3,0,0,1,2.1-1.13,11.33,11.33,0,0,0,5.28-2.66A5.9,5.9,0,0,0,127.61,17a7,7,0,0,0-4-4.34c-1.85-.88-3.88-1.31-5.77-2.08a8,8,0,0,1-4.55-3.9c-.8-1.88-.12-4.47,1.8-5.18a4,4,0,0,0-4.94.34,5.42,5.42,0,0,0-1.54,4.9,8.43,8.43,0,0,0,2.63,4.58c.68.65,1.52,1.44,1.28,2.35a2.15,2.15,0,0,1-.75,1,11,11,0,0,1-6,2.62c-1.44.15-3,0-4.25.67-2.23,1.09-2.9,4.3-1.58,6.4a5.88,5.88,0,0,0,5.5,2.48c1.19-.11,2.57-1,3.72-.34a4.55,4.55,0,0,1,1.74,2c.57,1.26,0,2.51-.66,3.61A18.48,18.48,0,0,0,108,36.62,8,8,0,0,0,109,43.33,6.3,6.3,0,0,0,109.59,44Z"/><polygon class="cls-4" points="146.68 354.54 146.68 332.45 138.72 325 131.6 335.42 131.6 356.88 146.68 354.54"/><polyline class="cls-2" points="148.83 355.32 131.6 349 131.6 356.88 131.6 358.23"/></svg>