<svg id="Layer_1" data-name="Layer 1" xmlns="http://www.w3.org/2000/svg" viewBox="0 0 199.69 181.71"><defs><style>.cls-1{fill:#d0d2d3;}.cls-1,.cls-10,.cls-11,.cls-2,.cls-3,.cls-4,.cls-5,.cls-6,.cls-7,.cls-8,.cls-9{stroke:#231f20;stroke-linecap:round;stroke-linejoin:round;stroke-width:1.5px;}.cls-2{fill:#a6a8ab;}.cls-3{fill:#808184;}.cls-4{fill:#754c28;}.cls-5{fill:#58595b;}.cls-6{fill:#404041;}.cls-7{fill:#a87c4f;}.cls-8{fill:#ec1c24;}.cls-9{fill:#aa1721;}.cls-10{fill:#37b34a;}.cls-11{fill:#8bc53f;}</style></defs><polygon class="cls-1" points="53.91 64.82 59.16 67.88 22.84 85.6 18.46 82.1 53.91 64.82"/><polygon class="cls-1" points="99.85 47.5 199.59 105.09 99.85 162.68 0.1 105.09 99.85 47.5"/><polygon class="cls-2" points="99.85 162.68 99.85 181.61 0.1 124.02 0.1 105.09 99.85 162.68"/><polygon class="cls-3" points="99.85 162.68 99.85 181.61 199.59 124.02 199.59 105.09 99.85 162.68"/><path class="cls-2" d="M117.83,24.19H97.4l-5.34,40c0,3.29,7,5.95,15.55,5.95s15.55-2.66,15.55-5.95Z"/><path class="cls-3" d="M93.56,12.65,97.4,24.19c0,2.15,4.57,3.9,10.21,3.9s10.22-1.75,10.22-3.9l3.84-11.54Z"/><ellipse class="cls-2" cx="107.61" cy="12.65" rx="14.05" ry="5.37"/><polygon class="cls-3" points="95.53 5.53 98.91 4.36 98.91 2.98 104.55 1.59 104.55 3.92 110.53 3.92 110.53 1.33 117.08 2.53 117.08 4.4 120.73 5.24 120.75 9.78 94.92 8.97 94.92 5.94 95.53 5.53"/><ellipse class="cls-1" cx="107.61" cy="11.49" rx="14.97" ry="6.25"/><path class="cls-2" d="M123,5.24h-2.25v6.13l-3.64,2.21V8.15l-6.32,1.42v4.91h-6.22V9.15l-5.67-.62v5.05l-3.64-2.21V5.24h-3v6.89h.06a1.59,1.59,0,0,0-.06.37c0,2.9,6.88,5.25,15.37,5.25S123,15.4,123,12.5a2.35,2.35,0,0,0,0-.37h0Z"/><path class="cls-1" d="M98.91,9.54a36.37,36.37,0,0,0,5.64.84V8.29a33.4,33.4,0,0,1-5.43-.72Z"/><path class="cls-1" d="M110.71,10.37a33.82,33.82,0,0,0,6.38-1v-2a34.84,34.84,0,0,1-6.38.89Z"/><path class="cls-1" d="M120.75,2.53V7.94c1.4-.79,2.23-1.71,2.23-2.7S122.16,3.32,120.75,2.53Z"/><path class="cls-1" d="M110.53.1V2.18a35.82,35.82,0,0,1,6.56.9v-2A34.12,34.12,0,0,0,110.53.1Z"/><path class="cls-1" d="M95.24,5.24V2.16c-1.86.86-3,1.92-3,3.08s1.14,2.21,3,3.08Z"/><path class="cls-1" d="M98.91.94V3a31.88,31.88,0,0,1,5.64-.8V.1A34.11,34.11,0,0,0,98.91.94Z"/><path class="cls-2" d="M52.25,54.1V85.44c0,6.45,12.86,11.68,28.72,11.68s28.73-5.23,28.73-11.68V54.1Z"/><polygon class="cls-3" points="58.38 42.96 64.7 40.77 64.7 38.2 75.24 35.59 75.24 39.94 86.43 39.94 86.43 35.1 98.68 37.34 98.68 40.84 105.48 42.41 105.53 50.9 57.25 49.39 57.25 43.72 58.38 42.96"/><ellipse class="cls-1" cx="80.97" cy="54.1" rx="27.98" ry="11.69"/><path class="cls-2" d="M109.7,42.41h-4.22V53.86L98.68,58V47.85L86.87,50.5v9.18H75.24v-10L64.66,48.56V58l-6.8-4.14V42.41H52.25V55.28h.1a3.47,3.47,0,0,0-.1.71c0,5.41,12.86,9.79,28.72,9.79S109.7,61.4,109.7,56a4.33,4.33,0,0,0-.1-.71h.1Z"/><path class="cls-1" d="M64.7,50.44A66.09,66.09,0,0,0,75.24,52V48.1A60.76,60.76,0,0,1,65.1,46.77Z"/><path class="cls-1" d="M86.77,52a63.57,63.57,0,0,0,11.91-1.91V46.42A65,65,0,0,1,86.77,48.1Z"/><path class="cls-1" d="M105.53,37.34V47.45c2.61-1.47,4.17-3.19,4.17-5S108.16,38.82,105.53,37.34Z"/><path class="cls-1" d="M86.43,32.81v3.88a67.62,67.62,0,0,1,12.25,1.69V34.7A64.81,64.81,0,0,0,86.43,32.81Z"/><path class="cls-1" d="M57.86,42.41V36.65c-3.48,1.62-5.61,3.6-5.61,5.76s2.13,4.14,5.61,5.76Z"/><path class="cls-1" d="M64.7,34.37V38.2a59,59,0,0,1,10.54-1.48V32.81A66.15,66.15,0,0,0,64.7,34.37Z"/><polyline class="cls-1" points="26.03 84.05 22.84 85.6 24.59 102.67 61.57 123 90.24 113.4 113.9 119.25 109.7 125.21 90.02 117.33 61.35 128.04 21.09 105.09 18.46 82.1 22.25 80.26"/><polygon class="cls-1" points="120.38 128.04 123.16 121.21 159.6 108.31 154.84 88.45 157.63 72.04 121.82 54.09 120.93 47.45 163.71 68.92 159.6 88.45 165.02 110.47 128.42 125.37 125.8 130.63 120.38 128.04"/><polygon class="cls-2" points="21.09 105.09 21.09 117.21 60.35 139.87 61.35 128.04 21.09 105.09"/><polygon class="cls-2" points="90.02 117.33 90.02 128.04 109.7 137.03 109.7 125.21 90.02 117.33"/><polygon class="cls-2" points="120.38 128.04 120.38 140.8 125.63 143.35 125.8 130.63 120.38 128.04"/><polygon class="cls-2" points="155.51 84.51 123.16 64.15 121.82 54.09 157.63 72.04 155.51 84.51"/><polygon class="cls-3" points="163.71 68.92 163.71 89.04 161.84 97.55 159.6 88.45 163.71 68.92"/><polygon class="cls-3" points="165.02 110.47 165.02 119.25 130.39 135.69 128.42 125.37 165.02 110.47"/><polygon class="cls-3" points="130.39 135.69 125.63 143.35 125.8 130.63 128.42 125.37 130.39 135.69"/><polygon class="cls-3" points="23.92 96.11 52.25 81.88 52.25 71.25 22.84 85.6 23.92 96.11"/><polygon class="cls-3" points="60.35 139.87 90.02 128.04 90.02 117.33 61.35 128.04 60.35 139.87"/><polygon class="cls-2" points="18.46 82.1 18.46 97.55 21.09 117.21 21.09 105.09 18.46 82.1"/><polygon class="cls-3" points="113.9 119.25 113.9 130.63 109.7 137.03 109.7 125.21 113.9 119.25"/><ellipse class="cls-4" cx="122.24" cy="70.86" rx="3.77" ry="5.5"/><polygon class="cls-5" points="115.4 65.96 130.45 63.74 135.48 68.27 129.02 73.26 115.4 71.29 115.4 65.96"/><ellipse class="cls-6" cx="115.4" cy="68.63" rx="1.26" ry="2.67"/><ellipse class="cls-7" cx="129.21" cy="73.26" rx="3.77" ry="5.5"/><ellipse class="cls-4" cx="133.73" cy="81.14" rx="3.77" ry="5.5"/><polygon class="cls-5" points="126.89 76.24 141.93 74.02 146.97 78.55 140.51 83.54 126.89 81.57 126.89 76.24"/><ellipse class="cls-6" cx="126.89" cy="78.91" rx="1.26" ry="2.67"/><ellipse class="cls-7" cx="140.7" cy="83.54" rx="3.77" ry="5.5"/><ellipse class="cls-4" cx="138.49" cy="93.17" rx="3.77" ry="5.5"/><polygon class="cls-5" points="131.65 88.28 146.69 86.06 151.73 90.59 145.27 95.58 131.65 93.61 131.65 88.28"/><ellipse class="cls-6" cx="131.65" cy="90.94" rx="1.26" ry="2.67"/><ellipse class="cls-7" cx="145.46" cy="95.58" rx="3.77" ry="5.5"/><ellipse class="cls-2" cx="65.91" cy="115.86" rx="5.56" ry="2.69"/><ellipse class="cls-2" cx="65.91" cy="113.17" rx="5.56" ry="2.69"/><rect class="cls-2" x="64.7" y="59.89" width="2.58" height="53.5"/><rect class="cls-8" x="73.4" y="64.09" width="14.48" height="16.17"/><rect class="cls-8" x="64.7" y="59.89" width="14.48" height="16.17"/><polygon class="cls-9" points="79.19 76.06 73.4 80.26 73.4 76.06 79.19 76.06"/><path class="cls-10" d="M37.54,49.91l-8.83,44c0,2.32,3.95,4.2,8.83,4.2s8.84-1.88,8.84-4.2Z"/><path class="cls-11" d="M44.57,67.56l-7,35c0,1.85,3.15,3.34,7,3.34s7-1.49,7-3.34Z"/></svg>