<svg id="Layer_1" data-name="Layer 1" xmlns="http://www.w3.org/2000/svg" viewBox="0 0 200.99 275.34"><defs><style>.cls-1,.cls-8{fill:#d0d2d3;}.cls-1,.cls-2,.cls-3,.cls-4,.cls-5,.cls-6,.cls-7{stroke:#231f20;stroke-linecap:round;stroke-linejoin:round;stroke-width:1.5px;}.cls-2{fill:#a6a8ab;}.cls-3{fill:#808184;}.cls-4{fill:#edc914;}.cls-5{fill:#bc9c13;}.cls-6{fill:#fcee21;}.cls-7{fill:#f7931e;}</style></defs><polygon class="cls-1" points="100.5 140.48 200.24 198.07 100.5 255.66 0.75 198.07 100.5 140.48"/><polygon class="cls-2" points="100.5 255.66 100.5 274.59 0.75 217.01 0.75 198.07 100.5 255.66"/><polygon class="cls-3" points="100.5 255.66 100.5 274.59 200.24 217.01 200.24 198.07 100.5 255.66"/><polygon class="cls-2" points="101.25 112.71 101.25 153.45 131.21 172.35 167.88 151.18 101.25 112.71"/><polygon class="cls-3" points="101.25 112.71 101.25 153.45 71.28 172.35 34.61 151.18 101.25 112.71"/><polygon class="cls-2" points="101.25 201.34 101.25 242.69 14.83 192.79 14.83 151.44 101.25 201.34"/><polygon class="cls-3" points="101.25 201.34 101.25 242.69 187.66 192.79 187.66 151.44 101.25 201.34"/><polygon class="cls-1" points="35.07 151.44 34.61 151.18 101.25 112.71 167.88 151.18 167.43 151.44 187.21 151.44 187.66 151.18 101.25 101.29 14.83 151.18 15.29 151.44 35.07 151.44"/><polygon class="cls-1" points="100.5 73.02 115.27 81.55 100.5 90.08 85.72 81.55 100.5 73.02"/><polygon class="cls-2" points="100.5 90.08 100.5 192.53 79 180.12 85.72 81.55 100.5 90.08"/><polygon class="cls-3" points="100.5 90.08 100.5 192.53 121.93 178.05 115.27 81.55 100.5 90.08"/><polygon class="cls-1" points="167.43 151.18 167.88 151.44 101.25 189.91 34.61 151.44 35.07 151.18 15.29 151.18 14.83 151.44 101.25 201.34 187.66 151.44 187.21 151.18 167.43 151.18"/><path class="cls-4" d="M100.5,81.55a17.27,17.27,0,0,0,17.27-17.27c0-3-7.73-5.35-17.27-5.35s-17.28,2.39-17.28,5.35A17.28,17.28,0,0,0,100.5,81.55Z"/><ellipse class="cls-5" cx="100.5" cy="65.1" rx="17.27" ry="6.17"/><path class="cls-6" d="M89.54,74.41a28.17,28.17,0,0,0,12.51.69,16.47,16.47,0,0,0,10.34-6.18c2.65-3.75,2.91-8.53,2.25-13s-2.15-8.73-2.71-13.17a14.81,14.81,0,0,0-.83-4.07c-.86-2-2.7-3.38-4.27-4.94A23.32,23.32,0,0,1,100.9,24c-.81-2.65-1-5.76.9-7.89,2.84-3.19,9.29-3,10.75-6.89.69-1.84-.18-3.93-1.62-5.34A18,18,0,0,0,105.64.75c1.32,2.07,0,4.8-2,6.36s-4.5,2.41-6.62,3.81c-5,3.32-7.11,9.93-4.8,15.2,1,2.32,2.77,4.38,3.3,6.83A5.69,5.69,0,0,1,93,39.19c-2.22,1.2-5.68.19-6.21-2.13a5.35,5.35,0,0,0,1.5,7c1.85,1.33,4.64,1.73,5.55,4,.73,1.81.33,4.41-.34,6.21a34.15,34.15,0,0,1-2.16,4,19.58,19.58,0,0,0-2,6.51A29.56,29.56,0,0,0,89.54,74.41Z"/><path class="cls-7" d="M96.18,62.08a4,4,0,0,0-1.69,5.5,6.17,6.17,0,0,0,5.79,2.73,9.17,9.17,0,0,0,5.89-3c3.27-3.52,3.74-8.64,2.69-13.17s-3.42-8.68-5.34-13-3.4-8.94-2.56-13.5a114.5,114.5,0,0,0-2.09,17.39,6.81,6.81,0,0,0-5.82-4.4,26.78,26.78,0,0,1,4.6,16.53C98.32,58.17,96.78,61.09,96.18,62.08Z"/><path class="cls-4" d="M100.5,71.28c-9.11,0-16.55-2.52-17.21-5.72a17.26,17.26,0,0,0,34.42,0C117,68.76,109.6,71.28,100.5,71.28Z"/><polygon class="cls-3" points="155.8 210.99 155.8 188.9 147.84 181.45 140.71 191.87 141.1 219.67 155.8 210.99"/><polyline class="cls-1" points="157.09 211.46 140.71 205.45 141 212.42 141.1 220.66"/><polygon class="cls-3" points="46.12 210.99 46.12 188.9 54.09 181.45 61.2 191.87 60.82 219.67 46.12 210.99"/><polyline class="cls-1" points="44.83 211.46 61.2 205.45 60.92 212.42 60.82 220.66"/><polygon class="cls-8" points="168.23 149.99 168.23 153.11 182.32 152.81 183.7 152.81 186.62 151.18 182.81 149.3 168.23 149.99"/><polygon class="cls-8" points="34.12 152.41 34.12 149.3 20.02 149.6 18.64 149.6 15.72 151.22 19.53 153.11 34.12 152.41"/></svg>