<svg id="Layer_1" data-name="Layer 1" xmlns="http://www.w3.org/2000/svg" viewBox="0 0 199.69 179.67"><defs><style>.cls-1{fill:#d0d2d3;}.cls-1,.cls-11,.cls-12,.cls-13,.cls-2,.cls-3,.cls-4,.cls-5,.cls-6,.cls-7,.cls-8,.cls-9{stroke:#231f20;stroke-linecap:round;stroke-linejoin:round;stroke-width:1.5px;}.cls-2{fill:#a6a8ab;}.cls-3{fill:#808184;}.cls-4{fill:#8bc53f;}.cls-5{fill:#c3996b;}.cls-6{fill:#006838;}.cls-7{fill:#f6921e;}.cls-8{fill:#faaf40;}.cls-9{fill:#f05a28;}.cls-10{fill:#231f20;}.cls-11{fill:#fff;}.cls-12{fill:#37b34a;}.cls-13{fill:#1b75bb;}</style></defs><polygon class="cls-1" points="99.85 45.46 199.59 103.05 99.85 160.63 0.1 103.05 99.85 45.46"/><polygon class="cls-2" points="99.85 160.63 99.85 179.57 0.1 121.98 0.1 103.05 99.85 160.63"/><polygon class="cls-3" points="99.85 160.63 99.85 179.57 199.59 121.98 199.59 103.05 99.85 160.63"/><ellipse class="cls-4" cx="104.29" cy="57.15" rx="10.83" ry="3.81"/><rect class="cls-5" x="102.57" y="36.3" width="2.66" height="20.85"/><path class="cls-6" d="M112.31,26.16c.09,0-8-5.47-8-5.47l4-6.45L103.89,8.7,107,.1,98.44,7.91l3,6.33L95.49,21.7l3.07,5.79L97,34.68a7.84,7.84,0,0,0-.7,3.21,8,8,0,0,0,16,0S112.21,26.19,112.31,26.16Z"/><polygon class="cls-7" points="54.57 66.94 32.9 59.39 32.9 84.11 54.57 104.58 54.57 66.94"/><path class="cls-7" d="M78.08,33.46l-26.8-6S43,33.35,45.81,48l22.37,9.74Z"/><polygon class="cls-8" points="45.81 48.01 32.9 59.39 54.57 66.94 68.18 57.75 45.81 48.01"/><polygon class="cls-8" points="103.58 42.87 81.26 38.16 93.93 48.34 103.58 42.87"/><path class="cls-9" d="M54.57,104.58V66.94l13.61-9.19s-3.46-18.82,9.9-24.29c0,0,15.35-1.09,15.85,14.88l9.65-5.47V76.13Z"/><polygon class="cls-10" points="77.62 90.49 77.62 76.27 81.67 73.48 81.67 88.14 77.62 90.49"/><polygon class="cls-10" points="60.49 80.58 60.49 71.62 63.05 69.86 63.05 79.1 60.49 80.58"/><polygon class="cls-10" points="69.14 76.45 69.14 67.49 71.69 65.73 71.69 74.97 69.14 76.45"/><polygon class="cls-10" points="60.49 94.7 60.49 85.73 63.05 83.97 63.05 93.22 60.49 94.7"/><polygon class="cls-10" points="69.14 90.57 69.14 81.61 71.69 79.85 71.69 89.09 69.14 90.57"/><polygon class="cls-10" points="49.22 80.58 49.22 71.62 46.67 69.86 46.67 79.1 49.22 80.58"/><polygon class="cls-10" points="40.58 76.45 40.58 67.49 38.03 65.73 38.03 74.97 40.58 76.45"/><polygon class="cls-10" points="49.22 92.63 49.22 83.67 46.67 81.91 46.67 91.15 49.22 92.63"/><polygon class="cls-10" points="40.58 88.5 40.58 79.54 38.03 77.78 38.03 87.02 40.58 88.5"/><polygon class="cls-10" points="77.78 72.33 77.78 63.36 80.33 61.6 80.33 70.85 77.78 72.33"/><polygon class="cls-10" points="86.42 68.2 86.42 59.24 88.97 57.48 88.97 66.72 86.42 68.2"/><polygon class="cls-10" points="86.42 80.58 86.42 71.62 88.97 69.86 88.97 79.1 86.42 80.58"/><polygon class="cls-10" points="95.07 64.07 95.07 55.11 97.62 53.35 97.62 62.59 95.07 64.07"/><polygon class="cls-10" points="95.07 77.44 95.07 68.47 97.62 66.72 97.62 75.96 95.07 77.44"/><ellipse class="cls-11" cx="80.88" cy="50.58" rx="3.61" ry="6.89"/><ellipse class="cls-10" cx="80.88" cy="50.58" rx="1.23" ry="4.27"/><path class="cls-11" d="M77.26,30.72,50,24.16s-4.41,1.3-3.72,5.26l28.88,5.73Z"/><path class="cls-11" d="M52.81,64v7l20-12.47s-3.91-17.93,5.24-20.46c0,0,8.65-5.14,14.34,13.57l14.06-8.48-2.13-5.74-8.7,5.74S90.73,27.77,75.79,29.57c0,0-14.93,14-10.17,26.1Z"/><polygon class="cls-1" points="47.52 111.42 63.18 101.73 113.15 133.24 95.43 145.54 47.52 111.42"/><polygon class="cls-3" points="95.43 145.54 95.43 151.32 113.15 139.02 113.15 133.24 95.43 145.54"/><polygon class="cls-2" points="95.43 151.32 47.52 118.69 47.52 111.42 95.43 145.54 95.43 151.32"/><path class="cls-4" d="M54.11,111.42l9.44-5.59,43.88,27.41s-10.94,8.26-12,8.26S54.11,111.42,54.11,111.42Z"/><polygon class="cls-4" points="59.35 98.18 97.58 127.08 103.08 122.8 64.86 96.51 59.35 98.18"/><polygon class="cls-12" points="59.35 98.18 59.35 111.42 95.9 137.52 97.58 127.08 59.35 98.18"/><polygon class="cls-6" points="95.9 137.52 102.21 133.24 103.08 122.8 97.58 127.08 95.9 137.52"/><polygon class="cls-1" points="114.47 70.65 130.13 60.96 180.1 92.47 162.38 104.77 114.47 70.65"/><polygon class="cls-3" points="162.38 104.77 162.38 110.55 180.1 98.25 180.1 92.47 162.38 104.77"/><polygon class="cls-2" points="162.38 110.55 114.47 77.92 114.47 70.65 162.38 104.77 162.38 110.55"/><path class="cls-4" d="M121.06,70.65l9.44-5.59,43.88,27.41s-10.94,8.26-12,8.26S121.06,70.65,121.06,70.65Z"/><polygon class="cls-4" points="126.3 57.41 164.53 86.31 170.03 82.03 131.81 55.74 126.3 57.41"/><polygon class="cls-12" points="126.3 57.41 126.3 70.65 162.85 96.75 164.53 86.31 126.3 57.41"/><polygon class="cls-6" points="162.85 96.75 169.16 92.47 170.03 82.03 164.53 86.31 162.85 96.75"/><path class="cls-1" d="M98.17,99.34v9.52c0,3.48,7.3,6.29,16.3,6.29s16.3-2.81,16.3-6.29V99.34Z"/><ellipse class="cls-2" cx="114.47" cy="99.63" rx="16.3" ry="6.29"/><ellipse class="cls-13" cx="114.47" cy="99.63" rx="13.32" ry="4.5"/><path class="cls-1" d="M103.09,90.5v6.64c0,2.43,5.09,4.39,11.38,4.39s11.38-2,11.38-4.39V90.5Z"/><ellipse class="cls-2" cx="114.47" cy="90.7" rx="11.38" ry="4.39"/><ellipse class="cls-13" cx="114.47" cy="90.7" rx="9.29" ry="3.14"/><ellipse class="cls-4" cx="25.74" cy="103.44" rx="10.83" ry="3.81"/><rect class="cls-5" x="24.01" y="82.59" width="2.66" height="20.85"/><path class="cls-12" d="M33.75,72.45c.1,0-8-5.48-8-5.48l4-6.44L25.33,55l3.08-8.6L19.89,54.2l3,6.33L16.93,68,20,73.78,18.45,81a8,8,0,1,0,15.3,3.21S33.65,72.48,33.75,72.45Z"/></svg>