<svg id="Layer_1" data-name="Layer 1" xmlns="http://www.w3.org/2000/svg" viewBox="0 0 199.69 194.17"><defs><style>.cls-1{fill:#d0d2d3;}.cls-1,.cls-2,.cls-3,.cls-4,.cls-5,.cls-6,.cls-7{stroke:#231f20;stroke-linecap:round;stroke-linejoin:round;stroke-width:1.5px;}.cls-2{fill:#a6a8ab;}.cls-3{fill:#808184;}.cls-4{fill:#99141e;}.cls-5{fill:#ec1c24;}.cls-6{fill:#37b34a;}.cls-7{fill:#8bc53f;}</style></defs><polygon class="cls-1" points="99.85 59.96 199.59 117.55 99.85 175.14 0.1 117.55 99.85 59.96"/><polygon class="cls-2" points="99.85 175.14 99.85 194.07 0.1 136.49 0.1 117.55 99.85 175.14"/><polygon class="cls-3" points="99.85 175.14 99.85 194.07 199.59 136.49 199.59 117.55 99.85 175.14"/><polygon class="cls-1" points="11.12 92 39.79 108.64 120.1 59.96 86.62 42.33 11.12 92"/><polygon class="cls-1" points="53.57 37.59 86.07 56.4 114.3 37.59 83.94 20.98 53.57 37.59"/><polygon class="cls-2" points="11.12 92 11.12 116.08 38.91 133.14 39.79 108.64 11.12 92"/><polygon class="cls-2" points="53.57 37.59 53.57 63.32 83.94 81.88 86.07 56.4 53.57 37.59"/><polygon class="cls-3" points="114.3 37.59 109.43 66.43 120.1 59.96 120.1 71.65 38.91 133.14 39.79 108.64 83.94 81.88 86.07 56.4 114.3 37.59"/><polygon class="cls-4" points="86.07 56.4 96.57 6.67 114.3 37.59 86.07 56.4"/><polygon class="cls-4" points="39.79 108.64 28.96 72.34 66.15 55.8 83.94 81.88 39.79 108.64"/><polygon class="cls-5" points="28.96 72.34 11.12 92 39.79 108.64 28.96 72.34"/><polygon class="cls-5" points="53.57 37.59 70.97 0.1 96.57 6.67 86.07 56.4 53.57 37.59"/><polygon class="cls-4" points="120.1 59.96 117.58 40.8 113.5 42.33 109.43 66.43 120.1 59.96"/><polygon class="cls-1" points="127.05 53.2 161.84 73.67 193.97 53.92 158.56 36.5 127.05 53.2"/><polygon class="cls-1" points="199.59 92.27 99.85 148.02 69.45 132.97 172.46 73.67 199.59 92.27"/><path class="cls-6" d="M75.07,78.33l-8,39.81c0,2.09,3.58,3.79,8,3.79s8-1.7,8-3.79Z"/><polygon class="cls-3" points="193.97 53.92 193.97 75.19 161.74 92.27 161.84 73.67 193.97 53.92"/><path class="cls-7" d="M64,67.11,53,121.85c0,2.88,4.92,5.21,11,5.21s11-2.33,11-5.21Z"/><polygon class="cls-2" points="127.05 53.2 127.05 75.19 161.74 92.27 161.84 73.67 127.05 53.2"/><polygon class="cls-2" points="134.25 78.74 134.25 96.69 161.84 111.96 161.74 92.27 134.25 78.74"/><polygon class="cls-3" points="185.76 99.59 186.9 78.74 161.74 92.27 161.84 111.96 99.85 148.02 99.85 175.14 199.59 117.05 199.59 92.27 185.76 99.59"/><polygon class="cls-2" points="69.45 132.97 69.45 157.27 99.85 175.14 99.85 148.02 69.45 132.97"/><polygon class="cls-4" points="161.84 73.67 169.99 23.19 174.36 20.98 176.99 6.67 180.71 20.68 185.74 23.19 193.97 53.92 161.84 73.67"/><polygon class="cls-5" points="169.99 23.19 145.92 18.96 127.05 53.2 161.84 73.67 169.99 23.19"/><polygon class="cls-5" points="174.36 20.98 152.26 15.56 145.92 18.96 169.99 23.19 174.36 20.98"/><path class="cls-5" d="M177,6.66,157.51,4s-6.12,12.54-5.25,11.52S174.36,21,174.36,21Z"/><polygon class="cls-5" points="69.45 132.97 88.15 104.92 99.85 148.02 69.45 132.97"/><polygon class="cls-4" points="88.15 104.92 141.76 85.37 161.84 111.96 99.85 148.02 88.15 104.92"/><polygon class="cls-4" points="199.59 92.27 196.03 72.34 193.97 73.09 193.97 75.19 186.9 78.74 185.76 99.59 199.59 92.27"/></svg>