<svg id="Layer_1" data-name="Layer 1" xmlns="http://www.w3.org/2000/svg" xmlns:xlink="http://www.w3.org/1999/xlink" viewBox="0 0 199.69 209.26"><defs><style>.cls-1{fill:none;}.cls-2{fill:url(#linear-gradient);}.cls-3{fill:#d0d2d3;}.cls-10,.cls-11,.cls-12,.cls-13,.cls-3,.cls-4,.cls-5,.cls-6,.cls-7,.cls-8,.cls-9{stroke:#231f20;stroke-linecap:round;stroke-linejoin:round;stroke-width:1.5px;}.cls-4{fill:#a6a8ab;}.cls-5{fill:#808184;}.cls-6{fill:#ec1c24;}.cls-7{fill:#99141e;}.cls-8{fill:url(#New_Pattern_Swatch_4);}.cls-9{fill:url(#New_Pattern_Swatch_4-5);}.cls-10{fill:#006838;}.cls-11{fill:#009345;}.cls-12{fill:#37b34a;}.cls-13{fill:#8bc53f;}</style><linearGradient id="linear-gradient" x1="83.89" y1="-15633.05" x2="109.88" y2="-15633.05" gradientTransform="matrix(1, 0, 0, -1, -83.89, -15620.05)" gradientUnits="userSpaceOnUse"><stop offset="0" stop-color="#a6a8ab"/><stop offset="1" stop-color="#808184"/></linearGradient><pattern id="New_Pattern_Swatch_4" data-name="New Pattern Swatch 4" width="25.98" height="25.98" patternTransform="translate(-46.53 86.54) scale(6.64)" patternUnits="userSpaceOnUse" viewBox="0 0 25.98 25.98"><rect class="cls-1" width="25.98" height="25.98"/><rect class="cls-2" width="25.98" height="25.98"/></pattern><pattern id="New_Pattern_Swatch_4-5" data-name="New Pattern Swatch 4" width="25.98" height="25.98" patternTransform="translate(-839.36 -589.53) scale(11.37)" patternUnits="userSpaceOnUse" viewBox="0 0 25.98 25.98"><rect class="cls-1" width="25.98" height="25.98"/><rect class="cls-2" width="25.98" height="25.98"/></pattern></defs><polygon class="cls-3" points="99.85 75.05 199.59 132.63 99.85 190.22 0.1 132.63 99.85 75.05"/><polygon class="cls-4" points="99.85 190.22 99.85 209.16 0.1 151.57 0.1 132.63 99.85 190.22"/><polygon class="cls-5" points="99.85 190.22 99.85 209.16 199.59 151.57 199.59 132.63 99.85 190.22"/><polygon class="cls-5" points="149.72 161.43 199.59 132.63 196.48 109.22 153.16 138.54 149.72 161.43"/><polygon class="cls-4" points="52.61 97.52 52.61 124.1 106.74 157.58 106.74 132.31 52.61 97.52"/><polygon class="cls-3" points="79.19 72.02 146.59 111.41 124.71 123.67 153.16 138.54 196.48 109.22 110.7 63.71 79.19 72.02"/><polygon class="cls-4" points="116.94 72.02 116.94 94.08 79.19 72.02 79.19 96.53 124.71 126.07 124.71 123.66 146.59 111.41 146.59 89.31 116.94 72.02"/><polygon class="cls-5" points="172.09 75.05 172.09 96.73 146.59 111.41 146.59 89.31 172.09 75.05"/><polygon class="cls-5" points="130.4 113.38 130.4 144.51 106.74 157.58 106.74 130.67 130.4 113.38"/><path class="cls-3" d="M106.74,132.31c0-2.63,23.66-18.93,23.66-18.93S79.85,80.45,78.87,80.45,52.61,97.52,52.61,97.52Z"/><polygon class="cls-6" points="146.59 89.31 141.89 44.67 116.94 72.02 146.59 89.31"/><polygon class="cls-7" points="141.89 44.67 165.85 38.1 172.09 75.05 146.59 89.31 141.89 44.67"/><polygon class="cls-4" points="124.71 123.67 124.71 150.8 149.72 161.43 153.16 138.54 124.71 123.67"/><polyline class="cls-3" points="133.41 118.79 124.71 123.67 137.47 130.34"/><path class="cls-8" d="M92.43,28.1V72.56c0,2,4.48,3.55,10,3.55s10-1.59,10-3.55V28.1Z"/><path class="cls-8" d="M90,22l2.4,6.13c0,1.95,4.48,3.54,10,3.54s10-1.59,10-3.54L114.87,22Z"/><path class="cls-6" d="M113.91,20.28,102.45.1,91,20.28A2.28,2.28,0,0,0,90,22c0,2.42,5.56,4.39,12.42,4.39s12.42-2,12.42-4.39A2.3,2.3,0,0,0,113.91,20.28Z"/><polygon class="cls-7" points="89.6 121.3 99.85 78.15 115.3 103.57 89.6 121.3"/><polygon class="cls-6" points="99.85 78.15 67.38 63.71 52.61 97.52 89.6 121.3 99.85 78.15"/><polygon class="cls-4" points="112.89 157.13 112.89 176.65 95.99 166.89 95.99 147.38 112.89 157.13"/><polygon class="cls-5" points="112.89 157.13 112.89 176.65 129.79 166.89 129.79 147.38 112.89 157.13"/><polygon class="cls-7" points="112.89 157.13 119.55 131.85 129.79 147.38 112.89 157.13"/><polygon class="cls-6" points="119.55 131.85 104.44 126.07 95.99 147.38 112.89 157.13 119.55 131.85"/><path class="cls-9" d="M23.83,59v76.18c0,3.35,7.69,6.07,17.17,6.07s17.18-2.72,17.18-6.07V59Z"/><path class="cls-9" d="M19.73,48.47,23.83,59C23.83,62.32,31.52,65,41,65S58.18,62.32,58.18,59l4.09-10.49Z"/><path class="cls-6" d="M60.63,45.57,41,11,21.38,45.57a3.9,3.9,0,0,0-1.65,2.9C19.73,52.62,29.25,56,41,56s21.27-3.37,21.27-7.52A3.92,3.92,0,0,0,60.63,45.57Z"/><polygon class="cls-4" points="69.38 144.32 69.38 163.83 52.48 154.07 52.48 134.56 69.38 144.32"/><polygon class="cls-5" points="69.38 144.32 69.38 163.83 86.28 154.07 86.28 134.56 69.38 144.32"/><polygon class="cls-7" points="69.38 144.32 76.03 119.03 86.28 134.56 69.38 144.32"/><polygon class="cls-6" points="76.03 119.03 60.93 113.26 52.48 134.56 69.38 144.32 76.03 119.03"/><path class="cls-10" d="M179.31,78.15l-6.46,32.17c0,1.69,2.89,3.06,6.46,3.06s6.45-1.37,6.45-3.06Z"/><path class="cls-11" d="M170.55,83.51l-6.45,32.17c0,1.69,2.89,3.06,6.45,3.06s6.46-1.37,6.46-3.06Z"/><path class="cls-12" d="M161.8,88.87,155.34,121c0,1.69,2.89,3.06,6.46,3.06s6.46-1.37,6.46-3.06Z"/><path class="cls-13" d="M153.05,94.23l-6.46,32.17c0,1.69,2.89,3.06,6.46,3.06s6.45-1.37,6.45-3.06Z"/></svg>