<svg id="Layer_1" data-name="Layer 1" xmlns="http://www.w3.org/2000/svg" viewBox="0 0 199.69 201.83"><defs><style>.cls-1{fill:#d0d2d3;}.cls-1,.cls-10,.cls-11,.cls-2,.cls-3,.cls-4,.cls-5,.cls-6,.cls-8,.cls-9{stroke:#231f20;stroke-linecap:round;stroke-linejoin:round;stroke-width:1.5px;}.cls-2{fill:#a6a8ab;}.cls-3{fill:#808184;}.cls-4{fill:#404041;}.cls-5{fill:#edc914;}.cls-6{fill:#6d6e70;}.cls-7{fill:#231f20;}.cls-8{fill:#8bc53f;}.cls-9{fill:#a87c4f;}.cls-10{fill:#37b34a;}.cls-11{fill:#d6de23;}</style></defs><polygon class="cls-1" points="99.85 67.62 199.59 125.21 99.85 182.8 0.1 125.21 99.85 67.62"/><polygon class="cls-2" points="99.85 182.8 99.85 201.73 0.1 144.14 0.1 125.21 99.85 182.8"/><polygon class="cls-3" points="99.85 182.8 99.85 201.73 199.59 144.14 199.59 125.21 99.85 182.8"/><path class="cls-4" d="M147.09,37.74h-14l-6.57,67.18c0,2.9,6.08,5.25,13.57,5.25s13.57-2.35,13.57-5.25Z"/><path class="cls-4" d="M130.74,27.1l2.35,10.64c0,1.49,3.13,2.71,7,2.71s7-1.22,7-2.71l2.36-10.64Z"/><path class="cls-5" d="M149.14,26.23,140.09.1,131,26.23a1.6,1.6,0,0,0-.3.87c0,2,4.18,3.62,9.35,3.62s9.36-1.62,9.36-3.62A1.62,1.62,0,0,0,149.14,26.23Z"/><path class="cls-4" d="M53.74,74.5v50.71c0,6,20.64,10.83,46.11,10.83s46.1-4.85,46.1-10.83V72.92Z"/><ellipse class="cls-6" cx="100.3" cy="74.5" rx="46.56" ry="10.83"/><path class="cls-5" d="M99.85,49a24,24,0,0,0-24,24c0,4.1,10.76,7.44,24,7.44s24-3.34,24-7.44A24,24,0,0,0,99.85,49Z"/><path class="cls-7" d="M94,136V118.48s1.48-4.59,5.09-6.73a13.31,13.31,0,0,1,4.27,6.73V136Z"/><polygon class="cls-4" points="37.44 137.3 37.44 111.04 59.98 121.55 59.98 150.43 37.44 137.3"/><path class="cls-6" d="M37.44,111l16.3-10.89s1.86,13.74,24.62,10L60,121.55Z"/><polygon class="cls-4" points="59.98 150.43 78.36 134.68 78.36 110.17 59.98 121.55 59.98 150.43"/><polygon class="cls-4" points="162.63 137.3 162.63 111.04 140.09 121.55 140.09 150.43 162.63 137.3"/><path class="cls-6" d="M162.63,111l-16.3-10.89s-1.86,13.74-24.62,10l18.38,11.38Z"/><polygon class="cls-4" points="140.09 150.43 121.71 134.68 121.71 110.17 140.09 121.55 140.09 150.43"/><ellipse class="cls-8" cx="100.3" cy="168.48" rx="9.63" ry="5.2"/><rect class="cls-9" x="98.63" y="146.82" width="3.35" height="21.66"/><circle class="cls-10" cx="100.3" cy="143.92" r="8.81"/><circle class="cls-8" cx="100.3" cy="134.02" r="6.73"/><ellipse class="cls-8" cx="181.71" cy="125.1" rx="9.63" ry="5.2"/><rect class="cls-9" x="180.03" y="103.44" width="3.35" height="21.66"/><circle class="cls-10" cx="181.71" cy="100.54" r="8.81"/><circle class="cls-8" cx="175.77" cy="95.16" r="8.18"/><circle class="cls-11" cx="181.43" cy="88.92" r="6.23"/><ellipse class="cls-8" cx="19.12" cy="123.35" rx="9.63" ry="5.2"/><rect class="cls-9" x="17.44" y="101.69" width="3.35" height="21.66"/><circle class="cls-10" cx="19.12" cy="98.79" r="8.81"/><circle class="cls-8" cx="10.72" cy="95.62" r="6.73"/></svg>