<?xml version="1.0" encoding="UTF-8" standalone="no"?>
<!DOCTYPE svg PUBLIC "-//W3C//DTD SVG 1.1//EN" "http://www.w3.org/Graphics/SVG/1.1/DTD/svg11.dtd">
<svg width="100%" height="100%" viewBox="0 0 742 161" version="1.1" xmlns="http://www.w3.org/2000/svg" xmlns:xlink="http://www.w3.org/1999/xlink" xml:space="preserve" xmlns:serif="http://www.serif.com/" style="fill-rule:evenodd;clip-rule:evenodd;stroke-linejoin:round;stroke-miterlimit:2;">
    <g id="GitLab" transform="matrix(1,0,0,0.823323,-133.256,-83.6228)">
        <rect x="133.256" y="101.567" width="741.347" height="194.699" style="fill:none;"/>
        <clipPath id="_clip1">
            <rect x="133.256" y="101.567" width="741.347" height="194.699"/>
        </clipPath>
        <g clip-path="url(#_clip1)">
            <g id="LOGO" transform="matrix(1.06863,0,0,1.29802,-25.802,-47.6998)">
                <path d="M428.92,171.51L451.7,171.51C447.9,147.29 426.93,130.42 399.64,130.42C367.35,130.42 343.12,154.16 343.12,193.92C343.12,232.97 366.26,257.19 400.3,257.19C430.85,257.19 452.72,237.54 452.72,205.73L452.72,190.91L402.65,190.91L402.65,208.38L431.09,208.38C430.73,225.98 418.98,237.12 400.42,237.12C379.76,237.12 365.6,221.64 365.6,193.68C365.6,165.9 380,150.48 399.94,150.48C414.82,150.48 425,158.43 428.92,171.51Z" style="fill:rgb(23,19,33);fill-rule:nonzero;"/>
                <path d="M467.78,255.5L489.59,255.5L489.59,163L467.78,163L467.78,255.5ZM478.78,148.3C485.71,148.3 491.37,142.99 491.37,136.49C491.37,129.99 485.71,124.62 478.78,124.62C471.85,124.62 466.13,129.92 466.13,136.49C466.13,143.06 471.75,148.3 478.74,148.3L478.78,148.3Z" style="fill:rgb(23,19,33);fill-rule:nonzero;"/>
                <path d="M554.9,163L536.64,163L536.64,140.78L514.83,140.78L514.83,163L501.7,163L501.7,179.87L514.83,179.87L514.83,231.33C514.71,248.74 527.37,257.33 543.75,256.82C548.114,256.733 552.44,256.002 556.59,254.65L552.91,237.59C550.826,238.131 548.683,238.416 546.53,238.44C541.04,238.44 536.64,236.51 536.64,227.71L536.64,179.82L554.9,179.82L554.9,163Z" style="fill:rgb(23,19,33);fill-rule:nonzero;"/>
                <path d="M571.78,255.5L648.48,255.5L648.48,236.76L594.14,236.76L594.14,132.1L571.78,132.1L571.78,255.5Z" style="fill:rgb(23,19,33);fill-rule:nonzero;"/>
                <path d="M690.26,257.37C704.78,257.37 713.45,250.56 717.43,242.79L718.15,242.79L718.15,255.5L739.15,255.5L739.15,193.56C739.15,169.1 719.21,161.75 701.55,161.75C682.09,161.75 667.15,170.42 662.33,187.29L682.7,190.19C684.86,183.86 691.01,178.44 701.7,178.44C711.83,178.44 717.37,183.62 717.37,192.72L717.37,193.08C717.37,199.34 710.8,199.65 694.47,201.39C676.52,203.32 659.35,208.68 659.35,229.53C659.29,247.73 672.6,257.37 690.26,257.37ZM697.43,241.37C688.33,241.37 681.82,237.21 681.82,229.2C681.82,220.82 689.11,217.33 698.82,215.94C704.55,215.16 716,213.71 718.82,211.43L718.82,222.33C718.88,232.6 710.56,241.34 697.43,241.34L697.43,241.37Z" style="fill:rgb(23,19,33);fill-rule:nonzero;"/>
                <path d="M755.21,255.5L776.66,255.5L776.66,240.92L777.92,240.92C781.36,247.67 788.53,257.13 804.44,257.13C826.25,257.13 842.58,239.83 842.58,209.35C842.58,178.5 825.77,161.75 804.38,161.75C788.05,161.75 781.24,171.57 777.92,178.26L777,178.26L777,132.1L755.21,132.1L755.21,255.5ZM776.6,209.23C776.6,191.23 784.31,179.64 798.35,179.64C812.87,179.64 820.35,191.99 820.35,209.23C820.35,226.47 812.76,239.23 798.35,239.23C784.43,239.23 776.6,227.18 776.6,209.23Z" style="fill:rgb(23,19,33);fill-rule:nonzero;"/>
                <path d="M302,174.37L301.79,173.81L280.59,118.51C280.161,117.424 279.397,116.503 278.41,115.88C277.509,115.303 276.461,114.996 275.391,114.996C272.89,114.996 270.677,116.672 270,119.08L255.69,162.89L197.74,162.89L183.43,119.08C182.747,116.674 180.534,115.002 178.033,115.002C176.966,115.002 175.92,115.307 175.02,115.88C174.033,116.503 173.269,117.424 172.84,118.51L151.65,173.82L151.43,174.37C145.181,190.701 150.529,209.331 164.49,219.86L164.57,219.92L164.75,220.06L197,244.23L213,256.32L222.72,263.67C225.056,265.435 228.304,265.435 230.64,263.67L240.36,256.32L256.36,244.23L288.84,219.92L288.93,219.85C302.89,209.325 308.242,190.701 302,174.37Z" style="fill:rgb(226,67,41);fill-rule:nonzero;"/>
                <path d="M302,174.37L301.79,173.81C291.461,175.929 281.728,180.308 273.29,186.63L226.74,221.83L256.38,244.23L288.86,219.92L288.95,219.85C302.902,209.319 308.246,190.696 302,174.37Z" style="fill:rgb(252,109,38);fill-rule:nonzero;"/>
                <path d="M197,244.23L213,256.32L222.72,263.67C225.056,265.435 228.304,265.435 230.64,263.67L240.36,256.32L256.36,244.23L226.72,221.83L197,244.23Z" style="fill:rgb(252,163,38);fill-rule:nonzero;"/>
                <path d="M180.14,186.63C171.705,180.311 161.975,175.936 151.65,173.82L151.43,174.37C145.181,190.701 150.529,209.331 164.49,219.86L164.57,219.92L164.75,220.06L197,244.23L226.66,221.83L180.14,186.63Z" style="fill:rgb(252,109,38);fill-rule:nonzero;"/>
            </g>
        </g>
    </g>
</svg>
