<?xml version="1.0" encoding="UTF-8" standalone="no"?>
<!DOCTYPE svg PUBLIC "-//W3C//DTD SVG 1.1//EN" "http://www.w3.org/Graphics/SVG/1.1/DTD/svg11.dtd">
<svg width="100%" height="100%" viewBox="0 0 2013 2060" version="1.1" xmlns="http://www.w3.org/2000/svg" xmlns:xlink="http://www.w3.org/1999/xlink" xml:space="preserve" xmlns:serif="http://www.serif.com/" style="fill-rule:evenodd;clip-rule:evenodd;stroke-linecap:round;stroke-linejoin:round;stroke-miterlimit:1.5;">
    <g transform="matrix(1,0,0,1,-11184,-650)">
        <g id="novaterraprime_tile_6" transform="matrix(10.0631,0,0,6.86416,11184.3,650.438)">
            <rect x="0" y="0" width="200" height="300" style="fill:none;"/>
            <clipPath id="_clip1">
                <rect x="0" y="0" width="200" height="300"/>
            </clipPath>
            <g clip-path="url(#_clip1)">
                <g id="tilebase" transform="matrix(1,0,0,0.860584,-0.00556651,41.8249)">
                    <g transform="matrix(0.860633,-0.846461,8.27483e-17,2.72465,0.632214,-446.354)">
                        <rect x="115.403" y="298.016" width="115.499" height="11.763" style="fill:rgb(128,129,132);stroke:black;stroke-width:1.26px;"/>
                    </g>
                    <g transform="matrix(0.860633,0.846461,-5.51655e-17,1.82101,0.632214,-179.805)">
                        <rect x="0" y="192.151" width="115.403" height="17.644" style="fill:rgb(166,168,171);stroke:black;stroke-width:0.98px;"/>
                    </g>
                    <g transform="matrix(0.860633,-0.846461,0.993774,0.977409,0.656928,-205.459)">
                        <rect x="-221.858" y="192.167" width="115.432" height="99.967" style="fill:rgb(208,210,211);stroke:black;stroke-width:0.95px;"/>
                    </g>
                </g>
                <g transform="matrix(0.0860598,0.0728421,-5.51633e-18,0.168222,-1108.25,-5.62134)">
                    <rect x="13216.5" y="-4817.83" width="238" height="288.56" style="fill:rgb(166,168,171);stroke:black;stroke-width:6.31px;"/>
                </g>
                <g transform="matrix(0.0860598,-0.0728421,5.51633e-18,0.168222,-1108.25,-5.62134)">
                    <rect x="13454.5" y="6834.08" width="856.8" height="288.56" style="fill:rgb(128,129,132);stroke:black;stroke-width:10.86px;"/>
                </g>
                <g transform="matrix(-0.0860598,0.0728421,5.51633e-18,0.168222,1350.9,-78.6347)">
                    <path d="M14293.2,-5024.34C14304.3,-5024.34 14311.2,-5018.41 14311.2,-5008.79C14311.2,-4967.42 14311.2,-4857.82 14311.2,-4857.82L14280.6,-4857.82C14280.6,-4857.82 14280.6,-4978.43 14280.6,-5014.36C14280.6,-5016.42 14282.1,-5018.95 14284.5,-5021.01C14286.9,-5023.07 14289.8,-5024.34 14292.2,-5024.34C14292.5,-5024.34 14292.9,-5024.34 14293.2,-5024.34Z"/>
                </g>
                <g transform="matrix(-0.0860598,0.0728421,5.51633e-18,0.168222,1342.71,-71.7001)">
                    <path d="M14293.2,-5024.34C14304.3,-5024.34 14311.2,-5018.41 14311.2,-5008.79C14311.2,-4967.42 14311.2,-4857.82 14311.2,-4857.82L14280.6,-4857.82C14280.6,-4857.82 14280.6,-4978.43 14280.6,-5014.36C14280.6,-5016.42 14282.1,-5018.95 14284.5,-5021.01C14286.9,-5023.07 14289.8,-5024.34 14292.2,-5024.34C14292.5,-5024.34 14292.9,-5024.34 14293.2,-5024.34Z"/>
                </g>
                <g transform="matrix(-0.0860598,0.0728421,5.51633e-18,0.168222,1334.51,-64.6289)">
                    <path d="M14293.2,-5024.34C14304.3,-5024.34 14311.2,-5018.41 14311.2,-5008.79C14311.2,-4967.42 14311.2,-4857.82 14311.2,-4857.82L14280.6,-4857.82C14280.6,-4857.82 14280.6,-4978.43 14280.6,-5014.36C14280.6,-5016.42 14282.1,-5018.95 14284.5,-5021.01C14286.9,-5023.07 14289.8,-5024.34 14292.2,-5024.34C14292.5,-5024.34 14292.9,-5024.34 14293.2,-5024.34Z"/>
                </g>
                <g transform="matrix(1,0,0,1,55.6719,-38.685)">
                    <g transform="matrix(0.143104,-0.121125,0.165242,0.139863,-1919.66,-158.6)">
                        <ellipse cx="5467.95" cy="7534.86" rx="23.8" ry="20.611" style="fill:rgb(166,168,171);stroke:black;stroke-width:3.79px;"/>
                    </g>
                    <g transform="matrix(0.0993734,0,0,0.145684,-1111.43,-8.12484)">
                        <path d="M12241.1,1640.08L12241.1,1351.93L12299.4,1351.93L12299.4,1640.08C12299.4,1644.39 12296.6,1648.69 12290.9,1651.98C12279.5,1658.55 12261,1658.55 12249.6,1651.98C12244,1648.69 12241.1,1644.39 12241.1,1640.08Z" style="fill:rgb(166,168,171);stroke:black;stroke-width:8.33px;"/>
                    </g>
                    <g transform="matrix(0.0860598,-0.0728421,0.0993734,0.0841108,-1111.43,-46.6368)">
                        <ellipse cx="5467.95" cy="7534.86" rx="23.8" ry="20.611" style="fill:rgb(208,210,211);stroke:black;stroke-width:6.31px;"/>
                    </g>
                </g>
                <g transform="matrix(1,0,0,1,39.2686,-52.8366)">
                    <g transform="matrix(0.143104,-0.121125,0.165242,0.139863,-1919.66,-158.6)">
                        <ellipse cx="5467.95" cy="7534.86" rx="23.8" ry="20.611" style="fill:rgb(166,168,171);stroke:black;stroke-width:3.79px;"/>
                    </g>
                    <g transform="matrix(0.0993734,0,0,0.145684,-1111.43,-8.12484)">
                        <path d="M12241.1,1640.08L12241.1,1351.93L12299.4,1351.93L12299.4,1640.08C12299.4,1644.39 12296.6,1648.69 12290.9,1651.98C12279.5,1658.55 12261,1658.55 12249.6,1651.98C12244,1648.69 12241.1,1644.39 12241.1,1640.08Z" style="fill:rgb(166,168,171);stroke:black;stroke-width:8.33px;"/>
                    </g>
                    <g transform="matrix(0.0860598,-0.0728421,0.0993734,0.0841108,-1111.43,-46.6368)">
                        <ellipse cx="5467.95" cy="7534.86" rx="23.8" ry="20.611" style="fill:rgb(208,210,211);stroke:black;stroke-width:6.31px;"/>
                    </g>
                </g>
                <g transform="matrix(1,0,0,1,22.7303,-67.384)">
                    <g transform="matrix(0.143104,-0.121125,0.165242,0.139863,-1919.66,-158.6)">
                        <ellipse cx="5467.95" cy="7534.86" rx="23.8" ry="20.611" style="fill:rgb(166,168,171);stroke:black;stroke-width:3.79px;"/>
                    </g>
                    <g transform="matrix(0.0993734,0,0,0.145684,-1111.43,-8.12484)">
                        <path d="M12241.1,1640.08L12241.1,1351.93L12299.4,1351.93L12299.4,1640.08C12299.4,1644.39 12296.6,1648.69 12290.9,1651.98C12279.5,1658.55 12261,1658.55 12249.6,1651.98C12244,1648.69 12241.1,1644.39 12241.1,1640.08Z" style="fill:rgb(166,168,171);stroke:black;stroke-width:8.33px;"/>
                    </g>
                    <g transform="matrix(0.0860598,-0.0728421,0.0993734,0.0841108,-1111.43,-46.6368)">
                        <ellipse cx="5467.95" cy="7534.86" rx="23.8" ry="20.611" style="fill:rgb(208,210,211);stroke:black;stroke-width:6.31px;"/>
                    </g>
                </g>
                <g transform="matrix(0.0860598,-0.0728421,0.088913,0.075257,-1036.76,20.2132)">
                    <path d="M5610.75,7064.44L5325.15,7064.44L5325.15,6834.08L6181.95,6834.08L6181.95,7064.44L5848.75,7064.44L5848.75,7617.31L5610.75,7617.31L5610.75,7064.44Z" style="fill:rgb(208,210,211);stroke:black;stroke-width:6.69px;"/>
                </g>
                <g transform="matrix(0.0752283,0.0636742,-4.82204e-18,0.147194,-959.421,13.8376)">
                    <rect x="13740.1" y="-5065.17" width="653.442" height="329.782" style="fill:rgb(166,168,171);stroke:black;stroke-width:7.21px;"/>
                </g>
                <g transform="matrix(0.0860598,-0.0728421,5.51633e-18,0.168222,-1108.25,-5.62134)">
                    <rect x="14311.3" y="7328.75" width="238" height="288.56" style="fill:rgb(128,129,132);stroke:black;stroke-width:10.86px;"/>
                </g>
                <g transform="matrix(0.0993734,0,0,0.145684,-1116.44,1.31323)">
                    <path d="M11734.4,1091.93L12435.6,687.085L12351.4,428.846L11652,834.791L11734.4,1091.93Z" style="fill:rgb(59,109,44);stroke:black;stroke-width:8.33px;"/>
                </g>
                <g transform="matrix(0.0993734,0,0,0.145684,-1116.44,1.31323)">
                    <path d="M11734.4,1091.93L11568.1,996.891L11652,834.791L11734.4,1091.93Z" style="fill:rgb(78,145,59);stroke:black;stroke-width:8.33px;"/>
                </g>
                <g transform="matrix(0.0993734,0,0,0.145684,-1116.44,1.31323)">
                    <path d="M12476.4,1232.93L12542.2,1078.49L12006.3,769.089L11982.9,948.442L12476.4,1232.93Z" style="fill:rgb(78,145,59);stroke:black;stroke-width:8.33px;"/>
                </g>
                <g transform="matrix(0.0993734,0,0,0.145684,-1116.44,1.31323)">
                    <path d="M12476.4,1232.93L12641.9,1137.33L12542.2,1078.49L12476.4,1232.93Z" style="fill:rgb(59,109,44);stroke:black;stroke-width:8.33px;"/>
                </g>
                <g transform="matrix(0.0860598,0.0728421,-5.51633e-18,0.168222,-1116.43,-5.82171)">
                    <path d="M14293.2,-5024.34C14304.3,-5024.34 14311.2,-5018.41 14311.2,-5008.79C14311.2,-4967.42 14311.2,-4857.82 14311.2,-4857.82L14280.6,-4857.82C14280.6,-4857.82 14280.6,-4978.43 14280.6,-5014.36C14280.6,-5016.42 14282.1,-5018.95 14284.5,-5021.01C14286.9,-5023.07 14289.8,-5024.34 14292.2,-5024.34C14292.5,-5024.34 14292.9,-5024.34 14293.2,-5024.34Z"/>
                </g>
                <g transform="matrix(0.0860598,0.0728421,-5.51633e-18,0.168222,-1124.62,-12.7563)">
                    <path d="M14293.2,-5024.34C14304.3,-5024.34 14311.2,-5018.41 14311.2,-5008.79C14311.2,-4967.42 14311.2,-4857.82 14311.2,-4857.82L14280.6,-4857.82C14280.6,-4857.82 14280.6,-4978.43 14280.6,-5014.36C14280.6,-5016.42 14282.1,-5018.95 14284.5,-5021.01C14286.9,-5023.07 14289.8,-5024.34 14292.2,-5024.34C14292.5,-5024.34 14292.9,-5024.34 14293.2,-5024.34Z"/>
                </g>
                <g transform="matrix(0.0860598,0.0728421,-5.51633e-18,0.168222,-1132.82,-19.6908)">
                    <path d="M14293.2,-5024.34C14304.3,-5024.34 14311.2,-5018.41 14311.2,-5008.79C14311.2,-4967.42 14311.2,-4857.82 14311.2,-4857.82L14280.6,-4857.82C14280.6,-4857.82 14280.6,-4978.43 14280.6,-5014.36C14280.6,-5016.42 14282.1,-5018.95 14284.5,-5021.01C14286.9,-5023.07 14289.8,-5024.34 14292.2,-5024.34C14292.5,-5024.34 14292.9,-5024.34 14293.2,-5024.34Z"/>
                </g>
                <g transform="matrix(0.0860598,0.0728421,-5.51633e-18,0.168222,-1141.01,-26.6254)">
                    <path d="M14293.2,-5024.34C14304.3,-5024.34 14311.2,-5018.41 14311.2,-5008.79C14311.2,-4967.42 14311.2,-4857.82 14311.2,-4857.82L14280.6,-4857.82C14280.6,-4857.82 14280.6,-4978.43 14280.6,-5014.36C14280.6,-5016.42 14282.1,-5018.95 14284.5,-5021.01C14286.9,-5023.07 14289.8,-5024.34 14292.2,-5024.34C14292.5,-5024.34 14292.9,-5024.34 14293.2,-5024.34Z"/>
                </g>
                <g transform="matrix(0.0860598,0.0728421,-5.51633e-18,0.168222,-1149.2,-33.56)">
                    <path d="M14293.2,-5024.34C14304.3,-5024.34 14311.2,-5018.41 14311.2,-5008.79C14311.2,-4967.42 14311.2,-4857.82 14311.2,-4857.82L14280.6,-4857.82C14280.6,-4857.82 14280.6,-4978.43 14280.6,-5014.36C14280.6,-5016.42 14282.1,-5018.95 14284.5,-5021.01C14286.9,-5023.07 14289.8,-5024.34 14292.2,-5024.34C14292.5,-5024.34 14292.9,-5024.34 14293.2,-5024.34Z"/>
                </g>
                <g transform="matrix(0.0860598,0.0728421,-5.51633e-18,0.168222,-1187.54,-24.4012)">
                    <path d="M14293.2,-5024.34C14304.3,-5024.34 14311.2,-5018.41 14311.2,-5008.79C14311.2,-4967.42 14311.2,-4857.82 14311.2,-4857.82L14280.6,-4857.82C14280.6,-4857.82 14280.6,-4978.43 14280.6,-5014.36C14280.6,-5016.42 14282.1,-5018.95 14284.5,-5021.01C14286.9,-5023.07 14289.8,-5024.34 14292.2,-5024.34C14292.5,-5024.34 14292.9,-5024.34 14293.2,-5024.34Z"/>
                </g>
                <g transform="matrix(-0.0860598,0.0728421,5.51633e-18,0.168222,1285.36,-23.1581)">
                    <path d="M14293.2,-5024.34C14304.3,-5024.34 14311.2,-5018.41 14311.2,-5008.79C14311.2,-4967.42 14311.2,-4857.82 14311.2,-4857.82L14280.6,-4857.82L14280.6,-5014.36C14280.6,-5016.42 14282.1,-5018.95 14284.5,-5021.01C14286.9,-5023.07 14289.8,-5024.34 14292.2,-5024.34C14292.5,-5024.34 14292.9,-5024.34 14293.2,-5024.34Z"/>
                </g>
                <g transform="matrix(-0.0860598,0.0728421,5.51633e-18,0.168222,1293.55,-30.0927)">
                    <path d="M14293.2,-5024.34C14304.3,-5024.34 14311.2,-5018.41 14311.2,-5008.79C14311.2,-4967.42 14311.2,-4857.82 14311.2,-4857.82L14280.6,-4857.82C14280.6,-4857.82 14280.6,-4978.43 14280.6,-5014.36C14280.6,-5016.42 14282.1,-5018.95 14284.5,-5021.01C14286.9,-5023.07 14289.8,-5024.34 14292.2,-5024.34C14292.5,-5024.34 14292.9,-5024.34 14293.2,-5024.34Z"/>
                </g>
                <g transform="matrix(-0.0860598,0.0728421,5.51633e-18,0.168222,1301.74,-37.0273)">
                    <path d="M14293.2,-5024.34C14304.3,-5024.34 14311.2,-5018.41 14311.2,-5008.79C14311.2,-4967.42 14311.2,-4857.82 14311.2,-4857.82L14280.6,-4857.82C14280.6,-4857.82 14280.6,-4978.43 14280.6,-5014.36C14280.6,-5016.42 14282.1,-5018.95 14284.5,-5021.01C14286.9,-5023.07 14289.8,-5024.34 14292.2,-5024.34C14292.5,-5024.34 14292.9,-5024.34 14293.2,-5024.34Z"/>
                </g>
                <g transform="matrix(-0.0860598,0.0728421,5.51633e-18,0.168222,1364.66,-0.130225)">
                    <path d="M14307,-5063.94C14320.1,-5063.94 14328.2,-5056.92 14328.2,-5045.53C14328.2,-4994.99 14328.2,-4857.82 14328.2,-4857.82L14280.6,-4857.82C14280.6,-4857.82 14280.6,-4992.88 14280.6,-5044.34C14280.6,-5048.39 14283.5,-5053.36 14288.2,-5057.4C14292.8,-5061.45 14298.6,-5063.94 14303.3,-5063.94C14304.5,-5063.94 14305.7,-5063.94 14307,-5063.94Z"/>
                </g>
                <g transform="matrix(0.0860598,0.0728421,-5.51633e-18,0.168222,-1195.73,-31.3358)">
                    <path d="M14293.2,-5024.34C14304.3,-5024.34 14311.2,-5018.41 14311.2,-5008.79C14311.2,-4967.42 14311.2,-4857.82 14311.2,-4857.82L14280.6,-4857.82C14280.6,-4857.82 14280.6,-4978.43 14280.6,-5014.36C14280.6,-5016.42 14282.1,-5018.95 14284.5,-5021.01C14286.9,-5023.07 14289.8,-5024.34 14292.2,-5024.34C14292.5,-5024.34 14292.9,-5024.34 14293.2,-5024.34Z"/>
                </g>
                <g transform="matrix(1,0,0,1,-5.08107,8.32187)">
                    <g transform="matrix(0.143104,-0.121125,0.165242,0.139863,-1919.66,-158.6)">
                        <ellipse cx="5467.95" cy="7534.86" rx="23.8" ry="20.611" style="fill:rgb(166,168,171);stroke:black;stroke-width:3.79px;"/>
                    </g>
                    <g transform="matrix(0.0993734,0,0,0.145684,-1111.43,-8.12484)">
                        <path d="M12241.1,1640.08L12241.1,1351.93L12299.4,1351.93L12299.4,1640.08C12299.4,1644.39 12296.6,1648.69 12290.9,1651.98C12279.5,1658.55 12261,1658.55 12249.6,1651.98C12244,1648.69 12241.1,1644.39 12241.1,1640.08Z" style="fill:rgb(166,168,171);stroke:black;stroke-width:8.33px;"/>
                    </g>
                    <g transform="matrix(0.0860598,-0.0728421,0.0993734,0.0841108,-1111.43,-46.6368)">
                        <ellipse cx="5467.95" cy="7534.86" rx="23.8" ry="20.611" style="fill:rgb(208,210,211);stroke:black;stroke-width:6.31px;"/>
                    </g>
                </g>
                <g transform="matrix(1,0,0,1,-21.4844,-5.82968)">
                    <g transform="matrix(0.143104,-0.121125,0.165242,0.139863,-1919.66,-158.6)">
                        <ellipse cx="5467.95" cy="7534.86" rx="23.8" ry="20.611" style="fill:rgb(166,168,171);stroke:black;stroke-width:3.79px;"/>
                    </g>
                    <g transform="matrix(0.0993734,0,0,0.145684,-1111.43,-8.12484)">
                        <path d="M12241.1,1640.08L12241.1,1351.93L12299.4,1351.93L12299.4,1640.08C12299.4,1644.39 12296.6,1648.69 12290.9,1651.98C12279.5,1658.55 12261,1658.55 12249.6,1651.98C12244,1648.69 12241.1,1644.39 12241.1,1640.08Z" style="fill:rgb(166,168,171);stroke:black;stroke-width:8.33px;"/>
                    </g>
                    <g transform="matrix(0.0860598,-0.0728421,0.0993734,0.0841108,-1111.43,-46.6368)">
                        <ellipse cx="5467.95" cy="7534.86" rx="23.8" ry="20.611" style="fill:rgb(208,210,211);stroke:black;stroke-width:6.31px;"/>
                    </g>
                </g>
                <g transform="matrix(1,0,0,1,-38.0227,-20.3771)">
                    <g transform="matrix(0.143104,-0.121125,0.165242,0.139863,-1919.66,-158.6)">
                        <ellipse cx="5467.95" cy="7534.86" rx="23.8" ry="20.611" style="fill:rgb(166,168,171);stroke:black;stroke-width:3.79px;"/>
                    </g>
                    <g transform="matrix(0.0993734,0,0,0.145684,-1111.43,-8.12484)">
                        <path d="M12241.1,1640.08L12241.1,1351.93L12299.4,1351.93L12299.4,1640.08C12299.4,1644.39 12296.6,1648.69 12290.9,1651.98C12279.5,1658.55 12261,1658.55 12249.6,1651.98C12244,1648.69 12241.1,1644.39 12241.1,1640.08Z" style="fill:rgb(166,168,171);stroke:black;stroke-width:8.33px;"/>
                    </g>
                    <g transform="matrix(0.0860598,-0.0728421,0.0993734,0.0841108,-1111.43,-46.6368)">
                        <ellipse cx="5467.95" cy="7534.86" rx="23.8" ry="20.611" style="fill:rgb(208,210,211);stroke:black;stroke-width:6.31px;"/>
                    </g>
                </g>
                <g transform="matrix(0.267272,0.226222,-1.48366e-17,0.452445,-2041.9,-573.714)">
                    <g transform="matrix(50,0,0,50,7973.02,-2093.85)">
                    </g>
                    <text x="7684.05px" y="-2093.85px" style="font-family:'Arial-BoldMT', 'Arial', sans-serif;font-weight:700;font-size:50px;">gitterra.com</text>
                </g>
            </g>
        </g>
    </g>
</svg>
