<?xml version="1.0" encoding="UTF-8" standalone="no"?>
<!DOCTYPE svg PUBLIC "-//W3C//DTD SVG 1.1//EN" "http://www.w3.org/Graphics/SVG/1.1/DTD/svg11.dtd"><svg width="100%"
    height="100%" viewBox="0 0 484 495" version="1.1" xmlns="http://www.w3.org/2000/svg"
    xmlns:xlink="http://www.w3.org/1999/xlink" xml:space="preserve" xmlns:serif="http://www.serif.com/"
    style="fill-rule:evenodd;clip-rule:evenodd;stroke-linecap:round;stroke-linejoin:round;stroke-miterlimit:1.5;">
    <rect id="novaterraprime_tile_5" x="0.169" y="0" width="483.027" height="494.22" style="fill:none;" />
    <clipPath id="_clip1">
        <rect x="0.169" y="0" width="483.027" height="494.22" />
    </clipPath>
    <g clip-path="url(#_clip1)">
        <path
            d="M229.402,196.837c-0,4.136 -2.73,8.272 -8.191,11.424c-10.92,6.305 -28.653,6.305 -39.573,0c-5.461,-3.152 -8.191,-7.288 -8.191,-11.424l0,-114.196l55.955,-0l-0,114.196Z"
            style="fill:#a6a8ab;stroke:#000;stroke-width:2px;" />
        <path
            d="M181.638,71.173c10.92,-6.305 28.653,-6.305 39.573,0c10.921,6.305 10.921,16.543 0,22.848c-10.92,6.305 -28.653,6.305 -39.573,0c-10.921,-6.305 -10.921,-16.543 -0,-22.848Z"
            style="fill:#d0d2d3;stroke:#000;stroke-width:2px;" />
        <path
            d="M210.122,71.51l-0,-23.185l41.966,0l0,119.262c0,3.102 -2.048,6.203 -6.143,8.568c-4.095,2.364 -9.468,3.546 -14.84,3.546c-0.568,0 -1.136,-0.013 -1.703,-0.039l-0,-96.077c-4.792,-0.224 -9.475,-1.393 -13.137,-3.507c-4.096,-2.365 -6.143,-5.467 -6.143,-8.568Z"
            style="fill:#a6a8ab;stroke:#000;stroke-width:2px;" />
        <path
            d="M216.265,39.757c8.19,-4.728 21.49,-4.728 29.68,0c8.191,4.729 8.191,12.408 0,17.136c-8.19,4.729 -21.49,4.729 -29.68,0c-8.191,-4.728 -8.191,-12.407 -0,-17.136Z"
            style="fill:#d0d2d3;stroke:#000;stroke-width:2px;" />
        <path
            d="M224.111,48.325c-0,-0.272 0.047,-0.545 0.142,-0.813l6.852,-39.171l6.852,39.171c0.095,0.268 0.142,0.541 0.142,0.813c0,1.034 -0.682,2.068 -2.047,2.856c-2.731,1.577 -7.164,1.577 -9.894,0c-1.365,-0.788 -2.047,-1.822 -2.047,-2.856Z"
            style="fill:#62b54a;stroke:#000;stroke-width:2px;" />
        <path
            d="M192.636,82.613c-0,-0.34 0.059,-0.681 0.178,-1.016l8.565,-48.964l8.565,48.964c0.119,0.335 0.178,0.676 0.178,1.016c-0,1.293 -0.853,2.585 -2.56,3.57c-3.412,1.97 -8.954,1.97 -12.367,0c-1.706,-0.985 -2.559,-2.277 -2.559,-3.57Z"
            style="fill:#62b54a;stroke:#000;stroke-width:2px;" />
        <g id="tilebase">
            <path d="M481.488,309.559l0,45.437l-240.069,138.604l-0,-45.437l240.069,-138.604Z"
                style="fill:#808184;stroke:#000;stroke-width:3px;" />
            <path d="M241.419,447.934l-0,45.552l-239.871,-138.49l-0,-45.551l239.871,138.489Z"
                style="fill:#a6a8ab;stroke:#000;stroke-width:3px;" />
            <path d="M241.617,171.001l239.931,138.524l-239.931,138.524l-239.931,-138.524l239.931,-138.524Z"
                style="fill:#d0d2d3;stroke:#000;stroke-width:3px;" />
        </g>
        <path d="M231.105,259.849l-0,125.843l-89.041,-51.408l-0,-125.843l89.041,51.408Z"
            style="fill:#a6a8ab;stroke:#000;stroke-width:2px;" />
        <path d="M379.507,173.989l0,126.023l-148.402,85.68l-0,-126.023l148.402,-85.68Z"
            style="fill:#808184;stroke:#000;stroke-width:2px;" />
        <path d="M231.105,259.311l-19.787,-68.186l148.402,-85.68l19.787,68.544l-148.402,85.322Z"
            style="fill:#3b6d2c;stroke:#000;stroke-width:2px;" />
        <path d="M211.318,191.125l-49.467,-28.56l-19.787,45.876l89.041,51.408l-19.787,-68.724Z"
            style="fill:#4e913b;stroke:#000;stroke-width:2px;" />
        <path d="M310.253,76.885l49.467,28.56l-148.402,85.68l-49.467,-28.56l148.402,-85.68Z"
            style="fill:#62b54a;stroke:#000;stroke-width:2px;" />
        <path
            d="M186.102,279.383c3.359,1.939 5.429,5.524 5.429,9.404l0,73.698l-9.893,-5.712l-0,-75.546c-0,-0.912 0.486,-1.755 1.276,-2.211c0.79,-0.456 1.763,-0.456 2.553,0c0.209,0.121 0.421,0.244 0.635,0.367Z" />
        <path
            d="M204.893,278.808c0.527,0.304 0.852,0.867 0.852,1.476l0,78.984l-4.32,-2.495l-0,-76.619c-0,-0.691 0.368,-1.329 0.966,-1.674c0.598,-0.346 1.335,-0.346 1.934,-0c0.202,0.117 0.394,0.228 0.568,0.328Z" />
        <path
            d="M160.999,253.465c0.527,0.305 0.852,0.867 0.852,1.476c-0,9.147 -0,78.984 -0,78.984l-4.321,-2.494l-0,-76.619c-0,-0.691 0.368,-1.329 0.967,-1.675c0.598,-0.345 1.335,-0.345 1.933,0c0.202,0.117 0.394,0.228 0.569,0.328Z" />
        <path
            d="M214.787,284.52c0.527,0.304 0.852,0.867 0.852,1.476c-0,9.146 -0,78.984 -0,78.984l-4.321,-2.495l-0,-76.619c-0,-0.691 0.368,-1.329 0.967,-1.674c0.598,-0.346 1.335,-0.346 1.933,-0c0.202,0.117 0.395,0.228 0.569,0.328Z" />
        <path
            d="M170.892,259.177c0.527,0.305 0.852,0.867 0.852,1.476l0,78.984l-4.321,-2.494l0,-76.619c0,-0.691 0.369,-1.329 0.967,-1.675c0.598,-0.345 1.335,-0.345 1.934,0c0.202,0.117 0.394,0.228 0.568,0.328Z" />
        <g>
            <path
                d="M247.925,322.622c-1.702,-1.499 -2.718,-4.048 -2.718,-7.456c-0,-8.033 5.648,-17.816 12.605,-21.833c2.791,-1.611 5.371,-2.051 7.461,-1.482c0.904,0.247 1.716,0.682 2.414,1.294l2.902,1.555c0.114,0.056 0.226,0.116 0.336,0.179c2.282,1.318 3.694,4.141 3.694,8.158c-0,8.033 -5.648,17.816 -12.605,21.833c-2.905,1.676 -5.581,2.085 -7.713,1.408c-0.832,-0.265 -1.581,-0.694 -2.228,-1.278l-2.042,-1.17c-0.782,-0.259 -1.489,-0.664 -2.106,-1.208Z"
                style="fill:#a6a8ab;stroke:#000;stroke-width:2px;" />
            <path
                d="M262.014,295.759c6.957,-4.016 12.605,-0.755 12.605,7.278c-0,8.033 -5.648,17.816 -12.605,21.833c-6.957,4.016 -12.606,0.755 -12.606,-7.278c0,-8.033 5.649,-17.816 12.606,-21.833Z"
                style="fill:#808184;stroke:#000;stroke-width:2px;" />
            <path
                d="M260.707,320.712c-0.317,0.317 -0.762,0.344 -1.309,0.344c-0.109,-0 -0.006,0.065 -0.046,0.108c-0.039,0.042 -0.382,-0 -0.452,-0l-1.355,-0c-0.354,-0 -0.371,-0.071 -0.954,-0.201c-0.047,-0.01 -0.17,0.031 -0.201,0c-0.139,-0.139 -0.331,-0.201 -0.552,-0.401c-0.163,-0.149 -0.189,-0.432 -0.301,-0.553c-0.175,-0.187 -0.267,-0.244 -0.402,-0.451c-0.407,-0.628 -0.552,-0.911 -0.552,-1.757c-0,-0.093 -0.06,-0.543 -0,-0.603c0.222,-0.222 0.296,-0.647 0.502,-0.853c0.082,-0.082 0.014,-0.327 0.1,-0.402c0.329,-0.286 0.661,-0.483 1.004,-0.803c0.075,-0.07 0.024,-0.285 0.101,-0.351c0.322,-0.28 0.314,-0.946 0.602,-1.356c0.132,-0.188 0.314,-0.978 0.151,-1.305c-0.152,-0.303 -0.654,-0.569 -0.904,-0.954c-0.256,-0.393 -0.522,-0.86 -0.803,-1.104c-0.139,-0.12 -0.015,-0.309 -0.201,-0.402c-0.045,-0.022 0.022,-0.105 0,-0.15c-0.059,-0.119 -0.125,-0.439 -0.251,-0.502c-0.037,-0.019 0,-0.489 0,-0.552c0,-0.652 0.052,-1.303 0.402,-1.607c0.043,-0.038 -0.038,-0.162 -0,-0.201c0.109,-0.109 0.231,-0.592 0.351,-0.652c0.321,-0.161 0.43,-0.661 0.753,-0.954c0.455,-0.413 0.608,-0.917 1.054,-1.305c0.057,-0.049 0.015,-0.231 0.05,-0.301c0.08,-0.16 0.184,-0.325 0.302,-0.452c0.049,-0.053 0.331,-0.061 0.351,-0.1c0.121,-0.243 0.407,-0.207 0.602,-0.402c0.047,-0.047 0.274,0.004 0.302,-0.05c0.106,-0.214 0.861,-0.304 1.154,-0.402c0.049,-0.016 0.384,0.035 0.402,0c0.13,-0.261 0.634,-0.016 0.903,-0.15c0.327,-0.164 0.817,-0.194 1.209,-0.194c0.109,0 0.006,-0.064 0.046,-0.108c0.039,-0.042 0.382,0 0.452,0c0.428,0 0.815,-0.05 1.255,-0.05l2.51,0c0.147,0 0.811,-0.093 0.904,0c0.318,0.319 0.434,0.807 0.702,1.054c0.041,0.038 0.011,0.262 0.051,0.302c0.05,0.05 0.203,0.528 0.25,0.552c0.148,0.073 0.097,0.147 0.201,0.251c0.027,0.027 -0.03,0.185 0,0.201c0.29,0.144 0.202,1.38 0,1.656c-0.046,0.063 -0.025,0.326 -0.05,0.402c-0.193,0.579 0.229,1.277 -0.201,1.706c-0.035,0.036 -0.105,-0.022 -0.15,0c-0.134,0.067 -0.221,0.309 -0.301,0.402c-0.079,0.09 -0.264,0.106 -0.352,0.201c-0.169,0.183 -0.393,0.032 -0.502,0.251c-0.021,0.042 -0.627,0.095 -0.703,0.15c-0.302,0.222 -1.019,-0.12 -1.255,0.151c-0.263,0.303 -0.762,0.21 -1.104,0.552c-0.035,0.036 0.022,0.106 0,0.151c-0.043,0.085 -0.324,0.262 -0.402,0.301c-0.019,0.01 -0.215,0.416 -0.251,0.452c-0.149,0.149 -0.1,0.674 -0.1,0.954c0,0.046 -0.034,0.317 0,0.351c0.068,0.068 0.347,-0.008 0.402,0.1c0.102,0.206 0.272,0.272 0.401,0.402c0.066,0.066 0.423,0.021 0.502,0.1c0.187,0.187 0.555,0.558 0.703,0.854c0.11,0.22 0.03,1.094 -0.05,1.255c-0.071,0.141 -0.158,0.518 -0.301,0.652c-0.085,0.079 -0.213,0.074 -0.302,0.151c-0.038,0.033 0.031,0.12 0,0.15c-0.127,0.128 -0.274,0.363 -0.451,0.452c-0.03,0.015 0.027,0.174 -0,0.201c-0.132,0.132 -0.033,0.283 -0.151,0.452c-0.239,0.34 -0.62,0.881 -1.305,0.652c-0.926,-0.308 -1.397,-1.451 -1.858,-2.108c-0.073,-0.105 -0.353,-0.902 -0.15,-1.104c0.117,-0.117 0.284,-0.184 0.401,-0.302c0.159,-0.158 0.206,-0.604 0.402,-0.702c0.059,-0.03 0.309,-0.183 0.309,-0.248c-0,-0.936 -0.252,-1.436 -0.252,-2.314c0,-0.147 -0.355,-0.805 -0.157,-1.002c0.061,-0.062 0.189,-0.039 0.251,-0.101c0.07,-0.07 0.03,-0.23 0.1,-0.301c0.151,-0.151 0.301,-0.301 0.452,-0.452c0.062,-0.062 0.368,-0.084 0.401,-0.15c0.056,-0.112 0.412,-0.508 0.502,-0.553c0.264,-0.132 0.268,-0.217 0.452,-0.401c0.136,-0.136 0.304,-0.056 0.402,-0.251c0.036,-0.072 0.516,0.043 0.602,-0c0.427,-0.214 1.219,-0.491 1.556,-0.803c0.043,-0.04 0.07,-0.336 0.101,-0.352c0.343,-0.171 0.186,-0.817 -0,-1.104c-0.089,-0.137 0.022,-0.407 -0.05,-0.552c-0.038,-0.074 -0.342,-0.174 -0.452,-0.251c-0.119,-0.083 -0.603,-0 -0.753,-0c-0.837,-0 -1.318,0.071 -2.008,0.301c-0.049,0.016 -0.384,-0.035 -0.402,-0c-0.14,0.28 -0.813,0.02 -0.954,0.301c-0.009,0.019 -0.21,0 -0.251,0c-0.138,0 -0.53,0.019 -0.652,0.101c-0.505,0.336 -1.112,0.308 -1.506,0.702c-0.035,0.036 -0.231,-0.041 -0.251,0c-0.078,0.156 -0.304,0.195 -0.402,0.301c-0.083,0.09 -0.374,0.011 -0.451,0.101c-0.338,0.388 -0.771,0.77 -1.105,1.104c-0.224,0.224 -0.201,0.706 -0.201,1.155c0,0.075 -0.048,0.403 0,0.452c0.19,0.189 0.499,0.675 0.653,0.753c0.294,0.147 0.65,0.295 0.803,0.602c0.023,0.046 0.247,0.042 0.301,0.1c0.134,0.145 0.33,0.467 0.502,0.553c0.037,0.018 0.027,0.304 0.051,0.351c0.066,0.133 0.222,0.738 0.351,0.803c0.041,0.021 -0,0.582 -0,0.653c-0,0.622 -0.112,1.015 -0.402,1.305c-0.074,0.074 -0.024,0.28 -0.1,0.351c-0.256,0.237 -0.453,0.723 -0.703,0.954c-0.077,0.072 -0.015,0.377 -0.1,0.452c-0.241,0.209 -0.329,0.559 -0.552,0.753c-0.067,0.058 -0.013,0.508 -0.101,0.552c-0.341,0.17 -0.555,1.781 0,2.058c0.106,0.053 -0.003,0.246 0.05,0.352c0.053,0.105 0.3,0.148 0.402,0.251c0.207,0.206 0.33,0.354 0.502,0.552c0.07,0.08 0.326,-0.026 0.402,0.05c0.1,0.1 0.251,0.151 0.351,0.251c0.085,0.085 0.426,-0.038 0.502,0.05c0.181,0.208 0.501,0.2 0.803,0.352c0.081,0.04 -0.008,0.15 0.151,0.15"
                style="fill:#a6a8ab;stroke:#000;stroke-width:2px;" />
            <path
                d="M262.376,321.367c-0.317,0.317 -0.762,0.344 -1.309,0.344c-0.109,-0 -0.007,0.064 -0.047,0.107c-0.038,0.042 -0.382,0 -0.451,0l-1.356,0c-0.354,0 -0.37,-0.071 -0.954,-0.2c-0.046,-0.011 -0.17,0.03 -0.2,-0c-0.139,-0.139 -0.332,-0.201 -0.553,-0.402c-0.162,-0.148 -0.188,-0.431 -0.301,-0.552c-0.174,-0.187 -0.267,-0.245 -0.401,-0.452c-0.408,-0.628 -0.553,-0.911 -0.553,-1.757c0,-0.092 -0.059,-0.543 0,-0.602c0.222,-0.222 0.296,-0.647 0.502,-0.854c0.082,-0.081 0.015,-0.326 0.101,-0.401c0.329,-0.286 0.66,-0.484 1.004,-0.803c0.075,-0.07 0.024,-0.285 0.1,-0.352c0.322,-0.28 0.315,-0.945 0.603,-1.355c0.132,-0.188 0.314,-0.978 0.15,-1.305c-0.151,-0.304 -0.654,-0.569 -0.903,-0.954c-0.256,-0.394 -0.523,-0.86 -0.804,-1.104c-0.138,-0.121 -0.014,-0.309 -0.2,-0.402c-0.045,-0.022 0.022,-0.106 -0,-0.151c-0.06,-0.118 -0.125,-0.439 -0.251,-0.502c-0.037,-0.018 -0,-0.488 -0,-0.552c-0,-0.651 0.052,-1.302 0.401,-1.606c0.044,-0.038 -0.038,-0.163 0,-0.201c0.109,-0.109 0.231,-0.592 0.352,-0.653c0.321,-0.16 0.43,-0.66 0.753,-0.953c0.455,-0.414 0.608,-0.918 1.054,-1.305c0.056,-0.05 0.015,-0.231 0.05,-0.302c0.08,-0.159 0.183,-0.325 0.301,-0.451c0.05,-0.054 0.332,-0.061 0.352,-0.101c0.121,-0.243 0.407,-0.206 0.602,-0.401c0.047,-0.047 0.274,0.004 0.301,-0.051c0.107,-0.213 0.861,-0.303 1.155,-0.401c0.049,-0.017 0.384,0.035 0.401,-0c0.131,-0.262 0.634,-0.016 0.904,-0.151c0.327,-0.163 0.816,-0.193 1.208,-0.193c0.109,-0 0.007,-0.065 0.047,-0.108c0.039,-0.042 0.382,-0 0.452,-0c0.427,-0 0.814,-0.05 1.255,-0.05l2.51,-0c0.146,-0 0.81,-0.093 0.903,-0c0.319,0.318 0.435,0.806 0.703,1.054c0.041,0.038 0.01,0.261 0.05,0.301c0.05,0.05 0.204,0.529 0.251,0.552c0.147,0.074 0.097,0.147 0.201,0.251c0.027,0.027 -0.03,0.186 -0,0.201c0.289,0.145 0.202,1.381 -0,1.657c-0.046,0.063 -0.025,0.325 -0.05,0.401c-0.193,0.58 0.229,1.277 -0.201,1.707c-0.036,0.036 -0.106,-0.022 -0.151,0c-0.133,0.067 -0.22,0.309 -0.301,0.402c-0.078,0.089 -0.264,0.106 -0.351,0.2c-0.169,0.183 -0.393,0.033 -0.502,0.251c-0.021,0.043 -0.627,0.096 -0.703,0.151c-0.303,0.221 -1.019,-0.12 -1.255,0.151c-0.263,0.303 -0.762,0.21 -1.104,0.552c-0.036,0.035 0.022,0.105 -0,0.15c-0.043,0.086 -0.324,0.263 -0.402,0.302c-0.019,0.009 -0.215,0.416 -0.251,0.451c-0.149,0.149 -0.1,0.675 -0.1,0.954c-0,0.047 -0.034,0.318 -0,0.352c0.068,0.068 0.347,-0.009 0.401,0.1c0.103,0.205 0.272,0.272 0.402,0.402c0.066,0.066 0.422,0.02 0.502,0.1c0.187,0.187 0.555,0.557 0.703,0.853c0.11,0.22 0.029,1.095 -0.051,1.255c-0.07,0.142 -0.157,0.519 -0.301,0.653c-0.085,0.079 -0.213,0.074 -0.301,0.15c-0.038,0.034 0.031,0.12 0,0.151c-0.127,0.127 -0.274,0.363 -0.452,0.452c-0.03,0.015 0.027,0.174 0,0.201c-0.132,0.132 -0.032,0.283 -0.15,0.451c-0.239,0.341 -0.621,0.881 -1.306,0.653c-0.925,-0.309 -1.396,-1.452 -1.857,-2.108c-0.073,-0.105 -0.353,-0.902 -0.15,-1.105c0.117,-0.117 0.284,-0.184 0.401,-0.301c0.158,-0.158 0.206,-0.605 0.402,-0.703c0.058,-0.029 0.308,-0.183 0.308,-0.247c0,-0.936 -0.251,-1.437 -0.251,-2.314c-0,-0.147 -0.355,-0.805 -0.158,-1.003c0.062,-0.061 0.19,-0.039 0.251,-0.1c0.071,-0.071 0.03,-0.231 0.101,-0.301c0.151,-0.151 0.301,-0.301 0.451,-0.452c0.062,-0.062 0.369,-0.084 0.402,-0.151c0.056,-0.111 0.412,-0.507 0.502,-0.552c0.264,-0.132 0.267,-0.217 0.452,-0.402c0.135,-0.135 0.304,-0.055 0.401,-0.251c0.036,-0.071 0.517,0.044 0.603,0c0.426,-0.213 1.218,-0.49 1.556,-0.803c0.043,-0.039 0.07,-0.336 0.1,-0.351c0.343,-0.172 0.187,-0.817 0,-1.105c-0.088,-0.136 0.023,-0.406 -0.05,-0.552c-0.037,-0.074 -0.341,-0.173 -0.452,-0.251c-0.118,-0.083 -0.603,0 -0.753,0c-0.836,0 -1.317,0.071 -2.008,0.302c-0.048,0.016 -0.384,-0.036 -0.401,-0c-0.14,0.28 -0.813,0.019 -0.954,0.301c-0.01,0.019 -0.21,-0 -0.251,-0c-0.138,-0 -0.53,0.018 -0.652,0.1c-0.505,0.336 -1.112,0.309 -1.506,0.703c-0.036,0.035 -0.231,-0.041 -0.251,-0c-0.078,0.155 -0.304,0.195 -0.402,0.301c-0.083,0.09 -0.374,0.011 -0.452,0.1c-0.337,0.389 -0.77,0.771 -1.104,1.105c-0.224,0.224 -0.201,0.706 -0.201,1.154c-0,0.076 -0.048,0.404 -0,0.452c0.19,0.19 0.498,0.676 0.653,0.753c0.294,0.147 0.649,0.296 0.803,0.603c0.023,0.045 0.247,0.041 0.301,0.1c0.134,0.145 0.33,0.466 0.502,0.552c0.036,0.018 0.027,0.304 0.05,0.352c0.067,0.132 0.222,0.738 0.352,0.803c0.041,0.02 -0,0.582 -0,0.652c-0,0.622 -0.112,1.016 -0.402,1.305c-0.074,0.075 -0.024,0.281 -0.1,0.352c-0.257,0.237 -0.454,0.723 -0.703,0.954c-0.078,0.071 -0.015,0.377 -0.101,0.451c-0.24,0.21 -0.329,0.559 -0.552,0.753c-0.067,0.059 -0.013,0.509 -0.1,0.553c-0.341,0.17 -0.555,1.78 -0,2.058c0.106,0.053 -0.003,0.245 0.05,0.351c0.053,0.106 0.299,0.149 0.402,0.251c0.206,0.207 0.33,0.355 0.502,0.552c0.069,0.081 0.325,-0.025 0.401,0.051c0.1,0.1 0.251,0.15 0.352,0.251c0.085,0.085 0.425,-0.038 0.502,0.05c0.181,0.208 0.5,0.2 0.803,0.351c0.081,0.041 -0.008,0.151 0.15,0.151"
                style="fill:#808184;stroke:#000;stroke-width:2px;" />
        </g>
        <g>
            <path
                d="M344.826,265.247c-1.702,-1.499 -2.718,-4.048 -2.718,-7.456c-0,-8.033 5.648,-17.816 12.605,-21.833c2.791,-1.611 5.371,-2.051 7.461,-1.482c0.904,0.247 1.716,0.682 2.414,1.294l2.902,1.554c0.114,0.057 0.226,0.117 0.336,0.18c2.282,1.318 3.694,4.141 3.694,8.158c-0,8.033 -5.648,17.816 -12.605,21.833c-2.905,1.676 -5.581,2.085 -7.713,1.407c-0.832,-0.264 -1.581,-0.693 -2.228,-1.277l-2.042,-1.171c-0.782,-0.258 -1.489,-0.663 -2.106,-1.207Z"
                style="fill:#a6a8ab;stroke:#000;stroke-width:2px;" />
            <path
                d="M358.915,238.384c6.957,-4.016 12.605,-0.755 12.605,7.278c-0,8.033 -5.648,17.816 -12.605,21.833c-6.957,4.016 -12.606,0.755 -12.606,-7.278c0,-8.033 5.649,-17.816 12.606,-21.833Z"
                style="fill:#808184;stroke:#000;stroke-width:2px;" />
            <path
                d="M357.608,263.337c-0.317,0.317 -0.762,0.344 -1.309,0.344c-0.109,-0 -0.006,0.065 -0.046,0.108c-0.039,0.042 -0.382,-0 -0.452,-0l-1.355,-0c-0.354,-0 -0.371,-0.071 -0.954,-0.201c-0.047,-0.01 -0.17,0.031 -0.201,0c-0.139,-0.139 -0.331,-0.201 -0.552,-0.402c-0.163,-0.148 -0.189,-0.431 -0.301,-0.552c-0.175,-0.187 -0.268,-0.244 -0.402,-0.452c-0.408,-0.627 -0.552,-0.91 -0.552,-1.756c-0,-0.093 -0.06,-0.543 -0,-0.603c0.222,-0.222 0.296,-0.647 0.502,-0.853c0.082,-0.082 0.014,-0.327 0.1,-0.402c0.329,-0.286 0.661,-0.483 1.004,-0.803c0.075,-0.07 0.024,-0.285 0.101,-0.351c0.322,-0.28 0.314,-0.946 0.602,-1.356c0.132,-0.188 0.314,-0.978 0.151,-1.305c-0.152,-0.303 -0.654,-0.569 -0.904,-0.954c-0.256,-0.393 -0.522,-0.86 -0.803,-1.104c-0.139,-0.121 -0.015,-0.309 -0.201,-0.402c-0.045,-0.022 0.022,-0.105 -0,-0.15c-0.059,-0.119 -0.125,-0.439 -0.251,-0.502c-0.037,-0.019 0,-0.489 0,-0.552c0,-0.652 0.052,-1.303 0.402,-1.607c0.043,-0.038 -0.038,-0.163 -0,-0.201c0.109,-0.109 0.231,-0.592 0.351,-0.652c0.321,-0.161 0.43,-0.661 0.753,-0.954c0.455,-0.414 0.608,-0.917 1.054,-1.305c0.057,-0.049 0.015,-0.231 0.05,-0.301c0.08,-0.16 0.183,-0.325 0.302,-0.452c0.049,-0.053 0.331,-0.061 0.351,-0.101c0.121,-0.242 0.407,-0.206 0.602,-0.401c0.047,-0.047 0.274,0.004 0.301,-0.05c0.107,-0.214 0.862,-0.304 1.155,-0.402c0.049,-0.016 0.384,0.035 0.402,0c0.13,-0.261 0.634,-0.016 0.903,-0.15c0.327,-0.164 0.817,-0.194 1.209,-0.194c0.109,0 0.006,-0.064 0.046,-0.108c0.039,-0.042 0.382,0 0.452,0c0.428,0 0.815,-0.05 1.255,-0.05l2.51,0c0.147,0 0.81,-0.093 0.903,0c0.319,0.319 0.435,0.807 0.703,1.054c0.041,0.038 0.011,0.262 0.05,0.301c0.05,0.051 0.204,0.529 0.251,0.553c0.148,0.073 0.097,0.147 0.201,0.251c0.027,0.027 -0.03,0.185 0,0.2c0.29,0.145 0.202,1.381 0,1.657c-0.046,0.063 -0.025,0.326 -0.05,0.402c-0.193,0.579 0.229,1.277 -0.201,1.706c-0.035,0.036 -0.105,-0.022 -0.15,0c-0.134,0.067 -0.221,0.309 -0.302,0.402c-0.078,0.09 -0.263,0.106 -0.351,0.201c-0.169,0.183 -0.393,0.032 -0.502,0.251c-0.021,0.042 -0.627,0.095 -0.703,0.15c-0.302,0.222 -1.019,-0.12 -1.255,0.151c-0.263,0.303 -0.762,0.21 -1.104,0.552c-0.036,0.036 0.022,0.106 -0,0.151c-0.043,0.085 -0.324,0.262 -0.402,0.301c-0.019,0.01 -0.215,0.416 -0.251,0.452c-0.149,0.149 -0.1,0.674 -0.1,0.953c-0,0.047 -0.034,0.318 -0,0.352c0.068,0.068 0.347,-0.008 0.402,0.1c0.102,0.206 0.272,0.272 0.401,0.402c0.066,0.066 0.423,0.021 0.502,0.1c0.187,0.187 0.555,0.558 0.703,0.854c0.11,0.22 0.03,1.094 -0.05,1.255c-0.071,0.141 -0.158,0.518 -0.301,0.652c-0.086,0.079 -0.214,0.074 -0.302,0.151c-0.038,0.033 0.031,0.12 0,0.15c-0.127,0.128 -0.274,0.363 -0.451,0.452c-0.031,0.015 0.026,0.174 -0,0.201c-0.132,0.132 -0.033,0.283 -0.151,0.452c-0.239,0.34 -0.62,0.881 -1.305,0.652c-0.926,-0.308 -1.397,-1.452 -1.858,-2.108c-0.073,-0.105 -0.353,-0.902 -0.15,-1.104c0.117,-0.118 0.284,-0.184 0.401,-0.302c0.159,-0.158 0.206,-0.604 0.402,-0.702c0.058,-0.03 0.309,-0.183 0.309,-0.248c-0,-0.936 -0.252,-1.436 -0.252,-2.314c-0,-0.147 -0.355,-0.805 -0.157,-1.002c0.061,-0.062 0.189,-0.039 0.251,-0.101c0.07,-0.07 0.03,-0.231 0.1,-0.301c0.151,-0.151 0.301,-0.301 0.452,-0.452c0.062,-0.062 0.368,-0.084 0.401,-0.15c0.056,-0.112 0.412,-0.508 0.502,-0.553c0.264,-0.132 0.268,-0.217 0.452,-0.401c0.136,-0.136 0.304,-0.056 0.402,-0.251c0.035,-0.072 0.516,0.043 0.602,-0c0.427,-0.214 1.219,-0.491 1.556,-0.803c0.043,-0.04 0.07,-0.336 0.101,-0.352c0.343,-0.171 0.186,-0.817 -0,-1.104c-0.089,-0.137 0.022,-0.407 -0.05,-0.552c-0.038,-0.074 -0.342,-0.174 -0.452,-0.251c-0.119,-0.083 -0.603,-0 -0.753,-0c-0.837,-0 -1.318,0.071 -2.008,0.301c-0.049,0.016 -0.384,-0.035 -0.402,-0c-0.14,0.28 -0.813,0.02 -0.954,0.301c-0.009,0.019 -0.21,0 -0.251,0c-0.138,0 -0.53,0.019 -0.652,0.1c-0.505,0.337 -1.112,0.309 -1.506,0.703c-0.036,0.036 -0.231,-0.041 -0.251,0c-0.078,0.156 -0.304,0.195 -0.402,0.301c-0.083,0.09 -0.374,0.011 -0.451,0.101c-0.338,0.388 -0.771,0.77 -1.105,1.104c-0.224,0.224 -0.201,0.706 -0.201,1.155c0,0.075 -0.048,0.403 0,0.452c0.19,0.189 0.499,0.675 0.653,0.753c0.294,0.147 0.65,0.295 0.803,0.602c0.023,0.046 0.247,0.041 0.301,0.1c0.134,0.145 0.33,0.467 0.502,0.553c0.037,0.018 0.027,0.304 0.05,0.351c0.067,0.133 0.223,0.738 0.352,0.803c0.041,0.021 -0,0.582 -0,0.653c-0,0.622 -0.112,1.015 -0.402,1.305c-0.074,0.074 -0.024,0.28 -0.1,0.351c-0.256,0.237 -0.453,0.723 -0.703,0.954c-0.077,0.071 -0.015,0.377 -0.1,0.452c-0.241,0.209 -0.329,0.559 -0.552,0.753c-0.068,0.058 -0.013,0.508 -0.101,0.552c-0.341,0.17 -0.555,1.781 0,2.058c0.106,0.053 -0.003,0.246 0.05,0.351c0.053,0.106 0.3,0.149 0.402,0.251c0.207,0.207 0.33,0.355 0.502,0.553c0.07,0.08 0.326,-0.026 0.401,0.05c0.101,0.1 0.252,0.151 0.352,0.251c0.085,0.085 0.426,-0.038 0.502,0.05c0.181,0.208 0.501,0.2 0.803,0.351c0.081,0.041 -0.008,0.151 0.151,0.151"
                style="fill:#a6a8ab;stroke:#000;stroke-width:2px;" />
            <path
                d="M359.277,263.992c-0.317,0.317 -0.762,0.344 -1.309,0.344c-0.109,-0 -0.007,0.064 -0.047,0.107c-0.038,0.042 -0.382,0 -0.451,0l-1.356,0c-0.354,0 -0.37,-0.071 -0.954,-0.2c-0.047,-0.011 -0.17,0.03 -0.2,-0c-0.14,-0.139 -0.332,-0.201 -0.553,-0.402c-0.163,-0.148 -0.188,-0.431 -0.301,-0.552c-0.174,-0.187 -0.267,-0.245 -0.401,-0.452c-0.408,-0.628 -0.553,-0.911 -0.553,-1.757c0,-0.092 -0.059,-0.543 0,-0.602c0.222,-0.222 0.296,-0.647 0.502,-0.854c0.082,-0.081 0.014,-0.326 0.101,-0.401c0.329,-0.286 0.66,-0.484 1.004,-0.803c0.075,-0.07 0.023,-0.285 0.1,-0.352c0.322,-0.28 0.315,-0.945 0.603,-1.355c0.132,-0.189 0.314,-0.979 0.15,-1.305c-0.151,-0.304 -0.654,-0.569 -0.903,-0.954c-0.256,-0.394 -0.523,-0.86 -0.804,-1.104c-0.138,-0.121 -0.014,-0.309 -0.2,-0.402c-0.045,-0.023 0.022,-0.106 -0,-0.151c-0.06,-0.118 -0.125,-0.439 -0.251,-0.502c-0.037,-0.018 -0,-0.488 -0,-0.552c-0,-0.651 0.052,-1.303 0.401,-1.606c0.044,-0.038 -0.038,-0.163 0,-0.201c0.109,-0.109 0.231,-0.592 0.352,-0.653c0.321,-0.16 0.43,-0.66 0.753,-0.953c0.455,-0.414 0.608,-0.918 1.054,-1.306c0.056,-0.049 0.015,-0.23 0.05,-0.301c0.08,-0.159 0.183,-0.325 0.301,-0.452c0.05,-0.053 0.332,-0.06 0.352,-0.1c0.121,-0.243 0.407,-0.206 0.602,-0.401c0.047,-0.047 0.274,0.004 0.301,-0.051c0.107,-0.213 0.861,-0.304 1.155,-0.401c0.049,-0.017 0.384,0.035 0.401,-0c0.131,-0.262 0.634,-0.016 0.904,-0.151c0.326,-0.163 0.816,-0.193 1.208,-0.193c0.109,-0 0.007,-0.065 0.047,-0.108c0.039,-0.042 0.382,-0 0.452,-0c0.427,-0 0.814,-0.05 1.255,-0.05l2.51,-0c0.146,-0 0.81,-0.093 0.903,-0c0.319,0.318 0.435,0.806 0.703,1.054c0.041,0.038 0.01,0.261 0.05,0.301c0.05,0.05 0.204,0.529 0.251,0.552c0.147,0.074 0.097,0.147 0.201,0.251c0.027,0.027 -0.03,0.186 -0,0.201c0.289,0.145 0.202,1.381 -0,1.657c-0.046,0.063 -0.025,0.325 -0.05,0.401c-0.194,0.58 0.229,1.277 -0.201,1.707c-0.036,0.035 -0.106,-0.022 -0.151,-0c-0.133,0.067 -0.22,0.309 -0.301,0.402c-0.078,0.089 -0.264,0.106 -0.351,0.2c-0.169,0.183 -0.393,0.033 -0.502,0.251c-0.022,0.043 -0.628,0.096 -0.703,0.151c-0.303,0.221 -1.019,-0.12 -1.255,0.151c-0.264,0.303 -0.762,0.21 -1.104,0.552c-0.036,0.035 0.022,0.105 -0,0.15c-0.043,0.086 -0.324,0.263 -0.402,0.302c-0.02,0.009 -0.215,0.416 -0.251,0.451c-0.149,0.149 -0.1,0.674 -0.1,0.954c-0,0.047 -0.034,0.318 -0,0.351c0.068,0.069 0.347,-0.008 0.401,0.101c0.103,0.205 0.272,0.272 0.402,0.401c0.066,0.067 0.422,0.021 0.502,0.101c0.187,0.187 0.555,0.557 0.703,0.853c0.11,0.22 0.029,1.095 -0.051,1.255c-0.071,0.142 -0.157,0.519 -0.301,0.653c-0.085,0.079 -0.213,0.074 -0.301,0.15c-0.038,0.034 0.031,0.12 -0,0.151c-0.127,0.127 -0.274,0.363 -0.452,0.452c-0.03,0.015 0.027,0.174 0,0.201c-0.132,0.131 -0.032,0.283 -0.15,0.451c-0.239,0.341 -0.621,0.881 -1.306,0.653c-0.925,-0.309 -1.396,-1.452 -1.857,-2.108c-0.073,-0.105 -0.353,-0.902 -0.151,-1.105c0.118,-0.117 0.285,-0.184 0.402,-0.301c0.158,-0.158 0.206,-0.605 0.402,-0.703c0.058,-0.029 0.308,-0.183 0.308,-0.247c0,-0.936 -0.251,-1.437 -0.251,-2.314c-0,-0.148 -0.355,-0.805 -0.158,-1.003c0.061,-0.061 0.19,-0.039 0.251,-0.1c0.071,-0.071 0.03,-0.231 0.101,-0.301c0.151,-0.151 0.301,-0.301 0.451,-0.452c0.062,-0.062 0.369,-0.084 0.402,-0.151c0.056,-0.111 0.412,-0.507 0.502,-0.552c0.264,-0.132 0.267,-0.217 0.452,-0.402c0.135,-0.135 0.304,-0.055 0.401,-0.251c0.036,-0.071 0.516,0.044 0.603,0c0.426,-0.213 1.218,-0.491 1.556,-0.803c0.042,-0.039 0.07,-0.336 0.1,-0.351c0.343,-0.172 0.187,-0.817 0,-1.105c-0.088,-0.136 0.023,-0.406 -0.05,-0.552c-0.037,-0.074 -0.341,-0.173 -0.452,-0.251c-0.118,-0.083 -0.603,0 -0.753,0c-0.836,0 -1.317,0.071 -2.008,0.301c-0.048,0.017 -0.384,-0.035 -0.401,0c-0.14,0.281 -0.813,0.02 -0.954,0.302c-0.01,0.019 -0.21,-0 -0.251,-0c-0.138,-0 -0.53,0.018 -0.653,0.1c-0.504,0.336 -1.112,0.309 -1.506,0.703c-0.035,0.035 -0.23,-0.041 -0.251,-0c-0.077,0.155 -0.303,0.195 -0.401,0.301c-0.083,0.09 -0.374,0.011 -0.452,0.1c-0.337,0.389 -0.77,0.771 -1.104,1.105c-0.224,0.224 -0.201,0.706 -0.201,1.154c-0,0.076 -0.048,0.404 -0,0.452c0.19,0.19 0.498,0.676 0.653,0.753c0.294,0.147 0.649,0.296 0.803,0.603c0.023,0.045 0.246,0.041 0.301,0.1c0.134,0.145 0.33,0.466 0.502,0.552c0.036,0.018 0.026,0.304 0.05,0.351c0.066,0.133 0.222,0.739 0.351,0.804c0.042,0.02 0,0.582 0,0.652c0,0.622 -0.111,1.016 -0.401,1.305c-0.074,0.075 -0.024,0.281 -0.101,0.352c-0.256,0.237 -0.453,0.723 -0.702,0.954c-0.078,0.071 -0.015,0.377 -0.101,0.451c-0.24,0.21 -0.329,0.559 -0.552,0.753c-0.067,0.059 -0.013,0.509 -0.1,0.553c-0.341,0.17 -0.555,1.78 -0,2.058c0.106,0.053 -0.003,0.245 0.05,0.351c0.053,0.106 0.299,0.149 0.402,0.251c0.206,0.207 0.33,0.355 0.502,0.552c0.069,0.081 0.325,-0.025 0.401,0.05c0.1,0.101 0.251,0.151 0.351,0.251c0.086,0.086 0.426,-0.037 0.502,0.051c0.182,0.208 0.501,0.2 0.804,0.351c0.081,0.041 -0.008,0.151 0.15,0.151"
                style="fill:#808184;stroke:#000;stroke-width:2px;" />
        </g>
        <g>
            <path
                d="M280.136,309.911c-4.007,-3.529 -6.4,-9.531 -6.4,-17.556c0,-18.915 13.299,-41.95 29.68,-51.408c6.572,-3.794 12.648,-4.83 17.568,-3.489c2.129,0.58 4.042,1.605 5.685,3.045l6.834,3.661c0.268,0.133 0.531,0.274 0.79,0.424c5.373,3.101 8.697,9.75 8.697,19.207c0,18.916 -13.299,41.951 -29.68,51.408c-6.838,3.948 -13.139,4.91 -18.16,3.315c-1.958,-0.622 -3.722,-1.633 -5.247,-3.007l-4.808,-2.757c-1.84,-0.608 -3.506,-1.563 -4.959,-2.843Z"
                style="fill:#a6a8ab;stroke:#000;stroke-width:2px;" />
            <path
                d="M313.31,246.659c16.381,-9.457 29.68,-1.779 29.68,17.136c0,18.916 -13.299,41.951 -29.68,51.408c-16.381,9.458 -29.68,1.78 -29.68,-17.136c-0,-18.915 13.299,-41.95 29.68,-51.408Z"
                style="fill:#808184;stroke:#000;stroke-width:2px;" />
            <path
                d="M310.234,305.414c-0.747,0.746 -1.794,0.81 -3.082,0.81c-0.256,-0 -0.016,0.152 -0.11,0.254c-0.091,0.098 -0.899,-0 -1.064,-0l-3.191,-0c-0.833,-0 -0.872,-0.168 -2.246,-0.473c-0.11,-0.025 -0.4,0.072 -0.472,-0c-0.328,-0.328 -0.781,-0.473 -1.301,-0.946c-0.383,-0.348 -0.443,-1.015 -0.709,-1.3c-0.41,-0.441 -0.629,-0.576 -0.945,-1.064c-0.96,-1.478 -1.301,-2.144 -1.301,-4.137c0,-0.216 -0.14,-1.278 0,-1.418c0.523,-0.522 0.697,-1.524 1.182,-2.009c0.193,-0.193 0.033,-0.769 0.237,-0.946c0.774,-0.673 1.555,-1.139 2.364,-1.891c0.176,-0.165 0.056,-0.671 0.236,-0.828c0.759,-0.659 0.741,-2.226 1.419,-3.191c0.311,-0.443 0.739,-2.304 0.354,-3.073c-0.357,-0.714 -1.54,-1.34 -2.127,-2.246c-0.602,-0.927 -1.23,-2.025 -1.892,-2.6c-0.326,-0.284 -0.035,-0.727 -0.472,-0.946c-0.106,-0.053 0.052,-0.249 -0,-0.355c-0.14,-0.279 -0.295,-1.033 -0.591,-1.181c-0.087,-0.044 -0,-1.151 -0,-1.301c-0,-1.533 0.123,-3.067 0.945,-3.782c0.103,-0.089 -0.089,-0.383 0,-0.473c0.257,-0.257 0.544,-1.395 0.828,-1.536c0.756,-0.379 1.013,-1.555 1.773,-2.246c1.071,-0.974 1.431,-2.16 2.482,-3.073c0.133,-0.116 0.035,-0.543 0.118,-0.71c0.188,-0.375 0.431,-0.765 0.709,-1.063c0.117,-0.126 0.781,-0.144 0.827,-0.237c0.286,-0.572 0.959,-0.485 1.419,-0.945c0.11,-0.111 0.645,0.01 0.709,-0.119c0.252,-0.503 2.028,-0.715 2.719,-0.945c0.115,-0.039 0.904,0.083 0.945,-0c0.308,-0.616 1.493,-0.038 2.128,-0.355c0.769,-0.384 1.922,-0.455 2.845,-0.455c0.257,0 0.016,-0.152 0.11,-0.254c0.091,-0.099 0.899,0 1.064,0c1.007,0 1.918,-0.118 2.955,-0.118l5.91,-0c0.345,-0 1.908,-0.219 2.127,-0c0.75,0.75 1.024,1.899 1.655,2.482c0.096,0.089 0.024,0.615 0.118,0.709c0.118,0.118 0.48,1.245 0.591,1.3c0.346,0.174 0.228,0.346 0.473,0.591c0.063,0.064 -0.071,0.438 -0,0.473c0.682,0.341 0.475,3.251 -0,3.901c-0.108,0.148 -0.059,0.766 -0.118,0.945c-0.455,1.365 0.539,3.007 -0.473,4.019c-0.084,0.084 -0.249,-0.053 -0.355,0c-0.314,0.157 -0.519,0.728 -0.709,0.946c-0.184,0.211 -0.621,0.25 -0.827,0.473c-0.398,0.43 -0.925,0.076 -1.182,0.591c-0.05,0.099 -1.477,0.224 -1.655,0.354c-0.712,0.521 -2.4,-0.283 -2.955,0.355c-0.62,0.713 -1.795,0.494 -2.6,1.3c-0.084,0.083 0.052,0.249 -0,0.354c-0.101,0.201 -0.763,0.618 -0.946,0.71c-0.046,0.023 -0.507,0.98 -0.591,1.063c-0.351,0.351 -0.236,1.588 -0.236,2.246c-0,0.11 -0.08,0.748 -0,0.828c0.16,0.16 0.817,-0.02 0.945,0.236c0.242,0.483 0.641,0.641 0.946,0.946c0.156,0.155 0.994,0.049 1.182,0.236c0.44,0.44 1.306,1.313 1.655,2.009c0.259,0.519 0.07,2.578 -0.119,2.955c-0.166,0.334 -0.37,1.222 -0.709,1.537c-0.2,0.186 -0.501,0.174 -0.709,0.355c-0.09,0.078 0.072,0.282 -0,0.354c-0.3,0.3 -0.646,0.855 -1.064,1.064c-0.071,0.035 0.064,0.409 0,0.473c-0.31,0.31 -0.076,0.667 -0.354,1.064c-0.563,0.802 -1.461,2.074 -3.074,1.536c-2.179,-0.726 -3.288,-3.418 -4.373,-4.964c-0.173,-0.247 -0.832,-2.123 -0.355,-2.601c0.276,-0.275 0.67,-0.433 0.946,-0.709c0.373,-0.373 0.484,-1.424 0.946,-1.655c0.137,-0.068 0.727,-0.43 0.727,-0.582c-0,-2.204 -0.593,-3.383 -0.593,-5.449c-0,-0.347 -0.836,-1.895 -0.371,-2.361c0.144,-0.144 0.446,-0.091 0.591,-0.236c0.166,-0.166 0.071,-0.543 0.237,-0.709c0.355,-0.356 0.708,-0.709 1.063,-1.064c0.146,-0.146 0.868,-0.198 0.946,-0.355c0.131,-0.262 0.97,-1.194 1.182,-1.3c0.622,-0.311 0.629,-0.511 1.064,-0.945c0.319,-0.319 0.715,-0.131 0.945,-0.591c0.084,-0.169 1.216,0.101 1.419,-0c1.004,-0.503 2.869,-1.156 3.664,-1.892c0.1,-0.092 0.164,-0.791 0.236,-0.827c0.808,-0.404 0.439,-1.924 0,-2.6c-0.208,-0.322 0.053,-0.958 -0.118,-1.301c-0.087,-0.174 -0.804,-0.408 -1.064,-0.591c-0.278,-0.195 -1.42,0 -1.773,0c-1.97,0 -3.102,0.168 -4.728,0.71c-0.115,0.038 -0.904,-0.083 -0.945,-0c-0.33,0.659 -1.915,0.047 -2.246,0.709c-0.023,0.045 -0.495,-0 -0.591,-0c-0.326,-0 -1.248,0.044 -1.537,0.236c-1.188,0.792 -2.618,0.727 -3.546,1.655c-0.083,0.083 -0.542,-0.096 -0.591,-0c-0.182,0.366 -0.714,0.459 -0.945,0.709c-0.196,0.212 -0.88,0.026 -1.064,0.237c-0.795,0.914 -1.814,1.814 -2.6,2.6c-0.527,0.527 -0.473,1.662 -0.473,2.719c-0,0.177 -0.113,0.95 -0,1.063c0.446,0.447 1.173,1.592 1.537,1.773c0.692,0.347 1.529,0.696 1.891,1.419c0.054,0.107 0.581,0.097 0.709,0.236c0.316,0.341 0.777,1.098 1.182,1.3c0.086,0.043 0.062,0.717 0.118,0.828c0.156,0.312 0.523,1.739 0.827,1.891c0.097,0.048 0,1.37 0,1.536c0,1.465 -0.263,2.391 -0.945,3.074c-0.175,0.174 -0.056,0.66 -0.237,0.827c-0.603,0.558 -1.067,1.702 -1.654,2.246c-0.182,0.168 -0.035,0.888 -0.237,1.064c-0.566,0.492 -0.774,1.316 -1.3,1.773c-0.158,0.137 -0.03,1.197 -0.236,1.3c-0.803,0.401 -1.308,4.192 -0,4.846c0.249,0.125 -0.007,0.578 0.118,0.827c0.124,0.249 0.705,0.351 0.945,0.591c0.487,0.487 0.778,0.836 1.182,1.3c0.165,0.19 0.768,-0.059 0.946,0.119c0.236,0.235 0.592,0.355 0.827,0.591c0.201,0.201 1.003,-0.089 1.182,0.118c0.427,0.49 1.179,0.471 1.892,0.827c0.19,0.096 -0.019,0.355 0.354,0.355"
                style="fill:#a6a8ab;stroke:#000;stroke-width:2px;" />
            <path
                d="M314.163,306.955c-0.747,0.747 -1.794,0.81 -3.082,0.81c-0.257,-0 -0.016,0.152 -0.11,0.254c-0.091,0.099 -0.899,-0 -1.064,-0l-3.191,-0c-0.833,-0 -0.872,-0.168 -2.246,-0.473c-0.11,-0.024 -0.401,0.072 -0.473,0c-0.327,-0.327 -0.78,-0.473 -1.3,-0.945c-0.383,-0.349 -0.444,-1.015 -0.709,-1.301c-0.41,-0.441 -0.629,-0.576 -0.946,-1.063c-0.959,-1.479 -1.3,-2.145 -1.3,-4.137c0,-0.217 -0.14,-1.279 0,-1.419c0.523,-0.522 0.697,-1.523 1.182,-2.009c0.193,-0.193 0.033,-0.769 0.237,-0.946c0.774,-0.673 1.555,-1.138 2.364,-1.891c0.176,-0.164 0.055,-0.67 0.236,-0.827c0.758,-0.66 0.741,-2.226 1.418,-3.192c0.312,-0.443 0.74,-2.303 0.355,-3.073c-0.357,-0.714 -1.54,-1.34 -2.128,-2.246c-0.601,-0.927 -1.229,-2.025 -1.891,-2.6c-0.326,-0.284 -0.035,-0.727 -0.473,-0.946c-0.105,-0.052 0.053,-0.248 0,-0.354c-0.139,-0.28 -0.294,-1.034 -0.591,-1.182c-0.087,-0.044 0,-1.151 0,-1.3c0,-1.534 0.124,-3.068 0.946,-3.783c0.103,-0.089 -0.09,-0.383 0,-0.473c0.257,-0.257 0.544,-1.394 0.827,-1.536c0.757,-0.378 1.014,-1.555 1.773,-2.246c1.072,-0.974 1.432,-2.16 2.483,-3.073c0.133,-0.116 0.035,-0.543 0.118,-0.709c0.188,-0.376 0.431,-0.765 0.709,-1.064c0.117,-0.125 0.781,-0.144 0.827,-0.236c0.286,-0.572 0.959,-0.486 1.419,-0.946c0.11,-0.111 0.645,0.01 0.709,-0.118c0.252,-0.504 2.028,-0.716 2.719,-0.946c0.115,-0.038 0.904,0.083 0.945,0c0.308,-0.615 1.493,-0.037 2.128,-0.354c0.769,-0.385 1.922,-0.456 2.845,-0.456c0.256,0 0.016,-0.152 0.11,-0.254c0.091,-0.098 0.899,0 1.064,0c1.007,0 1.917,-0.118 2.955,-0.118l5.909,0c0.346,0 1.909,-0.219 2.128,0c0.75,0.75 1.024,1.899 1.655,2.482c0.096,0.089 0.024,0.616 0.118,0.71c0.118,0.117 0.48,1.244 0.591,1.3c0.346,0.173 0.228,0.346 0.473,0.591c0.063,0.063 -0.071,0.437 -0,0.473c0.682,0.34 0.475,3.25 -0,3.9c-0.108,0.148 -0.059,0.767 -0.118,0.946c-0.455,1.364 0.539,3.006 -0.473,4.018c-0.084,0.084 -0.249,-0.052 -0.355,0c-0.314,0.158 -0.519,0.728 -0.709,0.946c-0.184,0.212 -0.621,0.25 -0.827,0.473c-0.399,0.43 -0.925,0.076 -1.182,0.591c-0.05,0.1 -1.477,0.224 -1.655,0.354c-0.712,0.521 -2.4,-0.283 -2.955,0.355c-0.62,0.713 -1.795,0.495 -2.6,1.3c-0.084,0.084 0.052,0.249 -0,0.355c-0.101,0.201 -0.764,0.618 -0.946,0.709c-0.046,0.023 -0.507,0.98 -0.591,1.064c-0.351,0.35 -0.236,1.587 -0.236,2.246c-0,0.11 -0.08,0.748 -0,0.827c0.16,0.161 0.817,-0.02 0.945,0.236c0.242,0.484 0.641,0.641 0.946,0.946c0.155,0.156 0.994,0.049 1.182,0.236c0.44,0.441 1.306,1.313 1.654,2.01c0.26,0.518 0.071,2.578 -0.118,2.955c-0.167,0.333 -0.37,1.221 -0.709,1.536c-0.2,0.187 -0.502,0.174 -0.709,0.355c-0.09,0.078 0.072,0.282 -0,0.354c-0.3,0.3 -0.646,0.855 -1.064,1.064c-0.071,0.036 0.064,0.41 0,0.473c-0.311,0.311 -0.076,0.667 -0.354,1.064c-0.563,0.802 -1.461,2.074 -3.074,1.536c-2.179,-0.726 -3.288,-3.418 -4.373,-4.964c-0.173,-0.246 -0.832,-2.123 -0.355,-2.6c0.276,-0.276 0.67,-0.434 0.946,-0.709c0.373,-0.373 0.484,-1.425 0.946,-1.655c0.137,-0.069 0.726,-0.431 0.726,-0.582c0,-2.205 -0.592,-3.383 -0.592,-5.449c-0,-0.347 -0.836,-1.896 -0.371,-2.361c0.144,-0.145 0.446,-0.091 0.591,-0.237c0.166,-0.165 0.071,-0.543 0.237,-0.709c0.355,-0.355 0.708,-0.709 1.063,-1.064c0.146,-0.145 0.867,-0.197 0.946,-0.354c0.131,-0.263 0.97,-1.195 1.182,-1.301c0.622,-0.31 0.629,-0.511 1.064,-0.945c0.318,-0.319 0.715,-0.131 0.945,-0.591c0.084,-0.168 1.216,0.101 1.419,-0c1.004,-0.502 2.869,-1.156 3.664,-1.891c0.1,-0.093 0.164,-0.792 0.236,-0.828c0.808,-0.403 0.439,-1.924 0,-2.6c-0.209,-0.322 0.053,-0.958 -0.118,-1.3c-0.087,-0.175 -0.804,-0.409 -1.064,-0.591c-0.279,-0.196 -1.42,-0 -1.773,-0c-1.97,-0 -3.102,0.167 -4.728,0.709c-0.115,0.038 -0.904,-0.083 -0.945,-0c-0.33,0.66 -1.915,0.047 -2.246,0.709c-0.023,0.046 -0.495,0 -0.591,0c-0.326,0 -1.248,0.044 -1.537,0.237c-1.188,0.792 -2.618,0.727 -3.546,1.654c-0.083,0.084 -0.542,-0.096 -0.591,0c-0.183,0.366 -0.714,0.46 -0.945,0.709c-0.196,0.212 -0.881,0.026 -1.064,0.237c-0.795,0.914 -1.814,1.814 -2.6,2.6c-0.527,0.527 -0.473,1.662 -0.473,2.719c-0,0.178 -0.113,0.95 -0,1.064c0.446,0.446 1.173,1.591 1.536,1.773c0.693,0.346 1.53,0.695 1.892,1.418c0.054,0.108 0.581,0.098 0.709,0.236c0.316,0.342 0.777,1.098 1.182,1.301c0.086,0.042 0.062,0.716 0.118,0.827c0.156,0.313 0.523,1.739 0.827,1.891c0.097,0.048 0,1.37 0,1.537c0,1.465 -0.263,2.39 -0.945,3.073c-0.175,0.174 -0.056,0.661 -0.237,0.827c-0.603,0.558 -1.067,1.703 -1.654,2.246c-0.182,0.168 -0.035,0.889 -0.237,1.064c-0.566,0.492 -0.775,1.316 -1.3,1.773c-0.158,0.137 -0.03,1.197 -0.236,1.3c-0.803,0.401 -1.308,4.193 -0,4.846c0.249,0.125 -0.007,0.578 0.118,0.828c0.124,0.249 0.705,0.35 0.945,0.591c0.487,0.487 0.778,0.835 1.182,1.3c0.165,0.189 0.768,-0.06 0.946,0.118c0.236,0.236 0.592,0.355 0.827,0.591c0.201,0.201 1.003,-0.089 1.182,0.118c0.427,0.49 1.179,0.471 1.892,0.828c0.19,0.095 -0.019,0.354 0.354,0.354"
                style="fill:#808184;stroke:#000;stroke-width:2px;" />
        </g>
    </g>
</svg>