<?xml version="1.0" encoding="UTF-8" standalone="no"?><!DOCTYPE svg PUBLIC "-//W3C//DTD SVG 1.1//EN" "http://www.w3.org/Graphics/SVG/1.1/DTD/svg11.dtd"><svg width="100%" height="100%" viewBox="0 0 484 426" version="1.1" xmlns="http://www.w3.org/2000/svg" xmlns:xlink="http://www.w3.org/1999/xlink" xml:space="preserve" xmlns:serif="http://www.serif.com/" style="fill-rule:evenodd;clip-rule:evenodd;stroke-linecap:round;stroke-linejoin:round;stroke-miterlimit:1.5;"><rect id="novaterraprime_tile_1" x="0" y="0.016" width="483.027" height="425.317" style="fill:none;"/><clipPath id="_clip1"><rect x="0" y="0.016" width="483.027" height="425.317"/></clipPath><g clip-path="url(#_clip1)"><g><g id="tilebase"><path d="M481.467,241.292l0,45.437l-240.069,138.605l-0,-45.438l240.069,-138.604Z" style="fill:#808184;stroke:#000;stroke-width:3px;"/><path d="M241.398,379.667l-0,45.552l-239.871,-138.49l-0,-45.551l239.871,138.489Z" style="fill:#a6a8ab;stroke:#000;stroke-width:3px;"/><path d="M241.596,102.734l239.931,138.524l-239.931,138.524l-239.93,-138.524l239.93,-138.524Z" style="fill:#d0d2d3;stroke:#000;stroke-width:3px;"/></g><path d="M424.964,123.756l0,130.397l-28.232,16.3l0,-130.397l28.232,-16.3Z" style="fill:#808184;stroke:#000;stroke-width:3px;"/><path d="M396.732,107.456l0,130.397l-28.231,16.3l-0,-130.397l28.231,-16.3Z" style="fill:#808184;stroke:#000;stroke-width:3px;"/><path d="M368.501,91.157l-0,130.397l-28.232,16.299l-0,-130.397l28.232,-16.299Z" style="fill:#808184;stroke:#000;stroke-width:3px;"/><path d="M340.269,74.857l-0,130.397l-28.232,16.3l-0,-130.397l28.232,-16.3Z" style="fill:#808184;stroke:#000;stroke-width:3px;"/><path d="M312.037,58.557l-0,130.397l-28.232,16.3l0,-130.397l28.232,-16.3Z" style="fill:#808184;stroke:#000;stroke-width:3px;"/><path d="M283.805,42.258l0,130.397l-28.232,16.299l0,-130.397l28.232,-16.299Z" style="fill:#808184;stroke:#000;stroke-width:3px;"/><path d="M255.613,25.935l-0,130.397l-28.232,16.3l0,-130.397l28.232,-16.3Z" style="fill:#808184;stroke:#000;stroke-width:3px;"/><path d="M227.342,9.659l-0,130.397l-28.232,16.299l-0,-130.397l28.232,-16.299Z" style="fill:#808184;stroke:#000;stroke-width:3px;"/><path d="M213.226,1.509l211.738,122.247l-28.232,16.3l-211.738,-122.248l28.232,-16.299Z" style="fill:#d0d2d3;stroke:#000;stroke-width:3px;"/><path d="M396.732,140.056l0,130.397l-14.116,-8.15l0,-110.138c0,-2.45 -1.307,-4.714 -3.429,-5.939c0,-0.001 -0,-0.001 -0,-0.001c-2.204,-1.272 -4.92,-1.272 -7.124,0c-2.205,1.273 -3.562,3.625 -3.562,6.17l-0,101.758l-14.116,-8.15l-0,-110.138c-0,-2.45 -1.308,-4.714 -3.429,-5.939c-0.001,-0 -0.001,-0 -0.001,-0c-2.204,-1.273 -4.92,-1.273 -7.124,-0c-2.204,1.272 -3.562,3.624 -3.562,6.169l-0,101.758l-14.116,-8.149l-0,-110.138c-0,-2.45 -1.307,-4.715 -3.429,-5.94c-0,0 -0.001,0 -0.001,0c-2.204,-1.273 -4.92,-1.273 -7.124,0c-2.204,1.273 -3.562,3.625 -3.562,6.17l-0,101.758l-14.116,-8.15l0,-110.138c0,-2.45 -1.307,-4.714 -3.429,-5.939c-0,-0 -0,-0.001 -0.001,-0.001c-2.204,-1.272 -4.919,-1.272 -7.124,0c-2.204,1.273 -3.562,3.625 -3.562,6.17l0,101.758l-14.116,-8.15l0,-110.138c0,-2.45 -1.307,-4.714 -3.429,-5.939c0,-0 -0,-0 -0,-0c-2.205,-1.273 -4.92,-1.273 -7.124,-0c-2.205,1.272 -3.563,3.624 -3.563,6.169l0,101.758l-14.115,-8.149l-0,-110.159c-0,-2.437 -1.301,-4.69 -3.412,-5.908c0,-0 -0,-0 -0,-0c-2.2,-1.271 -4.911,-1.271 -7.112,-0.001c-2.2,1.27 -3.556,3.617 -3.557,6.158c-0.01,29.496 -0.035,101.76 -0.035,101.76l-14.116,-8.15l-0,-110.138c-0,-2.45 -1.307,-4.714 -3.429,-5.939c-0.001,-0 -0.001,-0 -0.001,-0c-2.204,-1.273 -4.92,-1.273 -7.124,-0c-2.204,1.272 -3.562,3.624 -3.562,6.169l-0,101.758l-14.116,-8.15l-0,-130.397l211.738,122.248Z" style="fill:#a6a8ab;stroke:#000;stroke-width:3px;"/><path d="M142.686,172.632l28.232,-16.3l42.347,24.45l-28.232,16.299l-42.347,-24.449Z" style="fill:#d0d2d3;stroke:#000;stroke-width:3px;"/><path d="M213.265,180.782l0,16.299l-28.232,16.3l0,-16.3l28.232,-16.299Z" style="fill:#808184;stroke:#000;stroke-width:3px;"/><path d="M185.033,197.081l0,16.3l-42.347,-24.449l-0,-16.3l42.347,24.449Z" style="fill:#a6a8ab;stroke:#000;stroke-width:3px;"/><path d="M156.802,180.782l-28.232,32.599l28.232,-16.3l-0,-16.299Z" style="fill:#808184;stroke:#000;stroke-width:3px;"/><path d="M156.802,180.782l-28.232,32.599l-14.116,-8.15l28.232,-32.599l14.116,8.15Z" style="fill:#d0d2d3;stroke:#000;stroke-width:3px;"/><path d="M241.537,343.801l-84.735,-48.922l14.116,-8.15l28.231,16.3l42.388,-24.472l42.34,24.479l56.431,-32.606l14.116,8.15l-56.463,32.599l-56.424,32.622Z" style="fill:#d0d2d3;stroke:#000;stroke-width:3px;"/><path d="M241.537,343.801l-0.04,16.277l-98.811,-57.049l14.116,-8.15l84.735,48.922Z" style="fill:#a6a8ab;stroke:#000;stroke-width:3px;"/><path d="M241.537,360.055l127.003,-73.326l-14.116,-8.149l-112.887,65.221l-0,16.254Z" style="fill:#808184;stroke:#000;stroke-width:3px;"/><path d="M86.222,221.531l28.232,16.3l-28.232,16.299l-28.232,-16.299l28.232,-16.3Z" style="fill:#62b54a;stroke:#000;stroke-width:3px;"/><path d="M86.222,140.033l14.116,8.15l-14.116,8.149l-14.116,-8.149l14.116,-8.15Z" style="fill:#62b54a;stroke:#000;stroke-width:3px;"/><path d="M88.681,236.164c0.026,0.143 0.04,0.289 0.04,0.439c-0,1.356 -1.12,2.457 -2.499,2.457c-1.379,0 -2.498,-1.101 -2.498,-2.457c-0,-0.15 0.013,-0.296 0.039,-0.439l0,-42.489l4.918,-0l0,42.489Z" style="fill:#c06100;stroke:#000;stroke-width:3px;"/><path d="M86.222,156.332l0,48.899l-14.116,-8.15l0,-48.898l14.116,8.149Z" style="fill:#4e913b;stroke:#000;stroke-width:3px;"/><path d="M86.222,156.332l0,48.899l14.116,-8.15l0,-48.898l-14.116,8.149Z" style="fill:#3b6d2c;stroke:#000;stroke-width:3px;"/></g></g></svg>