<?xml version="1.0" encoding="UTF-8" standalone="no"?><!DOCTYPE svg PUBLIC "-//W3C//DTD SVG 1.1//EN" "http://www.w3.org/Graphics/SVG/1.1/DTD/svg11.dtd"><svg width="100%" height="100%" viewBox="0 0 484 426" version="1.1" xmlns="http://www.w3.org/2000/svg" xmlns:xlink="http://www.w3.org/1999/xlink" xml:space="preserve" xmlns:serif="http://www.serif.com/" style="fill-rule:evenodd;clip-rule:evenodd;stroke-linecap:round;stroke-linejoin:round;stroke-miterlimit:1.5;"><rect id="novaterraprime_tile_4" x="0.08" y="0.022" width="483.027" height="425.317" style="fill:none;"/><clipPath id="_clip1"><rect x="0.08" y="0.022" width="483.027" height="425.317"/></clipPath><g clip-path="url(#_clip1)"><g id="tilebase"><path d="M481.399,240.679l0,45.437l-240.069,138.604l0,-45.437l240.069,-138.604Z" style="fill:#808184;stroke:#000;stroke-width:3px;"/><path d="M241.33,379.054l0,45.552l-239.871,-138.49l0,-45.551l239.871,138.489Z" style="fill:#a6a8ab;stroke:#000;stroke-width:3px;"/><path d="M241.528,102.121l239.931,138.524l-239.931,138.524l-239.93,-138.524l239.93,-138.524Z" style="fill:#d0d2d3;stroke:#000;stroke-width:3px;"/></g><path d="M82.614,116.892l29.681,17.136l-29.681,17.136l-29.68,-17.136l29.68,-17.136Z" style="fill:#d0d2d3;stroke:#000;stroke-width:3px;"/><path d="M72.725,54.057l14.867,-2.3l10.882,6.283l-3.983,8.583l-14.866,2.3l-10.883,-6.283l3.983,-8.583Z" style="fill:#d0d2d3;stroke:#000;stroke-width:3px;"/><path d="M79.625,68.923l-0,73.114l14.866,-2.3l0,-73.114l-14.866,2.3Z" style="fill:#808184;stroke:#000;stroke-width:3px;"/><path d="M94.491,66.623l3.983,-8.583l0,73.114l-3.983,8.583l0,-73.114Z" style="fill:#808184;stroke:#000;stroke-width:3px;"/><path d="M79.625,68.923l-0,73.114l-10.883,-6.283l0,-73.114l10.883,6.283Z" style="fill:#a6a8ab;stroke:#000;stroke-width:3px;"/><path d="M74.669,60.522c-0.042,-0.342 -0.064,-0.691 -0.064,-1.044c0,-4.704 3.819,-8.522 8.523,-8.522c4.703,-0 8.522,3.818 8.522,8.522c-0,0.614 -0.065,1.212 -0.189,1.789c-6.834,1.825 -12.85,0.636 -16.792,-0.745Z" style="fill:#4e913b;stroke:#000;stroke-width:3px;"/><path d="M241.594,127.921l-0,34.272l-139.193,80.363l0,-34.272l139.193,-80.363Z" style="fill:#808184;stroke:#000;stroke-width:3px;"/><path d="M211.913,110.785l29.681,17.136l-138.204,79.791l-29.68,-17.136l138.203,-79.791Z" style="fill:#d0d2d3;stroke:#000;stroke-width:3px;"/><path d="M232.006,127.744l-9.894,-44.553l-119.711,67.973l5.936,46.838l123.669,-70.258Z" style="fill:#3b6d2c;stroke:#000;stroke-width:3px;"/><path d="M82.614,151.164l0,114.24l29.681,-17.136l-0,-114.24l-29.681,17.136Z" style="fill:#808184;stroke:#000;stroke-width:3px;"/><path d="M82.614,151.164l0,114.24l-29.68,-17.136l-0,-114.24l29.68,17.136Z" style="fill:#a6a8ab;stroke:#000;stroke-width:3px;"/><path d="M127.134,205.428c1.021,-0.589 2.278,-0.589 3.298,0c1.021,0.589 1.65,1.678 1.65,2.857c-0,6.767 -0,17.135 -0,17.135l-9.894,5.712l0,-17.767c0,-3.144 1.677,-6.05 4.4,-7.622c0.182,-0.104 0.364,-0.21 0.546,-0.315Z" style="fill:#484848;stroke:#000;stroke-width:3px;"/><path d="M92.518,213.99c0.406,-0.235 0.906,-0.235 1.312,-0c0.406,0.234 0.656,0.667 0.656,1.136l0,20.575l-3.957,2.285l-0,-20.552c-0,-1.421 0.758,-2.733 1.988,-3.444c0,0 0.001,-0 0.001,-0Z"/><path d="M92.518,179.718c0.406,-0.235 0.906,-0.235 1.312,-0c0.406,0.234 0.656,0.667 0.656,1.136l0,20.575l-3.957,2.285l-0,-20.552c-0,-1.421 0.758,-2.733 1.988,-3.444c0,0 0.001,-0 0.001,-0Z"/><path d="M72.71,179.718c-0.406,-0.235 -0.906,-0.235 -1.312,-0c-0.406,0.234 -0.656,0.667 -0.656,1.136l-0,20.575l3.957,2.285l0,-20.552c0,-1.421 -0.757,-2.733 -1.988,-3.444c-0,0 -0,-0 -0.001,-0Z"/><path d="M72.71,213.99c-0.406,-0.235 -0.906,-0.235 -1.312,-0c-0.406,0.234 -0.656,0.667 -0.656,1.136l-0,20.575l3.957,2.285l0,-20.552c0,-1.421 -0.757,-2.733 -1.988,-3.444c-0,0 -0,-0 -0.001,-0Z"/><path d="M102.411,208.278c0.406,-0.235 0.907,-0.235 1.313,-0c0.406,0.234 0.656,0.667 0.656,1.136l-0,20.575l-3.958,2.285l0,-20.552c0,-1.421 0.758,-2.733 1.989,-3.444c-0,0 0,-0 0,-0Z"/><path d="M102.411,174.006c0.406,-0.235 0.907,-0.235 1.313,-0c0.406,0.234 0.656,0.667 0.656,1.136l-0,20.575l-3.958,2.285l0,-20.552c0,-1.421 0.758,-2.733 1.989,-3.444c-0,0 0,-0 0,-0Z"/><path d="M62.817,174.006c-0.406,-0.235 -0.906,-0.235 -1.312,-0c-0.406,0.234 -0.656,0.667 -0.656,1.136l-0,20.575l3.957,2.285l-0,-20.552c-0,-1.421 -0.758,-2.733 -1.988,-3.444c-0,0 -0.001,-0 -0.001,-0Z"/><path d="M67.764,149.444c-0.406,-0.234 -0.907,-0.234 -1.313,0c-0.406,0.235 -0.656,0.668 -0.656,1.137c0,5.127 0,17.147 0,17.147l3.958,2.285l-0,-17.125c-0,-1.42 -0.758,-2.733 -1.989,-3.443c0,-0.001 -0,-0.001 -0,-0.001Z"/><path d="M97.465,148.302c0.406,-0.235 0.906,-0.235 1.312,-0c0.406,0.234 0.656,0.667 0.656,1.136c0,5.127 0,17.148 0,17.148l-3.957,2.285l-0,-17.125c-0,-1.421 0.758,-2.733 1.988,-3.444c0,0 0,-0 0.001,-0Z"/><path d="M62.817,208.278c-0.406,-0.235 -0.906,-0.235 -1.312,-0c-0.406,0.234 -0.656,0.667 -0.656,1.136l-0,20.575l3.957,2.285l-0,-20.552c-0,-1.421 -0.758,-2.733 -1.988,-3.444c-0,0 -0.001,-0 -0.001,-0Z"/><path d="M146.921,194.004c1.021,-0.589 2.278,-0.589 3.298,0c1.021,0.589 1.649,1.678 1.649,2.857c0,6.767 0,17.135 0,17.135l-9.893,5.712l0,-17.767c0,-3.144 1.677,-6.05 4.4,-7.622c0.182,-0.104 0.364,-0.21 0.546,-0.315Z" style="fill:#484848;stroke:#000;stroke-width:3px;"/><path d="M166.708,182.58c1.02,-0.589 2.278,-0.589 3.298,0c1.021,0.589 1.649,1.678 1.649,2.857c0,6.767 0,17.135 0,17.135l-9.893,5.712l-0,-17.767c-0,-3.144 1.677,-6.05 4.4,-7.622c0.182,-0.104 0.364,-0.21 0.546,-0.315Z" style="fill:#484848;stroke:#000;stroke-width:3px;"/><path d="M186.495,171.156c1.02,-0.589 2.278,-0.589 3.298,0c1.021,0.589 1.649,1.678 1.649,2.857c0,6.767 0,17.135 0,17.135l-9.893,5.712l-0,-17.767c-0,-3.144 1.677,-6.05 4.4,-7.622c0.181,-0.104 0.364,-0.21 0.546,-0.315Z" style="fill:#484848;stroke:#000;stroke-width:3px;"/><path d="M206.282,159.732c1.02,-0.589 2.278,-0.589 3.298,0c1.021,0.589 1.649,1.678 1.649,2.857c0,6.767 0,17.135 0,17.135l-9.893,5.712l-0,-17.767c-0,-3.144 1.677,-6.05 4.4,-7.622c0.181,-0.104 0.364,-0.21 0.546,-0.315Z" style="fill:#484848;stroke:#000;stroke-width:3px;"/><path d="M226.069,148.308c1.02,-0.589 2.278,-0.589 3.298,0c1.021,0.589 1.649,1.678 1.649,2.857c0,6.767 0,17.135 0,17.135l-9.893,5.712l-0,-17.767c-0,-3.144 1.677,-6.05 4.4,-7.622c0.181,-0.104 0.364,-0.21 0.546,-0.315Z" style="fill:#484848;stroke:#000;stroke-width:3px;"/><path d="M240.91,356.796l-138.509,-79.968l29.681,-17.136l108.828,62.832l108.828,-62.832l29.68,17.136l-138.508,79.968Z" style="fill:#62b54a;stroke:#000;stroke-width:3px;"/><path d="M240.91,322.524l-118.722,-68.544l9.894,-5.712l108.828,62.832l108.828,-62.832l9.893,5.712l-118.721,68.544Z" style="fill:#62b54a;stroke:#000;stroke-width:3px;"/><path d="M211.229,225.42l69.255,39.984l-39.574,22.848l-69.255,-39.984l39.574,-22.848Z" style="fill:#7e99dc;stroke:#000;stroke-width:3px;"/><path d="M211.229,225.42l0,-11.424l-49.467,28.56l9.893,5.712l39.574,-22.848Z" style="fill:#808184;stroke:#000;stroke-width:3px;"/><path d="M211.229,225.42l0,-11.424l79.148,45.696l-9.893,5.712l-69.255,-39.984Z" style="fill:#a6a8ab;stroke:#000;stroke-width:3px;"/><path d="M240.91,345.372l-0,-22.848l-118.722,-68.544l0,22.848l118.722,68.544Z" style="fill:#4e913b;stroke:#000;stroke-width:3px;"/><path d="M240.91,345.372l-0,-22.848l118.721,-68.544l0,22.848l-118.721,68.544Z" style="fill:#3b6d2c;stroke:#000;stroke-width:3px;"/><path d="M260.697,174.012c21.841,-12.61 57.306,-12.61 79.147,-0c21.842,12.61 21.842,33.086 0,45.696c-21.841,12.61 -57.306,12.61 -79.147,-0c-21.842,-12.61 -21.842,-33.086 -0,-45.696Z" style="fill:#d0d2d3;stroke:#000;stroke-width:3px;"/><path d="M260.697,174.012l27.857,12.724l-1.941,-8.913l9.543,7.095l4.115,-20.37l4.114,20.37l9.543,-7.095l-1.941,8.913l27.857,-12.724l-22.039,16.083l15.437,-1.12l-12.288,5.509l35.283,2.376l-35.283,2.375l12.288,5.51l-15.437,-1.121l22.039,16.084l-27.857,-12.725l1.941,8.913l-9.543,-7.095l-4.114,20.371l-4.115,-20.371l-9.543,7.095l1.941,-8.913l-27.857,12.725l22.039,-16.084l-15.437,1.121l12.288,-5.51l-35.282,-2.375l35.282,-2.376l-12.288,-5.509l15.437,1.12l-22.039,-16.083Z" style="fill:#d0d2d3;stroke:#000;stroke-width:2px;"/><path d="M286.42,188.863c7.644,-4.414 20.057,-4.414 27.701,-0c7.645,4.413 7.645,11.58 0,15.993c-7.644,4.414 -20.057,4.414 -27.701,0c-7.645,-4.413 -7.645,-11.58 -0,-15.993Z" style="fill:#d0d2d3;stroke:#000;stroke-width:2px;"/></g></svg>