<?xml version="1.0" encoding="UTF-8" standalone="no"?>
<!DOCTYPE svg PUBLIC "-//W3C//DTD SVG 1.1//EN" "http://www.w3.org/Graphics/SVG/1.1/DTD/svg11.dtd">
<svg width="100%" height="100%" viewBox="0 0 2014 2710" version="1.1" xmlns="http://www.w3.org/2000/svg" xmlns:xlink="http://www.w3.org/1999/xlink" xml:space="preserve" xmlns:serif="http://www.serif.com/" style="fill-rule:evenodd;clip-rule:evenodd;stroke-linecap:round;stroke-linejoin:round;stroke-miterlimit:1.5;">
    <g transform="matrix(1,0,0,1,-15921,0)">
        <g id="novaterraprime_tile_8" transform="matrix(10.0631,0,0,9.03229,15921.6,0)">
            <rect x="0" y="0" width="200" height="300" style="fill:none;"/>
            <clipPath id="_clip1">
                <rect x="0" y="0" width="200" height="300"/>
            </clipPath>
            <g clip-path="url(#_clip1)">
                <g id="tilebase" transform="matrix(1,0,0,0.654008,-0.00556651,103.798)">
                    <g transform="matrix(0.860633,-0.846461,8.27483e-17,2.72465,0.632214,-446.354)">
                        <rect x="115.403" y="298.016" width="115.499" height="11.763" style="fill:rgb(128,129,132);stroke:black;stroke-width:1.26px;"/>
                    </g>
                    <g transform="matrix(0.860633,0.846461,-5.51655e-17,1.82101,0.632214,-179.805)">
                        <rect x="0" y="192.151" width="115.403" height="17.644" style="fill:rgb(166,168,171);stroke:black;stroke-width:0.98px;"/>
                    </g>
                    <g transform="matrix(0.860633,-0.846461,0.993774,0.977409,0.656928,-205.459)">
                        <rect x="-221.858" y="192.167" width="115.432" height="99.967" style="fill:rgb(208,210,211);stroke:black;stroke-width:0.95px;"/>
                    </g>
                </g>
                <g transform="matrix(0.267272,0.17192,-1.48366e-17,0.343839,-2042.61,-364.443)">
                    <g transform="matrix(50,0,0,50,7973.02,-2093.85)">
                    </g>
                    <text x="7684.05px" y="-2093.85px" style="font-family:'Arial-BoldMT', 'Arial', sans-serif;font-weight:700;font-size:50px;">gitterra.com</text>
                </g>
                <g transform="matrix(0.0860598,0.0553569,-5.51633e-18,0.127841,-1549.41,-129.31)">
                    <rect x="18972.2" y="-6268.23" width="333.2" height="577.119" style="fill:rgb(166,168,171);stroke:black;stroke-width:6.31px;"/>
                </g>
                <g transform="matrix(-0.0624076,0.040143,4.00025e-18,0.127841,1316.81,164.401)">
                    <rect x="18972.2" y="-6268.23" width="333.2" height="577.119" style="fill:rgb(128,129,132);stroke:black;stroke-width:7.18px;"/>
                </g>
                <g transform="matrix(0.0860598,-0.0553569,0.0993734,0.0639207,-1549.41,-129.31)">
                    <rect x="7237.92" y="10162.1" width="238" height="288.56" style="fill:rgb(208,210,211);stroke:black;stroke-width:6.31px;"/>
                </g>
                <g transform="matrix(0.0860598,0.0553569,-5.51633e-18,0.127841,-1582.18,-108.231)">
                    <rect x="19400.6" y="-7010.24" width="285.6" height="371.005" style="fill:rgb(166,168,171);stroke:black;stroke-width:6.31px;"/>
                </g>
                <g transform="matrix(0.0860598,-0.0553569,5.51633e-18,0.127841,-1582.18,-108.231)">
                    <rect x="19686.2" y="10038.5" width="190.4" height="371.005" style="fill:rgb(128,129,132);stroke:black;stroke-width:10.86px;"/>
                </g>
                <g transform="matrix(0.0860598,-0.0553569,0.0993734,0.0639207,-1582.18,-108.231)">
                    <rect x="8094.72" y="9791.14" width="190.4" height="247.337" style="fill:rgb(208,210,211);stroke:black;stroke-width:6.31px;"/>
                </g>
                <g transform="matrix(0.0860598,-0.0553569,0.0993734,0.0639207,-1582.18,-108.231)">
                    <rect x="7523.52" y="10285.8" width="47.6" height="41.223" style="fill:rgb(208,210,211);stroke:black;stroke-width:6.31px;"/>
                </g>
                <g transform="matrix(-0.0860598,-0.0553569,-0.0993734,0.0639207,1798,-97.6906)">
                    <rect x="7523.52" y="10285.8" width="47.6" height="41.223" style="fill:rgb(208,210,211);stroke:black;stroke-width:6.31px;"/>
                </g>
                <g transform="matrix(0.0860598,0.0553569,-5.51633e-18,0.127841,-1582.18,-108.231)">
                    <rect x="19400.6" y="-6515.56" width="47.6" height="206.114" style="fill:rgb(166,168,171);stroke:black;stroke-width:6.31px;"/>
                </g>
                <g transform="matrix(-0.0860598,0.0553569,5.51633e-18,0.127841,1798,-97.6906)">
                    <rect x="19400.6" y="-6515.56" width="47.6" height="206.114" style="fill:rgb(128,129,132);stroke:black;stroke-width:6.31px;"/>
                </g>
                <g transform="matrix(0.0993734,0,0,0.110714,-1582.18,-108.231)">
                    <path d="M16883.8,2176.76L16883.8,2462.36L16842.6,2438.56L16842.6,2200.56L16883.8,2176.76Z" style="fill:rgb(128,129,132);stroke:black;stroke-width:8.33px;"/>
                </g>
                <g transform="matrix(-0.0993734,0,0,0.110714,1798,-97.6906)">
                    <path d="M16883.8,2176.76L16883.8,2462.36L16842.6,2438.56L16842.6,2200.56L16883.8,2176.76Z" style="fill:rgb(166,168,171);stroke:black;stroke-width:8.33px;"/>
                </g>
                <g transform="matrix(0.114746,0.0738093,-5.77901e-18,0.127841,-2142.81,-511.011)">
                    <rect x="19400.6" y="-7010.24" width="285.6" height="371.005" style="fill:rgb(166,168,171);stroke:black;stroke-width:5.46px;"/>
                </g>
                <g transform="matrix(0.107575,-0.0691962,6.89541e-18,0.127841,-2001.63,124.686)">
                    <rect x="19686.2" y="10038.5" width="190.4" height="371.005" style="fill:rgb(128,129,132);stroke:black;stroke-width:9.78px;"/>
                </g>
                <g transform="matrix(0.107575,-0.0691962,0.132498,0.0852276,-2084.76,-249.619)">
                    <rect x="8094.72" y="9791.14" width="190.4" height="247.337" style="fill:rgb(208,210,211);stroke:black;stroke-width:4.87px;"/>
                </g>
                <g transform="matrix(0.25818,-0.166071,0.0993734,0.0639207,-2868.94,645.678)">
                    <rect x="7523.52" y="10285.8" width="47.6" height="41.223" style="fill:rgb(208,210,211);stroke:black;stroke-width:3.17px;"/>
                </g>
                <g transform="matrix(0.0860598,0.0553569,-5.51633e-18,0.102273,-1573.99,-353.872)">
                    <rect x="19400.6" y="-6515.56" width="47.6" height="206.114" style="fill:rgb(166,168,171);stroke:black;stroke-width:7.07px;"/>
                </g>
                <g transform="matrix(0.0993734,0,0,0.110714,-1565.8,-192.55)">
                    <path d="M16883.8,2176.76L16883.8,2509.96L16760.2,2438.56L16760.2,2248.16L16883.8,2176.76Z" style="fill:rgb(128,129,132);stroke:black;stroke-width:8.33px;"/>
                </g>
                <g transform="matrix(0.0860598,-0.0553569,5.51633e-18,0.127841,-1579.23,-99.5899)">
                    <path d="M19866.6,9914.81C19868.7,9914.81 19871.2,9915.9 19873.2,9917.68C19875.3,9919.45 19876.6,9921.64 19876.6,9923.42C19876.6,9944.54 19876.6,9997.26 19876.6,9997.26L19852.8,9997.26L19852.8,9926.81C19852.8,9919.39 19858,9914.81 19866.6,9914.81C19866.6,9914.81 19866.6,9914.81 19866.6,9914.81Z"/>
                </g>
                <g transform="matrix(0.0860598,-0.0553569,5.51633e-18,0.127841,-1587.38,-94.3444)">
                    <path d="M19866.6,9914.81C19868.7,9914.81 19871.2,9915.9 19873.2,9917.68C19875.3,9919.45 19876.6,9921.64 19876.6,9923.42C19876.6,9944.54 19876.6,9997.26 19876.6,9997.26L19852.8,9997.26C19852.8,9997.26 19852.8,9949.68 19852.8,9926.81C19852.8,9919.39 19858,9914.81 19866.6,9914.81C19866.6,9914.81 19866.6,9914.81 19866.6,9914.81Z"/>
                </g>
                <g transform="matrix(0.0860598,-0.0553569,5.51633e-18,0.127841,-1592.42,-64.7532)">
                    <path d="M19866.6,9914.81C19868.7,9914.81 19871.2,9915.9 19873.2,9917.68C19875.3,9919.45 19876.6,9921.64 19876.6,9923.42C19876.6,9944.54 19876.6,9997.26 19876.6,9997.26L19852.8,9997.26C19852.8,9997.26 19852.8,9949.68 19852.8,9926.81C19852.8,9919.39 19858,9914.81 19866.6,9914.81C19866.6,9914.81 19866.6,9914.81 19866.6,9914.81Z"/>
                </g>
                <g transform="matrix(0.0860598,-0.0553569,5.51633e-18,0.127841,-1588.33,-62.1182)">
                    <path d="M19866.6,9914.81C19868.7,9914.81 19871.2,9915.9 19873.2,9917.68C19875.3,9919.45 19876.6,9921.64 19876.6,9923.42C19876.6,9944.54 19876.6,9997.26 19876.6,9997.26L19852.8,9997.26L19852.8,9926.81C19852.8,9919.39 19858,9914.81 19866.6,9914.81C19866.6,9914.81 19866.6,9914.81 19866.6,9914.81Z"/>
                </g>
                <g transform="matrix(0.0860598,-0.0553569,5.51633e-18,0.127841,-1584.23,-59.4832)">
                    <path d="M19866.6,9914.81C19868.7,9914.81 19871.2,9915.9 19873.2,9917.68C19875.3,9919.45 19876.6,9921.64 19876.6,9923.42C19876.6,9944.54 19876.6,9997.26 19876.6,9997.26L19852.8,9997.26C19852.8,9997.26 19852.8,9949.68 19852.8,9926.81C19852.8,9919.39 19858,9914.81 19866.6,9914.81C19866.6,9914.81 19866.6,9914.81 19866.6,9914.81Z"/>
                </g>
                <g transform="matrix(-0.0860598,-0.0553569,-5.51633e-18,0.127841,1814.39,-60.8007)">
                    <path d="M19866.6,9914.81C19868.7,9914.81 19871.2,9915.9 19873.2,9917.68C19875.3,9919.45 19876.6,9921.64 19876.6,9923.42C19876.6,9944.54 19876.6,9997.26 19876.6,9997.26L19852.8,9997.26L19852.8,9926.81C19852.8,9919.39 19858,9914.81 19866.6,9914.81C19866.6,9914.81 19866.6,9914.81 19866.6,9914.81Z"/>
                </g>
                <g transform="matrix(-0.0860598,-0.0553569,-5.51633e-18,0.127841,1806.19,-76.6107)">
                    <path d="M19866.6,9914.81C19868.7,9914.81 19871.2,9915.9 19873.2,9917.68C19875.3,9919.45 19876.6,9921.64 19876.6,9923.42C19876.6,9944.54 19876.6,9997.26 19876.6,9997.26L19852.8,9997.26C19852.8,9997.26 19852.8,9949.68 19852.8,9926.81C19852.8,9919.39 19858,9914.81 19866.6,9914.81C19866.6,9914.81 19866.6,9914.81 19866.6,9914.81Z"/>
                </g>
                <g transform="matrix(-0.0860598,-0.0553569,-5.51633e-18,0.127841,1802.1,-105.596)">
                    <path d="M19866.6,9914.81C19868.7,9914.81 19871.2,9915.9 19873.2,9917.68C19875.3,9919.45 19876.6,9921.64 19876.6,9923.42C19876.6,9944.54 19876.6,9997.26 19876.6,9997.26L19852.8,9997.26L19852.8,9926.81C19852.8,9919.39 19858,9914.81 19866.6,9914.81C19866.6,9914.81 19866.6,9914.81 19866.6,9914.81Z"/>
                </g>
                <g transform="matrix(-0.0860598,-0.0553569,-5.51633e-18,0.127841,1798,-113.501)">
                    <path d="M19866.6,9914.81C19868.7,9914.81 19871.2,9915.9 19873.2,9917.68C19875.3,9919.45 19876.6,9921.64 19876.6,9923.42C19876.6,9944.54 19876.6,9997.26 19876.6,9997.26L19852.8,9997.26L19852.8,9926.81C19852.8,9919.39 19858,9914.81 19866.6,9914.81C19866.6,9914.81 19866.6,9914.81 19866.6,9914.81Z"/>
                </g>
                <g transform="matrix(-0.0860598,-0.0553569,-5.51633e-18,0.127841,1798,-129.31)">
                    <path d="M19866.6,9914.81C19868.7,9914.81 19871.2,9915.9 19873.2,9917.68C19875.3,9919.45 19876.6,9921.64 19876.6,9923.42C19876.6,9944.54 19876.6,9997.26 19876.6,9997.26L19852.8,9997.26L19852.8,9926.81C19852.8,9919.39 19858,9914.81 19866.6,9914.81C19866.6,9914.81 19866.6,9914.81 19866.6,9914.81Z"/>
                </g>
                <g transform="matrix(-0.0860598,-0.0553569,-5.51633e-18,0.127841,1810.57,-26.3636)">
                    <path d="M19866.6,9914.81C19868.7,9914.81 19871.2,9915.9 19873.2,9917.68C19875.3,9919.45 19876.6,9921.64 19876.6,9923.42C19876.6,9944.54 19876.6,9997.26 19876.6,9997.26L19852.8,9997.26C19852.8,9997.26 19852.8,9949.68 19852.8,9926.81C19852.8,9919.39 19858,9914.81 19866.6,9914.81C19866.6,9914.81 19866.6,9914.81 19866.6,9914.81Z"/>
                </g>
                <g transform="matrix(-0.0860598,-0.0553569,-5.51633e-18,0.127841,1814.39,-2.83094)">
                    <path d="M19866.6,9914.81C19868.7,9914.81 19871.2,9915.9 19873.2,9917.68C19875.3,9919.45 19876.6,9921.64 19876.6,9923.42C19876.6,9944.54 19876.6,9997.26 19876.6,9997.26L19852.8,9997.26L19852.8,9926.81C19852.8,9919.39 19858,9914.81 19866.6,9914.81C19866.6,9914.81 19866.6,9914.81 19866.6,9914.81Z"/>
                </g>
                <g transform="matrix(-0.0860598,-0.0553569,-5.51633e-18,0.127841,1798,12.979)">
                    <path d="M19866.6,9914.81C19868.7,9914.81 19871.2,9915.9 19873.2,9917.68C19875.3,9919.45 19876.6,9921.64 19876.6,9923.42C19876.6,9944.54 19876.6,9997.26 19876.6,9997.26L19852.8,9997.26L19852.8,9926.81C19852.8,9919.39 19858,9914.81 19866.6,9914.81C19866.6,9914.81 19866.6,9914.81 19866.6,9914.81Z"/>
                </g>
                <g transform="matrix(-0.0860598,-0.0553569,-5.51633e-18,0.127841,1806.19,18.249)">
                    <path d="M19866.6,9914.81C19868.7,9914.81 19871.2,9915.9 19873.2,9917.68C19875.3,9919.45 19876.6,9921.64 19876.6,9923.42C19876.6,9944.54 19876.6,9997.26 19876.6,9997.26L19852.8,9997.26C19852.8,9997.26 19852.8,9949.68 19852.8,9926.81C19852.8,9919.39 19858,9914.81 19866.6,9914.81C19866.6,9914.81 19866.6,9914.81 19866.6,9914.81Z"/>
                </g>
                <g transform="matrix(-0.0860598,-0.0553569,-5.51633e-18,0.127841,1814.39,23.519)">
                    <path d="M19866.6,9914.81C19868.7,9914.81 19871.2,9915.9 19873.2,9917.68C19875.3,9919.45 19876.6,9921.64 19876.6,9923.42C19876.6,9944.54 19876.6,9997.26 19876.6,9997.26L19852.8,9997.26L19852.8,9926.81C19852.8,9919.39 19858,9914.81 19866.6,9914.81C19866.6,9914.81 19866.6,9914.81 19866.6,9914.81Z"/>
                </g>
                <g transform="matrix(0.0860598,-0.0553569,5.51633e-18,0.127841,-1592.42,19.5665)">
                    <path d="M19866.6,9914.81C19868.7,9914.81 19871.2,9915.9 19873.2,9917.68C19875.3,9919.45 19876.6,9921.64 19876.6,9923.42C19876.6,9944.54 19876.6,9997.26 19876.6,9997.26L19852.8,9997.26C19852.8,9997.26 19852.8,9949.68 19852.8,9926.81C19852.8,9919.39 19858,9914.81 19866.6,9914.81C19866.6,9914.81 19866.6,9914.81 19866.6,9914.81Z"/>
                </g>
                <g transform="matrix(0.0860598,-0.0553569,5.51633e-18,0.127841,-1580.13,11.6615)">
                    <path d="M19866.6,9914.81C19868.7,9914.81 19871.2,9915.9 19873.2,9917.68C19875.3,9919.45 19876.6,9921.64 19876.6,9923.42C19876.6,9944.54 19876.6,9997.26 19876.6,9997.26L19852.8,9997.26L19852.8,9926.81C19852.8,9919.39 19858,9914.81 19866.6,9914.81C19866.6,9914.81 19866.6,9914.81 19866.6,9914.81Z"/>
                </g>
                <g transform="matrix(0.0860598,-0.0553569,5.51633e-18,0.127841,-1585.25,25.4952)">
                    <path d="M19866.6,9832.36C19868.7,9832.36 19871.2,9833.46 19873.2,9835.23C19875.3,9837.01 19876.6,9839.2 19876.6,9840.97C19876.6,9874.86 19876.6,9997.26 19876.6,9997.26L19852.8,9997.26C19852.8,9997.26 19852.8,9882.32 19852.8,9844.37C19852.8,9836.94 19858,9832.36 19866.6,9832.36C19866.6,9832.36 19866.6,9832.36 19866.6,9832.36Z"/>
                </g>
                <g transform="matrix(0.0860598,-0.0553569,5.51633e-18,0.127841,-1583.21,-112.842)">
                    <path d="M19866.6,9914.81C19868.7,9914.81 19871.2,9915.9 19873.2,9917.68C19875.3,9919.45 19876.6,9921.64 19876.6,9923.42C19876.6,9944.54 19876.6,9997.26 19876.6,9997.26L19852.8,9997.26L19852.8,9926.81C19852.8,9919.39 19858,9914.81 19866.6,9914.81C19866.6,9914.81 19866.6,9914.81 19866.6,9914.81Z"/>
                </g>
                <g transform="matrix(0.0860598,-0.0553569,5.51633e-18,0.127841,-1583.21,-128.652)">
                    <path d="M19866.6,9956.03C19868.7,9956.03 19871.2,9957.13 19873.2,9958.9C19875.3,9960.68 19876.6,9962.86 19876.6,9964.64C19876.6,9976.72 19876.6,9997.26 19876.6,9997.26L19852.8,9997.26C19852.8,9997.26 19852.8,9980.2 19852.8,9968.03C19852.8,9960.61 19858,9956.03 19866.6,9956.03C19866.6,9956.03 19866.6,9956.03 19866.6,9956.03Z"/>
                </g>
                <g transform="matrix(0.114003,-0.0733309,0.131639,0.0846753,-2137.59,-154.041)">
                    <rect x="8640.52" y="9585.03" width="25.405" height="123.668"/>
                </g>
                <g transform="matrix(0.114003,-0.0733309,0.0529312,0.0340473,-1373.62,337.374)">
                    <rect x="8642.78" y="9697.51" width="20.185" height="8.883" style="fill:rgb(208,210,211);"/>
                </g>
                <g transform="matrix(0.0753164,-0.0484463,0.0529312,0.0340473,-1040.78,121.328)">
                    <rect x="8642.78" y="9697.51" width="20.185" height="8.883" style="fill:rgb(208,210,211);"/>
                </g>
                <g transform="matrix(0.0376582,-0.0242232,0.0529312,0.0340473,-716.801,-88.99)">
                    <rect x="8642.78" y="9697.51" width="20.185" height="8.883" style="fill:rgb(208,210,211);"/>
                </g>
                <g transform="matrix(0.0965478,-0.0621032,0.0529312,0.0340473,-1223.49,239.864)">
                    <rect x="8642.78" y="9697.51" width="20.185" height="8.883" style="fill:rgb(208,210,211);"/>
                </g>
                <g transform="matrix(0.0516474,-0.0332216,0.0529312,0.0340473,-836.942,-10.7268)">
                    <rect x="8642.78" y="9697.51" width="20.185" height="8.883" style="fill:rgb(208,210,211);"/>
                </g>
                <g transform="matrix(0.0188291,-0.0121116,0.0529312,0.0340473,-554.797,-194.138)">
                    <rect x="8642.78" y="9697.51" width="20.185" height="8.883" style="fill:rgb(208,210,211);"/>
                </g>
                <g transform="matrix(0.0860598,-0.0553569,0.0993734,0.0639207,-1582.18,-108.231)">
                    <rect x="8523.12" y="9461.36" width="95.2" height="82.446" style="fill:rgb(98,181,74);stroke:black;stroke-width:6.31px;"/>
                </g>
                <g transform="matrix(0.0993734,0,0,0.110714,-1582.18,-108.231)">
                    <path d="M16925,1248.56L16925,1010.56L17007.5,1200.96L16925,1248.56Z" style="fill:rgb(59,109,44);stroke:black;stroke-width:8.33px;"/>
                </g>
                <g transform="matrix(-0.0993734,0,0,0.110714,1781.62,-108.231)">
                    <path d="M16925,1248.56L16925,1010.56L17007.5,1200.96L16925,1248.56Z" style="fill:rgb(78,145,59);stroke:black;stroke-width:8.33px;"/>
                </g>
                <g transform="matrix(0.0860598,-0.0553569,5.51633e-18,0.127841,-1582.18,-108.231)">
                    <path d="M19638.6,9749.92L19638.6,10162.1L19617.9,10079.7L19591,10162.1L19591,9749.92L19638.6,9749.92Z" style="fill:rgb(78,145,59);stroke:black;stroke-width:10.86px;"/>
                </g>
                <g transform="matrix(0.0860598,-0.0553569,5.51633e-18,0.127841,-1569.89,-116.136)">
                    <path d="M19638.6,9749.92L19638.6,10162.1L19617.9,10079.7L19591,10162.1L19591,9749.92L19638.6,9749.92Z" style="fill:rgb(78,145,59);stroke:black;stroke-width:10.86px;"/>
                </g>
                <g transform="matrix(0.0860598,-0.0553569,5.51633e-18,0.127841,-1553.51,-126.676)">
                    <path d="M19638.6,9749.92L19638.6,10162.1L19617.9,10079.7L19591,10162.1L19591,9749.92L19638.6,9749.92Z" style="fill:rgb(78,145,59);stroke:black;stroke-width:10.86px;"/>
                </g>
                <g transform="matrix(0.0860598,-0.0553569,5.51633e-18,0.127841,-1573.99,-23.9109)">
                    <path d="M19638.6,9749.92L19638.6,10079.7L19617.9,9997.26L19591,10079.7L19591,9749.92L19638.6,9749.92Z" style="fill:rgb(78,145,59);stroke:black;stroke-width:10.86px;"/>
                </g>
                <g transform="matrix(0.0860598,-0.0553569,5.51633e-18,0.127841,-1557.6,-34.4508)">
                    <path d="M19638.6,9749.92L19638.6,10079.7L19617.9,9997.26L19591,10079.7L19591,9749.92L19638.6,9749.92Z" style="fill:rgb(78,145,59);stroke:black;stroke-width:10.86px;"/>
                </g>
                <g transform="matrix(0.0903531,-0.0581185,0.104331,0.0671095,-1665.06,-124.46)">
                    <path d="M6824,10919.6C6815.45,10965.4 6769.57,11000.4 6714.32,11000.4C6653,11000.4 6603.22,10957.3 6603.22,10904.2C6603.22,10851.1 6653,10807.9 6714.32,10807.9C6769.57,10807.9 6815.45,10842.9 6824,10888.7L6895.68,10888.7L6895.68,11100.5L7069.32,11100.5L7069.32,11040.3L7104.1,11040.3L7104.1,11139.7L6850.34,11139.7L6850.34,10919.6L6824,10919.6ZM6714.32,10834.6C6669.97,10834.6 6633.96,10865.7 6633.96,10904.2C6633.96,10942.6 6669.97,10973.8 6714.32,10973.8C6758.68,10973.8 6794.69,10942.6 6794.69,10904.2C6794.69,10865.7 6758.68,10834.6 6714.32,10834.6Z" style="fill:rgb(166,168,171);stroke:black;stroke-width:6.01px;"/>
                </g>
                <g transform="matrix(0.0860598,-0.0553569,0.0993734,0.0639207,-1573.99,-118.771)">
                    <path d="M6537.58,10916.5L6537.29,10916.2L6588.74,10871.7L6655.9,10929.8L6610.15,10969.5C6601.51,10979.8 6587.42,10986.6 6571.52,10986.6C6545.25,10986.6 6523.92,10968.1 6523.92,10945.4C6523.92,10934.1 6529.14,10923.9 6537.58,10916.5Z" style="fill:rgb(166,168,171);stroke:black;stroke-width:6.31px;"/>
                </g>
                <g transform="matrix(0.0860598,-0.0553569,0.0993734,0.0639207,-1573.99,-124.041)">
                    <ellipse cx="6571.52" cy="10945.4" rx="47.6" ry="41.223" style="fill:rgb(208,210,211);stroke:black;stroke-width:6.31px;"/>
                </g>
                <g transform="matrix(0.150216,0,0,0.110714,-2417.18,-123.318)">
                    <path d="M16607.8,3027.38L16607.8,3027.38L16607.8,2922.87L16629.3,2922.87L16629.3,3027.38L16629.2,3027.38C16629,3032.45 16624.3,3036.51 16618.5,3036.51C16612.7,3036.51 16608,3032.45 16607.8,3027.38Z" style="fill:rgb(208,210,211);stroke:black;stroke-width:6.5px;"/>
                </g>
                <g transform="matrix(0.0840307,0,0,0.0936203,-1316.89,-75.1811)">
                    <circle cx="16604.8" cy="2872.47" r="120.462" style="fill:rgb(255,180,48);stroke:black;stroke-width:9.85px;"/>
                </g>
                <g transform="matrix(0.0811674,-0.0242307,0.0217487,0.0904303,-1332.08,335.962)">
                    <path d="M16721.1,2844.25C16784.6,2850.08 16827.1,2860.54 16827.1,2872.47C16827.1,2890.74 16727.5,2905.58 16604.8,2905.58C16482.2,2905.58 16382.6,2890.74 16382.6,2872.47C16382.6,2860.34 16426.4,2849.72 16491.8,2843.96L16488.5,2857.32C16451.8,2861.02 16428.6,2866.43 16428.6,2872.47C16428.6,2883.6 16507.6,2892.64 16604.8,2892.64C16702.1,2892.64 16781,2883.6 16781,2872.47C16781,2866.59 16759,2861.29 16723.8,2857.6L16721.1,2844.25Z" style="fill:rgb(255,180,48);stroke:black;stroke-width:9.85px;"/>
                </g>
                <g transform="matrix(0.0860598,-0.0553569,0.0993734,0.0639207,-1614.95,-128.591)">
                    <rect x="6673.23" y="11033.5" width="82.197" height="71.185" style="fill:rgb(255,180,48);stroke:black;stroke-width:6.31px;"/>
                </g>
                <g transform="matrix(0.0860598,-0.0553569,0.0993734,0.0639207,-1582.18,-108.231)">
                    <ellipse cx="6523.92" cy="10904.2" rx="47.6" ry="41.223" style="fill:rgb(255,180,48);stroke:black;stroke-width:6.31px;"/>
                </g>
                <g transform="matrix(0.110779,-0.0712574,0.127917,0.082281,-2058.57,-201.141)">
                    <path d="M6714.32,10986.6L6725.06,11005.4L6747.98,10998.7L6740.23,11018.5L6761.92,11027.8L6740.23,11037.1L6747.98,11057L6725.06,11050.3L6714.32,11069L6703.59,11050.3L6680.67,11057L6688.42,11037.1L6666.72,11027.8L6688.42,11018.5L6680.67,10998.7L6703.59,11005.4L6714.32,10986.6Z" style="fill:rgb(255,180,48);stroke:black;stroke-width:4.9px;"/>
                </g>
                <g transform="matrix(1.91259,0,0,1.45349,-82.7467,-45.2269)">
                    <g transform="matrix(0.302111,-0.25571,0.348848,0.295269,83.2543,96.1548)">
                        <rect x="-208.294" y="203.914" width="13.582" height="11.763" style="fill:rgb(98,181,74);stroke:black;stroke-width:0.47px;"/>
                    </g>
                    <g transform="matrix(0.302111,-0.25571,0.348848,0.295269,81.2026,97.8914)">
                        <rect x="-160.756" y="174.507" width="6.791" height="5.881" style="fill:rgb(98,181,74);stroke:black;stroke-width:0.47px;"/>
                    </g>
                    <g transform="matrix(0.168887,0,0,0.511421,91.7128,110.457)">
                        <path d="M24.923,193.217C24.945,193.276 24.957,193.337 24.957,193.4C24.957,193.965 23.993,194.424 22.807,194.424C21.62,194.424 20.656,193.965 20.656,193.4C20.656,193.337 20.668,193.276 20.69,193.217L20.69,175.514L24.923,175.514L24.923,193.217Z" style="fill:rgb(192,97,0);stroke:black;stroke-width:0.79px;"/>
                    </g>
                    <g transform="matrix(0.302111,0.25571,-1.93649e-17,0.590538,81.2026,97.8914)">
                        <rect x="40.747" y="139.219" width="6.791" height="17.644" style="fill:rgb(78,145,59);stroke:black;stroke-width:0.47px;"/>
                    </g>
                    <g transform="matrix(-0.302111,0.25571,1.93649e-17,0.590538,109.927,97.8914)">
                        <rect x="40.747" y="139.219" width="6.791" height="17.644" style="fill:rgb(59,109,44);stroke:black;stroke-width:0.47px;"/>
                    </g>
                </g>
                <g transform="matrix(1.91259,0,0,1.45349,-58.48,-60.8362)">
                    <g transform="matrix(0.302111,-0.25571,0.348848,0.295269,83.2543,96.1548)">
                        <rect x="-208.294" y="203.914" width="13.582" height="11.763" style="fill:rgb(98,181,74);stroke:black;stroke-width:0.47px;"/>
                    </g>
                    <g transform="matrix(0.302111,-0.25571,0.348848,0.295269,81.2026,97.8914)">
                        <rect x="-160.756" y="174.507" width="6.791" height="5.881" style="fill:rgb(98,181,74);stroke:black;stroke-width:0.47px;"/>
                    </g>
                    <g transform="matrix(0.168887,0,0,0.511421,91.7128,110.457)">
                        <path d="M24.923,193.217C24.945,193.276 24.957,193.337 24.957,193.4C24.957,193.965 23.993,194.424 22.807,194.424C21.62,194.424 20.656,193.965 20.656,193.4C20.656,193.337 20.668,193.276 20.69,193.217L20.69,175.514L24.923,175.514L24.923,193.217Z" style="fill:rgb(192,97,0);stroke:black;stroke-width:0.79px;"/>
                    </g>
                    <g transform="matrix(0.302111,0.25571,-1.93649e-17,0.590538,81.2026,97.8914)">
                        <rect x="40.747" y="139.219" width="6.791" height="17.644" style="fill:rgb(78,145,59);stroke:black;stroke-width:0.47px;"/>
                    </g>
                    <g transform="matrix(-0.302111,0.25571,1.93649e-17,0.590538,109.927,97.8914)">
                        <rect x="40.747" y="139.219" width="6.791" height="17.644" style="fill:rgb(59,109,44);stroke:black;stroke-width:0.47px;"/>
                    </g>
                </g>
                <g transform="matrix(1.91259,0,0,1.45349,-33.9013,-76.6461)">
                    <g transform="matrix(0.302111,-0.25571,0.348848,0.295269,83.2543,96.1548)">
                        <rect x="-208.294" y="203.914" width="13.582" height="11.763" style="fill:rgb(98,181,74);stroke:black;stroke-width:0.47px;"/>
                    </g>
                    <g transform="matrix(0.302111,-0.25571,0.348848,0.295269,81.2026,97.8914)">
                        <rect x="-160.756" y="174.507" width="6.791" height="5.881" style="fill:rgb(98,181,74);stroke:black;stroke-width:0.47px;"/>
                    </g>
                    <g transform="matrix(0.168887,0,0,0.511421,91.7128,110.457)">
                        <path d="M24.923,193.217C24.945,193.276 24.957,193.337 24.957,193.4C24.957,193.965 23.993,194.424 22.807,194.424C21.62,194.424 20.656,193.965 20.656,193.4C20.656,193.337 20.668,193.276 20.69,193.217L20.69,175.514L24.923,175.514L24.923,193.217Z" style="fill:rgb(192,97,0);stroke:black;stroke-width:0.79px;"/>
                    </g>
                    <g transform="matrix(0.302111,0.25571,-1.93649e-17,0.590538,81.2026,97.8914)">
                        <rect x="40.747" y="139.219" width="6.791" height="17.644" style="fill:rgb(78,145,59);stroke:black;stroke-width:0.47px;"/>
                    </g>
                    <g transform="matrix(-0.302111,0.25571,1.93649e-17,0.590538,109.927,97.8914)">
                        <rect x="40.747" y="139.219" width="6.791" height="17.644" style="fill:rgb(59,109,44);stroke:black;stroke-width:0.47px;"/>
                    </g>
                </g>
                <g transform="matrix(1.91259,0,0,1.45349,-70.7693,-52.9312)">
                    <g transform="matrix(0.302111,-0.25571,0.348848,0.295269,83.2543,96.1548)">
                        <rect x="-208.294" y="203.914" width="13.582" height="11.763" style="fill:rgb(98,181,74);stroke:black;stroke-width:0.47px;"/>
                    </g>
                    <g transform="matrix(0.302111,-0.25571,0.348848,0.295269,81.2026,97.8914)">
                        <rect x="-160.756" y="174.507" width="6.791" height="5.881" style="fill:rgb(98,181,74);stroke:black;stroke-width:0.47px;"/>
                    </g>
                    <g transform="matrix(0.168887,0,0,0.511421,91.7128,110.457)">
                        <path d="M24.923,193.217C24.945,193.276 24.957,193.337 24.957,193.4C24.957,193.965 23.993,194.424 22.807,194.424C21.62,194.424 20.656,193.965 20.656,193.4C20.656,193.337 20.668,193.276 20.69,193.217L20.69,175.514L24.923,175.514L24.923,193.217Z" style="fill:rgb(192,97,0);stroke:black;stroke-width:0.79px;"/>
                    </g>
                    <g transform="matrix(0.302111,0.25571,-1.93649e-17,0.590538,81.2026,97.8914)">
                        <rect x="40.747" y="139.219" width="6.791" height="17.644" style="fill:rgb(78,145,59);stroke:black;stroke-width:0.47px;"/>
                    </g>
                    <g transform="matrix(-0.302111,0.25571,1.93649e-17,0.590538,109.927,97.8914)">
                        <rect x="40.747" y="139.219" width="6.791" height="17.644" style="fill:rgb(59,109,44);stroke:black;stroke-width:0.47px;"/>
                    </g>
                </g>
                <g transform="matrix(1.91259,0,0,1.45349,-46.1906,-68.7411)">
                    <g transform="matrix(0.302111,-0.25571,0.348848,0.295269,83.2543,96.1548)">
                        <rect x="-208.294" y="203.914" width="13.582" height="11.763" style="fill:rgb(98,181,74);stroke:black;stroke-width:0.47px;"/>
                    </g>
                    <g transform="matrix(0.302111,-0.25571,0.348848,0.295269,81.2026,97.8914)">
                        <rect x="-160.756" y="174.507" width="6.791" height="5.881" style="fill:rgb(98,181,74);stroke:black;stroke-width:0.47px;"/>
                    </g>
                    <g transform="matrix(0.168887,0,0,0.511421,91.7128,110.457)">
                        <path d="M24.923,193.217C24.945,193.276 24.957,193.337 24.957,193.4C24.957,193.965 23.993,194.424 22.807,194.424C21.62,194.424 20.656,193.965 20.656,193.4C20.656,193.337 20.668,193.276 20.69,193.217L20.69,175.514L24.923,175.514L24.923,193.217Z" style="fill:rgb(192,97,0);stroke:black;stroke-width:0.79px;"/>
                    </g>
                    <g transform="matrix(0.302111,0.25571,-1.93649e-17,0.590538,81.2026,97.8914)">
                        <rect x="40.747" y="139.219" width="6.791" height="17.644" style="fill:rgb(78,145,59);stroke:black;stroke-width:0.47px;"/>
                    </g>
                    <g transform="matrix(-0.302111,0.25571,1.93649e-17,0.590538,109.927,97.8914)">
                        <rect x="40.747" y="139.219" width="6.791" height="17.644" style="fill:rgb(59,109,44);stroke:black;stroke-width:0.47px;"/>
                    </g>
                </g>
                <g transform="matrix(1.91259,0,0,1.45349,-21.6119,-84.5511)">
                    <g transform="matrix(0.302111,-0.25571,0.348848,0.295269,83.2543,96.1548)">
                        <rect x="-208.294" y="203.914" width="13.582" height="11.763" style="fill:rgb(98,181,74);stroke:black;stroke-width:0.47px;"/>
                    </g>
                    <g transform="matrix(0.302111,-0.25571,0.348848,0.295269,81.2026,97.8914)">
                        <rect x="-160.756" y="174.507" width="6.791" height="5.881" style="fill:rgb(98,181,74);stroke:black;stroke-width:0.47px;"/>
                    </g>
                    <g transform="matrix(0.168887,0,0,0.511421,91.7128,110.457)">
                        <path d="M24.923,193.217C24.945,193.276 24.957,193.337 24.957,193.4C24.957,193.965 23.993,194.424 22.807,194.424C21.62,194.424 20.656,193.965 20.656,193.4C20.656,193.337 20.668,193.276 20.69,193.217L20.69,175.514L24.923,175.514L24.923,193.217Z" style="fill:rgb(192,97,0);stroke:black;stroke-width:0.79px;"/>
                    </g>
                    <g transform="matrix(0.302111,0.25571,-1.93649e-17,0.590538,81.2026,97.8914)">
                        <rect x="40.747" y="139.219" width="6.791" height="17.644" style="fill:rgb(78,145,59);stroke:black;stroke-width:0.47px;"/>
                    </g>
                    <g transform="matrix(-0.302111,0.25571,1.93649e-17,0.590538,109.927,97.8914)">
                        <rect x="40.747" y="139.219" width="6.791" height="17.644" style="fill:rgb(59,109,44);stroke:black;stroke-width:0.47px;"/>
                    </g>
                </g>
                <g transform="matrix(1.91259,0,0,1.45349,-9.32259,-92.4561)">
                    <g transform="matrix(0.302111,-0.25571,0.348848,0.295269,83.2543,96.1548)">
                        <rect x="-208.294" y="203.914" width="13.582" height="11.763" style="fill:rgb(98,181,74);stroke:black;stroke-width:0.47px;"/>
                    </g>
                    <g transform="matrix(0.302111,-0.25571,0.348848,0.295269,81.2026,97.8914)">
                        <rect x="-160.756" y="174.507" width="6.791" height="5.881" style="fill:rgb(98,181,74);stroke:black;stroke-width:0.47px;"/>
                    </g>
                    <g transform="matrix(0.168887,0,0,0.511421,91.7128,110.457)">
                        <path d="M24.923,193.217C24.945,193.276 24.957,193.337 24.957,193.4C24.957,193.965 23.993,194.424 22.807,194.424C21.62,194.424 20.656,193.965 20.656,193.4C20.656,193.337 20.668,193.276 20.69,193.217L20.69,175.514L24.923,175.514L24.923,193.217Z" style="fill:rgb(192,97,0);stroke:black;stroke-width:0.79px;"/>
                    </g>
                    <g transform="matrix(0.302111,0.25571,-1.93649e-17,0.590538,81.2026,97.8914)">
                        <rect x="40.747" y="139.219" width="6.791" height="17.644" style="fill:rgb(78,145,59);stroke:black;stroke-width:0.47px;"/>
                    </g>
                    <g transform="matrix(-0.302111,0.25571,1.93649e-17,0.590538,109.927,97.8914)">
                        <rect x="40.747" y="139.219" width="6.791" height="17.644" style="fill:rgb(59,109,44);stroke:black;stroke-width:0.47px;"/>
                    </g>
                </g>
            </g>
        </g>
    </g>
</svg>
