<?xml version="1.0" encoding="UTF-8" standalone="no"?>
<!DOCTYPE svg PUBLIC "-//W3C//DTD SVG 1.1//EN" "http://www.w3.org/Graphics/SVG/1.1/DTD/svg11.dtd">
<svg width="100%" height="100%" viewBox="0 0 2014 2710" version="1.1" xmlns="http://www.w3.org/2000/svg" xmlns:xlink="http://www.w3.org/1999/xlink" xml:space="preserve" xmlns:serif="http://www.serif.com/" style="fill-rule:evenodd;clip-rule:evenodd;stroke-linecap:round;stroke-linejoin:round;stroke-miterlimit:1.5;">
    <g transform="matrix(1,0,0,1,-18167,0)">
        <g id="novaterraprime_tile_9" transform="matrix(10.0631,0,0,9.03229,18167.6,0)">
            <rect x="0" y="0" width="200" height="300" style="fill:none;"/>
            <clipPath id="_clip1">
                <rect x="0" y="0" width="200" height="300"/>
            </clipPath>
            <g clip-path="url(#_clip1)">
                <g id="tilebase" transform="matrix(1,0,0,0.654008,-0.00556651,103.798)">
                    <g transform="matrix(0.860633,-0.846461,8.27483e-17,2.72465,0.632214,-446.354)">
                        <rect x="115.403" y="298.016" width="115.499" height="11.763" style="fill:rgb(128,129,132);stroke:black;stroke-width:1.26px;"/>
                    </g>
                    <g transform="matrix(0.860633,0.846461,-5.51655e-17,1.82101,0.632214,-179.805)">
                        <rect x="0" y="192.151" width="115.403" height="17.644" style="fill:rgb(166,168,171);stroke:black;stroke-width:0.98px;"/>
                    </g>
                    <g transform="matrix(0.860633,-0.846461,0.993774,0.977409,0.656928,-205.459)">
                        <rect x="-221.858" y="192.167" width="115.432" height="99.967" style="fill:rgb(208,210,211);stroke:black;stroke-width:0.95px;"/>
                    </g>
                </g>
                <g transform="matrix(0.267272,0.17192,-1.48366e-17,0.343839,-2042.61,-364.443)">
                    <g transform="matrix(50,0,0,50,7973.02,-2093.85)">
                    </g>
                    <text x="7684.05px" y="-2093.85px" style="font-family:'Arial-BoldMT', 'Arial', sans-serif;font-weight:700;font-size:50px;">gitterra.com</text>
                </g>
                <g transform="matrix(1.31038,0,0,1.31038,-31.959,-55.9129)">
                    <g transform="matrix(0.111878,0.071964,-7.17123e-18,0.166194,-2364.19,-37.0469)">
                        <path d="M21803.6,-8133.2C21803.6,-8143.19 21804.5,-8153.18 21806.2,-8163.09L21849.3,-8168.37C21854.3,-8188.97 21863.7,-8208.59 21876.9,-8226.23L21850.8,-8256.36C21864.6,-8272.4 21881,-8286.61 21899.5,-8298.56L21934.3,-8275.89C21954.7,-8287.39 21977.3,-8295.51 22001.1,-8299.86L22007.2,-8337.19C22030,-8340.09 22053.3,-8340.09 22076.1,-8337.19L22082.2,-8299.86C22106,-8295.51 22128.6,-8287.39 22149,-8275.89L22183.8,-8298.56C22202.3,-8286.61 22218.7,-8272.4 22232.5,-8256.36L22206.4,-8226.23C22219.6,-8208.59 22229,-8188.97 22234,-8168.37L22277.1,-8163.09C22278.8,-8153.11 22279.7,-8143.04 22279.6,-8132.97C22242,-8132.86 22182.5,-8132.84 22117.2,-8132.86C22117.2,-8132.99 22117.2,-8133.12 22117.2,-8133.25C22117.2,-8169.34 22083.3,-8198.64 22041.6,-8198.64C22000,-8198.64 21966.1,-8169.34 21966.1,-8133.25C21966.1,-8133.16 21966.1,-8133.07 21966.1,-8132.98C21899.2,-8133.05 21839.1,-8133.14 21803.6,-8133.2Z" style="fill:rgb(166,168,171);stroke:black;stroke-width:3.7px;"/>
                    </g>
                    <g transform="matrix(0.0993734,0,0,0.110714,-1805.38,0)">
                        <path d="M18802.6,1654.6L18893.1,1599.46L18923.7,1629.36L18851.6,1677.18L18802.6,1654.6Z" style="fill:rgb(208,210,211);stroke:black;stroke-width:6.36px;"/>
                    </g>
                    <g transform="matrix(0.0993734,0,0,0.110714,-1805.38,0)">
                        <path d="M18947.3,1571.04L19064.5,1506.1L19071,1544.35L19022.5,1578.49L18947.3,1571.04Z" style="fill:rgb(208,210,211);stroke:black;stroke-width:6.36px;"/>
                    </g>
                    <g transform="matrix(0.0993734,0,0,0.110714,-1805.38,0)">
                        <path d="M19336.1,2010.24L19459.8,1938.84L19459.8,1891.07L19336.1,1962.47L19336.1,2010.24Z" style="fill:rgb(128,129,132);stroke:black;stroke-width:6.36px;"/>
                    </g>
                    <g transform="matrix(0.0993734,0,0,0.110714,-1805.38,0)">
                        <path d="M19283.1,1794.22L19406.7,1722.82L19351.9,1627.79L19226.4,1699.72L19283.1,1794.22Z" style="fill:rgb(208,210,211);stroke:black;stroke-width:6.36px;"/>
                    </g>
                    <g transform="matrix(0.0993734,0,0,0.110714,-1805.38,0)">
                        <path d="M18908.1,1514.39L19031.8,1443L19071,1499.64L18947.3,1571.04L18908.1,1514.39Z" style="fill:rgb(208,210,211);stroke:black;stroke-width:6.36px;"/>
                    </g>
                    <g transform="matrix(0.0993734,0,0,0.110714,-1805.38,0)">
                        <path d="M19106.9,1571.18L19230.6,1499.8L19153,1455.01L19029.4,1526.41L19106.9,1571.18Z" style="fill:rgb(208,210,211);stroke:black;stroke-width:6.36px;"/>
                    </g>
                    <g transform="matrix(0.0993734,0,0,0.110714,-1805.38,0)">
                        <path d="M19113.8,1631.2L19237.5,1559.8L19230.6,1499.8L19107,1571.2L19113.8,1631.2Z" style="fill:rgb(128,129,132);stroke:black;stroke-width:6.36px;"/>
                    </g>
                    <g transform="matrix(0.0993734,0,0,0.110714,-1805.38,0)">
                        <path d="M19189,1710.61L19312.7,1639.21L19237.5,1559.8L19113.8,1631.2L19189,1710.61Z" style="fill:rgb(208,210,211);stroke:black;stroke-width:6.36px;"/>
                    </g>
                    <g transform="matrix(0.0993734,0,0,0.110714,-1805.38,0)">
                        <path d="M19189,1710.61L19312.7,1639.21L19351.9,1627.79L19229.4,1697.96L19189,1710.61Z" style="fill:rgb(208,210,211);stroke:black;stroke-width:6.36px;"/>
                    </g>
                    <g transform="matrix(0.0993734,0,0,0.110714,-1805.38,0)">
                        <path d="M19253.6,1822.43L19377.3,1751.03L19408.4,1855.88L19284.8,1927.28L19253.6,1822.43Z" style="fill:rgb(128,129,132);stroke:black;stroke-width:6.36px;"/>
                    </g>
                    <g transform="matrix(0.0993734,0,0,0.110714,-1805.38,0)">
                        <path d="M19334.5,1963.39L19458.7,1890.32L19407.9,1854.27L19284.4,1925.38L19334.5,1963.39Z" style="fill:rgb(208,210,211);stroke:black;stroke-width:6.36px;"/>
                    </g>
                    <g transform="matrix(0.0993734,0,0,0.110714,-1805.38,0)">
                        <path d="M18984.3,1806.56L19107.7,1735.13L19046.5,1696.38L18949.1,1762.33L18984.3,1806.56Z" style="fill:rgb(128,129,132);stroke:black;stroke-width:6.36px;"/>
                    </g>
                    <g transform="matrix(0.111878,0.071964,-7.17123e-18,0.166194,-2376.48,-29.142)">
                        <path d="M21803.6,-8133.2C21803.6,-8143.19 21804.5,-8153.18 21806.2,-8163.09L21849.3,-8168.37C21854.3,-8188.97 21863.7,-8208.59 21876.9,-8226.23L21850.8,-8256.36C21864.6,-8272.4 21881,-8286.61 21899.5,-8298.56L21934.3,-8275.89C21954.7,-8287.39 21977.3,-8295.51 22001.1,-8299.86L22007.2,-8337.19C22030,-8340.09 22053.3,-8340.09 22076.1,-8337.19L22082.2,-8299.86C22106,-8295.51 22128.6,-8287.39 22149,-8275.89L22183.8,-8298.56C22202.3,-8286.61 22218.7,-8272.4 22232.5,-8256.36L22206.4,-8226.23C22219.6,-8208.59 22229,-8188.97 22234,-8168.37L22277.1,-8163.09C22278.8,-8153.11 22279.7,-8143.04 22279.6,-8132.97C22242,-8132.86 22182.5,-8132.84 22117.2,-8132.86C22117.2,-8132.99 22117.2,-8133.12 22117.2,-8133.25C22117.2,-8169.34 22083.3,-8198.64 22041.6,-8198.64C22000,-8198.64 21966.1,-8169.34 21966.1,-8133.25C21966.1,-8133.16 21966.1,-8133.07 21966.1,-8132.98C21899.2,-8133.05 21839.1,-8133.14 21803.6,-8133.2Z" style="fill:rgb(166,168,171);stroke:black;stroke-width:3.7px;"/>
                    </g>
                </g>
                <g transform="matrix(0.792058,0,0,0.766769,20.5025,91.4132)">
                    <g transform="matrix(0.111878,0.071964,-7.17123e-18,0.166194,-2364.19,-37.0469)">
                        <path d="M21803.6,-8133.2C21803.6,-8143.19 21804.5,-8153.18 21806.2,-8163.09L21849.3,-8168.37C21854.3,-8188.97 21863.7,-8208.59 21876.9,-8226.23L21850.8,-8256.36C21864.6,-8272.4 21881,-8286.61 21899.5,-8298.56L21934.3,-8275.89C21954.7,-8287.39 21977.3,-8295.51 22001.1,-8299.86L22007.2,-8337.19C22030,-8340.09 22053.3,-8340.09 22076.1,-8337.19L22082.2,-8299.86C22106,-8295.51 22128.6,-8287.39 22149,-8275.89L22183.8,-8298.56C22202.3,-8286.61 22218.7,-8272.4 22232.5,-8256.36L22206.4,-8226.23C22219.6,-8208.59 22229,-8188.97 22234,-8168.37L22277.1,-8163.09C22278.8,-8153.11 22279.7,-8143.04 22279.6,-8132.97C22242,-8132.86 22182.5,-8132.84 22117.2,-8132.86C22117.2,-8132.99 22117.2,-8133.12 22117.2,-8133.25C22117.2,-8169.34 22083.3,-8198.64 22041.6,-8198.64C22000,-8198.64 21966.1,-8169.34 21966.1,-8133.25C21966.1,-8133.16 21966.1,-8133.07 21966.1,-8132.98C21899.2,-8133.05 21839.1,-8133.14 21803.6,-8133.2Z" style="fill:rgb(166,168,171);stroke:black;stroke-width:6.29px;"/>
                    </g>
                    <g transform="matrix(0.0993734,0,0,0.110714,-1805.38,0)">
                        <path d="M18802.6,1654.6L18893.1,1599.46L18923.7,1629.36L18851.6,1677.18L18802.6,1654.6Z" style="fill:rgb(208,210,211);stroke:black;stroke-width:10.69px;"/>
                    </g>
                    <g transform="matrix(0.0993734,0,0,0.110714,-1805.38,0)">
                        <path d="M18947.3,1571.04L19064.5,1506.1L19071,1544.35L19022.5,1578.49L18947.3,1571.04Z" style="fill:rgb(208,210,211);stroke:black;stroke-width:10.69px;"/>
                    </g>
                    <g transform="matrix(0.0993734,0,0,0.110714,-1805.38,0)">
                        <path d="M19336.1,2010.24L19459.8,1938.84L19459.8,1891.07L19336.1,1962.47L19336.1,2010.24Z" style="fill:rgb(128,129,132);stroke:black;stroke-width:10.69px;"/>
                    </g>
                    <g transform="matrix(0.0993734,0,0,0.110714,-1805.38,0)">
                        <path d="M19283.1,1794.22L19406.7,1722.82L19351.9,1627.79L19226.4,1699.72L19283.1,1794.22Z" style="fill:rgb(208,210,211);stroke:black;stroke-width:10.69px;"/>
                    </g>
                    <g transform="matrix(0.0993734,0,0,0.110714,-1805.38,0)">
                        <path d="M18908.1,1514.39L19031.8,1443L19071,1499.64L18947.3,1571.04L18908.1,1514.39Z" style="fill:rgb(208,210,211);stroke:black;stroke-width:10.69px;"/>
                    </g>
                    <g transform="matrix(0.0993734,0,0,0.110714,-1805.38,0)">
                        <path d="M19106.9,1571.18L19230.6,1499.8L19153,1455.01L19029.4,1526.41L19106.9,1571.18Z" style="fill:rgb(208,210,211);stroke:black;stroke-width:10.69px;"/>
                    </g>
                    <g transform="matrix(0.0993734,0,0,0.110714,-1805.38,0)">
                        <path d="M19113.8,1631.2L19237.5,1559.8L19230.6,1499.8L19107,1571.2L19113.8,1631.2Z" style="fill:rgb(128,129,132);stroke:black;stroke-width:10.69px;"/>
                    </g>
                    <g transform="matrix(0.0993734,0,0,0.110714,-1805.38,0)">
                        <path d="M19189,1710.61L19312.7,1639.21L19237.5,1559.8L19113.8,1631.2L19189,1710.61Z" style="fill:rgb(208,210,211);stroke:black;stroke-width:10.69px;"/>
                    </g>
                    <g transform="matrix(0.0993734,0,0,0.110714,-1805.38,0)">
                        <path d="M19189,1710.61L19312.7,1639.21L19351.9,1627.79L19229.4,1697.96L19189,1710.61Z" style="fill:rgb(208,210,211);stroke:black;stroke-width:10.69px;"/>
                    </g>
                    <g transform="matrix(0.0993734,0,0,0.110714,-1805.38,0)">
                        <path d="M19253.6,1822.43L19377.3,1751.03L19408.4,1855.88L19284.8,1927.28L19253.6,1822.43Z" style="fill:rgb(128,129,132);stroke:black;stroke-width:10.69px;"/>
                    </g>
                    <g transform="matrix(0.0993734,0,0,0.110714,-1805.38,0)">
                        <path d="M19334.5,1963.39L19458.7,1890.32L19407.9,1854.27L19284.4,1925.38L19334.5,1963.39Z" style="fill:rgb(208,210,211);stroke:black;stroke-width:10.69px;"/>
                    </g>
                    <g transform="matrix(0.0993734,0,0,0.110714,-1805.38,0)">
                        <path d="M18984.3,1806.56L19107.7,1735.13L19046.5,1696.38L18949.1,1762.33L18984.3,1806.56Z" style="fill:rgb(128,129,132);stroke:black;stroke-width:10.69px;"/>
                    </g>
                    <g transform="matrix(0.111878,0.071964,-7.17123e-18,0.166194,-2376.48,-29.142)">
                        <path d="M21803.6,-8133.2C21803.6,-8143.19 21804.5,-8153.18 21806.2,-8163.09L21849.3,-8168.37C21854.3,-8188.97 21863.7,-8208.59 21876.9,-8226.23L21850.8,-8256.36C21864.6,-8272.4 21881,-8286.61 21899.5,-8298.56L21934.3,-8275.89C21954.7,-8287.39 21977.3,-8295.51 22001.1,-8299.86L22007.2,-8337.19C22030,-8340.09 22053.3,-8340.09 22076.1,-8337.19L22082.2,-8299.86C22106,-8295.51 22128.6,-8287.39 22149,-8275.89L22183.8,-8298.56C22202.3,-8286.61 22218.7,-8272.4 22232.5,-8256.36L22206.4,-8226.23C22219.6,-8208.59 22229,-8188.97 22234,-8168.37L22277.1,-8163.09C22278.8,-8153.11 22279.7,-8143.04 22279.6,-8132.97C22242,-8132.86 22182.5,-8132.84 22117.2,-8132.86C22117.2,-8132.99 22117.2,-8133.12 22117.2,-8133.25C22117.2,-8169.34 22083.3,-8198.64 22041.6,-8198.64C22000,-8198.64 21966.1,-8169.34 21966.1,-8133.25C21966.1,-8133.16 21966.1,-8133.07 21966.1,-8132.98C21899.2,-8133.05 21839.1,-8133.14 21803.6,-8133.2Z" style="fill:rgb(166,168,171);stroke:black;stroke-width:6.29px;"/>
                    </g>
                </g>
                <g transform="matrix(1.91259,0,0,1.45349,-5.22614,-89.8211)">
                    <g transform="matrix(0.302111,-0.25571,0.348848,0.295269,83.2543,96.1548)">
                        <rect x="-208.294" y="203.914" width="13.582" height="11.763" style="fill:rgb(98,181,74);stroke:black;stroke-width:0.47px;"/>
                    </g>
                    <g transform="matrix(0.302111,-0.25571,0.348848,0.295269,81.2026,97.8914)">
                        <rect x="-160.756" y="174.507" width="6.791" height="5.881" style="fill:rgb(98,181,74);stroke:black;stroke-width:0.47px;"/>
                    </g>
                    <g transform="matrix(0.168887,0,0,0.511421,91.7128,110.457)">
                        <path d="M24.923,193.217C24.945,193.276 24.957,193.337 24.957,193.4C24.957,193.965 23.993,194.424 22.807,194.424C21.62,194.424 20.656,193.965 20.656,193.4C20.656,193.337 20.668,193.276 20.69,193.217L20.69,175.514L24.923,175.514L24.923,193.217Z" style="fill:rgb(192,97,0);stroke:black;stroke-width:0.79px;"/>
                    </g>
                    <g transform="matrix(0.302111,0.25571,-1.93649e-17,0.590538,81.2026,97.8914)">
                        <rect x="40.747" y="139.219" width="6.791" height="17.644" style="fill:rgb(78,145,59);stroke:black;stroke-width:0.47px;"/>
                    </g>
                    <g transform="matrix(-0.302111,0.25571,1.93649e-17,0.590538,109.927,97.8914)">
                        <rect x="40.747" y="139.219" width="6.791" height="17.644" style="fill:rgb(59,109,44);stroke:black;stroke-width:0.47px;"/>
                    </g>
                </g>
                <g transform="matrix(1.91259,0,0,1.45349,-136.312,-74.0111)">
                    <g transform="matrix(0.302111,-0.25571,0.348848,0.295269,83.2543,96.1548)">
                        <rect x="-208.294" y="203.914" width="13.582" height="11.763" style="fill:rgb(98,181,74);stroke:black;stroke-width:0.47px;"/>
                    </g>
                    <g transform="matrix(0.302111,-0.25571,0.348848,0.295269,81.2026,97.8914)">
                        <rect x="-160.756" y="174.507" width="6.791" height="5.881" style="fill:rgb(98,181,74);stroke:black;stroke-width:0.47px;"/>
                    </g>
                    <g transform="matrix(0.168887,0,0,0.511421,91.7128,110.457)">
                        <path d="M24.923,193.217C24.945,193.276 24.957,193.337 24.957,193.4C24.957,193.965 23.993,194.424 22.807,194.424C21.62,194.424 20.656,193.965 20.656,193.4C20.656,193.337 20.668,193.276 20.69,193.217L20.69,175.514L24.923,175.514L24.923,193.217Z" style="fill:rgb(192,97,0);stroke:black;stroke-width:0.79px;"/>
                    </g>
                    <g transform="matrix(0.302111,0.25571,-1.93649e-17,0.590538,81.2026,97.8914)">
                        <rect x="40.747" y="139.219" width="6.791" height="17.644" style="fill:rgb(78,145,59);stroke:black;stroke-width:0.47px;"/>
                    </g>
                    <g transform="matrix(-0.302111,0.25571,1.93649e-17,0.590538,109.927,97.8914)">
                        <rect x="40.747" y="139.219" width="6.791" height="17.644" style="fill:rgb(59,109,44);stroke:black;stroke-width:0.47px;"/>
                    </g>
                </g>
                <g transform="matrix(1.91259,0,0,1.45349,-17.5155,-97.726)">
                    <g transform="matrix(0.302111,-0.25571,0.348848,0.295269,83.2543,96.1548)">
                        <rect x="-208.294" y="203.914" width="13.582" height="11.763" style="fill:rgb(98,181,74);stroke:black;stroke-width:0.47px;"/>
                    </g>
                    <g transform="matrix(0.302111,-0.25571,0.348848,0.295269,81.2026,97.8914)">
                        <rect x="-160.756" y="174.507" width="6.791" height="5.881" style="fill:rgb(98,181,74);stroke:black;stroke-width:0.47px;"/>
                    </g>
                    <g transform="matrix(0.168887,0,0,0.511421,91.7128,110.457)">
                        <path d="M24.923,193.217C24.945,193.276 24.957,193.337 24.957,193.4C24.957,193.965 23.993,194.424 22.807,194.424C21.62,194.424 20.656,193.965 20.656,193.4C20.656,193.337 20.668,193.276 20.69,193.217L20.69,175.514L24.923,175.514L24.923,193.217Z" style="fill:rgb(192,97,0);stroke:black;stroke-width:0.79px;"/>
                    </g>
                    <g transform="matrix(0.302111,0.25571,-1.93649e-17,0.590538,81.2026,97.8914)">
                        <rect x="40.747" y="139.219" width="6.791" height="17.644" style="fill:rgb(78,145,59);stroke:black;stroke-width:0.47px;"/>
                    </g>
                    <g transform="matrix(-0.302111,0.25571,1.93649e-17,0.590538,109.927,97.8914)">
                        <rect x="40.747" y="139.219" width="6.791" height="17.644" style="fill:rgb(59,109,44);stroke:black;stroke-width:0.47px;"/>
                    </g>
                </g>
                <g transform="matrix(1.91259,0,0,1.45349,-148.602,-81.9161)">
                    <g transform="matrix(0.302111,-0.25571,0.348848,0.295269,83.2543,96.1548)">
                        <rect x="-208.294" y="203.914" width="13.582" height="11.763" style="fill:rgb(98,181,74);stroke:black;stroke-width:0.47px;"/>
                    </g>
                    <g transform="matrix(0.302111,-0.25571,0.348848,0.295269,81.2026,97.8914)">
                        <rect x="-160.756" y="174.507" width="6.791" height="5.881" style="fill:rgb(98,181,74);stroke:black;stroke-width:0.47px;"/>
                    </g>
                    <g transform="matrix(0.168887,0,0,0.511421,91.7128,110.457)">
                        <path d="M24.923,193.217C24.945,193.276 24.957,193.337 24.957,193.4C24.957,193.965 23.993,194.424 22.807,194.424C21.62,194.424 20.656,193.965 20.656,193.4C20.656,193.337 20.668,193.276 20.69,193.217L20.69,175.514L24.923,175.514L24.923,193.217Z" style="fill:rgb(192,97,0);stroke:black;stroke-width:0.79px;"/>
                    </g>
                    <g transform="matrix(0.302111,0.25571,-1.93649e-17,0.590538,81.2026,97.8914)">
                        <rect x="40.747" y="139.219" width="6.791" height="17.644" style="fill:rgb(78,145,59);stroke:black;stroke-width:0.47px;"/>
                    </g>
                    <g transform="matrix(-0.302111,0.25571,1.93649e-17,0.590538,109.927,97.8914)">
                        <rect x="40.747" y="139.219" width="6.791" height="17.644" style="fill:rgb(59,109,44);stroke:black;stroke-width:0.47px;"/>
                    </g>
                </g>
                <g transform="matrix(1.91259,0,0,1.45349,-29.8048,-105.631)">
                    <g transform="matrix(0.302111,-0.25571,0.348848,0.295269,83.2543,96.1548)">
                        <rect x="-208.294" y="203.914" width="13.582" height="11.763" style="fill:rgb(98,181,74);stroke:black;stroke-width:0.47px;"/>
                    </g>
                    <g transform="matrix(0.302111,-0.25571,0.348848,0.295269,81.2026,97.8914)">
                        <rect x="-160.756" y="174.507" width="6.791" height="5.881" style="fill:rgb(98,181,74);stroke:black;stroke-width:0.47px;"/>
                    </g>
                    <g transform="matrix(0.168887,0,0,0.511421,91.7128,110.457)">
                        <path d="M24.923,193.217C24.945,193.276 24.957,193.337 24.957,193.4C24.957,193.965 23.993,194.424 22.807,194.424C21.62,194.424 20.656,193.965 20.656,193.4C20.656,193.337 20.668,193.276 20.69,193.217L20.69,175.514L24.923,175.514L24.923,193.217Z" style="fill:rgb(192,97,0);stroke:black;stroke-width:0.79px;"/>
                    </g>
                    <g transform="matrix(0.302111,0.25571,-1.93649e-17,0.590538,81.2026,97.8914)">
                        <rect x="40.747" y="139.219" width="6.791" height="17.644" style="fill:rgb(78,145,59);stroke:black;stroke-width:0.47px;"/>
                    </g>
                    <g transform="matrix(-0.302111,0.25571,1.93649e-17,0.590538,109.927,97.8914)">
                        <rect x="40.747" y="139.219" width="6.791" height="17.644" style="fill:rgb(59,109,44);stroke:black;stroke-width:0.47px;"/>
                    </g>
                </g>
                <g transform="matrix(1.91259,0,0,1.45349,-160.891,-89.8211)">
                    <g transform="matrix(0.302111,-0.25571,0.348848,0.295269,83.2543,96.1548)">
                        <rect x="-208.294" y="203.914" width="13.582" height="11.763" style="fill:rgb(98,181,74);stroke:black;stroke-width:0.47px;"/>
                    </g>
                    <g transform="matrix(0.302111,-0.25571,0.348848,0.295269,81.2026,97.8914)">
                        <rect x="-160.756" y="174.507" width="6.791" height="5.881" style="fill:rgb(98,181,74);stroke:black;stroke-width:0.47px;"/>
                    </g>
                    <g transform="matrix(0.168887,0,0,0.511421,91.7128,110.457)">
                        <path d="M24.923,193.217C24.945,193.276 24.957,193.337 24.957,193.4C24.957,193.965 23.993,194.424 22.807,194.424C21.62,194.424 20.656,193.965 20.656,193.4C20.656,193.337 20.668,193.276 20.69,193.217L20.69,175.514L24.923,175.514L24.923,193.217Z" style="fill:rgb(192,97,0);stroke:black;stroke-width:0.79px;"/>
                    </g>
                    <g transform="matrix(0.302111,0.25571,-1.93649e-17,0.590538,81.2026,97.8914)">
                        <rect x="40.747" y="139.219" width="6.791" height="17.644" style="fill:rgb(78,145,59);stroke:black;stroke-width:0.47px;"/>
                    </g>
                    <g transform="matrix(-0.302111,0.25571,1.93649e-17,0.590538,109.927,97.8914)">
                        <rect x="40.747" y="139.219" width="6.791" height="17.644" style="fill:rgb(59,109,44);stroke:black;stroke-width:0.47px;"/>
                    </g>
                </g>
                <g transform="matrix(0.0860598,-0.0553569,0.0993734,0.0639207,-1805.38,0)">
                    <ellipse cx="9153.47" cy="11656.2" rx="95.2" ry="82.446" style="fill:rgb(98,181,74);stroke:black;stroke-width:6.31px;"/>
                </g>
                <g transform="matrix(0.0860598,-0.0553569,0.0993734,0.0639207,-1805.38,0)">
                    <path d="M9153.47,11573.7L9163.5,11635.2L9195.91,11619.4L9177.69,11647.5L9248.67,11656.2L9177.69,11664.9L9195.91,11692.9L9163.5,11677.1L9153.47,11738.6L9143.44,11677.1L9111.03,11692.9L9129.25,11664.9L9058.27,11656.2L9129.25,11647.5L9111.03,11619.4L9143.44,11635.2L9153.47,11573.7Z" style="fill:rgb(98,181,74);stroke:black;stroke-width:6.31px;"/>
                </g>
            </g>
        </g>
    </g>
</svg>
