<?xml version="1.0" encoding="UTF-8" standalone="no"?><!DOCTYPE svg PUBLIC "-//W3C//DTD SVG 1.1//EN" "http://www.w3.org/Graphics/SVG/1.1/DTD/svg11.dtd"><svg width="100%" height="100%" viewBox="0 0 484 426" version="1.1" xmlns="http://www.w3.org/2000/svg" xmlns:xlink="http://www.w3.org/1999/xlink" xml:space="preserve" xmlns:serif="http://www.serif.com/" style="fill-rule:evenodd;clip-rule:evenodd;stroke-linecap:round;stroke-linejoin:round;stroke-miterlimit:1.5;"><rect id="novaterraprime_tile_2" x="0.184" y="0.016" width="483.027" height="425.317" style="fill:none;"/><clipPath id="_clip1"><rect x="0.184" y="0.016" width="483.027" height="425.317"/></clipPath><g clip-path="url(#_clip1)"><g id="tilebase"><path d="M482.52,240.98l0,45.437l-240.069,138.604l0,-45.437l240.069,-138.604Z" style="fill:#808184;stroke:#000;stroke-width:3px;"/><path d="M242.451,379.355l0,45.552l-239.871,-138.49l0,-45.551l239.871,138.489Z" style="fill:#a6a8ab;stroke:#000;stroke-width:3px;"/><path d="M242.649,102.422l239.931,138.524l-239.931,138.524l-239.93,-138.524l239.93,-138.524Z" style="fill:#d0d2d3;stroke:#000;stroke-width:3px;"/></g><path d="M191.545,202.566l0,22.848l39.574,-22.848l-19.787,-11.424l-19.787,11.424Z" style="fill:#3b6d2c;stroke:#000;stroke-width:3px;"/><path d="M191.545,225.414l0,57.12l-89.041,-51.408l0,-57.12l89.041,51.408Z" style="fill:#a6a8ab;stroke:#000;stroke-width:3px;"/><path d="M191.545,225.414l0,57.12l39.574,-22.848l0,-57.12l-39.574,22.848Z" style="fill:#808184;stroke:#000;stroke-width:3px;"/><path d="M300.374,162.582l9.893,-5.712l0,-11.424l-108.828,-62.832c-0,-0 4.823,8.639 -9.894,17.136l108.829,62.832Z" style="fill:#4e913b;stroke:#000;stroke-width:3px;"/><path d="M310.267,145.446c0,-0 0.683,11.029 -9.893,17.136c-10.577,6.106 39.574,-22.848 39.574,-22.848c-0,-0 -10.27,2.906 -9.894,-5.712l-19.787,11.424Z" style="fill:#3b6d2c;stroke:#000;stroke-width:3px;"/><path d="M221.226,71.19l108.828,62.832l-19.787,11.424l-108.828,-62.832l19.787,-11.424Z" style="fill:#62b54a;stroke:#000;stroke-width:3px;"/><path d="M300.374,162.582l-0,57.12l-108.829,-62.832l0,-57.12l108.829,62.832Z" style="fill:#a6a8ab;stroke:#000;stroke-width:3px;"/><path d="M339.948,196.854l-79.148,45.696l-0,-11.424l39.574,-22.848l-0,-45.696l39.574,-22.848l-0,57.12Z" style="fill:#808184;stroke:#000;stroke-width:3px;"/><path d="M204.472,118.637c0,1.367 0.73,2.63 1.914,3.314l-0,32.063l-4.947,-2.856l-0,-32.103c0.387,0.224 0.865,0.224 1.253,0c0.387,-0.224 0.626,-0.637 0.626,-1.085c0.378,0.218 0.775,0.448 1.154,0.667Z"/><path d="M214.366,124.349c-0,1.367 0.729,2.63 1.913,3.314l0,32.063l-4.947,-2.856l0,-32.103c0.388,0.224 0.865,0.224 1.253,0c0.388,-0.224 0.626,-0.637 0.626,-1.085c0.378,0.218 0.776,0.448 1.155,0.667Z"/><path d="M224.259,130.061c0,1.367 0.73,2.63 1.914,3.314l-0,32.063l-4.947,-2.856l-0,-32.103c0.387,0.224 0.865,0.224 1.252,0c0.388,-0.224 0.627,-0.637 0.627,-1.085c0.378,0.218 0.775,0.448 1.154,0.667Z"/><path d="M234.153,135.773c-0,1.367 0.729,2.63 1.913,3.314l0,32.063l-4.947,-2.856l0,-32.103c0.388,0.224 0.865,0.224 1.253,0c0.387,-0.224 0.626,-0.637 0.626,-1.085c0.378,0.218 0.776,0.448 1.155,0.667Z"/><path d="M244.046,141.485c0,1.367 0.73,2.63 1.914,3.314l-0,32.063l-4.947,-2.856l-0,-32.103c0.387,0.224 0.865,0.224 1.252,0c0.388,-0.224 0.627,-0.637 0.627,-1.085c0.378,0.218 0.775,0.448 1.154,0.667Z"/><path d="M253.94,147.197c-0,1.367 0.729,2.63 1.913,3.314l0,32.063l-4.947,-2.856l0,-32.103c0.388,0.224 0.865,0.224 1.253,0c0.387,-0.224 0.626,-0.637 0.626,-1.085c0.378,0.218 0.776,0.448 1.155,0.667Z"/><path d="M263.833,152.909c0,1.367 0.73,2.63 1.913,3.314l0,32.063l-4.946,-2.856l-0,-32.103c0.387,0.224 0.865,0.224 1.252,0c0.388,-0.224 0.627,-0.637 0.627,-1.085c0.378,0.218 0.775,0.448 1.154,0.667Z"/><path d="M273.727,158.621c-0,1.367 0.729,2.63 1.913,3.314l-0,32.063l-4.947,-2.856l0,-32.103c0.388,0.224 0.865,0.224 1.253,0c0.387,-0.224 0.626,-0.637 0.626,-1.085c0.378,0.218 0.776,0.448 1.155,0.667Z"/><path d="M283.62,164.333c0,1.367 0.73,2.63 1.913,3.314l0,32.063l-4.946,-2.856l-0,-32.103c0.387,0.224 0.865,0.224 1.252,0c0.388,-0.224 0.627,-0.637 0.627,-1.085c0.378,0.218 0.775,0.448 1.154,0.667Z"/><path d="M312.18,167.189c0,1.367 -0.729,2.63 -1.913,3.314l0,32.063l4.947,-2.856l-0,-32.103c-0.388,0.224 -0.865,0.224 -1.253,0c-0.387,-0.224 -0.626,-0.637 -0.626,-1.085c-0.378,0.218 -0.776,0.448 -1.155,0.667Z"/><path d="M331.967,155.765c0,1.367 -0.729,2.63 -1.913,3.314l0,32.063l4.947,-2.856l-0,-32.103c-0.388,0.224 -0.865,0.224 -1.253,0c-0.387,-0.224 -0.626,-0.637 -0.626,-1.085c-0.378,0.218 -0.776,0.448 -1.155,0.667Z"/><path d="M322.074,172.901c-0,1.367 -0.729,2.63 -1.913,3.314l-0,32.063l4.946,-2.856l0,-32.103c-0.387,0.224 -0.865,0.224 -1.252,0c-0.388,-0.224 -0.627,-0.637 -0.627,-1.085c-0.377,0.218 -0.775,0.448 -1.154,0.667Z"/><path d="M102.504,231.126l0,34.272l-29.68,-17.136l-0,-34.272l29.68,17.136Z" style="fill:#a6a8ab;stroke:#000;stroke-width:3px;"/><path d="M211.332,293.958l0,34.272l-29.68,-17.136l-0,-34.272l29.68,17.136Z" style="fill:#a6a8ab;stroke:#000;stroke-width:3px;"/><path d="M102.504,231.126l0,34.272l29.681,-17.136l-0,-34.272l-29.681,17.136Z" style="fill:#808184;stroke:#000;stroke-width:3px;"/><path d="M211.332,293.958l0,34.272l59.361,-34.272l0,-34.272l-59.361,34.272Z" style="fill:#808184;stroke:#000;stroke-width:3px;"/><path d="M102.504,196.854l19.787,11.424l-19.787,11.424l-19.787,-11.424l19.787,-11.424Z" style="fill:#62b54a;stroke:#000;stroke-width:3px;"/><path d="M241.013,242.55l19.787,11.424l-49.468,28.56l-19.787,-11.424l49.468,-28.56Z" style="fill:#62b54a;stroke:#000;stroke-width:3px;"/><path d="M102.504,219.702l0,11.424l-29.68,-17.136l9.893,-5.712l19.787,11.424Z" style="fill:#4e913b;stroke:#000;stroke-width:3px;"/><path d="M211.332,282.534l0,11.424l-29.68,-17.136l9.893,-5.712l19.787,11.424Z" style="fill:#4e913b;stroke:#000;stroke-width:3px;"/><path d="M102.504,219.702l0,11.424l29.681,-17.136l-9.894,-5.712l-19.787,11.424Z" style="fill:#3b6d2c;stroke:#000;stroke-width:3px;"/><path d="M211.332,282.534l0,11.424l59.361,-34.272l-9.893,-5.712l-49.468,28.56Z" style="fill:#3b6d2c;stroke:#000;stroke-width:3px;"/><path d="M83.619,231.646c0.972,0.562 1.572,1.599 1.572,2.723c-0,3.223 -0,9.609 -0,9.609l-4.947,-2.856l-0,-8.392c-0,-0.625 0.334,-1.203 0.875,-1.516c0.542,-0.313 1.21,-0.313 1.751,-0c0.256,0.147 0.509,0.293 0.749,0.432Z"/><path d="M192.447,294.478c0.973,0.562 1.572,1.599 1.572,2.723c-0,3.223 -0,9.609 -0,9.609l-4.947,-2.856l0,-8.392c0,-0.625 0.334,-1.203 0.876,-1.516c0.541,-0.313 1.209,-0.313 1.751,-0c0.255,0.147 0.508,0.293 0.748,0.432Z"/><path d="M93.512,237.358c0.973,0.562 1.572,1.599 1.572,2.723c0,3.223 0,9.609 0,9.609l-4.947,-2.856l0,-8.392c0,-0.625 0.334,-1.203 0.876,-1.516c0.542,-0.313 1.209,-0.313 1.751,-0c0.255,0.147 0.508,0.293 0.748,0.432Z"/><path d="M202.34,300.19c0.973,0.562 1.572,1.599 1.572,2.723c0,3.223 0,9.609 0,9.609l-4.946,-2.856l-0,-8.392c-0,-0.625 0.333,-1.203 0.875,-1.516c0.542,-0.313 1.209,-0.313 1.751,-0c0.255,0.147 0.508,0.293 0.748,0.432Z"/><path d="M178.64,240.811c1.864,1.076 3.012,3.064 3.012,5.216c-0,8.716 -0,30.795 -0,30.795l-9.894,-5.712c0,-0 0,-21.516 0,-30.452c0,-0.788 0.421,-1.516 1.103,-1.91c0.683,-0.394 1.523,-0.394 2.206,-0c1.155,0.666 2.444,1.411 3.573,2.063Z"/><path d="M203.011,230.218c-0.973,0.562 -1.572,1.599 -1.572,2.723c-0,7.081 -0,32.457 -0,32.457l4.947,-2.856c-0,-0 -0,-22.859 -0,-31.24c-0,-0.625 -0.334,-1.203 -0.876,-1.516c-0.542,-0.313 -1.209,-0.313 -1.751,-0c-0.255,0.147 -0.508,0.293 -0.748,0.432Z"/><path d="M217.851,221.65c-0.973,0.562 -1.572,1.599 -1.572,2.723c0,7.081 0,32.457 0,32.457l4.947,-2.856c-0,-0 -0,-22.859 -0,-31.24c-0,-0.625 -0.334,-1.203 -0.876,-1.516c-0.541,-0.313 -1.209,-0.313 -1.751,-0c-0.255,0.147 -0.508,0.293 -0.748,0.432Z"/><path d="M165.24,221.65c0.973,0.562 1.572,1.599 1.572,2.723c-0,7.081 -0,32.457 -0,32.457l-4.947,-2.856c0,-0 0,-22.859 0,-31.24c0,-0.625 0.334,-1.203 0.876,-1.516c0.541,-0.313 1.209,-0.313 1.751,-0c0.255,0.147 0.508,0.293 0.748,0.432Z"/><path d="M155.346,215.938c0.973,0.562 1.572,1.599 1.572,2.723c0,7.081 0,32.457 0,32.457l-4.946,-2.856c-0,-0 -0,-22.859 -0,-31.24c-0,-0.625 0.333,-1.203 0.875,-1.516c0.542,-0.313 1.209,-0.313 1.751,-0c0.255,0.147 0.508,0.293 0.748,0.432Z"/><path d="M145.453,210.226c0.973,0.562 1.572,1.599 1.572,2.723c-0,7.081 -0,32.457 -0,32.457l-4.947,-2.856c0,-0 0,-22.859 0,-31.24c0,-0.625 0.334,-1.203 0.876,-1.516c0.541,-0.313 1.209,-0.313 1.751,-0c0.255,0.147 0.508,0.293 0.748,0.432Z"/><path d="M111.496,237.358c-0.972,0.562 -1.572,1.599 -1.572,2.723c0,3.223 0,9.609 0,9.609l4.947,-2.856l0,-8.392c0,-0.625 -0.334,-1.203 -0.876,-1.516c-0.541,-0.313 -1.209,-0.313 -1.751,-0c-0.255,0.147 -0.508,0.293 -0.748,0.432Z"/><path d="M250.005,283.054c-0.973,0.562 -1.572,1.599 -1.572,2.723c-0,3.223 -0,9.609 -0,9.609l4.947,-2.856l-0,-8.392c-0,-0.625 -0.334,-1.203 -0.876,-1.516c-0.542,-0.313 -1.209,-0.313 -1.751,-0c-0.255,0.147 -0.508,0.293 -0.748,0.432Z"/><path d="M240.111,288.766c-0.972,0.562 -1.572,1.599 -1.572,2.723c0,3.223 0,9.609 0,9.609l4.947,-2.856l0,-8.392c0,-0.625 -0.334,-1.203 -0.875,-1.516c-0.542,-0.313 -1.21,-0.313 -1.751,-0c-0.256,0.147 -0.509,0.293 -0.749,0.432Z"/><path d="M230.218,294.478c-0.973,0.562 -1.572,1.599 -1.572,2.723c-0,3.223 -0,9.609 -0,9.609l4.947,-2.856l-0,-8.392c-0,-0.625 -0.334,-1.203 -0.876,-1.516c-0.542,-0.313 -1.209,-0.313 -1.751,-0c-0.255,0.147 -0.508,0.293 -0.748,0.432Z"/><path d="M220.324,300.19c-0.972,0.562 -1.572,1.599 -1.572,2.723c0,3.223 0,9.609 0,9.609l4.947,-2.856l0,-8.392c0,-0.625 -0.334,-1.203 -0.875,-1.516c-0.542,-0.313 -1.21,-0.313 -1.751,-0c-0.256,0.147 -0.509,0.293 -0.749,0.432Z"/><path d="M121.39,231.646c-0.973,0.562 -1.572,1.599 -1.572,2.723c-0,3.223 -0,9.609 -0,9.609l4.946,-2.856l0,-8.392c0,-0.625 -0.333,-1.203 -0.875,-1.516c-0.542,-0.313 -1.209,-0.313 -1.751,-0c-0.255,0.147 -0.508,0.293 -0.748,0.432Z"/><path d="M259.898,277.342c-0.972,0.562 -1.572,1.599 -1.572,2.723c0,3.223 0,9.609 0,9.609l4.947,-2.856l0,-8.392c0,-0.625 -0.334,-1.203 -0.875,-1.516c-0.542,-0.313 -1.21,-0.313 -1.751,-0c-0.256,0.147 -0.509,0.293 -0.749,0.432Z"/><path d="M142.078,151.158l69.254,39.984l-19.787,11.424l-69.254,-39.984l19.787,-11.424Z" style="fill:#62b54a;stroke:#000;stroke-width:3px;"/><path d="M191.545,202.566l0,22.848l-89.041,-51.408l19.787,-11.424l69.254,39.984Z" style="fill:#4e913b;stroke:#000;stroke-width:3px;"/><path d="M132.185,199.138c1.638,0.946 2.968,3.25 2.968,5.141c-0,1.892 -1.33,2.659 -2.968,1.714c-1.639,-0.946 -2.968,-3.25 -2.968,-5.141c-0,-1.892 1.329,-2.659 2.968,-1.714Z"/><path d="M122.291,192.996c1.638,0.946 2.968,3.249 2.968,5.141c0,1.891 -1.33,2.659 -2.968,1.713c-1.638,-0.946 -2.968,-3.249 -2.968,-5.141c0,-1.891 1.33,-2.659 2.968,-1.713Z"/><path d="M112.398,187.714c1.638,0.946 2.968,3.25 2.968,5.141c-0,1.892 -1.33,2.659 -2.968,1.714c-1.638,-0.946 -2.968,-3.25 -2.968,-5.141c-0,-1.892 1.33,-2.659 2.968,-1.714Z"/><path d="M290.48,305.382l0,34.272l-29.68,-17.136l-0,-34.272l29.68,17.136Z" style="fill:#a6a8ab;stroke:#000;stroke-width:3px;"/><path d="M290.48,305.382l0,34.272l29.681,-17.136l-0,-34.272l-29.681,17.136Z" style="fill:#808184;stroke:#000;stroke-width:3px;"/><path d="M290.48,293.958l0,11.424l-29.68,-17.136l9.893,-5.712l19.787,11.424Z" style="fill:#4e913b;stroke:#000;stroke-width:3px;"/><path d="M271.595,305.902c0.972,0.562 1.572,1.599 1.572,2.723c-0,3.223 -0,9.609 -0,9.609l-4.947,-2.856l-0,-8.392c-0,-0.625 0.334,-1.203 0.875,-1.516c0.542,-0.313 1.21,-0.313 1.751,-0c0.256,0.147 0.509,0.293 0.749,0.432Z"/><path d="M281.488,311.614c0.973,0.562 1.572,1.599 1.572,2.723c0,3.223 0,9.609 0,9.609l-4.947,-2.856l0,-8.392c0,-0.625 0.334,-1.203 0.876,-1.516c0.542,-0.313 1.209,-0.313 1.751,-0c0.255,0.147 0.508,0.293 0.748,0.432Z"/><path d="M299.472,311.614c-0.972,0.562 -1.572,1.599 -1.572,2.723c0,3.223 0,9.609 0,9.609l4.947,-2.856l0,-8.392c0,-0.625 -0.334,-1.203 -0.876,-1.516c-0.541,-0.313 -1.209,-0.313 -1.751,-0c-0.255,0.147 -0.508,0.293 -0.748,0.432Z"/><path d="M309.366,305.902c-0.973,0.562 -1.572,1.599 -1.572,2.723c-0,3.223 -0,9.609 -0,9.609l4.946,-2.856l0,-8.392c0,-0.625 -0.333,-1.203 -0.875,-1.516c-0.542,-0.313 -1.209,-0.313 -1.751,-0c-0.255,0.147 -0.508,0.293 -0.748,0.432Z"/><path d="M290.48,271.11l19.787,11.424l-19.787,11.424l-19.787,-11.424l19.787,-11.424Z" style="fill:#62b54a;stroke:#000;stroke-width:3px;"/><path d="M290.48,293.958l0,11.424l29.681,-17.136l-9.894,-5.712l-19.787,11.424Z" style="fill:#3b6d2c;stroke:#000;stroke-width:3px;"/><path d="M399.308,253.974l0,22.848l-69.254,-39.984l0,-22.848l69.254,39.984Z" style="fill:#a6a8ab;stroke:#000;stroke-width:3px;"/><path d="M334.011,275.686c0.593,2.428 -0.726,4.982 -3.957,6.848c-5.46,3.152 -14.327,3.152 -19.787,-0c-2.765,-1.597 -4.13,-3.698 -4.094,-5.792l-0,-11.344l27.838,-0l0,10.288Z" style="fill:#d0d2d3;stroke:#000;stroke-width:3px;"/><path d="M310.267,259.686c5.46,-3.153 14.327,-3.153 19.787,-0c5.46,3.152 5.46,8.271 0,11.424c-5.46,3.152 -14.327,3.152 -19.787,-0c-5.46,-3.153 -5.46,-8.272 0,-11.424Z" style="fill:#d0d2d3;stroke:#000;stroke-width:3px;"/><path d="M314.225,261.97c3.276,-1.891 8.595,-1.891 11.872,0c3.276,1.892 3.276,4.963 -0,6.855c-3.277,1.891 -8.596,1.891 -11.872,-0c-3.277,-1.892 -3.277,-4.963 -0,-6.855Z"/><path d="M350.742,231.646c0.973,0.562 1.572,1.599 1.572,2.723c0,3.223 0,9.609 0,9.609l-4.946,-2.856l-0,-8.392c-0,-0.625 0.333,-1.203 0.875,-1.516c0.542,-0.313 1.209,-0.313 1.751,-0c0.255,0.147 0.508,0.293 0.748,0.432Z"/><path d="M340.849,225.934c0.973,0.562 1.572,1.599 1.572,2.723c-0,3.223 -0,9.609 -0,9.609l-4.947,-2.856l0,-8.392c0,-0.625 0.334,-1.203 0.876,-1.516c0.541,-0.313 1.209,-0.313 1.751,-0c0.255,0.147 0.508,0.293 0.748,0.432Z"/><path d="M428.989,236.838l-0,22.848l-49.468,28.56l0,-22.848l49.468,-28.56Z" style="fill:#808184;stroke:#000;stroke-width:3px;"/><path d="M359.734,231.126l-29.68,-17.136l29.68,-17.136l69.255,39.984l-49.468,28.56l-39.573,-22.848l19.786,-11.424Z" style="fill:#d0d2d3;stroke:#000;stroke-width:3px;"/><path d="M379.521,265.398l0,22.848l-39.573,-22.848l-0,-22.848l39.573,22.848Z" style="fill:#a6a8ab;stroke:#000;stroke-width:3px;"/><path d="M379.521,253.974l-19.787,-11.424l9.894,-28.56l9.893,39.984Z" style="fill:#4e913b;stroke:#000;stroke-width:3px;"/><path d="M379.521,253.974l29.681,-17.136l-9.894,-39.984l-29.68,17.136l9.893,39.984Z" style="fill:#3b6d2c;stroke:#000;stroke-width:3px;"/><path d="M388.514,265.918c-0.973,0.562 -1.572,1.599 -1.572,2.723c-0,3.223 -0,9.609 -0,9.609l4.946,-2.856l0,-8.392c0,-0.625 -0.333,-1.203 -0.875,-1.516c-0.542,-0.313 -1.209,-0.313 -1.751,-0c-0.255,0.147 -0.509,0.293 -0.748,0.432Z"/><path d="M398.407,260.206c-0.973,0.562 -1.572,1.599 -1.572,2.723c0,3.223 0,9.609 0,9.609l4.947,-2.856l-0,-8.392c-0,-0.625 -0.334,-1.203 -0.876,-1.516c-0.542,-0.313 -1.209,-0.313 -1.751,-0c-0.255,0.147 -0.508,0.293 -0.748,0.432Z"/><path d="M408.301,254.494c-0.973,0.562 -1.573,1.599 -1.573,2.723c0,3.223 0,9.609 0,9.609l4.947,-2.856l0,-8.392c0,-0.625 -0.334,-1.203 -0.875,-1.516c-0.542,-0.313 -1.21,-0.313 -1.751,-0c-0.256,0.147 -0.509,0.293 -0.748,0.432Z"/><path d="M370.529,265.918c0.973,0.562 1.572,1.599 1.572,2.723c0,3.223 0,9.609 0,9.609l-4.946,-2.856l-0,-8.392c-0,-0.625 0.333,-1.203 0.875,-1.516c0.542,-0.313 1.209,-0.313 1.751,-0c0.255,0.147 0.508,0.293 0.748,0.432Z"/><path d="M360.636,260.206c0.973,0.562 1.572,1.599 1.572,2.723c-0,3.223 -0,9.609 -0,9.609l-4.947,-2.856l0,-8.392c0,-0.625 0.334,-1.203 0.876,-1.516c0.541,-0.313 1.209,-0.313 1.751,-0c0.255,0.147 0.508,0.293 0.748,0.432Z"/><path d="M350.742,254.494c0.973,0.562 1.572,1.599 1.572,2.723c0,3.223 0,9.609 0,9.609l-4.946,-2.856l-0,-8.392c-0,-0.625 0.333,-1.203 0.875,-1.516c0.542,-0.313 1.209,-0.313 1.751,-0c0.255,0.147 0.508,0.293 0.748,0.432Z"/><path d="M418.194,248.782c-0.973,0.562 -1.572,1.599 -1.572,2.723c-0,3.223 -0,9.609 -0,9.609l4.947,-2.856l-0,-8.392c-0,-0.625 -0.334,-1.203 -0.876,-1.516c-0.542,-0.313 -1.209,-0.313 -1.751,-0c-0.255,0.147 -0.508,0.293 -0.748,0.432Z"/><path d="M260.8,231.126l-0,11.424l-9.894,-5.712l0,-11.424l9.894,5.712Z" style="fill:#a6a8ab;stroke:#000;stroke-width:3px;"/><path d="M290.48,202.566l9.894,5.712l-39.574,22.848l-9.894,-5.712l39.574,-22.848Z" style="fill:#d0d2d3;stroke:#000;stroke-width:3px;"/></g></svg>